<svg width="24" height="24" viewBox="0 0 24 24" fill="none" xmlns="http://www.w3.org/2000/svg">
<g id="Amazon" clip-path="url(#clip0_1328_4847)">
<path id="Vector" d="M20.4 0H3.6C1.61177 0 0 1.61177 0 3.6V20.4C0 22.3882 1.61177 24 3.6 24H20.4C22.3882 24 24 22.3882 24 20.4V3.6C24 1.61177 22.3882 0 20.4 0Z" fill="#FF9900"/>
<path id="Vector_2" d="M18.8907 17.2035C14.2969 20.4379 7.21878 20.2973 2.71878 16.0316C2.53128 15.891 2.71878 15.6566 2.90628 15.7973C5.26862 17.1665 7.91678 17.9681 10.6419 18.139C13.367 18.3098 16.0946 17.8451 18.6094 16.7816C18.8907 16.641 19.2188 17.016 18.8907 17.2035Z" fill="white"/>
<path id="Vector_3" d="M13.2656 8.76583C10.3594 8.85958 7.59375 9.65645 7.59375 12.5627C7.59375 14.5783 8.8125 15.5627 10.4531 15.5627C11.9063 15.5627 12.8438 15.0002 13.6406 14.1565C14.0156 14.6721 14.1094 14.9065 14.7656 15.4221C14.9063 15.5158 15.1406 15.5158 15.2344 15.3752L16.6875 14.1096C16.875 13.969 16.7812 13.7346 16.6875 13.6408C16.3594 13.1252 15.9844 12.7502 15.9844 11.8127V8.8127C15.9844 7.54708 16.0781 6.3752 15.1406 5.53145C14.3438 4.78145 13.3594 4.59395 12.2344 4.54708C9.75 4.5002 8.10938 5.85958 7.875 7.45333C7.82813 7.73458 8.0625 7.8752 8.20313 7.8752L9.9375 8.10958C10.2188 8.15645 10.3594 7.92208 10.4063 7.73458C10.6875 6.70333 11.7656 6.42208 12.4219 6.65645C13.3594 6.9377 13.2656 8.01583 13.2656 8.76583ZM11.5781 13.6877C10.875 13.6877 10.4063 13.0783 10.4063 12.2815C10.4531 10.594 11.7656 10.3127 13.2656 10.3127V11.1565C13.2656 12.6565 12.4688 13.6877 11.5781 13.6877Z" fill="black"/>
<path id="Vector_4" d="M20.625 15.9847C20.6719 16.8754 20.0625 18.141 19.4531 18.6566C19.2656 18.7972 19.0781 18.7504 19.1719 18.516C19.3594 17.9535 19.9219 16.641 19.7344 16.3129C19.5 15.9379 17.9063 16.1254 17.3906 16.2191C17.25 16.2191 17.2031 16.1254 17.3438 15.9847C18.0938 15.2816 19.6406 15.3285 20.25 15.516C20.5781 15.6097 20.625 15.6566 20.625 15.9847Z" fill="white"/>
</g>
<defs>
<clipPath id="clip0_1328_4847">
<rect width="24" height="24" fill="white"/>
</clipPath>
</defs>
</svg>
