<svg width="160" height="164" viewBox="0 0 160 164" fill="none" xmlns="http://www.w3.org/2000/svg">
  <g clip-path="url(#clip0_9486_70238)">
    <path d="M34.6275 90.9409L79.9609 117.337V81.4807L34.5361 55.2852L34.6275 90.9409Z" fill="#CFDEDB"/>
    <path d="M79.9604 117.565C79.9205 117.565 79.8805 117.555 79.845 117.534L34.5116 91.1382C34.4411 91.0971 34.3977 91.0218 34.3975 90.9403L34.3062 55.2844C34.3062 55.2024 34.3495 55.1264 34.4207 55.0851C34.4919 55.044 34.5791 55.0438 34.6505 55.0851L80.0754 81.2807C80.1466 81.3215 80.1902 81.3975 80.1902 81.4795V117.336C80.1902 117.418 80.1464 117.494 80.0752 117.535C80.0398 117.555 80.0001 117.565 79.9607 117.565H79.9604ZM34.8562 90.8077L79.7309 116.936V81.6119L34.7662 55.6817L34.8564 90.8074L34.8562 90.8077Z" fill="#1C3333"/>
    <path d="M34.5703 55.2758L79.9953 81.4711L114.447 61.7195L68.9032 35.5938L34.5703 55.2758Z" fill="white"/>
    <path d="M79.9948 81.7017C79.9554 81.7017 79.9156 81.6913 79.8801 81.6709L34.4551 55.4754C34.3839 55.4343 34.3401 55.3583 34.3403 55.2763C34.3406 55.1944 34.3844 55.1184 34.4556 55.0776L68.7884 35.3957C68.8594 35.3551 68.9461 35.3551 69.0168 35.3957L114.561 61.5215C114.632 61.5623 114.676 61.6383 114.676 61.7205C114.676 61.8027 114.632 61.8787 114.561 61.9197L80.1089 81.6714C80.0736 81.6916 80.0341 81.7019 79.9946 81.7019L79.9948 81.7017ZM35.0306 55.2773L79.9953 81.2072L113.985 61.7203L68.9028 35.8592L35.0304 55.277L35.0306 55.2773Z" fill="#1C3333"/>
    <path d="M79.9863 117.315L114.316 97.4207L114.438 61.7075L79.9863 81.4589V117.315Z" fill="white"/>
    <path d="M79.9864 117.546C79.9469 117.546 79.9072 117.536 79.8716 117.515C79.8005 117.474 79.7568 117.398 79.7568 117.316V81.46C79.7568 81.3778 79.8009 81.3018 79.8721 81.2609L114.324 61.5093C114.395 61.4687 114.482 61.4689 114.553 61.51C114.624 61.5513 114.668 61.6271 114.667 61.7092L114.546 97.4224C114.546 97.5039 114.502 97.5794 114.431 97.6203L80.1012 117.515C80.0656 117.536 80.0259 117.546 79.9862 117.546H79.9864ZM80.2159 81.5929V116.918L114.087 97.289L114.207 62.1054L80.2159 81.5931V81.5929Z" fill="#1C3333"/>
    <path d="M0.321289 110.78L45.6547 137.176L45.5534 101.389L0.321289 75.0522V110.78Z" fill="#CFDEDB"/>
    <path d="M45.6544 137.407C45.6145 137.407 45.5746 137.396 45.539 137.375L0.205395 110.979C0.134923 110.938 0.0913086 110.863 0.0913086 110.781V75.0532C0.0913086 74.971 0.135153 74.8953 0.206313 74.8542C0.277703 74.8133 0.365162 74.8136 0.436322 74.8549L45.6685 101.192C45.7389 101.233 45.7823 101.308 45.7825 101.39L45.8838 137.177C45.8838 137.259 45.8402 137.335 45.769 137.376C45.7336 137.396 45.6939 137.407 45.6542 137.407L45.6544 137.407ZM0.550638 110.649L45.4238 136.777L45.3239 101.522L0.550638 75.4524V110.649Z" fill="#1C3333"/>
    <path d="M0.321289 75.0533L45.6889 101.312L80.1406 81.5608L34.5968 55.4351L0.321289 75.0533Z" fill="white"/>
    <path d="M45.6884 101.543C45.6487 101.543 45.609 101.533 45.5734 101.512L0.205855 75.2529C0.134694 75.2118 0.0910799 75.1358 0.0913095 75.0537C0.091539 74.9715 0.135613 74.8957 0.206773 74.8551L34.4825 55.2368C34.5532 55.1964 34.6402 55.1964 34.7107 55.2368L80.2543 81.3626C80.3257 81.4035 80.3695 81.4795 80.3695 81.5616C80.3695 81.6438 80.3254 81.7198 80.2543 81.7609L45.8025 101.513C45.7672 101.533 45.7279 101.543 45.6884 101.543ZM0.780878 75.0553L45.6889 101.048L79.6786 81.5616L34.5961 55.7005L0.780878 75.0553Z" fill="#1C3333"/>
    <path d="M45.6797 137.154L80.0096 117.26L80.1315 81.5464L45.6797 101.298V137.154Z" fill="white"/>
    <path d="M45.6797 137.385C45.6403 137.385 45.6006 137.375 45.565 137.354C45.4938 137.313 45.4502 137.237 45.4502 137.155V101.299C45.4502 101.217 45.4943 101.141 45.5654 101.1L80.0172 81.3482C80.0886 81.3075 80.1761 81.3078 80.2468 81.3489C80.3177 81.3902 80.3611 81.4659 80.3608 81.5481L80.2387 117.261C80.2387 117.343 80.1949 117.418 80.1242 117.459L45.7945 137.354C45.7589 137.374 45.7192 137.385 45.6795 137.385H45.6797ZM45.9093 101.432V136.757L79.7803 117.128L79.9006 81.9443L45.9093 101.432V101.432Z" fill="#1C3333"/>
    <path d="M34.6274 55.2131L79.9608 81.6091V45.7527L34.5967 19.707L34.6274 55.2131Z" fill="#CFDEDB"/>
    <path d="M79.9606 81.8399C79.9207 81.8399 79.8808 81.8295 79.8452 81.8086L34.5118 55.4127C34.4413 55.3716 34.3979 55.2961 34.3977 55.2144L34.3672 19.7083C34.3672 19.6263 34.4108 19.5506 34.4817 19.5095C34.5527 19.4684 34.6399 19.4682 34.7113 19.509L80.0754 45.5549C80.1468 45.5958 80.1906 45.6717 80.1906 45.7539V81.6103C80.1906 81.6925 80.1468 81.7682 80.0756 81.8093C80.0403 81.8298 80.0006 81.8399 79.9611 81.8399H79.9606ZM34.8566 55.0824L79.7311 81.2111V45.8868L34.8265 20.1049L34.8566 55.0824Z" fill="#1C3333"/>
    <path d="M34.5967 19.7055L79.9952 45.7429L114.227 26.2438L68.2657 0.230957L34.5967 19.7055Z" fill="white"/>
    <path d="M79.9946 45.9735C79.9551 45.9735 79.9158 45.9634 79.8803 45.943L34.4819 19.9056C34.4108 19.8647 34.3667 19.789 34.3667 19.707C34.3667 19.6249 34.4103 19.5491 34.4815 19.5078L68.1503 0.0332328C68.2207 -0.00739754 68.3075 -0.00785664 68.3782 0.032085L114.339 26.0449C114.411 26.0855 114.456 26.1618 114.456 26.2444C114.456 26.327 114.411 26.4032 114.34 26.4441L80.108 45.9432C80.0726 45.9632 80.0336 45.9733 79.9943 45.9733L79.9946 45.9735ZM35.056 19.7057L79.9948 45.4795L113.761 26.2455L68.2664 0.496465L35.056 19.7057Z" fill="#1C3333"/>
    <path d="M79.9863 81.5861L114.316 61.6914L114.227 26.2437L79.9863 45.7297V81.5861Z" fill="white"/>
    <path d="M79.9864 81.8167C79.9469 81.8167 79.9072 81.8066 79.8716 81.7859C79.8005 81.7451 79.7568 81.6691 79.7568 81.5871V45.7308C79.7568 45.6483 79.8011 45.5721 79.8728 45.5313L114.113 26.0452C114.184 26.0048 114.271 26.0051 114.342 26.0462C114.412 26.087 114.456 26.1625 114.456 26.2443L114.546 61.6918C114.546 61.7738 114.502 61.8498 114.431 61.8911L80.1014 81.7857C80.0658 81.8064 80.0261 81.8167 79.9864 81.8167ZM80.2159 45.8644V81.1889L114.086 61.5603L113.998 26.6389L80.2159 45.8641V45.8644Z" fill="#1C3333"/>
    <path d="M0.321083 75.0539L45.5532 101.391L45.6544 65.5935L0.229492 39.3979L0.321083 75.0539Z" fill="#CFDEDB"/>
    <path d="M45.5533 101.619C45.5133 101.619 45.4734 101.609 45.4378 101.588L0.205447 75.2508C0.134975 75.2097 0.0915904 75.1344 0.0913609 75.0529L0 39.3971C0 39.315 0.0433849 39.239 0.114545 39.1979C0.185476 39.1568 0.272935 39.1566 0.344325 39.1979L45.7693 65.3935C45.8407 65.4345 45.8843 65.5105 45.8841 65.5929L45.7828 101.39C45.7828 101.472 45.7385 101.548 45.6674 101.589C45.632 101.609 45.5925 101.619 45.5533 101.619ZM0.550231 74.9202L45.3246 100.991L45.4245 65.7245L0.460018 39.7945L0.550231 74.9202Z" fill="#1C3333"/>
    <path d="M0.263184 39.3889L45.6881 65.5842L80.1399 45.8328L34.5961 19.707L0.263184 39.3889Z" fill="white"/>
    <path d="M45.6885 65.8146C45.649 65.8146 45.6093 65.8043 45.5737 65.7839L0.148956 39.5886C0.0777951 39.5475 0.033951 39.4715 0.0341806 39.3895C0.0344101 39.3076 0.0782542 39.2316 0.149415 39.1908L34.4823 19.5089C34.5532 19.4683 34.64 19.4685 34.7107 19.5089L80.2543 45.6347C80.3257 45.6755 80.3696 45.7515 80.3696 45.8337C80.3696 45.9159 80.3255 45.9919 80.2543 46.0329L45.8025 65.7846C45.7672 65.8048 45.7277 65.8149 45.6882 65.8149L45.6885 65.8146ZM0.724208 39.3902L45.6889 65.3202L79.6788 45.8335L34.5966 19.9724L0.724208 39.3902Z" fill="#1C3333"/>
    <path d="M45.6797 101.426L80.0096 81.5315L80.1315 45.8184L45.6797 65.57V101.426Z" fill="white"/>
    <path d="M45.6797 101.657C45.6403 101.657 45.6006 101.647 45.565 101.626C45.4938 101.585 45.4502 101.509 45.4502 101.427V65.5708C45.4502 65.4886 45.4943 65.4126 45.5654 65.3718L80.0172 45.6201C80.0886 45.5795 80.1761 45.5797 80.2468 45.6208C80.3177 45.6622 80.3611 45.7379 80.3608 45.8201L80.2387 81.5332C80.2387 81.6147 80.1949 81.6903 80.1242 81.7311L45.7945 101.626C45.7589 101.646 45.7192 101.657 45.6795 101.657H45.6797ZM45.9093 65.7037V101.029L79.7803 81.3999L79.9006 46.2163L45.9093 65.7037Z" fill="#1C3333"/>
    <path d="M5.76232 63.4816L22.0353 72.957V60.0859L5.72949 50.6826L5.76232 63.4816Z" fill="white"/>
    <path d="M22.0359 73.1877C21.996 73.1877 21.956 73.1774 21.9204 73.1565L5.6474 63.6814C5.57693 63.6403 5.53354 63.565 5.53331 63.4835L5.50049 50.6843C5.50049 50.6021 5.54387 50.5261 5.61503 50.485C5.68619 50.4439 5.77342 50.4437 5.84481 50.485L22.1507 59.8883C22.2218 59.9292 22.2654 60.0051 22.2654 60.0871V72.9582C22.2654 73.0404 22.2216 73.1161 22.1504 73.1572C22.1151 73.1776 22.0754 73.1877 22.0359 73.1877ZM5.99195 63.3508L21.8063 72.559V60.2198L5.96051 51.0818L5.99195 63.3508Z" fill="#1C3333"/>
    <path d="M79.951 117.319L125.29 143.639L125.284 107.859L79.8594 81.6631L79.951 117.319Z" fill="#CFDEDB"/>
    <path d="M125.29 143.869C125.25 143.869 125.21 143.859 125.175 143.838L79.8356 117.518C79.7649 117.478 79.7215 117.402 79.7212 117.32L79.6299 81.6647C79.6299 81.5825 79.6733 81.5066 79.7444 81.4655C79.8156 81.4244 79.9028 81.4242 79.9742 81.4655L125.399 107.661C125.47 107.702 125.514 107.778 125.514 107.86L125.52 143.64C125.52 143.722 125.476 143.798 125.405 143.839C125.369 143.859 125.33 143.87 125.29 143.87V143.869ZM80.1801 117.187L125.061 143.241L125.055 107.992L80.0901 82.0618L80.1803 117.187H80.1801Z" fill="#1C3333"/>
    <path d="M79.8936 81.654L125.318 107.85L159.639 88.0704L114.226 61.9722L79.8936 81.654Z" fill="white"/>
    <path d="M125.318 108.08C125.279 108.08 125.239 108.069 125.203 108.049L79.7784 81.8532C79.7072 81.8121 79.6633 81.7361 79.6636 81.6542C79.6638 81.5722 79.7076 81.4963 79.7788 81.4554L114.112 61.7736C114.183 61.7329 114.27 61.7332 114.34 61.7736L159.753 87.8715C159.825 87.9124 159.869 87.9884 159.869 88.0703C159.869 88.1523 159.825 88.2283 159.754 88.2694L125.433 108.049C125.397 108.069 125.358 108.08 125.318 108.08ZM80.3538 81.6551L125.318 107.585L159.179 88.071L114.226 62.2372L80.3538 81.6551Z" fill="#1C3333"/>
    <path d="M125.29 143.637L159.64 123.798V88.0698L125.412 107.905L125.29 143.637Z" fill="white"/>
    <path d="M125.29 143.868C125.25 143.868 125.211 143.858 125.175 143.837C125.104 143.796 125.06 143.72 125.061 143.638L125.182 107.906C125.182 107.824 125.226 107.749 125.297 107.708L159.524 87.8722C159.596 87.8312 159.683 87.8309 159.754 87.872C159.825 87.9129 159.869 87.9889 159.869 88.0708V123.799C159.869 123.881 159.825 123.956 159.754 123.997L125.405 143.837C125.369 143.858 125.33 143.868 125.29 143.868L125.29 143.868ZM125.641 108.039L125.521 143.24L159.41 123.666V88.4693L125.641 108.039L125.641 108.039Z" fill="#1C3333"/>
    <path d="M45.6441 137.159L90.9777 163.555V127.699L45.5527 101.39L45.6441 137.159Z" fill="#CFDEDB"/>
    <path d="M90.9777 163.785C90.9378 163.785 90.8979 163.775 90.8623 163.754L45.5289 137.358C45.4584 137.317 45.4151 137.242 45.4148 137.16L45.3232 101.391C45.3232 101.309 45.3666 101.233 45.438 101.192C45.5092 101.151 45.5969 101.151 45.6678 101.192L91.0928 127.501C91.1637 127.542 91.2073 127.618 91.2073 127.699V163.556C91.2073 163.638 91.1635 163.714 91.0923 163.755C91.0569 163.775 91.0172 163.785 90.9777 163.785ZM45.8735 137.028L90.7482 163.157V127.832L45.7833 101.79L45.8735 137.028V137.028Z" fill="#1C3333"/>
    <path d="M45.5869 101.495L91.0119 127.691L125.374 107.929L79.9198 81.8135L45.5869 101.495Z" fill="white"/>
    <path d="M91.0124 127.919C90.9729 127.919 90.9332 127.909 90.8976 127.888L45.4727 101.693C45.4015 101.652 45.3577 101.576 45.3579 101.494C45.3581 101.412 45.402 101.336 45.4731 101.295L79.806 81.613C79.8772 81.5724 79.9639 81.5724 80.0346 81.613L125.489 107.729C125.56 107.77 125.604 107.845 125.604 107.928C125.604 108.01 125.56 108.086 125.489 108.127L91.127 127.888C91.0916 127.909 91.0519 127.919 91.0124 127.919ZM46.0482 101.495L91.0126 127.425L124.914 107.928L79.9206 82.0769L46.0482 101.495V101.495Z" fill="#1C3333"/>
    <path d="M90.9482 163.593L125.278 143.698L125.4 107.985L90.9604 127.756L90.9482 163.593Z" fill="white"/>
    <path d="M90.9483 163.824C90.9088 163.824 90.8691 163.814 90.8335 163.793C90.7624 163.752 90.7188 163.676 90.7188 163.594L90.7309 127.757C90.7309 127.675 90.7748 127.599 90.8461 127.558L125.286 107.787C125.357 107.746 125.445 107.746 125.515 107.788C125.586 107.829 125.63 107.905 125.63 107.987L125.508 143.7C125.508 143.781 125.464 143.857 125.393 143.898L91.0633 163.792C91.0277 163.813 90.988 163.824 90.9483 163.824ZM91.19 127.89L91.1778 163.196L125.049 143.567L125.169 108.383L91.1898 127.89L91.19 127.89Z" fill="#1C3333"/>
    <path d="M155.858 111.015L139.585 120.49V107.619L155.892 98.2158L155.858 111.015Z" fill="white"/>
    <path d="M139.585 120.718C139.546 120.718 139.506 120.708 139.47 120.688C139.399 120.647 139.355 120.571 139.355 120.489V107.618C139.355 107.536 139.399 107.46 139.47 107.419L155.776 98.0156C155.847 97.9745 155.935 97.9747 156.006 98.0156C156.077 98.0567 156.121 98.1327 156.12 98.2148L156.088 111.014C156.088 111.096 156.044 111.171 155.974 111.212L139.7 120.687C139.665 120.708 139.625 120.718 139.585 120.718ZM139.815 107.75V120.09L155.629 110.881L155.66 98.6124L139.815 107.75Z" fill="#1C3333"/>
    <path d="M79.951 81.5908L125.284 107.987V72.1304L79.8594 45.9351L79.951 81.5908Z" fill="#CFDEDB"/>
    <path d="M125.284 108.217C125.244 108.217 125.204 108.207 125.169 108.186L79.8353 81.7898C79.7649 81.7488 79.7215 81.6735 79.7212 81.592L79.6299 45.9362C79.6299 45.8543 79.6733 45.7783 79.7444 45.737C79.8156 45.6959 79.9028 45.6956 79.9742 45.737L125.399 71.9325C125.47 71.9734 125.514 72.0494 125.514 72.1313V107.988C125.514 108.07 125.47 108.146 125.399 108.187C125.364 108.207 125.324 108.217 125.284 108.217L125.284 108.217ZM80.1799 81.4593L125.055 107.588V72.2638L80.0899 46.3336L80.1801 81.4593H80.1799Z" fill="#1C3333"/>
    <path d="M79.8936 45.9255L125.318 72.121L159.77 52.3694L114.226 26.2437L79.8936 45.9255Z" fill="white"/>
    <path d="M125.318 72.3516C125.279 72.3516 125.239 72.3412 125.203 72.3208L79.7784 46.1253C79.7072 46.0842 79.6633 46.0082 79.6636 45.9262C79.6638 45.8443 79.7076 45.7683 79.7788 45.7275L114.112 26.0456C114.183 26.005 114.269 26.005 114.34 26.0456L159.884 52.1714C159.955 52.2122 159.999 52.2882 159.999 52.3704C159.999 52.4526 159.955 52.5286 159.884 52.5696L125.432 72.3213C125.397 72.3415 125.358 72.3516 125.318 72.3516ZM80.3538 45.9272L125.319 71.8574L159.308 52.3706L114.226 26.5095L80.3536 45.9274L80.3538 45.9272Z" fill="#1C3333"/>
    <path d="M125.413 107.909L159.64 88.0733L159.771 52.373L125.311 72.1116L125.413 107.909Z" fill="white"/>
    <path d="M125.412 108.137C125.373 108.137 125.333 108.127 125.298 108.106C125.227 108.066 125.183 107.99 125.183 107.908L125.081 72.1109C125.081 72.0282 125.124 71.952 125.196 71.9109L159.657 52.1724C159.728 52.1318 159.815 52.132 159.886 52.1731C159.957 52.2144 160.001 52.2901 160 52.3723L159.87 88.0724C159.869 88.1539 159.826 88.2292 159.755 88.2703L125.527 108.106C125.492 108.126 125.452 108.137 125.412 108.137L125.412 108.137ZM125.54 72.2431L125.641 107.51L159.411 87.9395L159.539 52.7688L125.54 72.2433V72.2431Z" fill="#1C3333"/>
    <path d="M45.5527 101.389L90.96 127.756L90.9777 91.9695L45.5527 65.7739V101.389Z" fill="#CFDEDB"/>
    <path d="M90.9603 127.986C90.9206 127.986 90.8806 127.976 90.8451 127.955L45.4376 101.588C45.3666 101.547 45.3232 101.472 45.3232 101.39V65.7749C45.3232 65.693 45.3669 65.6172 45.438 65.5761C45.5089 65.5353 45.5964 65.5351 45.6676 65.5761L91.0925 91.7717C91.1637 91.8126 91.2073 91.8885 91.2073 91.9707L91.1896 127.757C91.1896 127.839 91.1458 127.915 91.0746 127.956C91.0393 127.976 90.9998 127.986 90.9601 127.986H90.9603ZM45.7823 101.258L90.731 127.358L90.7482 92.1032L45.7823 66.1725V101.258Z" fill="#1C3333"/>
    <path d="M45.5879 65.7668L91.0128 91.9621L125.319 72.1224L79.9208 46.085L45.5879 65.7668Z" fill="white"/>
    <path d="M91.0124 92.1904C90.9729 92.1904 90.9332 92.18 90.8976 92.1596L45.4727 65.964C45.4015 65.923 45.3577 65.847 45.3579 65.765C45.3581 65.6831 45.402 65.6071 45.4731 65.5662L79.806 45.8844C79.8769 45.844 79.9637 45.8438 80.0344 45.8844L125.433 71.9218C125.504 71.9626 125.548 72.0384 125.548 72.1206C125.548 72.2028 125.504 72.2785 125.433 72.3196L91.1267 92.1594C91.0912 92.18 91.0514 92.1901 91.012 92.1901L91.0124 92.1904ZM46.0482 65.7659L91.0122 91.6957L124.859 72.1217L79.9206 46.3481L46.0482 65.7659Z" fill="#1C3333"/>
    <path d="M90.9609 127.757L125.413 107.906L125.398 72.0732L91.0828 91.9002L90.9609 127.757Z" fill="white"/>
    <path d="M90.9605 127.987C90.9208 127.987 90.8809 127.976 90.8453 127.956C90.7743 127.915 90.7307 127.838 90.731 127.756L90.8528 91.9C90.8528 91.8183 90.8967 91.743 90.9676 91.7019L125.283 71.875C125.354 71.8341 125.441 71.8339 125.512 71.875C125.583 71.9158 125.627 71.9918 125.627 72.0738L125.642 107.907C125.642 107.989 125.598 108.064 125.527 108.106L91.0751 127.956C91.0397 127.977 91 127.987 90.9605 127.987ZM91.3115 92.0334L91.1914 127.359L125.183 107.774L125.168 72.4716L91.3117 92.0336L91.3115 92.0334Z" fill="#1C3333"/>
    <path d="M64.4507 76.6347L132.968 37.0176L141.224 41.7289L72.664 81.371L64.4507 76.6347Z" fill="#FF5823"/>
    <path d="M72.6636 81.6014C72.6241 81.6014 72.5844 81.591 72.5488 81.5706L64.3355 76.8343C64.2643 76.7935 64.2207 76.7177 64.2207 76.6355C64.2207 76.5533 64.2643 76.4776 64.3355 76.4367L132.852 36.8194C132.923 36.7785 133.01 36.7783 133.081 36.8187L141.338 41.53C141.409 41.5706 141.453 41.6466 141.453 41.7288C141.453 41.811 141.41 41.8869 141.338 41.9283L72.7781 81.5706C72.7425 81.5913 72.7028 81.6014 72.6633 81.6014H72.6636ZM64.9094 76.6353L72.6633 81.1067L140.763 41.7308L132.968 37.2831L64.9094 76.6353Z" fill="#1C3333"/>
    <path d="M108.486 62.6722C108.447 62.6722 108.408 62.6623 108.371 62.6414L97.3416 56.2806C97.2316 56.2172 97.194 56.077 97.2573 55.967C97.3204 55.8573 97.4609 55.8194 97.5709 55.8828L108.601 62.2436C108.711 62.3069 108.748 62.4472 108.685 62.5572C108.643 62.6308 108.565 62.6722 108.486 62.6722Z" fill="#1C3333"/>
    <path d="M18.936 50.1679L86.9932 10.832L95.2834 15.5238L27.1493 54.9042L18.936 50.1679Z" fill="#FF5823"/>
    <path d="M27.1494 55.1325C27.1099 55.1325 27.0702 55.1224 27.0346 55.1018L18.8213 50.3654C18.7502 50.3246 18.7065 50.2486 18.7065 50.1667C18.7065 50.0847 18.7502 50.0087 18.8213 49.9679L86.8785 10.632C86.949 10.5911 87.0358 10.5909 87.1065 10.6308L95.3964 15.3228C95.468 15.3634 95.5126 15.4392 95.5128 15.5216C95.513 15.604 95.4694 15.6802 95.398 15.7213L27.2642 55.1018C27.2286 55.1224 27.1889 55.1325 27.1494 55.1325ZM19.3952 50.1664L27.1492 54.6378L94.8212 15.5246L86.9947 11.095L19.3952 50.1664Z" fill="#1C3333"/>
    <path d="M62.9713 36.2042C62.9325 36.2042 62.8931 36.1943 62.8568 36.1734L51.8269 29.8128C51.717 29.7495 51.6793 29.6092 51.7427 29.4993C51.806 29.3893 51.9463 29.3517 52.0562 29.415L63.0861 35.7756C63.1961 35.839 63.2337 35.9792 63.1704 36.0892C63.1279 36.1629 63.0508 36.2042 62.9713 36.2042Z" fill="#1C3333"/>
  </g>
  <defs>
    <clipPath id="clip0_9486_70238">
      <rect width="160" height="163.821" fill="white"/>
    </clipPath>
  </defs>
</svg>