<svg width="122" height="126" viewBox="0 0 122 126" fill="none" xmlns="http://www.w3.org/2000/svg">
<g clip-path="url(#clip0_379_11209)">
<path d="M32.1565 65.3744L64.472 84.1736V58.6368L32.0914 39.9805L32.1565 65.3744Z" fill="#CFDEDB"/>
<path d="M64.472 84.3368C64.4431 84.3368 64.4147 84.3291 64.3897 84.3145L32.0742 65.5154C32.0495 65.5011 32.0291 65.4805 32.0148 65.4558C32.0005 65.4311 31.993 65.4031 31.9929 65.3745L31.9278 39.9805C31.9276 39.9517 31.9351 39.9234 31.9494 39.8984C31.9637 39.8735 31.9844 39.8528 32.0093 39.8383C32.0342 39.8239 32.0625 39.8164 32.0913 39.8164C32.1201 39.8164 32.1483 39.8241 32.1732 39.8386L64.554 58.4949C64.6047 58.524 64.6358 58.5781 64.6358 58.6365V84.1733C64.6358 84.2166 64.6186 84.2582 64.5879 84.2889C64.5572 84.3195 64.5156 84.3368 64.4722 84.3368H64.472ZM32.3198 65.28L64.3084 83.8888V58.7308L32.2557 40.2634L32.32 65.2799L32.3198 65.28Z" fill="#1C3333"/>
<path d="M32.1158 39.9745L64.4966 58.6307L89.0552 44.5637L56.5897 25.957L32.1158 39.9745Z" fill="white"/>
<path d="M64.4966 58.7936C64.4684 58.7936 64.4401 58.7862 64.4147 58.7717L32.034 40.1153C32.009 40.101 31.9883 40.0803 31.9739 40.0554C31.9596 40.0305 31.952 40.0023 31.952 39.9736C31.9521 39.9448 31.9597 39.9166 31.9741 39.8917C31.9886 39.8669 32.0093 39.8463 32.0343 39.832L56.5082 25.8147C56.533 25.8004 56.561 25.793 56.5896 25.793C56.6182 25.793 56.6462 25.8004 56.671 25.8147L89.1365 44.4213C89.1616 44.4356 89.1825 44.4562 89.197 44.4811C89.2115 44.506 89.2191 44.5343 89.2191 44.5632C89.2191 44.592 89.2115 44.6203 89.197 44.6452C89.1825 44.6701 89.1616 44.6907 89.1365 44.705L64.5779 58.772C64.5531 58.7862 64.525 58.7937 64.4964 58.7938L64.4966 58.7936ZM32.4442 39.9742L64.4969 58.4414L88.7263 44.5629L56.5897 26.1447L32.444 39.9741L32.4442 39.9742Z" fill="#1C3333"/>
<path d="M64.4903 84.1583L88.9619 69.9895L89.049 44.5547L64.4903 58.6216V84.1583Z" fill="white"/>
<path d="M64.4903 84.3213C64.4688 84.3213 64.4475 84.3171 64.4277 84.3089C64.4078 84.3007 64.3897 84.2887 64.3745 84.2735C64.3593 84.2583 64.3473 84.2403 64.3391 84.2204C64.3309 84.2006 64.3267 84.1793 64.3267 84.1578V58.621C64.3267 58.5923 64.3343 58.564 64.3487 58.5391C64.3632 58.5142 64.3839 58.4936 64.4088 58.4793L88.9675 44.4122C88.9924 44.398 89.0206 44.3905 89.0494 44.3906C89.0781 44.3907 89.1063 44.3984 89.1311 44.4128C89.1559 44.4272 89.1765 44.4479 89.1908 44.4728C89.2051 44.4977 89.2125 44.5259 89.2124 44.5546L89.1256 69.9894C89.1255 70.018 89.1179 70.0461 89.1036 70.0708C89.0893 70.0955 89.0687 70.1161 89.0439 70.1303L64.5722 84.2992C64.5473 84.3137 64.519 84.3213 64.4902 84.3213H64.4903ZM64.654 58.7157V83.874L88.7988 69.8944L88.8844 44.8368L64.654 58.7158V58.7157Z" fill="#1C3333"/>
<path d="M7.70163 79.5038L40.0171 98.3029L39.945 72.8157L7.70163 54.0586V79.5038Z" fill="#CFDEDB"/>
<path d="M40.0171 98.4668C39.9882 98.4668 39.9598 98.4591 39.9348 98.4445L7.61917 79.6454C7.59444 79.631 7.57392 79.6104 7.55966 79.5856C7.54539 79.5609 7.53787 79.5328 7.53784 79.5042V54.0589C7.53785 54.0302 7.54544 54.002 7.55985 53.9771C7.57426 53.9522 7.59498 53.9316 7.61992 53.9173C7.64486 53.9029 7.67314 53.8954 7.70191 53.8955C7.73068 53.8956 7.75892 53.9032 7.78378 53.9177L40.0271 72.6749C40.0518 72.6893 40.0722 72.7098 40.0865 72.7345C40.1008 72.7592 40.1083 72.7872 40.1084 72.8157L40.1806 98.3029C40.1806 98.3464 40.1634 98.388 40.1327 98.4188C40.1021 98.4495 40.0604 98.4668 40.017 98.4669L40.0171 98.4668ZM7.86527 79.4102L39.8527 98.0185L39.7815 72.9102L7.86527 54.3432V79.4102Z" fill="#1C3333"/>
<path d="M7.70163 54.059L40.0415 72.7606L64.6001 58.6936L32.1346 40.0869L7.70163 54.059Z" fill="white"/>
<path d="M40.0415 72.9235C40.0127 72.9235 39.9844 72.9159 39.9595 72.9015L7.61964 54.1998C7.59468 54.1855 7.57395 54.1648 7.55956 54.1399C7.54517 54.115 7.53762 54.0867 7.53769 54.0579C7.53776 54.0292 7.54543 54.001 7.55994 53.9761C7.57445 53.9513 7.59527 53.9307 7.6203 53.9165L32.0534 39.9444C32.1038 39.9157 32.1658 39.9157 32.2161 39.9444L64.6814 58.5511C64.7065 58.5653 64.7274 58.586 64.7419 58.6109C64.7564 58.6358 64.764 58.6641 64.764 58.6929C64.764 58.7217 64.7564 58.75 64.7419 58.775C64.7274 58.7999 64.7065 58.8205 64.6814 58.8347L40.1228 72.9018C40.098 72.916 40.0701 72.9235 40.0415 72.9235ZM8.02954 54.059L40.0418 72.5712L64.2711 58.6928L32.1344 40.2747L8.02954 54.059Z" fill="#1C3333"/>
<path d="M40.0353 98.2884L64.507 84.1193L64.5939 58.6846L40.0353 72.7516V98.2884Z" fill="white"/>
<path d="M40.0353 98.4512C40.0138 98.4512 39.9925 98.447 39.9726 98.4388C39.9527 98.4306 39.9347 98.4186 39.9195 98.4034C39.9043 98.3882 39.8922 98.3701 39.884 98.3503C39.8758 98.3304 39.8716 98.3092 39.8716 98.2877V72.7509C39.8716 72.7221 39.8792 72.6939 39.8937 72.669C39.9081 72.6441 39.9288 72.6235 39.9538 72.6092L64.5124 58.5421C64.5373 58.5279 64.5656 58.5204 64.5943 58.5205C64.623 58.5206 64.6512 58.5283 64.676 58.5427C64.7009 58.5571 64.7215 58.5778 64.7357 58.6027C64.75 58.6276 64.7575 58.6558 64.7574 58.6845L64.6703 84.1193C64.6703 84.1479 64.6627 84.1759 64.6484 84.2007C64.634 84.2254 64.6135 84.2459 64.5887 84.2602L40.1171 98.4291C40.0922 98.4435 40.0639 98.4512 40.0351 98.4512H40.0353ZM40.1989 72.8456V98.0039L64.3436 84.0243L64.4293 58.9667L40.1989 72.8457V72.8456Z" fill="#1C3333"/>
<path d="M32.1565 39.9289L64.472 58.728V33.1912L32.1346 14.6416L32.1565 39.9289Z" fill="#CFDEDB"/>
<path d="M64.472 58.8911C64.4431 58.8912 64.4147 58.8835 64.3897 58.8689L32.0742 40.0698C32.0495 40.0554 32.029 40.0348 32.0148 40.01C32.0005 39.9852 31.993 39.9571 31.9929 39.9286L31.9711 14.6413C31.9711 14.6126 31.9786 14.5843 31.9929 14.5595C32.0073 14.5346 32.0279 14.5139 32.0528 14.4995C32.0776 14.4852 32.1058 14.4776 32.1346 14.4775C32.1633 14.4775 32.1915 14.485 32.2164 14.4993L64.5538 33.0491C64.5788 33.0634 64.5996 33.0841 64.614 33.109C64.6284 33.1338 64.636 33.1621 64.636 33.1909V58.7276C64.636 58.771 64.6187 58.8126 64.588 58.8432C64.5574 58.8739 64.5157 58.8911 64.4723 58.8911H64.472ZM32.32 39.8346L64.3084 58.4433V33.2855L32.2986 14.9238L32.32 39.8346Z" fill="#1C3333"/>
<path d="M32.1346 14.6412L64.4966 33.1849L88.8983 19.2977L56.1353 0.771484L32.1346 14.6412Z" fill="white"/>
<path d="M64.4966 33.3488C64.468 33.3488 64.4399 33.3413 64.4151 33.3271L32.0533 14.7834C32.0283 14.7691 32.0076 14.7485 31.9931 14.7236C31.9787 14.6988 31.971 14.6705 31.971 14.6418C31.971 14.613 31.9785 14.5848 31.9929 14.5599C32.0073 14.535 32.028 14.5144 32.053 14.5L56.0534 0.630328C56.1037 0.601391 56.1655 0.601064 56.2159 0.629511L88.9788 19.1557C89.004 19.17 89.025 19.1906 89.0396 19.2155C89.0542 19.2405 89.0619 19.2689 89.0619 19.2978C89.062 19.3267 89.0543 19.3551 89.0398 19.3801C89.0252 19.4051 89.0043 19.4258 88.9791 19.44L64.5774 33.3272C64.5527 33.3413 64.5248 33.3486 64.4964 33.3487L64.4966 33.3488ZM32.4625 14.641L64.4967 32.997L88.5668 19.2986L56.1362 0.96024L32.4625 14.641Z" fill="#1C3333"/>
<path d="M64.4903 58.7125L88.9619 44.5436L88.8983 19.2979L64.4903 33.1757V58.7125Z" fill="white"/>
<path d="M64.4903 58.8766C64.4688 58.8767 64.4475 58.8725 64.4277 58.8643C64.4078 58.8561 64.3897 58.8441 64.3745 58.8289C64.3593 58.8137 64.3473 58.7956 64.3391 58.7758C64.3309 58.7559 64.3267 58.7346 64.3267 58.7132V33.1764C64.3267 33.1177 64.3583 33.0634 64.4093 33.0343L88.8173 19.1564C88.8421 19.1422 88.8703 19.1347 88.8989 19.1348C88.9276 19.1348 88.9557 19.1424 88.9805 19.1568C89.0053 19.1711 89.0259 19.1918 89.0402 19.2166C89.0545 19.2414 89.0619 19.2695 89.0619 19.2982L89.1257 44.5438C89.1257 44.6022 89.0948 44.6563 89.0441 44.6857L64.5723 58.8546C64.5474 58.869 64.5191 58.8766 64.4903 58.8766ZM64.654 33.2715V58.4295L88.7981 44.4501L88.7353 19.5792L64.654 33.2714V33.2715Z" fill="#1C3333"/>
<path d="M7.70164 54.0591L39.945 72.8162L40.0171 47.3214L7.63635 28.665L7.70164 54.0591Z" fill="#CFDEDB"/>
<path d="M39.945 72.9799C39.916 72.9799 39.8876 72.9723 39.8627 72.9577L7.61917 54.2006C7.59449 54.1862 7.574 54.1656 7.55974 54.1409C7.54547 54.1162 7.53793 54.0882 7.53784 54.0597L7.47272 28.6658C7.47266 28.637 7.48018 28.6088 7.49452 28.5839C7.50886 28.559 7.52951 28.5383 7.55439 28.5239C7.57928 28.5095 7.60752 28.502 7.63627 28.502C7.66502 28.5019 7.69327 28.5095 7.71817 28.5239L40.0989 47.1802C40.1498 47.2095 40.1809 47.2636 40.1808 47.3223L40.1086 72.8171C40.1085 72.8603 40.0912 72.9018 40.0605 72.9323C40.0298 72.9629 39.9883 72.9799 39.945 72.9799ZM7.86495 53.9652L39.782 72.5326L39.8532 47.416L7.80064 28.9488L7.86495 53.9652Z" fill="#1C3333"/>
<path d="M7.66074 28.6589L40.0415 47.3151L64.6001 33.2483L32.1346 14.6416L7.66074 28.6589Z" fill="white"/>
<path d="M40.0415 47.4789C40.0134 47.4789 39.9851 47.4716 39.9597 47.457L7.57908 28.8008C7.55415 28.7865 7.53344 28.7658 7.51905 28.7409C7.50466 28.716 7.4971 28.6878 7.49713 28.6591C7.49716 28.6303 7.50479 28.6021 7.51924 28.5772C7.53368 28.5524 7.55444 28.5318 7.57941 28.5175L32.0533 14.5002C32.1038 14.4712 32.1657 14.4714 32.2161 14.5002L64.6815 33.1068C64.7065 33.1211 64.7274 33.1417 64.7419 33.1666C64.7564 33.1915 64.764 33.2198 64.764 33.2487C64.764 33.2775 64.7564 33.3058 64.7419 33.3307C64.7274 33.3556 64.7065 33.3762 64.6815 33.3905L40.1228 47.4575C40.098 47.4717 40.0699 47.4791 40.0413 47.4791L40.0415 47.4789ZM7.98915 28.6596L40.0418 47.1268L64.2712 33.2484L32.1348 14.8302L7.98915 28.6596Z" fill="#1C3333"/>
<path d="M40.0353 72.8431L64.507 58.674L64.5939 33.2393L40.0353 47.3063V72.8431Z" fill="white"/>
<path d="M40.0353 73.0059C40.0138 73.0059 39.9925 73.0017 39.9726 72.9935C39.9527 72.9853 39.9347 72.9733 39.9195 72.9581C39.9043 72.9429 39.8922 72.9248 39.884 72.905C39.8758 72.8851 39.8716 72.8639 39.8716 72.8424V47.3056C39.8716 47.2768 39.8792 47.2486 39.8937 47.2237C39.9081 47.1988 39.9288 47.1782 39.9538 47.1638L64.5124 33.0968C64.5373 33.0826 64.5656 33.0751 64.5943 33.0752C64.623 33.0753 64.6512 33.0829 64.676 33.0974C64.7009 33.1118 64.7215 33.1325 64.7357 33.1574C64.75 33.1823 64.7575 33.2105 64.7574 33.2392L64.6703 58.674C64.6703 58.7026 64.6627 58.7306 64.6484 58.7554C64.634 58.7801 64.6135 58.8006 64.5887 58.8149L40.1171 72.9838C40.0922 72.9982 40.0639 73.0059 40.0351 73.0059H40.0353ZM40.1989 47.4002V72.5586L64.3436 58.579L64.4293 33.5214L40.1989 47.4002Z" fill="#1C3333"/>
<path d="M11.5806 45.8185L23.1806 52.5668V43.4001L11.5572 36.7031L11.5806 45.8185Z" fill="white"/>
<path d="M23.1806 52.7298C23.1517 52.7298 23.1233 52.7221 23.0983 52.7075L11.4982 45.9594C11.4736 45.945 11.4531 45.9244 11.4388 45.8997C11.4246 45.875 11.417 45.847 11.4169 45.8184L11.3935 36.7029C11.3935 36.6741 11.401 36.6459 11.4153 36.621C11.4297 36.5961 11.4503 36.5754 11.4752 36.561C11.5001 36.5467 11.5283 36.5391 11.5571 36.5391C11.5858 36.539 11.6141 36.5466 11.639 36.561L23.2625 43.258C23.3132 43.2871 23.3443 43.3412 23.3443 43.3995V52.5663C23.3443 52.6096 23.327 52.6512 23.2963 52.6819C23.2657 52.7125 23.224 52.7298 23.1806 52.7298ZM11.7439 45.7239L23.017 52.282V43.494L11.7214 36.986L11.7439 45.7239Z" fill="#1C3333"/>
<path d="M64.4651 84.1605L96.7847 102.905L96.7806 77.423L64.3998 58.7666L64.4651 84.1605Z" fill="#CFDEDB"/>
<path d="M96.7847 103.069C96.7558 103.069 96.7275 103.061 96.7026 103.047L64.3828 84.3021C64.3581 84.2878 64.3376 84.2673 64.3233 84.2425C64.309 84.2178 64.3014 84.1898 64.3013 84.1612L64.2362 58.7673C64.2361 58.7386 64.2437 58.7104 64.258 58.6855C64.2723 58.6606 64.293 58.6399 64.3179 58.6255C64.3428 58.6111 64.371 58.6035 64.3998 58.6035C64.4285 58.6035 64.4568 58.6111 64.4817 58.6254L96.8624 77.2818C96.9132 77.3109 96.9442 77.365 96.9442 77.4234L96.9483 102.906C96.9483 102.927 96.9441 102.949 96.9359 102.968C96.9277 102.988 96.9157 103.006 96.9005 103.022C96.8853 103.037 96.8672 103.049 96.8474 103.057C96.8275 103.065 96.8062 103.07 96.7847 103.07V103.069ZM64.6284 84.0664L96.6211 102.622L96.617 77.5175L64.5643 59.0502L64.6286 84.0664H64.6284Z" fill="#1C3333"/>
<path d="M64.4244 58.7605L96.805 77.4169L121.271 63.3302L88.8983 44.7432L64.4244 58.7605Z" fill="white"/>
<path d="M96.805 77.5806C96.7768 77.5806 96.7485 77.5733 96.7232 77.5587L64.3424 58.9024C64.3175 58.888 64.2968 58.8674 64.2824 58.8425C64.268 58.8176 64.2604 58.7894 64.2605 58.7606C64.2605 58.7319 64.2681 58.7036 64.2826 58.6788C64.297 58.6539 64.3178 58.6333 64.3427 58.6191L88.8166 44.6017C88.8673 44.5728 88.9294 44.5729 88.9796 44.6017L121.352 63.1886C121.377 63.2029 121.398 63.2234 121.412 63.2483C121.427 63.2732 121.434 63.3014 121.434 63.3302C121.434 63.3589 121.427 63.3872 121.412 63.4121C121.398 63.437 121.377 63.4576 121.352 63.4719L96.8866 77.5587C96.8618 77.5731 96.8337 77.5806 96.805 77.5806ZM64.7526 58.7613L96.805 77.2285L120.942 63.3307L88.8981 44.932L64.7526 58.7613Z" fill="#1C3333"/>
<path d="M96.7847 102.905L121.271 88.7753V63.3301L96.8718 77.4568L96.7847 102.905Z" fill="white"/>
<path d="M96.7847 103.069C96.7632 103.069 96.7418 103.065 96.7219 103.057C96.702 103.048 96.684 103.036 96.6688 103.021C96.6536 103.006 96.6415 102.988 96.6334 102.968C96.6252 102.948 96.621 102.927 96.6211 102.905L96.708 77.4566C96.708 77.3986 96.7392 77.3448 96.7896 77.3157L121.188 63.189C121.213 63.1746 121.241 63.167 121.27 63.167C121.299 63.167 121.327 63.1745 121.352 63.1888C121.377 63.2032 121.398 63.2238 121.412 63.2486C121.426 63.2735 121.434 63.3017 121.434 63.3304V88.7756C121.434 88.8043 121.426 88.8325 121.412 88.8574C121.398 88.8822 121.377 88.9029 121.352 88.9172L96.8664 103.047C96.8415 103.062 96.8133 103.069 96.7846 103.069L96.7847 103.069ZM97.0349 77.5518L96.9493 102.622L121.107 88.6815V63.6142L97.0351 77.5516L97.0349 77.5518Z" fill="#1C3333"/>
<path d="M40.0101 98.2911L72.3257 117.09V91.5534L39.9449 72.8164L40.0101 98.2911Z" fill="#CFDEDB"/>
<path d="M72.3257 117.253C72.2968 117.253 72.2684 117.245 72.2434 117.231L39.9279 98.4317C39.9032 98.4173 39.8828 98.3967 39.8685 98.372C39.8542 98.3473 39.8467 98.3193 39.8466 98.2907L39.7813 72.8162C39.7812 72.7875 39.7888 72.7592 39.8031 72.7343C39.8174 72.7094 39.8381 72.6887 39.863 72.6743C39.8879 72.6599 39.9162 72.6523 39.945 72.6523C39.9738 72.6524 40.002 72.6599 40.0269 72.6743L72.4077 91.4113C72.4325 91.4257 72.4531 91.4463 72.4674 91.4711C72.4818 91.4959 72.4893 91.5241 72.4893 91.5527V117.09C72.4893 117.133 72.4721 117.174 72.4414 117.205C72.4107 117.236 72.3691 117.253 72.3257 117.253ZM40.1735 98.1962L72.1621 116.805V91.6471L40.1092 73.0999L40.1735 98.1964V98.1962Z" fill="#1C3333"/>
<path d="M39.9693 72.8904L72.3501 91.5467L96.8446 77.4725L64.4432 58.873L39.9693 72.8904Z" fill="white"/>
<path d="M72.3501 91.7106C72.322 91.7106 72.2937 91.7032 72.2683 91.6887L39.8875 73.0323C39.8626 73.018 39.8419 72.9973 39.8275 72.9724C39.8131 72.9476 39.8055 72.9193 39.8056 72.8906C39.8056 72.8618 39.8132 72.8336 39.8277 72.8088C39.8421 72.7839 39.8629 72.7633 39.8879 72.749L64.3617 58.7317C64.3865 58.7175 64.4146 58.71 64.4432 58.71C64.4718 58.71 64.4999 58.7175 64.5247 58.7317L96.9261 77.3312C96.9511 77.3454 96.972 77.366 96.9864 77.3909C97.0009 77.4158 97.0086 77.4441 97.0086 77.4729C97.0086 77.5016 97.001 77.5299 96.9865 77.5548C96.9721 77.5797 96.9513 77.6004 96.9263 77.6146L72.4318 91.6889C72.4069 91.7031 72.3788 91.7106 72.3501 91.7106ZM40.2978 72.8912L72.3503 91.3585L96.5164 77.4731L64.4434 59.0621L40.2978 72.8914V72.8912Z" fill="#1C3333"/>
<path d="M72.3044 117.117L96.776 102.948L96.8631 77.5137L72.3131 91.5944L72.3044 117.117Z" fill="white"/>
<path d="M72.3044 117.281C72.2829 117.281 72.2616 117.277 72.2418 117.268C72.2219 117.26 72.2039 117.248 72.1887 117.233C72.1735 117.218 72.1614 117.2 72.1532 117.18C72.145 117.16 72.1408 117.139 72.1408 117.117L72.1495 91.5941C72.1495 91.5355 72.1807 91.4814 72.2316 91.4523L96.7816 77.3716C96.8065 77.3572 96.8348 77.3496 96.8636 77.3496C96.8923 77.3496 96.9206 77.3573 96.9455 77.3717C96.9704 77.3862 96.991 77.4069 97.0053 77.4319C97.0195 77.4569 97.0269 77.4852 97.0267 77.514L96.9398 102.949C96.9398 102.977 96.9322 103.005 96.9179 103.03C96.9035 103.055 96.883 103.075 96.8582 103.09L72.3864 117.259C72.3615 117.273 72.3332 117.281 72.3044 117.281ZM72.4767 91.6889L72.4681 116.833L96.6127 102.854L96.6983 77.7965L72.4766 91.689L72.4767 91.6889Z" fill="#1C3333"/>
<path d="M118.575 79.6701L106.975 86.4182V77.2515L118.598 70.5547L118.575 79.6701Z" fill="white"/>
<path d="M106.975 86.5813C106.931 86.5813 106.89 86.5641 106.859 86.5334C106.828 86.5028 106.811 86.4612 106.811 86.4178V77.2511C106.811 77.2224 106.819 77.1942 106.833 77.1693C106.847 77.1445 106.868 77.1239 106.893 77.1095L118.516 70.4125C118.541 70.3982 118.57 70.3906 118.598 70.3906C118.627 70.3906 118.655 70.3982 118.68 70.4126C118.705 70.427 118.726 70.4477 118.74 70.4726C118.754 70.4975 118.762 70.5257 118.762 70.5544L118.738 79.67C118.738 79.728 118.707 79.7817 118.657 79.8109L107.057 86.5591C107.032 86.5738 107.003 86.5813 106.975 86.5813ZM107.138 77.3456V86.1335L118.412 79.5755L118.434 70.8376L107.138 77.3456Z" fill="#1C3333"/>
<path d="M64.4651 58.7152L96.7806 77.5143V51.9775L64.3998 33.3213L64.4651 58.7152Z" fill="#CFDEDB"/>
<path d="M96.7806 77.6784C96.7517 77.6784 96.7233 77.6708 96.6983 77.6562L64.3828 58.8571C64.3582 58.8427 64.3377 58.8221 64.3234 58.7974C64.3091 58.7727 64.3016 58.7447 64.3015 58.7161L64.2364 33.3223C64.2362 33.2935 64.2437 33.2652 64.258 33.2402C64.2723 33.2153 64.293 33.1945 64.3179 33.1801C64.3428 33.1657 64.3711 33.1582 64.3999 33.1582C64.4287 33.1582 64.457 33.1659 64.4818 33.1803L96.8626 51.8367C96.9133 51.8658 96.9444 51.9199 96.9444 51.9783V77.5151C96.9444 77.5584 96.9272 77.6 96.8965 77.6307C96.8658 77.6613 96.8242 77.6786 96.7808 77.6786L96.7806 77.6784ZM64.6285 58.6217L96.617 77.2306V52.0726L64.5643 33.6052L64.6286 58.6217H64.6285Z" fill="#1C3333"/>
<path d="M64.4244 33.3152L96.805 51.9715L121.364 37.9045L88.8983 19.2979L64.4244 33.3152Z" fill="white"/>
<path d="M96.805 52.1354C96.7768 52.1354 96.7485 52.128 96.7232 52.1135L64.3424 33.4571C64.3175 33.4428 64.2968 33.4221 64.2824 33.3972C64.268 33.3723 64.2604 33.3441 64.2605 33.3154C64.2605 33.2866 64.2681 33.2584 64.2826 33.2335C64.297 33.2087 64.3178 33.1881 64.3427 33.1738L88.8166 19.1565C88.8414 19.1422 88.8694 19.1348 88.898 19.1348C88.9266 19.1348 88.9547 19.1422 88.9794 19.1565L121.445 37.7631C121.47 37.7774 121.491 37.798 121.505 37.8229C121.52 37.8478 121.528 37.8761 121.528 37.9049C121.528 37.9338 121.52 37.9621 121.505 37.987C121.491 38.0119 121.47 38.0325 121.445 38.0468L96.8863 52.1138C96.8615 52.128 96.8336 52.1354 96.805 52.1354ZM64.7526 33.316L96.8053 51.7834L121.035 37.905L88.8981 19.4869L64.7525 33.3162L64.7526 33.316Z" fill="#1C3333"/>
<path d="M96.8718 77.4566L121.271 63.3299L121.364 37.9043L96.799 51.962L96.8718 77.4566Z" fill="white"/>
<path d="M96.8718 77.6208C96.8284 77.6208 96.7869 77.6037 96.7562 77.5731C96.7255 77.5425 96.7082 77.5011 96.7081 77.4578L96.6353 51.9632C96.6353 51.9043 96.6666 51.85 96.7176 51.8208L121.282 37.7631C121.307 37.7487 121.336 37.7412 121.364 37.7412C121.393 37.7413 121.421 37.7489 121.446 37.7633C121.471 37.7778 121.492 37.7985 121.506 37.8235C121.52 37.8485 121.528 37.8767 121.527 37.9055L121.434 63.3309C121.434 63.3595 121.427 63.3875 121.412 63.4123C121.398 63.437 121.377 63.4575 121.353 63.4718L96.9539 77.5985C96.929 77.613 96.9007 77.6206 96.8719 77.6206L96.8718 77.6208ZM96.9627 52.0573L97.0346 77.1741L121.107 63.2363L121.199 38.1878L96.9627 52.0575V52.0573Z" fill="#1C3333"/>
<path d="M39.9449 72.8158L72.3131 91.5945L72.3257 66.1075L39.9449 47.4512V72.8158Z" fill="#CFDEDB"/>
<path d="M72.3131 91.7583C72.2843 91.7584 72.2559 91.7507 72.231 91.7363L39.8626 72.9576C39.8378 72.9433 39.8172 72.9226 39.8029 72.8978C39.7886 72.873 39.7811 72.8448 39.7812 72.8162V47.4516C39.7812 47.4229 39.7887 47.3947 39.8031 47.3698C39.8174 47.345 39.8381 47.3243 39.863 47.31C39.8879 47.2956 39.9161 47.2881 39.9448 47.2881C39.9735 47.2881 40.0017 47.2956 40.0266 47.31L72.4074 65.9664C72.4581 65.9955 72.4892 66.0496 72.4892 66.1081L72.4766 91.595C72.4766 91.6165 72.4724 91.6377 72.4642 91.6576C72.456 91.6774 72.4439 91.6954 72.4287 91.7106C72.4135 91.7258 72.3955 91.7378 72.3756 91.746C72.3557 91.7542 72.3344 91.7584 72.313 91.7583H72.3131ZM40.1084 72.7222L72.1497 91.311L72.1619 66.2024L40.1084 47.7347V72.7222Z" fill="#1C3333"/>
<path d="M39.9693 47.4451L72.3501 66.1013L96.805 51.9715L64.4432 33.4277L39.9693 47.4451Z" fill="white"/>
<path d="M72.3501 66.2652C72.322 66.2652 72.2937 66.2579 72.2683 66.2433L39.8875 47.5869C39.8626 47.5726 39.8419 47.552 39.8275 47.5271C39.8131 47.5022 39.8055 47.4739 39.8056 47.4452C39.8056 47.4164 39.8132 47.3882 39.8277 47.3634C39.8421 47.3385 39.8629 47.3179 39.8879 47.3036L64.3617 33.2863C64.4123 33.2575 64.4741 33.2574 64.5245 33.2863L96.8863 51.83C96.9113 51.8443 96.9321 51.8649 96.9465 51.8898C96.961 51.9146 96.9686 51.9428 96.9686 51.9716C96.9686 52.0003 96.9611 52.0286 96.9467 52.0535C96.9323 52.0783 96.9116 52.099 96.8867 52.1133L72.4316 66.2431C72.4067 66.2575 72.3785 66.2651 72.3498 66.265L72.3501 66.2652ZM40.2978 47.4459L72.3499 65.9129L96.4773 51.9724L64.4434 33.6165L40.2978 47.4459Z" fill="#1C3333"/>
<path d="M72.3131 91.5949L96.8718 77.4574L96.8613 51.9375L72.4 66.0582L72.3131 91.5949Z" fill="white"/>
<path d="M72.3131 91.7578C72.2916 91.7578 72.2703 91.7536 72.2504 91.7453C72.2305 91.7371 72.2125 91.725 72.1973 91.7098C72.1821 91.6945 72.17 91.6765 72.1618 91.6566C72.1536 91.6367 72.1494 91.6154 72.1495 91.5939L72.2364 66.0571C72.2364 65.9989 72.2676 65.9453 72.3182 65.916L96.7793 51.7953C96.8042 51.781 96.8324 51.7734 96.8611 51.7734C96.8899 51.7734 96.9181 51.781 96.943 51.7953C96.9678 51.8097 96.9885 51.8303 97.0028 51.8552C97.0172 51.88 97.0248 51.9082 97.0248 51.9369L97.0352 77.4569C97.0353 77.4856 97.0277 77.5138 97.0133 77.5387C96.9989 77.5636 96.9782 77.5843 96.9533 77.5986L72.3948 91.7361C72.37 91.7504 72.3418 91.7578 72.3131 91.7578ZM72.5633 66.1521L72.4778 91.3109L96.7081 77.3624L96.6978 52.2202L72.5635 66.1522L72.5633 66.1521Z" fill="#1C3333"/>
<path d="M53.4155 55.1858L102.257 26.9707L108.143 30.3261L59.2703 58.559L53.4155 55.1858Z" fill="#FF5823"/>
<path d="M59.2703 58.7231C59.2422 58.7231 59.2138 58.7158 59.1885 58.7012L53.3337 55.328C53.283 55.2989 53.2519 55.245 53.2519 55.1865C53.2519 55.1279 53.283 55.074 53.3337 55.0449L102.175 26.8296C102.2 26.8153 102.228 26.8077 102.257 26.8076C102.285 26.8075 102.313 26.8149 102.338 26.8291L108.224 30.1844C108.249 30.1987 108.27 30.2193 108.284 30.2442C108.299 30.269 108.306 30.2973 108.307 30.3261C108.307 30.3549 108.299 30.3831 108.285 30.4081C108.27 30.433 108.25 30.4537 108.225 30.4681L59.352 58.7012C59.3271 58.7156 59.2989 58.7232 59.2701 58.7231H59.2703ZM53.7428 55.1863L59.2701 58.3708L107.814 30.3275L102.258 27.1598L53.7428 55.1863Z" fill="#1C3333"/>
<path d="M84.806 45.242C84.7773 45.242 84.7491 45.2344 84.7243 45.2201L76.8618 40.6899C76.8242 40.6683 76.7967 40.6326 76.7855 40.5907C76.7742 40.5488 76.78 40.5042 76.8017 40.4666C76.8234 40.429 76.8591 40.4016 76.901 40.3904C76.943 40.3791 76.9876 40.385 77.0252 40.4066L84.8878 44.9368C84.9191 44.9547 84.9435 44.9825 84.9574 45.0158C84.9712 45.0491 84.9736 45.086 84.9643 45.1208C84.955 45.1556 84.9344 45.1864 84.9058 45.2083C84.8771 45.2302 84.842 45.2421 84.806 45.242Z" fill="#1C3333"/>
<path d="M20.9711 36.3352L69.4851 8.32031L75.3947 11.6618L26.8259 39.7084L20.9711 36.3352Z" fill="#FF5823"/>
<path d="M26.8259 39.8723C26.7971 39.8724 26.7689 39.8648 26.744 39.8504L20.8893 36.4772C20.8643 36.463 20.8436 36.4424 20.8291 36.4175C20.8147 36.3926 20.8071 36.3644 20.8071 36.3357C20.8071 36.3069 20.8147 36.2787 20.8291 36.2538C20.8436 36.229 20.8643 36.2084 20.8893 36.1941L69.4032 8.17921C69.4279 8.16495 69.4559 8.15737 69.4844 8.15723C69.5129 8.15709 69.5409 8.16438 69.5657 8.17839L75.4751 11.52C75.5002 11.5342 75.5211 11.5548 75.5357 11.5797C75.5502 11.6045 75.558 11.6328 75.5581 11.6616C75.5582 11.6904 75.5507 11.7187 75.5363 11.7437C75.522 11.7687 75.5013 11.7894 75.4763 11.8038L26.9077 39.8504C26.8828 39.8648 26.8546 39.8724 26.8259 39.8723ZM21.2983 36.3355L26.8257 39.52L75.0651 11.6637L69.486 8.50896L21.2983 36.3355Z" fill="#1C3333"/>
<path d="M52.3614 26.3913C52.3327 26.3912 52.3046 26.3837 52.2797 26.3693L44.4172 21.8394C44.3986 21.8286 44.3822 21.8143 44.3692 21.7973C44.3561 21.7803 44.3464 21.7609 44.3409 21.7401C44.3353 21.7194 44.3339 21.6977 44.3367 21.6765C44.3394 21.6552 44.3464 21.6346 44.3571 21.616C44.3679 21.5974 44.3822 21.5811 44.3992 21.568C44.4163 21.555 44.4357 21.5454 44.4565 21.5398C44.4772 21.5342 44.4989 21.5328 44.5202 21.5356C44.5415 21.5384 44.562 21.5453 44.5807 21.556L52.4432 26.086C52.4745 26.104 52.4989 26.1318 52.5128 26.165C52.5266 26.1983 52.5291 26.2352 52.5197 26.2701C52.5104 26.3049 52.4898 26.3356 52.4612 26.3575C52.4325 26.3795 52.3975 26.3913 52.3614 26.3913Z" fill="#1C3333"/>
</g>
<g clip-path="url(#clip1_379_11209)">
<path d="M25.1757 120.514V106.813L35.2404 115.219C35.2404 115.219 36.2096 115.307 38.8971 113.764C39.1831 113.6 39.4322 113.362 39.6089 113.056C41.1115 110.455 39.1577 106.609 36.0183 104.887L25.1757 98.4262L25.2004 80.9023C25.2036 78.712 24.0632 76.6785 22.1922 75.5395L21.7952 75.2974C20.9801 74.8009 19.8662 75.0639 19.0733 75.344C18.2878 75.6216 16.7622 76.3577 16.7622 76.3577L17.9659 94.2479L6.74353 87.6623C5.99347 87.2288 5.11851 87.3575 4.28321 87.6543C3.95341 87.7715 2.1113 88.8963 2.1113 88.8963C2.1113 88.8963 4.55979 94.8272 7.66163 96.4459L17.9656 102.672V117.094C17.88 120.108 19.9427 124.979 19.9427 124.979L21.3381 124.695L24.1738 122.325C24.7972 121.934 25.1757 121.25 25.1757 120.514Z" fill="#1C3333"/>
<path d="M19.9428 125.327C19.8053 125.327 19.678 125.246 19.6227 125.115C19.5375 124.913 17.5315 120.14 17.6181 117.085V102.869L7.48183 96.7442C4.32294 95.0966 1.89184 89.2763 1.78991 89.0293C1.7245 88.871 1.78399 88.6887 1.93011 88.5996C2.24287 88.4087 3.82058 87.4499 4.16638 87.327C5.28765 86.9284 6.18731 86.9398 6.9172 87.3615L17.5743 93.6156L16.4151 76.3815C16.4057 76.24 16.4833 76.1067 16.611 76.0448C16.6739 76.0145 18.1629 75.2972 18.9575 75.0164C20.2541 74.5582 21.2418 74.5534 21.9762 75.0008L22.3735 75.2425C24.3353 76.4372 25.5519 78.606 25.5487 80.9031L25.524 98.229L36.1964 104.588C38.1415 105.655 39.7011 107.554 40.2557 109.538C40.637 110.902 40.5173 112.179 39.9099 113.23C39.7102 113.576 39.4197 113.865 39.0701 114.066C36.3648 115.62 35.3187 115.575 35.2088 115.566C35.1385 115.559 35.0717 115.532 35.0174 115.486L25.5237 107.557V120.515C25.5237 121.368 25.0965 122.148 24.3795 122.607L21.5612 124.963C21.517 125 21.4638 125.026 21.407 125.038L20.0116 125.321C19.9887 125.325 19.9654 125.327 19.9428 125.327ZM2.5511 89.0366C3.07121 90.2055 5.23999 94.7905 7.82242 96.1382L18.1455 102.375C18.2499 102.438 18.3136 102.551 18.3136 102.672V117.095C18.2422 119.616 19.7375 123.537 20.156 124.581L21.1827 124.373L23.9509 122.059C23.963 122.048 23.9759 122.039 23.9891 122.031C24.5145 121.701 24.8279 121.134 24.8279 120.515V106.813C24.8279 106.678 24.9062 106.556 25.0283 106.498C25.1504 106.441 25.2951 106.46 25.3988 106.546L35.3615 114.867C35.6499 114.837 36.6591 114.648 38.7236 113.463C38.9667 113.323 39.1689 113.122 39.3073 112.882C39.8191 111.997 39.9151 110.905 39.5856 109.726C39.0798 107.916 37.6486 106.178 35.851 105.193L24.9977 98.7255C24.8923 98.6625 24.8276 98.5488 24.8279 98.426L24.8526 80.9021C24.8557 78.8467 23.7668 76.9058 22.0113 75.8367L21.6144 75.5953C21.0769 75.2679 20.2607 75.294 19.1892 75.6729C18.602 75.8802 17.5687 76.361 17.1251 76.5708L18.3129 94.2255C18.3216 94.3542 18.2582 94.477 18.1487 94.5448C18.0387 94.6127 17.9006 94.6141 17.7896 94.549L6.56721 87.9633C6.01928 87.6468 5.32975 87.6527 4.39947 87.9832C4.21787 88.0472 3.28447 88.5934 2.5511 89.0366Z" fill="#1C3333"/>
<path d="M33.1922 106.094L22.35 99.6338L22.3747 82.11C22.3779 79.9196 21.2375 77.8862 19.3665 76.7472L18.9692 76.5054C17.339 75.5128 15.2491 76.6786 15.2377 78.5872L15.1399 95.4556L4.3701 88.8884C3.29649 88.2681 1.923 88.6355 1.3027 89.7091C-0.109408 92.153 1.73374 96.0345 4.83593 97.6533L15.1399 103.879V118.302C15.0505 121.453 17.4948 125.062 20.3743 124.977C21.481 124.945 22.35 124.011 22.35 122.904V108.02L34.1646 114.968C35.0823 115.495 36.2533 115.18 36.7828 114.264C38.2854 111.663 36.332 107.817 33.1922 106.094Z" fill="#FF5823"/>
<path d="M20.2731 125.327C19.1295 125.327 18.01 124.811 17.0282 123.83C15.6144 122.417 14.7366 120.244 14.792 118.292V104.075L4.65602 97.9514C2.7993 96.9832 1.27969 95.1558 0.708794 93.1926C0.315672 91.841 0.419693 90.542 1.00137 89.5355C1.71665 88.2973 3.30618 87.8722 4.544 88.5875L14.7954 94.8381L14.8897 78.5848C14.896 77.5613 15.4331 76.6526 16.3269 76.154C17.2206 75.6555 18.2761 75.6757 19.15 76.208L19.5473 76.4497C21.5091 77.6444 22.7257 79.8136 22.7226 82.1104L22.6979 99.4363L33.3647 105.792C35.3181 106.866 36.8753 108.763 37.4295 110.746C37.8108 112.109 37.6911 113.386 37.0837 114.438C36.4599 115.517 35.0725 115.89 33.9909 115.269L22.6979 108.628V122.904C22.6979 124.202 21.6601 125.288 20.3844 125.325C20.3472 125.326 20.3103 125.327 20.2731 125.327ZM3.25156 88.9343C2.59648 88.9343 1.95565 89.2746 1.60393 89.8834C1.11792 90.7243 1.03756 91.8306 1.3771 92.9985C1.89686 94.7856 3.28357 96.4513 4.99696 97.3454L15.3201 103.582C15.4244 103.645 15.4881 103.758 15.4881 103.88V118.303C15.4377 120.082 16.2354 122.054 17.5205 123.338C18.1304 123.948 19.1198 124.665 20.3642 124.631C21.2673 124.604 22.0024 123.83 22.0024 122.905V108.02C22.0024 107.895 22.0692 107.78 22.1774 107.718C22.2856 107.656 22.4189 107.657 22.5264 107.72L34.3409 114.668C35.0875 115.097 36.0491 114.838 36.4815 114.09C36.9933 113.204 37.0893 112.113 36.7598 110.933C36.254 109.123 34.8227 107.386 33.0252 106.4C33.0217 106.398 33.0179 106.396 33.0144 106.393L22.1719 99.9327C22.0665 99.8697 22.0017 99.756 22.0021 99.6332L22.0268 82.1093C22.0299 80.0539 20.941 78.113 19.1855 77.044L18.7882 76.8022C18.1311 76.4021 17.3379 76.3868 16.6657 76.7618C15.9939 77.1368 15.59 77.8198 15.5855 78.589L15.4878 95.4577C15.4871 95.583 15.4189 95.6985 15.3093 95.7594C15.1997 95.8206 15.0658 95.8178 14.9586 95.7524L4.18914 89.1855C3.89413 89.0154 3.57093 88.9343 3.25156 88.9343Z" fill="#1C3333"/>
</g>
<defs>
<clipPath id="clip0_379_11209">
<rect width="114.055" height="116.673" fill="white" transform="translate(7.47272 0.608398)"/>
</clipPath>
<clipPath id="clip1_379_11209">
<rect width="40" height="50.7826" fill="white" transform="translate(0.472717 74.6084)"/>
</clipPath>
</defs>
</svg>
