<svg width="32" height="32" viewBox="0 0 32 32" fill="none" xmlns="http://www.w3.org/2000/svg">
<path d="M23.0374 2.112C22.928 2.03933 22.7987 2 22.6674 2H9.33335C9.20202 2 9.07269 2.03933 8.96335 2.112L0.666687 8C0.666687 8 1.04002 8.66667 1.33335 8.66667H30.6667C30.96 8.66667 31.3334 8 31.3334 8L23.0374 2.112Z" fill="#C2C2C2"/>
<path d="M0.666687 8H31.3334V22C31.3334 26.4183 27.7516 30 23.3334 30H8.66668C4.2484 30 0.666687 26.4183 0.666687 22V8Z" fill="#D6D6D6"/>
<path d="M12 8L14 2H18L20 8H12Z" fill="#DA3109"/>
<path d="M20 8H12V16.6667H20V8Z" fill="#FF5823"/>
</svg>
