<svg width="32" height="32" viewBox="0 0 32 32" fill="none" xmlns="http://www.w3.org/2000/svg">
<path d="M23.0377 2.112C22.9283 2.03933 22.799 2 22.6677 2H9.33366C9.20232 2 9.07299 2.03933 8.96366 2.112L0.666992 8C0.666992 8 1.04033 8.66667 1.33366 8.66667H30.667C30.9603 8.66667 31.3337 8 31.3337 8L23.0377 2.112Z" fill="#C2C2C2"/>
<path d="M0.666992 8H31.3337V22C31.3337 26.4183 27.7519 30 23.3337 30H8.66699C4.24871 30 0.666992 26.4183 0.666992 22V8Z" fill="#D6D6D6"/>
<path d="M14.899 20.7898L15.2968 21.0682L13.1405 25.3949L12.7655 25.0852L14.899 20.7898ZM14.0326 26.0938C13.5837 26.0938 13.2002 25.9763 12.882 25.7415C12.5638 25.5047 12.3204 25.1629 12.1519 24.7159C11.9833 24.267 11.899 23.7254 11.899 23.0909C11.899 22.4602 11.9833 21.9223 12.1519 21.4773C12.3223 21.0303 12.5667 20.6894 12.8848 20.4545C13.2049 20.2178 13.5875 20.0994 14.0326 20.0994C14.4776 20.0994 14.8593 20.2178 15.1775 20.4545C15.4956 20.6894 15.739 21.0303 15.9076 21.4773C16.078 21.9223 16.1633 22.4602 16.1633 23.0909C16.1633 23.7254 16.079 24.267 15.9104 24.7159C15.7419 25.1629 15.4985 25.5047 15.1803 25.7415C14.8621 25.9763 14.4795 26.0938 14.0326 26.0938ZM14.0326 25.3352C14.4265 25.3352 14.7343 25.1439 14.9559 24.7614C15.1794 24.3769 15.2911 23.8201 15.2911 23.0909C15.2911 22.608 15.24 22.1998 15.1377 21.8665C15.0373 21.5312 14.8924 21.2775 14.703 21.1051C14.5155 20.9328 14.292 20.8466 14.0326 20.8466C13.6405 20.8466 13.3328 21.0398 13.1093 21.4261C12.8858 21.8125 12.7731 22.3674 12.7712 23.0909C12.7712 23.5758 12.8214 23.9858 12.9218 24.321C13.024 24.6544 13.1689 24.9072 13.3564 25.0795C13.5439 25.25 13.7693 25.3352 14.0326 25.3352ZM19.5385 20.1818V26H18.6578V21.0625H18.6237L17.2316 21.9716V21.1307L18.6833 20.1818H19.5385Z" fill="#1A1A1A"/>
<path d="M12 8L14 2H18L20 8H12Z" fill="#DA3109"/>
<path d="M20 8H12V16.6667H20V8Z" fill="#FF5823"/>
</svg>
