<svg width="32" height="32" viewBox="0 0 32 32" fill="none" xmlns="http://www.w3.org/2000/svg">
<path d="M23.0377 2.112C22.9283 2.03933 22.799 2 22.6677 2H9.33366C9.20232 2 9.07299 2.03933 8.96366 2.112L0.666992 8C0.666992 8 1.04033 8.66667 1.33366 8.66667H30.667C30.9603 8.66667 31.3337 8 31.3337 8L23.0377 2.112Z" fill="#C2C2C2"/>
<path d="M0.666992 8H31.3337V22C31.3337 26.4183 27.7519 30 23.3337 30H8.66699C4.24871 30 0.666992 26.4183 0.666992 22V8Z" fill="#D6D6D6"/>
<path d="M14.3365 20.7898L14.7343 21.0682L12.578 25.3949L12.203 25.0852L14.3365 20.7898ZM13.4701 26.0938C13.0212 26.0938 12.6377 25.9763 12.3195 25.7415C12.0013 25.5047 11.7579 25.1629 11.5894 24.7159C11.4208 24.267 11.3365 23.7254 11.3365 23.0909C11.3365 22.4602 11.4208 21.9223 11.5894 21.4773C11.7598 21.0303 12.0042 20.6894 12.3223 20.4545C12.6424 20.2178 13.025 20.0994 13.4701 20.0994C13.9151 20.0994 14.2968 20.2178 14.615 20.4545C14.9331 20.6894 15.1765 21.0303 15.3451 21.4773C15.5155 21.9223 15.6008 22.4602 15.6008 23.0909C15.6008 23.7254 15.5165 24.267 15.3479 24.7159C15.1794 25.1629 14.936 25.5047 14.6178 25.7415C14.2996 25.9763 13.917 26.0938 13.4701 26.0938ZM13.4701 25.3352C13.864 25.3352 14.1718 25.1439 14.3934 24.7614C14.6169 24.3769 14.7286 23.8201 14.7286 23.0909C14.7286 22.608 14.6775 22.1998 14.5752 21.8665C14.4748 21.5312 14.3299 21.2775 14.1405 21.1051C13.953 20.9328 13.7295 20.8466 13.4701 20.8466C13.078 20.8466 12.7703 21.0398 12.5468 21.4261C12.3233 21.8125 12.2106 22.3674 12.2087 23.0909C12.2087 23.5758 12.2589 23.9858 12.3593 24.321C12.4615 24.6544 12.6064 24.9072 12.7939 25.0795C12.9814 25.25 13.2068 25.3352 13.4701 25.3352ZM16.7686 26V25.3636L18.7373 23.3239C18.9475 23.1023 19.1208 22.9081 19.2572 22.7415C19.3955 22.5729 19.4987 22.4129 19.5669 22.2614C19.635 22.1098 19.6691 21.9489 19.6691 21.7784C19.6691 21.5852 19.6237 21.4186 19.5328 21.2784C19.4419 21.1364 19.3178 21.0275 19.1606 20.9517C19.0034 20.8741 18.8263 20.8352 18.6294 20.8352C18.421 20.8352 18.2392 20.8778 18.0839 20.9631C17.9286 21.0483 17.8093 21.1686 17.726 21.3239C17.6426 21.4792 17.601 21.661 17.601 21.8693H16.7629C16.7629 21.5152 16.8443 21.2055 17.0072 20.9403C17.1701 20.6752 17.3936 20.4697 17.6777 20.3239C17.9617 20.1761 18.2847 20.1023 18.6464 20.1023C19.0119 20.1023 19.3339 20.1752 19.6123 20.321C19.8926 20.465 20.1114 20.6619 20.2686 20.9119C20.4258 21.16 20.5044 21.4403 20.5044 21.7528C20.5044 21.9688 20.4636 22.1799 20.3822 22.3864C20.3027 22.5928 20.1635 22.8229 19.9646 23.0767C19.7657 23.3286 19.4892 23.6345 19.135 23.9943L17.9788 25.2045V25.2472H20.5981V26H16.7686Z" fill="#1A1A1A"/>
<path d="M12 8L14 2H18L20 8H12Z" fill="#DA3109"/>
<path d="M20 8H12V16.6667H20V8Z" fill="#FF5823"/>
</svg>
