<svg width="32" height="32" viewBox="0 0 32 32" fill="none" xmlns="http://www.w3.org/2000/svg">
<path d="M23.0377 2.112C22.9283 2.03933 22.799 2 22.6677 2H9.33366C9.20232 2 9.07299 2.03933 8.96366 2.112L0.666992 8C0.666992 8 1.04033 8.66667 1.33366 8.66667H30.667C30.9603 8.66667 31.3337 8 31.3337 8L23.0377 2.112Z" fill="#C2C2C2"/>
<path d="M0.666992 8H31.3337V22C31.3337 26.4183 27.7519 30 23.3337 30H8.66699C4.24871 30 0.666992 26.4183 0.666992 22V8Z" fill="#D6D6D6"/>
<path d="M14.2115 20.7898L14.6093 21.0682L12.453 25.3949L12.078 25.0852L14.2115 20.7898ZM13.3451 26.0938C12.8962 26.0938 12.5127 25.9763 12.1945 25.7415C11.8763 25.5047 11.6329 25.1629 11.4644 24.7159C11.2958 24.267 11.2115 23.7254 11.2115 23.0909C11.2115 22.4602 11.2958 21.9223 11.4644 21.4773C11.6348 21.0303 11.8792 20.6894 12.1973 20.4545C12.5174 20.2178 12.9 20.0994 13.3451 20.0994C13.7901 20.0994 14.1718 20.2178 14.49 20.4545C14.8081 20.6894 15.0515 21.0303 15.2201 21.4773C15.3905 21.9223 15.4758 22.4602 15.4758 23.0909C15.4758 23.7254 15.3915 24.267 15.2229 24.7159C15.0544 25.1629 14.811 25.5047 14.4928 25.7415C14.1746 25.9763 13.792 26.0938 13.3451 26.0938ZM13.3451 25.3352C13.739 25.3352 14.0468 25.1439 14.2684 24.7614C14.4919 24.3769 14.6036 23.8201 14.6036 23.0909C14.6036 22.608 14.5525 22.1998 14.4502 21.8665C14.3498 21.5312 14.2049 21.2775 14.0155 21.1051C13.828 20.9328 13.6045 20.8466 13.3451 20.8466C12.953 20.8466 12.6453 21.0398 12.4218 21.4261C12.1983 21.8125 12.0856 22.3674 12.0837 23.0909C12.0837 23.5758 12.1339 23.9858 12.2343 24.321C12.3365 24.6544 12.4814 24.9072 12.6689 25.0795C12.8564 25.25 13.0818 25.3352 13.3451 25.3352ZM18.6691 26.0795C18.279 26.0795 17.9305 26.0123 17.6237 25.8778C17.3188 25.7434 17.0773 25.5568 16.8992 25.3182C16.7231 25.0777 16.6284 24.7992 16.6152 24.483H17.5072C17.5186 24.6553 17.5763 24.8049 17.6805 24.9318C17.7866 25.0568 17.9248 25.1534 18.0953 25.2216C18.2657 25.2898 18.4551 25.3239 18.6635 25.3239C18.8926 25.3239 19.0953 25.2841 19.2714 25.2045C19.4494 25.125 19.5886 25.0142 19.689 24.8722C19.7894 24.7282 19.8396 24.5625 19.8396 24.375C19.8396 24.1799 19.7894 24.0085 19.689 23.8608C19.5905 23.7112 19.4456 23.5937 19.2544 23.5085C19.065 23.4233 18.8358 23.3807 18.5669 23.3807H18.0754V22.6648H18.5669C18.7828 22.6648 18.9722 22.6259 19.135 22.5483C19.2998 22.4706 19.4286 22.3627 19.5214 22.2244C19.6142 22.0843 19.6606 21.9205 19.6606 21.733C19.6606 21.553 19.6199 21.3968 19.5385 21.2642C19.4589 21.1297 19.3453 21.0246 19.1975 20.9489C19.0517 20.8731 18.8794 20.8352 18.6805 20.8352C18.4911 20.8352 18.314 20.8703 18.1492 20.9403C17.9864 21.0085 17.8538 21.107 17.7515 21.2358C17.6492 21.3627 17.5943 21.5152 17.5867 21.6932H16.7373C16.7468 21.3788 16.8396 21.1023 17.0157 20.8636C17.1938 20.625 17.4286 20.4384 17.7203 20.304C18.0119 20.1695 18.3358 20.1023 18.6919 20.1023C19.065 20.1023 19.3869 20.1752 19.6578 20.321C19.9305 20.465 20.1407 20.6572 20.2885 20.8977C20.4381 21.1383 20.5119 21.4015 20.51 21.6875C20.5119 22.0133 20.421 22.2898 20.2373 22.517C20.0555 22.7443 19.8131 22.8968 19.51 22.9744V23.0199C19.8964 23.0786 20.1956 23.232 20.4078 23.4801C20.6218 23.7282 20.7278 24.036 20.726 24.4034C20.7278 24.7235 20.6388 25.0104 20.4589 25.2642C20.2809 25.518 20.0375 25.7178 19.7288 25.8636C19.4201 26.0076 19.0669 26.0795 18.6691 26.0795Z" fill="#1A1A1A"/>
<path d="M12 8L14 2H18L20 8H12Z" fill="#DA3109"/>
<path d="M20 8H12V16.6667H20V8Z" fill="#FF5823"/>
</svg>
