<svg width="32" height="32" viewBox="0 0 32 32" fill="none" xmlns="http://www.w3.org/2000/svg">
<g id="Group 78">
<rect id="Rectangle 88" width="32" height="32" rx="12" fill="#FF5823"/>
<path id="package_2" d="M15 25V16.6502L7 12.4297V19.7529C7 20.0875 7.0875 20.3916 7.2625 20.6654C7.4375 20.9392 7.68333 21.1597 8 21.327L15 25ZM17 25L24 21.327C24.3167 21.1597 24.5625 20.9392 24.7375 20.6654C24.9125 20.3916 25 20.0875 25 19.7529V12.4297L17 16.6502V25ZM20.975 12.4525L23.925 10.8783L17 7.25095C16.6833 7.08365 16.35 7 16 7C15.65 7 15.3167 7.08365 15 7.25095L13.025 8.27757L20.975 12.4525ZM16 15.076L18.975 13.5247L11.05 9.327L8.05 10.9011L16 15.076Z" fill="white"/>
</g>
</svg>
