<svg width="14" height="14" viewBox="0 0 14 14" fill="none" xmlns="http://www.w3.org/2000/svg">
<path d="M7.66634 8.33301H8.99967V6.33301H10.9997V4.99967H8.99967V2.99967H7.66634V4.99967H5.66634V6.33301H7.66634V8.33301ZM4.33301 10.9997C3.96634 10.9997 3.65245 10.8691 3.39134 10.608C3.13023 10.3469 2.99967 10.033 2.99967 9.66634V1.66634C2.99967 1.29967 3.13023 0.985786 3.39134 0.724675C3.65245 0.463563 3.96634 0.333008 4.33301 0.333008H12.333C12.6997 0.333008 13.0136 0.463563 13.2747 0.724675C13.5358 0.985786 13.6663 1.29967 13.6663 1.66634V9.66634C13.6663 10.033 13.5358 10.3469 13.2747 10.608C13.0136 10.8691 12.6997 10.9997 12.333 10.9997H4.33301ZM1.66634 13.6663C1.29967 13.6663 0.985786 13.5358 0.724674 13.2747C0.463563 13.0136 0.333008 12.6997 0.333008 12.333V2.99967H1.66634V12.333H10.9997V13.6663H1.66634Z" fill="#1A1A1A"/>
</svg>
