<svg width="24" height="24" viewBox="0 0 24 24" fill="none" xmlns="http://www.w3.org/2000/svg">
<path d="M0 6C0 2.68629 2.68629 0 6 0H18C21.3137 0 24 2.68629 24 6V18C24 21.3137 21.3137 24 18 24H6C2.68629 24 0 21.3137 0 18V6Z" fill="white"/>
<path d="M11.3333 18.483V12.383L6 9.29967V14.6497C6 14.8941 6.05833 15.1163 6.175 15.3163C6.29167 15.5163 6.45556 15.6775 6.66667 15.7997L11.3333 18.483ZM12.6667 18.483L17.3333 15.7997C17.5444 15.6775 17.7083 15.5163 17.825 15.3163C17.9417 15.1163 18 14.8941 18 14.6497V9.29967L12.6667 12.383V18.483ZM15.3167 9.31634L17.2833 8.16634L12.6667 5.51634C12.4556 5.39412 12.2333 5.33301 12 5.33301C11.7667 5.33301 11.5444 5.39412 11.3333 5.51634L10.0167 6.26634L15.3167 9.31634ZM12 11.233L13.9833 10.0997L8.7 7.03301L6.7 8.18301L12 11.233Z" fill="#1A1A1A"/>
<path d="M0.5 6C0.5 2.96243 2.96243 0.5 6 0.5H18C21.0376 0.5 23.5 2.96243 23.5 6V18C23.5 21.0376 21.0376 23.5 18 23.5H6C2.96243 23.5 0.5 21.0376 0.5 18V6Z" stroke="black" stroke-opacity="0.12"/>
</svg>
