<svg width="16" height="16" viewBox="0 0 16 16" fill="none" xmlns="http://www.w3.org/2000/svg">
<g id="Icon">
<path id="Vector" d="M5.13331 10.8666C5.25554 10.9889 5.41109 11.05 5.59998 11.05C5.78887 11.05 5.94442 10.9889 6.06665 10.8666L7.99998 8.93331L9.94998 10.8833C10.0722 11.0055 10.2251 11.0638 10.4086 11.058C10.5918 11.0526 10.7444 10.9889 10.8666 10.8666C10.9889 10.7444 11.05 10.5889 11.05 10.4C11.05 10.2111 10.9889 10.0555 10.8666 9.93331L8.93331 7.99998L10.8833 6.04998C11.0055 5.92776 11.0638 5.77487 11.058 5.59131C11.0526 5.4082 10.9889 5.25554 10.8666 5.13331C10.7444 5.01109 10.5889 4.94998 10.4 4.94998C10.2111 4.94998 10.0555 5.01109 9.93331 5.13331L7.99998 7.06665L6.04998 5.11665C5.92776 4.99442 5.77509 4.93598 5.59198 4.94131C5.40842 4.94709 5.25554 5.01109 5.13331 5.13331C5.01109 5.25554 4.94998 5.41109 4.94998 5.59998C4.94998 5.78887 5.01109 5.94442 5.13331 6.06665L7.06665 7.99998L5.11665 9.94998C4.99442 10.0722 4.9362 10.2249 4.94198 10.408C4.94731 10.5915 5.01109 10.7444 5.13331 10.8666ZM7.99998 14.6666C7.07776 14.6666 6.21109 14.4915 5.39998 14.1413C4.58887 13.7915 3.88331 13.3166 3.28331 12.7166C2.68331 12.1166 2.20842 11.4111 1.85865 10.6C1.50842 9.78887 1.33331 8.9222 1.33331 7.99998C1.33331 7.07776 1.50842 6.21109 1.85865 5.39998C2.20842 4.58887 2.68331 3.88331 3.28331 3.28331C3.88331 2.68331 4.58887 2.2082 5.39998 1.85798C6.21109 1.5082 7.07776 1.33331 7.99998 1.33331C8.9222 1.33331 9.78887 1.5082 10.6 1.85798C11.4111 2.2082 12.1166 2.68331 12.7166 3.28331C13.3166 3.88331 13.7915 4.58887 14.1413 5.39998C14.4915 6.21109 14.6666 7.07776 14.6666 7.99998C14.6666 8.9222 14.4915 9.78887 14.1413 10.6C13.7915 11.4111 13.3166 12.1166 12.7166 12.7166C12.1166 13.3166 11.4111 13.7915 10.6 14.1413C9.78887 14.4915 8.9222 14.6666 7.99998 14.6666Z" fill="#CD0710"/>
</g>
</svg>
