<svg width="20" height="20" viewBox="0 0 20 20" fill="none" xmlns="http://www.w3.org/2000/svg">
<g id="check_circle_google">
<path id="Vector" d="M8.83329 11.5001L7.02079 9.68758C6.86802 9.5348 6.68052 9.45842 6.45829 9.45842C6.23607 9.45842 6.04163 9.54175 5.87496 9.70842C5.72218 9.86119 5.64579 10.0556 5.64579 10.2917C5.64579 10.5279 5.72218 10.7223 5.87496 10.8751L8.24996 13.2501C8.40274 13.4029 8.59718 13.4792 8.83329 13.4792C9.0694 13.4792 9.26385 13.4029 9.41663 13.2501L14.1458 8.52092C14.2986 8.36814 14.375 8.18064 14.375 7.95842C14.375 7.73619 14.2916 7.54175 14.125 7.37508C13.9722 7.2223 13.7777 7.14592 13.5416 7.14592C13.3055 7.14592 13.1111 7.2223 12.9583 7.37508L8.83329 11.5001ZM9.99996 18.3334C8.84718 18.3334 7.76385 18.1145 6.74996 17.6767C5.73607 17.2395 4.85413 16.6459 4.10413 15.8959C3.35413 15.1459 2.76051 14.264 2.32329 13.2501C1.88551 12.2362 1.66663 11.1529 1.66663 10.0001C1.66663 8.8473 1.88551 7.76397 2.32329 6.75008C2.76051 5.73619 3.35413 4.85425 4.10413 4.10425C4.85413 3.35425 5.73607 2.76036 6.74996 2.32258C7.76385 1.88536 8.84718 1.66675 9.99996 1.66675C11.1527 1.66675 12.2361 1.88536 13.25 2.32258C14.2638 2.76036 15.1458 3.35425 15.8958 4.10425C16.6458 4.85425 17.2394 5.73619 17.6766 6.75008C18.1144 7.76397 18.3333 8.8473 18.3333 10.0001C18.3333 11.1529 18.1144 12.2362 17.6766 13.2501C17.2394 14.264 16.6458 15.1459 15.8958 15.8959C15.1458 16.6459 14.2638 17.2395 13.25 17.6767C12.2361 18.1145 11.1527 18.3334 9.99996 18.3334Z" fill="#3D3D3D"/>
</g>
</svg>
