<svg width="16" height="16" viewBox="0 0 16 16" fill="none" xmlns="http://www.w3.org/2000/svg">
<path d="M6.19967 14.6673L5.93301 12.534C5.78856 12.4784 5.65245 12.4118 5.52467 12.334C5.3969 12.2562 5.2719 12.1729 5.14967 12.084L3.16634 12.9173L1.33301 9.75065L3.04967 8.45065C3.03856 8.37287 3.03301 8.29787 3.03301 8.22565V7.77565C3.03301 7.70343 3.03856 7.62843 3.04967 7.55065L1.33301 6.25065L3.16634 3.08398L5.14967 3.91732C5.2719 3.82843 5.39967 3.7451 5.53301 3.66732C5.66634 3.58954 5.79967 3.52287 5.93301 3.46732L6.19967 1.33398H9.86634L10.133 3.46732C10.2775 3.52287 10.4136 3.58954 10.5413 3.66732C10.6691 3.7451 10.7941 3.82843 10.9163 3.91732L12.8997 3.08398L14.733 6.25065L13.0163 7.55065C13.0275 7.62843 13.033 7.70343 13.033 7.77565V8.22565C13.033 8.29787 13.0219 8.37287 12.9997 8.45065L14.7163 9.75065L12.883 12.9173L10.9163 12.084C10.7941 12.1729 10.6663 12.2562 10.533 12.334C10.3997 12.4118 10.2663 12.4784 10.133 12.534L9.86634 14.6673H6.19967ZM8.06634 10.334C8.71079 10.334 9.26079 10.1062 9.71634 9.65065C10.1719 9.1951 10.3997 8.6451 10.3997 8.00065C10.3997 7.35621 10.1719 6.80621 9.71634 6.35065C9.26079 5.8951 8.71079 5.66732 8.06634 5.66732C7.41079 5.66732 6.85801 5.8951 6.40801 6.35065C5.95801 6.80621 5.73301 7.35621 5.73301 8.00065C5.73301 8.6451 5.95801 9.1951 6.40801 9.65065C6.85801 10.1062 7.41079 10.334 8.06634 10.334Z" fill="#1A1A1A"/>
</svg>
