<svg width="200" height="188" viewBox="0 0 200 188" fill="none" xmlns="http://www.w3.org/2000/svg">
<g clip-path="url(#clip0_772_43009)">
<path d="M183.127 31.186L135.093 3.61388C134.478 3.26087 133.712 3.70596 133.714 4.41478L133.839 45.6447C133.839 45.7942 133.879 45.941 133.954 46.0705C134.029 46.2 134.136 46.3076 134.266 46.3826L184.252 75.3772C184.259 75.3814 184.267 75.3836 184.275 75.3836C184.283 75.3836 184.292 75.3815 184.299 75.3773C184.306 75.3732 184.312 75.3673 184.316 75.3601C184.32 75.3529 184.323 75.3448 184.323 75.3365L184.454 33.4862C184.456 33.0198 184.334 32.5614 184.101 32.1574C183.867 31.7534 183.532 31.4183 183.127 31.186H183.127Z" fill="white"/>
<path d="M184.275 75.5044C184.246 75.5044 184.216 75.4967 184.19 75.4816L134.204 46.4871C134.057 46.401 133.934 46.2781 133.849 46.1302C133.763 45.9824 133.718 45.8149 133.717 45.6441L133.592 4.41421C133.591 4.03721 133.785 3.69931 134.111 3.50989C134.437 3.32048 134.827 3.31962 135.154 3.50733L183.187 31.0796C183.61 31.323 183.961 31.6737 184.205 32.0962C184.449 32.5187 184.577 32.998 184.576 33.4857L184.444 75.336C184.444 75.3807 184.426 75.4235 184.394 75.455C184.363 75.4866 184.32 75.5044 184.275 75.5045L184.275 75.5044ZM134.634 3.61124C134.493 3.61152 134.355 3.64922 134.233 3.7205C134.111 3.79028 134.01 3.89125 133.94 4.01302C133.87 4.13479 133.834 4.27298 133.836 4.41336L133.961 45.6434C133.961 45.7716 133.995 45.8974 134.06 46.0083C134.124 46.1193 134.216 46.2117 134.326 46.2762L184.201 75.2059L184.332 33.4848C184.333 33.04 184.216 32.6028 183.994 32.2176C183.772 31.8323 183.451 31.5125 183.066 31.2906L135.032 3.71855C134.911 3.64853 134.774 3.61152 134.634 3.61124Z" fill="#1C3333"/>
<path d="M185.413 31.3262C185.66 31.7389 185.79 32.2112 185.788 32.6922L185.657 74.542L184.307 75.3692C184.312 75.3647 184.315 75.3594 184.318 75.3535C184.321 75.3476 184.322 75.3413 184.322 75.3348L184.453 33.484C184.455 33.0243 184.336 32.5722 184.109 32.1724L185.413 31.3262Z" fill="#1C3333"/>
<path d="M184.307 75.4915C184.286 75.4915 184.265 75.486 184.247 75.4756C184.228 75.4652 184.213 75.4501 184.202 75.4319C184.191 75.4138 184.185 75.3931 184.185 75.3719C184.185 75.3508 184.19 75.3299 184.2 75.3113L184.331 33.4841C184.332 33.0456 184.219 32.6144 184.003 32.2328C183.988 32.2058 183.983 32.174 183.991 32.1438C183.998 32.1137 184.017 32.0875 184.043 32.0706L185.347 31.2246C185.375 31.2066 185.409 31.201 185.441 31.208C185.473 31.2156 185.501 31.2359 185.518 31.2642C185.776 31.6959 185.912 32.1899 185.91 32.693L185.779 74.5427C185.779 74.5635 185.773 74.584 185.763 74.6021C185.753 74.6202 185.738 74.6354 185.72 74.6463L184.371 75.4735C184.352 75.4852 184.33 75.4914 184.307 75.4914L184.307 75.4915ZM184.27 32.2138C184.472 32.6071 184.576 33.0429 184.575 33.4849L184.444 75.1428L185.535 74.4743L185.666 32.6924C185.668 32.2765 185.566 31.8667 185.371 31.4995L184.27 32.2138Z" fill="#1C3333"/>
<path d="M184.109 32.1713C183.876 31.7599 183.536 31.4186 183.126 31.1831L135.093 3.61091C134.788 3.43624 134.447 3.45682 134.18 3.60799C134.437 3.44903 135.324 2.89856 135.589 2.77785C135.722 2.71718 135.868 2.68925 136.013 2.69641C136.159 2.70358 136.301 2.74562 136.427 2.81902L184.461 30.3912C184.853 30.6159 185.181 30.9375 185.413 31.3252L184.109 32.1713H184.109Z" fill="white"/>
<path d="M184.109 32.298C184.087 32.2981 184.066 32.2924 184.048 32.2816C184.029 32.2707 184.014 32.2551 184.003 32.2363C183.78 31.8439 183.457 31.5184 183.065 31.2937L135.032 3.72141C134.911 3.65158 134.775 3.61459 134.636 3.61414C134.497 3.61369 134.36 3.6498 134.24 3.71885C134.212 3.73423 134.179 3.73819 134.149 3.72989C134.118 3.72159 134.092 3.70169 134.076 3.67441C134.059 3.64713 134.055 3.61463 134.062 3.5838C134.069 3.55298 134.089 3.52626 134.115 3.50933L134.15 3.48789C134.634 3.18848 135.304 2.77847 135.539 2.67189C135.689 2.60301 135.854 2.57128 136.019 2.57936C136.184 2.58743 136.345 2.63508 136.488 2.7183L184.522 30.2906C184.932 30.5259 185.275 30.8622 185.518 31.2676C185.551 31.3239 185.534 31.3967 185.479 31.4324L184.176 32.2784C184.156 32.2912 184.133 32.298 184.109 32.298H184.109ZM134.788 3.38192C134.917 3.40174 135.04 3.44524 135.153 3.51019L183.187 31.0825C183.578 31.3072 183.908 31.624 184.149 32.0053L185.246 31.2934C185.029 30.9676 184.74 30.6966 184.4 30.5018L136.367 2.92952C136.257 2.86571 136.134 2.82916 136.007 2.82292C135.881 2.81669 135.754 2.84097 135.639 2.8937C135.489 2.96228 135.117 3.18215 134.788 3.38192Z" fill="#1C3333"/>
<path d="M133.721 6.75183L184.454 35.9979V33.4861C184.456 33.0197 184.334 32.5612 184.1 32.1573C183.867 31.7533 183.531 31.4182 183.127 31.1859L135.093 3.61388C134.478 3.26087 133.712 3.70596 133.714 4.41478L133.721 6.75183Z" fill="#8EAAA4"/>
<path d="M184.454 36.1189C184.433 36.1189 184.412 36.1134 184.393 36.1026L133.66 6.8566C133.641 6.84597 133.626 6.83066 133.615 6.81221C133.605 6.79375 133.599 6.77281 133.599 6.75148L133.592 4.4143C133.591 4.0373 133.785 3.6994 134.111 3.50998C134.437 3.32045 134.827 3.31959 135.154 3.50742L183.187 31.0797C183.61 31.3231 183.961 31.6738 184.205 32.0963C184.449 32.5188 184.577 32.9981 184.576 33.4858V35.9972C184.576 36.0132 184.573 36.0291 184.567 36.0439C184.561 36.0586 184.552 36.0721 184.54 36.0834C184.529 36.0947 184.516 36.1037 184.501 36.1098C184.486 36.1159 184.47 36.119 184.454 36.119L184.454 36.1189ZM133.842 6.68059L184.332 35.7862V33.4853C184.333 33.0405 184.216 32.6033 183.994 32.218C183.772 31.8326 183.451 31.5128 183.066 31.2908L135.032 3.71864C134.911 3.64795 134.773 3.61088 134.632 3.61124C134.492 3.61161 134.354 3.64939 134.233 3.72071C134.111 3.79049 134.01 3.89146 133.94 4.01323C133.87 4.13501 133.834 4.27319 133.835 4.41357L133.842 6.68047L133.842 6.68059Z" fill="#1C3333"/>
<path d="M178.863 31.3274C179.132 31.1722 179.129 30.6631 178.856 30.1904C178.583 29.7177 178.144 29.4603 177.875 29.6155C177.606 29.7707 177.609 30.2797 177.882 30.7524C178.155 31.2252 178.594 31.4826 178.863 31.3274Z" fill="white"/>
<path d="M178.688 31.4967C178.383 31.4967 178.021 31.2383 177.777 30.8159C177.466 30.2768 177.482 29.7043 177.814 29.5126C178.146 29.3206 178.65 29.593 178.962 30.1321C179.273 30.6712 179.257 31.2437 178.925 31.4355C178.853 31.4765 178.771 31.4976 178.688 31.4967ZM177.988 30.6941C178.243 31.1363 178.622 31.3286 178.803 31.2245C178.983 31.1205 179.006 30.6962 178.751 30.2539C178.495 29.8117 178.116 29.6193 177.936 29.7235C177.755 29.8276 177.733 30.252 177.988 30.6941Z" fill="#1C3333"/>
<path d="M180.919 32.5481C181.188 32.3929 181.185 31.8838 180.912 31.4111C180.639 30.9384 180.199 30.681 179.93 30.8362C179.661 30.9914 179.665 31.5004 179.938 31.9731C180.211 32.4459 180.65 32.7033 180.919 32.5481Z" fill="white"/>
<path d="M180.742 32.718C180.625 32.718 180.497 32.6798 180.368 32.6038C180.164 32.4845 179.974 32.2832 179.832 32.0366C179.52 31.4975 179.537 30.925 179.869 30.7333C180.201 30.5413 180.705 30.8138 181.016 31.3529C181.328 31.8919 181.311 32.4643 180.979 32.6562C180.907 32.6976 180.825 32.719 180.741 32.7182L180.742 32.718ZM180.043 31.9147C180.164 32.1253 180.323 32.2954 180.491 32.3935C180.635 32.4776 180.768 32.4967 180.857 32.4451C181.038 32.341 181.061 31.9168 180.805 31.4746C180.55 31.0322 180.171 30.84 179.99 30.9442C179.81 31.0483 179.787 31.4725 180.042 31.9148L180.043 31.9147Z" fill="#1C3333"/>
<path d="M182.95 33.7004C183.219 33.5452 183.216 33.0362 182.943 32.5635C182.67 32.0907 182.23 31.8333 181.962 31.9885C181.693 32.1437 181.696 32.6528 181.969 33.1255C182.242 33.5982 182.681 33.8556 182.95 33.7004Z" fill="white"/>
<path d="M182.774 33.8672C182.657 33.8672 182.53 33.8289 182.4 33.7529C182.197 33.6337 182.006 33.4323 181.864 33.1858C181.721 32.9392 181.642 32.6737 181.641 32.4381C181.639 32.1777 181.731 31.9803 181.901 31.8824C182.071 31.7842 182.288 31.8031 182.513 31.9348C182.716 32.054 182.906 32.2554 183.049 32.5019C183.191 32.7485 183.27 33.014 183.272 33.2496C183.274 33.51 183.181 33.7074 183.012 33.8053C182.939 33.8467 182.857 33.8681 182.774 33.8673V33.8672ZM182.139 32.0649C182.095 32.0649 182.056 32.0742 182.023 32.0934C181.934 32.1448 181.883 32.2697 181.884 32.4364C181.886 32.6303 181.953 32.8531 182.075 33.0637C182.197 33.2743 182.356 33.4444 182.523 33.5425C182.667 33.6266 182.8 33.6457 182.89 33.5941C182.979 33.5427 183.029 33.4177 183.028 33.2511C183.027 33.0571 182.959 32.8343 182.838 32.6237C182.716 32.4131 182.557 32.2431 182.389 32.1449C182.299 32.0919 182.213 32.0649 182.139 32.0649Z" fill="#1C3333"/>
</g>
<g clip-path="url(#clip1_772_43009)">
<path d="M87.3682 75.685L85.7404 76.6837L52.1019 55.0676L50.3066 1.42958L51.9347 0.339844L83.0872 18.2259L87.5029 25.8354L87.3682 75.685Z" fill="white"/>
<path d="M85.7403 76.8083C85.7169 76.8083 85.694 76.8016 85.6743 76.7889L52.0358 55.1729C52.0192 55.1623 52.0055 55.1477 51.9958 55.1306C51.986 55.1134 51.9806 55.0942 51.98 55.0745L50.1846 1.43635C50.184 1.41566 50.1885 1.39514 50.198 1.37672C50.2074 1.3583 50.2214 1.34259 50.2386 1.33107L51.8669 0.241339C51.8857 0.228674 51.9078 0.221549 51.9305 0.220774C51.9532 0.219999 51.9757 0.225603 51.9953 0.236952L83.1478 18.123C83.1664 18.1337 83.1818 18.1491 83.1926 18.1675L87.6081 25.7769C87.619 25.7955 87.6247 25.8168 87.6246 25.8384L87.4899 75.6881C87.4899 75.7089 87.4845 75.7293 87.4743 75.7475C87.4642 75.7656 87.4495 75.7808 87.4318 75.7917L85.8039 76.7904C85.7847 76.8022 85.7628 76.8084 85.7403 76.8083ZM52.2215 55.0024L85.7417 76.5425L87.2463 75.6194L87.3808 25.8706L82.9981 18.318L51.9395 0.48602L50.4306 1.49594L52.2215 55.0024Z" fill="#1C3333"/>
<path d="M85.8746 26.9257L85.7402 76.6842L87.5028 75.6029V25.8359L85.8746 26.9257Z" fill="#1C3333"/>
<path d="M85.7401 76.8072C85.7077 76.8071 85.6767 76.7942 85.6538 76.7713C85.631 76.7483 85.6181 76.7173 85.6182 76.6849L85.7525 26.9263C85.7525 26.8858 85.7729 26.8479 85.8066 26.8254L87.4347 25.7356C87.4531 25.7233 87.4744 25.7161 87.4965 25.715C87.5186 25.7139 87.5405 25.7188 87.5601 25.7292C87.5796 25.7396 87.5959 25.7551 87.6072 25.7741C87.6185 25.7931 87.6245 25.8148 87.6244 25.8369V75.604C87.6244 75.6464 87.6023 75.6857 87.5662 75.7079L85.8038 76.7892C85.7846 76.801 85.7626 76.8072 85.7401 76.8072ZM85.9962 26.9919L85.8626 76.4672L87.3807 75.5357V26.0651L85.9962 26.9918V26.9919Z" fill="#1C3333"/>
<path d="M85.7404 76.6838L50.3623 56.0927L50.3066 1.42969L81.4591 19.3158L81.4496 24.2964L85.8747 26.9252L85.7404 76.6838Z" fill="#8EAAA4"/>
<path d="M85.7402 76.8084C85.7187 76.8084 85.6975 76.8027 85.6789 76.7918L50.3009 56.2007C50.2825 56.19 50.2672 56.1747 50.2566 56.1562C50.246 56.1378 50.2403 56.1169 50.2403 56.0956L50.1846 1.43257C50.1845 1.41118 50.1901 1.39016 50.2008 1.37161C50.2115 1.35307 50.2269 1.33767 50.2454 1.32695C50.2639 1.31623 50.2849 1.31057 50.3063 1.31055C50.3277 1.31052 50.3488 1.31613 50.3673 1.3268L81.5198 19.2129C81.5577 19.2347 81.581 19.2751 81.581 19.3188L81.5716 24.2299L85.9371 26.8232C85.9553 26.834 85.9704 26.8494 85.9808 26.8678C85.9913 26.8862 85.9967 26.9071 85.9967 26.9282L85.8624 76.6869C85.8624 76.7029 85.8592 76.7187 85.8531 76.7335C85.8469 76.7483 85.838 76.7617 85.8266 76.7729C85.8153 76.7842 85.8019 76.7932 85.7871 76.7993C85.7723 76.8054 85.7564 76.8084 85.7405 76.8084H85.7402ZM50.4841 56.0254L85.619 76.475L85.7526 26.9972L81.3873 24.4039C81.3691 24.3931 81.354 24.3778 81.3436 24.3594C81.3331 24.341 81.3276 24.3202 81.3277 24.299L81.3371 19.3891L50.4286 1.64313L50.4841 56.0254Z" fill="#1C3333"/>
<path d="M85.8743 26.9278L81.4492 24.299L81.4587 19.3184L85.8743 26.9278Z" fill="#8EAAA4"/>
<path d="M85.8745 27.0497C85.8526 27.0497 85.8311 27.0437 85.8123 27.0325L81.3871 24.4037C81.3689 24.3929 81.3538 24.3776 81.3434 24.3592C81.3329 24.3408 81.3275 24.32 81.3275 24.2988L81.337 19.3182C81.3371 19.2914 81.3459 19.2654 81.3623 19.2442C81.3786 19.2229 81.4015 19.2077 81.4273 19.2007C81.4532 19.1938 81.4807 19.1956 81.5054 19.2058C81.5302 19.216 81.5509 19.2341 81.5644 19.2573L85.9801 26.8666C85.9908 26.8852 85.9965 26.9062 85.9965 26.9276C85.9966 26.9491 85.9909 26.9701 85.9802 26.9887C85.9695 27.0072 85.9541 27.0226 85.9355 27.0334C85.917 27.0441 85.8959 27.0497 85.8745 27.0497ZM81.5714 24.2297L85.534 26.5837L81.58 19.7698L81.5714 24.2297ZM80.8737 32.7982C80.8523 32.7982 80.8313 32.7926 80.8128 32.7819L55.2681 18.0614C55.2542 18.0534 55.2421 18.0428 55.2323 18.0301C55.2225 18.0175 55.2154 18.003 55.2112 17.9875C55.207 17.9721 55.206 17.956 55.2081 17.9401C55.2102 17.9242 55.2154 17.9089 55.2234 17.8951C55.2313 17.8812 55.242 17.869 55.2547 17.8592C55.2674 17.8495 55.2819 17.8423 55.2973 17.8381C55.3128 17.834 55.3289 17.8329 55.3448 17.835C55.3607 17.8371 55.376 17.8423 55.3899 17.8504L80.9347 32.5709C80.9582 32.5842 80.9765 32.6049 80.9869 32.6298C80.9973 32.6546 80.9992 32.6822 80.9922 32.7082C80.9852 32.7342 80.9698 32.7572 80.9484 32.7735C80.927 32.7898 80.9007 32.7985 80.8738 32.7983L80.8737 32.7982ZM80.9015 38.7549C80.8809 38.7549 80.86 38.7496 80.8408 38.7387L55.2682 24.037C55.2402 24.0209 55.2197 23.9943 55.2113 23.9631C55.2029 23.9319 55.2072 23.8986 55.2233 23.8706C55.2394 23.8426 55.266 23.8221 55.2972 23.8137C55.3284 23.8052 55.3617 23.8096 55.3898 23.8257L80.9624 38.5274C80.9857 38.5408 81.0039 38.5615 81.0142 38.5863C81.0245 38.6111 81.0264 38.6386 81.0194 38.6645C81.0125 38.6905 80.9971 38.7134 80.9758 38.7297C80.9545 38.7461 80.9283 38.7549 80.9015 38.7549ZM80.9218 44.6675C80.9005 44.6675 80.8795 44.6619 80.861 44.6512L55.283 29.9114C55.2691 29.9034 55.2569 29.8928 55.2472 29.8801C55.2374 29.8674 55.2302 29.8529 55.2261 29.8375C55.2219 29.822 55.2209 29.8059 55.2229 29.7901C55.225 29.7742 55.2302 29.7589 55.2382 29.7451C55.2462 29.7312 55.2568 29.719 55.2695 29.7092C55.2822 29.6994 55.2967 29.6923 55.3122 29.6881C55.3277 29.684 55.3438 29.6829 55.3597 29.685C55.3756 29.6871 55.3909 29.6923 55.4048 29.7003L80.9829 44.4402C81.0063 44.4534 81.0247 44.4741 81.0351 44.499C81.0455 44.5238 81.0473 44.5514 81.0404 44.5774C81.0334 44.6034 81.018 44.6264 80.9965 44.6427C80.9751 44.659 80.9489 44.6677 80.9219 44.6675H80.9218ZM80.9218 50.643C80.9004 50.643 80.8794 50.6373 80.8609 50.6265L55.2709 35.8155C55.243 35.7993 55.2226 35.7727 55.2143 35.7415C55.2059 35.7103 55.2104 35.677 55.2265 35.6491C55.2345 35.6352 55.2451 35.623 55.2578 35.6132C55.2706 35.6035 55.2851 35.5963 55.3005 35.5922C55.316 35.5881 55.3322 35.5871 55.3481 35.5892C55.3639 35.5914 55.3792 35.5966 55.3931 35.6047L80.983 50.4157C81.0062 50.4292 81.0243 50.4499 81.0345 50.4747C81.0448 50.4994 81.0465 50.5269 81.0396 50.5528C81.0326 50.5787 81.0173 50.6015 80.996 50.6178C80.9747 50.6341 80.9486 50.643 80.9218 50.643ZM80.9218 56.5398C80.9004 56.5398 80.8794 56.5341 80.8609 56.5233L55.3066 41.7282C55.2923 41.7204 55.2797 41.7099 55.2695 41.6971C55.2593 41.6844 55.2518 41.6698 55.2474 41.6541C55.243 41.6384 55.2418 41.622 55.2438 41.6059C55.2459 41.5897 55.2511 41.5741 55.2593 41.56C55.2674 41.5459 55.2784 41.5336 55.2914 41.5238C55.3044 41.514 55.3192 41.5069 55.335 41.5029C55.3508 41.499 55.3673 41.4982 55.3834 41.5007C55.3995 41.5032 55.4149 41.5088 55.4288 41.5174L80.983 56.3125C81.0062 56.326 81.0243 56.3467 81.0345 56.3715C81.0448 56.3963 81.0465 56.4237 81.0396 56.4496C81.0326 56.4755 81.0173 56.4984 80.996 56.5147C80.9747 56.531 80.9486 56.5398 80.9218 56.5398ZM80.8543 62.4024C80.8328 62.4024 80.8117 62.3967 80.7932 62.3858L55.2825 47.5684C55.2686 47.5604 55.2565 47.5497 55.2468 47.537C55.2371 47.5243 55.23 47.5098 55.2259 47.4943C55.2218 47.4788 55.2208 47.4627 55.2229 47.4469C55.2251 47.431 55.2303 47.4157 55.2384 47.4019C55.2464 47.3881 55.2571 47.3759 55.2698 47.3662C55.2825 47.3565 55.297 47.3494 55.3125 47.3453C55.328 47.3412 55.3441 47.3402 55.36 47.3423C55.3759 47.3445 55.3912 47.3497 55.405 47.3578L80.9157 62.1753C80.9389 62.1887 80.9569 62.2095 80.9671 62.2343C80.9773 62.259 80.979 62.2865 80.972 62.3123C80.965 62.3382 80.9497 62.361 80.9284 62.3773C80.9071 62.3936 80.8811 62.4024 80.8543 62.4024Z" fill="#1C3333"/>
</g>
<g clip-path="url(#clip2_772_43009)">
<path d="M117.91 123.801C146.266 123.801 169.253 100.814 169.253 72.4583C169.253 44.1023 146.266 21.1152 117.91 21.1152C89.5544 21.1152 66.5674 44.1023 66.5674 72.4583C66.5674 100.814 89.5544 123.801 117.91 123.801Z" fill="#FF5823"/>
<path d="M117.91 123.924C110.963 123.924 104.223 122.563 97.8777 119.88C91.7493 117.287 86.2454 113.577 81.5191 108.85C76.7927 104.124 73.0819 98.62 70.4898 92.4916C67.8061 86.1466 66.4453 79.4066 66.4453 72.459C66.4453 65.5114 67.8061 58.7714 70.4898 52.4264C73.0819 46.298 76.7926 40.7942 81.5191 36.0679C86.2454 31.3415 91.7493 27.6307 97.8777 25.0386C104.223 22.3549 110.963 20.9941 117.91 20.9941C124.858 20.9941 131.598 22.3549 137.943 25.0385C144.071 27.6306 149.575 31.3413 154.301 36.0678C159.028 40.7942 162.739 46.298 165.331 52.4263C168.014 58.7713 169.375 65.5112 169.375 72.4589C169.375 79.4066 168.014 86.1465 165.331 92.4914C162.739 98.6199 159.028 104.124 154.301 108.85C149.575 113.576 144.071 117.287 137.943 119.879C131.598 122.563 124.858 123.924 117.91 123.924V123.924ZM117.91 21.2378C89.6667 21.2378 66.689 44.2156 66.689 72.459C66.689 100.702 89.6667 123.68 117.91 123.68C146.154 123.68 169.131 100.702 169.131 72.459C169.131 44.2156 146.154 21.2378 117.91 21.2378Z" fill="#1C3333"/>
<path d="M117.911 75.2593C101.605 75.2593 86.922 69.8368 79.5924 61.1079C75.44 56.1626 73.8109 50.3276 74.8812 44.2335C74.8929 44.1672 74.9554 44.1238 75.0223 44.1344C75.038 44.1372 75.0531 44.143 75.0666 44.1516C75.0801 44.1602 75.0918 44.1714 75.1009 44.1845C75.1101 44.1976 75.1166 44.2123 75.1201 44.228C75.1236 44.2436 75.124 44.2597 75.1212 44.2755C74.0638 50.2964 75.6744 56.0627 79.7791 60.9511C87.0635 69.6264 101.675 75.0155 117.911 75.0155C130.12 75.0155 141.222 72.17 149.172 67.003C157.392 61.661 161.736 54.3628 161.736 45.8971C161.736 45.8648 161.749 45.8338 161.772 45.8109C161.795 45.7881 161.826 45.7752 161.858 45.7752C161.89 45.7752 161.921 45.7881 161.944 45.8109C161.967 45.8338 161.98 45.8648 161.98 45.8971C161.98 50.2099 160.844 54.2621 158.603 57.9406C156.447 61.4813 153.318 64.5989 149.305 67.2073C141.316 72.3997 130.167 75.2592 117.911 75.2592L117.911 75.2593Z" fill="#1C3333"/>
<path d="M117.488 104.013C104.735 104.013 92.6006 101.21 83.3211 96.1205C78.6402 93.5533 74.8238 90.492 71.9783 87.0216C69.0035 83.3938 67.1658 79.4043 66.5161 75.1641C66.5136 75.1483 66.5143 75.1321 66.5182 75.1166C66.522 75.1011 66.5288 75.0864 66.5383 75.0735C66.5477 75.0606 66.5597 75.0497 66.5733 75.0414C66.587 75.0331 66.6022 75.0276 66.618 75.0252C66.6338 75.0228 66.65 75.0235 66.6655 75.0273C66.6811 75.0311 66.6957 75.0379 66.7086 75.0474C66.7215 75.0569 66.7324 75.0688 66.7407 75.0825C66.749 75.0962 66.7545 75.1114 66.7569 75.1272C69.2998 91.7235 90.6353 103.769 117.488 103.769C131.095 103.769 143.681 100.742 152.927 95.246C162.439 89.5916 168.043 81.763 169.133 72.6068C169.137 72.5749 169.153 72.5458 169.178 72.5259C169.204 72.5061 169.236 72.4971 169.268 72.5009C169.3 72.5047 169.329 72.521 169.349 72.5462C169.369 72.5715 169.378 72.6036 169.375 72.6356C168.821 77.2887 167.092 81.6373 164.237 85.5602C161.475 89.356 157.712 92.6852 153.052 95.4556C148.438 98.1982 143.057 100.327 137.059 101.784C130.969 103.263 124.385 104.013 117.488 104.013Z" fill="#1C3333"/>
<path d="M118.09 123.924H118.089C118.073 123.924 118.058 123.92 118.043 123.914C118.028 123.908 118.015 123.899 118.003 123.888C117.992 123.876 117.983 123.863 117.977 123.848C117.971 123.833 117.968 123.817 117.968 123.801L118.234 21.1156C118.234 21.0834 118.247 21.0525 118.27 21.0297C118.293 21.0069 118.324 20.9941 118.356 20.9941H118.356C118.372 20.9942 118.388 20.9974 118.403 21.0035C118.418 21.0097 118.431 21.0187 118.442 21.03C118.454 21.0414 118.463 21.0549 118.469 21.0697C118.475 21.0845 118.478 21.1003 118.478 21.1163L118.211 123.802C118.211 123.834 118.198 123.865 118.176 123.888C118.153 123.911 118.122 123.924 118.089 123.924H118.09Z" fill="#1C3333"/>
<path d="M153.68 109.412C153.663 109.412 153.646 109.408 153.63 109.401C153.569 109.373 153.541 109.301 153.569 109.24C155.607 104.698 161.297 88.2498 148.942 67.2889C138.43 49.4542 125.204 39.5994 118.256 35.3123C118.242 35.304 118.23 35.293 118.22 35.2801C118.21 35.2671 118.204 35.2523 118.2 35.2366C118.196 35.221 118.195 35.2047 118.198 35.1887C118.2 35.1728 118.206 35.1575 118.214 35.1438C118.223 35.1301 118.234 35.1182 118.247 35.1088C118.26 35.0994 118.275 35.0927 118.291 35.089C118.307 35.0854 118.323 35.085 118.339 35.0877C118.355 35.0904 118.37 35.0963 118.383 35.1049C125.351 39.4038 138.613 49.2853 149.152 67.1651C154.586 76.3847 157.179 85.7989 156.857 95.1467C156.61 102.341 154.631 107.469 153.791 109.34C153.781 109.361 153.766 109.379 153.746 109.392C153.726 109.405 153.703 109.412 153.68 109.412Z" fill="#1C3333"/>
<path d="M169.253 72.7407C169.22 72.7407 169.189 72.7279 169.166 72.705C169.144 72.6822 169.131 72.6512 169.131 72.6189C169.131 66.7986 168.17 59.7666 161.045 51.7419C153.51 43.256 142.838 39.2336 135.213 37.3535C126.248 35.143 119.248 35.2218 118.333 35.3282C118.317 35.3301 118.301 35.3289 118.286 35.3245C118.27 35.3202 118.256 35.3128 118.243 35.3029C118.231 35.2929 118.22 35.2806 118.213 35.2666C118.205 35.2526 118.2 35.2371 118.198 35.2212C118.196 35.2053 118.198 35.1892 118.202 35.1739C118.206 35.1585 118.214 35.1441 118.224 35.1316C118.233 35.119 118.246 35.1086 118.26 35.1008C118.274 35.093 118.289 35.0881 118.305 35.0862C119.227 34.9785 126.271 34.8979 135.271 37.1169C140.19 38.3297 144.729 40.0025 148.763 42.0888C153.716 44.6504 157.909 47.8437 161.227 51.5801C164.603 55.3827 166.948 59.4317 168.197 63.6145C169.234 67.0916 169.374 70.1175 169.374 72.6189C169.374 72.6512 169.361 72.6822 169.339 72.705C169.316 72.7279 169.285 72.7407 169.253 72.7407Z" fill="#1C3333"/>
<path d="M118.319 35.3303C118.293 35.3304 118.267 35.3218 118.246 35.3059C118.225 35.2899 118.209 35.2675 118.202 35.242C118.195 35.2165 118.196 35.1893 118.205 35.1646C118.215 35.1399 118.232 35.1189 118.255 35.105C122.929 32.2049 135.133 25.9342 147.468 30.3279C147.484 30.3332 147.498 30.3414 147.51 30.3521C147.522 30.3628 147.531 30.3758 147.538 30.3903C147.545 30.4048 147.549 30.4206 147.55 30.4366C147.551 30.4527 147.549 30.4688 147.543 30.4839C147.538 30.4991 147.53 30.513 147.519 30.5249C147.508 30.5368 147.495 30.5465 147.48 30.5533C147.466 30.5602 147.45 30.564 147.434 30.5648C147.418 30.5655 147.402 30.563 147.387 30.5575C135.151 26.1988 123.028 32.4304 118.383 35.3118C118.364 35.3238 118.342 35.3301 118.319 35.3301L118.319 35.3303Z" fill="#1C3333"/>
<path d="M83.7558 110.917C83.7323 110.917 83.7093 110.91 83.6895 110.897C83.6698 110.884 83.6542 110.866 83.6446 110.845C83.0142 109.44 80.9344 104.247 80.6359 96.3925C80.2729 86.8382 82.6337 77.176 87.6533 67.6741C91.8859 59.6618 97.4106 52.1851 103.63 46.0524C108.493 41.2572 113.828 37.2655 118.266 35.1011C118.295 35.0877 118.328 35.0862 118.358 35.0969C118.388 35.1076 118.413 35.1296 118.427 35.1582C118.441 35.1869 118.443 35.2199 118.433 35.2501C118.423 35.2804 118.402 35.3055 118.373 35.3201C110.076 39.3661 97.1087 50.297 87.8688 67.7878C82.8695 77.2513 80.518 86.8723 80.8795 96.3831C81.1764 104.194 83.2412 109.351 83.8669 110.745C83.8753 110.763 83.8788 110.784 83.8773 110.804C83.8757 110.824 83.8691 110.844 83.8581 110.861C83.847 110.878 83.8319 110.892 83.814 110.902C83.7961 110.911 83.7761 110.917 83.7558 110.917Z" fill="#1C3333"/>
<path d="M66.5671 72.7441C66.5348 72.7441 66.5038 72.7313 66.481 72.7084C66.4581 72.6856 66.4453 72.6546 66.4453 72.6223C66.4453 65.8092 69.5418 58.8674 75.6486 51.9897C78.9665 48.2529 83.1471 45.0383 88.0744 42.4353C92.0902 40.3138 96.602 38.5941 101.484 37.3238C109.957 35.1197 117.074 34.9424 118.333 35.0895C118.365 35.0932 118.395 35.1096 118.415 35.1349C118.435 35.1602 118.444 35.1924 118.44 35.2245C118.439 35.2404 118.434 35.2558 118.426 35.2699C118.418 35.2839 118.408 35.2962 118.395 35.3062C118.383 35.3161 118.368 35.3235 118.353 35.3278C118.337 35.3322 118.321 35.3334 118.305 35.3314C117.057 35.186 109.985 35.3641 101.546 37.5595C93.9768 39.5287 83.3714 43.6588 75.8306 52.1514C69.7647 58.9833 66.689 65.8706 66.689 72.6223C66.689 72.6546 66.6761 72.6856 66.6533 72.7084C66.6304 72.7313 66.5995 72.7441 66.5671 72.7441Z" fill="#1C3333"/>
<path d="M118.319 35.3336C118.297 35.3336 118.275 35.3276 118.255 35.3153C111.308 31.0053 100.795 25.7302 89.7476 29.6653C89.7173 29.6759 89.684 29.674 89.655 29.6601C89.6261 29.6461 89.6038 29.6214 89.593 29.5911C89.5822 29.5608 89.5838 29.5275 89.5975 29.4985C89.6111 29.4694 89.6357 29.4469 89.6659 29.4358C94.8204 27.5999 100.48 27.5994 106.488 29.4348C111.292 30.9027 115.369 33.2379 118.383 35.1083C118.406 35.1223 118.423 35.1432 118.433 35.168C118.442 35.1927 118.444 35.2199 118.436 35.2454C118.429 35.2709 118.414 35.2933 118.392 35.3092C118.371 35.3252 118.345 35.3336 118.319 35.3336Z" fill="#1C3333"/>
</g>
<g clip-path="url(#clip3_772_43009)">
<path d="M145.422 84.0174L37.206 21.8412C35.8207 21.0453 34.0938 22.049 34.0986 23.6474L34.3805 116.622C34.3816 116.959 34.4708 117.29 34.6394 117.582C34.808 117.874 35.0501 118.117 35.3415 118.286L147.956 183.669C147.972 183.679 147.991 183.684 148.009 183.684C148.028 183.684 148.046 183.679 148.062 183.67C148.079 183.66 148.092 183.647 148.101 183.631C148.111 183.615 148.116 183.596 148.116 183.578L148.413 89.2041C148.416 88.1524 148.141 87.1186 147.616 86.2077C147.091 85.2967 146.334 84.541 145.422 84.0173V84.0174Z" fill="white"/>
<path d="M148.009 183.809C147.97 183.809 147.931 183.799 147.895 183.778L35.2801 118.395C34.9707 118.214 34.7138 117.956 34.5346 117.646C34.3554 117.336 34.2603 116.984 34.2585 116.626L33.9766 23.6511C33.9741 22.8563 34.3828 22.1436 35.0696 21.7442C35.7565 21.3451 36.5777 21.3429 37.2665 21.7387L145.483 83.9149C147.372 85 148.541 87.0283 148.534 89.2077L148.237 183.581C148.238 183.621 148.227 183.661 148.207 183.695C148.187 183.73 148.158 183.759 148.123 183.778C148.088 183.799 148.049 183.809 148.009 183.809V183.809ZM36.1727 21.6877C35.8357 21.6877 35.4989 21.7769 35.1921 21.9552C34.5815 22.3101 34.2182 22.9437 34.2203 23.6504L34.5022 116.625C34.5038 116.941 34.5877 117.251 34.7456 117.524C34.9035 117.797 35.1299 118.025 35.4025 118.184L147.994 183.554L148.291 89.2071C148.297 87.115 147.175 85.1682 145.361 84.1265L37.1451 21.9503C36.8405 21.7752 36.5065 21.6877 36.1727 21.6877Z" fill="#1C3333"/>
<path d="M150.573 84.3398C151.13 85.2705 151.422 86.3355 151.419 87.42L151.122 181.792L148.081 183.658C148.092 183.648 148.1 183.636 148.106 183.622C148.111 183.609 148.114 183.595 148.115 183.58L148.411 89.2056C148.414 88.1689 148.147 87.1493 147.636 86.2477L150.573 84.3398Z" fill="#1C3333"/>
<path d="M148.082 183.781C148.058 183.781 148.035 183.774 148.014 183.76C147.994 183.747 147.979 183.728 147.969 183.706C147.96 183.683 147.958 183.659 147.962 183.635C147.967 183.612 147.979 183.59 147.996 183.573L148.29 89.2062C148.292 88.1908 148.031 87.1922 147.53 86.3087C147.515 86.2816 147.511 86.2498 147.518 86.2196C147.526 86.1894 147.544 86.1632 147.57 86.1462L150.508 84.2384C150.521 84.2295 150.537 84.2234 150.553 84.2206C150.569 84.2178 150.586 84.2182 150.601 84.2219C150.617 84.2256 150.633 84.2325 150.646 84.2421C150.659 84.2518 150.67 84.264 150.679 84.278C151.246 85.2277 151.545 86.3144 151.541 87.4211L151.245 181.794C151.245 181.814 151.239 181.835 151.229 181.853C151.219 181.871 151.204 181.886 151.187 181.897L148.146 183.763C148.127 183.774 148.105 183.781 148.082 183.781ZM147.798 86.2889C148.283 87.1847 148.536 88.188 148.533 89.2069L148.238 183.42L151.001 181.725L151.297 87.4206C151.301 86.4012 151.037 85.3986 150.533 84.5126L147.798 86.2889Z" fill="#1C3333"/>
<path d="M147.636 86.2485C147.111 85.3207 146.346 84.5511 145.421 84.02L37.2052 21.844C36.5196 21.4502 35.75 21.4966 35.1484 21.8373C35.7278 21.4788 37.727 20.2376 38.3241 19.9654C38.8969 19.7066 39.589 19.7 40.2127 20.0584L148.429 82.2343C149.312 82.741 150.051 83.4663 150.573 84.3407L147.636 86.2485Z" fill="white"/>
<path d="M147.636 86.3699C147.614 86.3699 147.593 86.3642 147.575 86.3534C147.556 86.3425 147.541 86.3268 147.53 86.308C147.015 85.3995 146.266 84.6457 145.36 84.1252L37.1443 21.9491C36.5391 21.6013 35.8153 21.5989 35.2083 21.9428C35.1806 21.9582 35.1479 21.9622 35.1173 21.9539C35.0867 21.9456 35.0605 21.9256 35.0444 21.8983C35.0282 21.871 35.0233 21.8385 35.0307 21.8076C35.0382 21.7768 35.0573 21.75 35.0841 21.7331L35.1535 21.69C35.8477 21.2604 37.6912 20.1191 38.2735 19.8538C38.9244 19.5596 39.6531 19.5954 40.2734 19.9519L148.489 82.128C149.391 82.6456 150.144 83.3857 150.678 84.2775C150.712 84.3339 150.695 84.4068 150.64 84.4425L147.702 86.3503C147.683 86.3632 147.66 86.37 147.636 86.37L147.636 86.3699ZM36.1708 21.4424C36.547 21.4424 36.9232 21.5409 37.2657 21.7377L145.482 83.9138C146.387 84.4341 147.143 85.1787 147.677 86.0759L150.407 84.3025C149.899 83.4907 149.198 82.8165 148.368 82.3394L40.1519 20.1634C39.6004 19.8464 38.9524 19.8146 38.3742 20.0758C37.9589 20.2652 36.8306 20.9453 36.0103 21.4483C36.0636 21.4443 36.1171 21.4422 36.1708 21.4422V21.4424Z" fill="#1C3333"/>
<path d="M34.1146 28.9177L148.413 94.8685V89.2043C148.416 88.1527 148.141 87.1189 147.616 86.2079C147.091 85.2969 146.334 84.5412 145.422 84.0176L37.206 21.8412C35.8207 21.0453 34.0938 22.049 34.0986 23.6474L34.1146 28.9177Z" fill="#8EAAA4"/>
<path d="M148.413 94.9938C148.392 94.9938 148.37 94.9883 148.352 94.9774L34.0536 29.0266C34.0351 29.016 34.0197 29.0007 34.009 28.9822C33.9983 28.9637 33.9927 28.9427 33.9927 28.9214L33.9766 23.6511C33.9741 22.8563 34.3828 22.1436 35.0696 21.7442C35.7565 21.3451 36.5777 21.3429 37.2665 21.7387L145.483 83.9149C147.372 85 148.541 87.0283 148.534 89.2077V94.8716C148.534 94.8876 148.531 94.9035 148.525 94.9183C148.519 94.9331 148.51 94.9466 148.499 94.9579C148.487 94.9692 148.474 94.9782 148.459 94.9843C148.444 94.9904 148.429 94.9936 148.413 94.9935V94.9938ZM34.236 28.8504L148.291 94.6606V89.2074C148.297 87.115 147.175 85.1682 145.361 84.1265L37.1451 21.9503C36.5329 21.5985 35.8027 21.6003 35.1921 21.9552C34.5815 22.3101 34.2182 22.9437 34.2203 23.6504L34.236 28.8504Z" fill="#1C3333"/>
<path d="M39.421 29.3906C40.1662 28.9601 40.1569 27.5483 39.4003 26.2372C38.6437 24.926 37.4263 24.2121 36.6812 24.6425C35.9361 25.0729 35.9454 26.4848 36.7019 27.7959C37.4585 29.1071 38.6759 29.821 39.421 29.3906Z" fill="#CFDEDB"/>
<path d="M38.9254 29.6401C38.1614 29.6401 37.2329 28.959 36.5968 27.8566C35.7945 26.4663 35.805 25.008 36.6207 24.5366C37.4365 24.0656 38.704 24.7856 39.5063 26.176C40.3086 27.5663 40.2982 29.0246 39.4824 29.496C39.3135 29.5935 39.125 29.6401 38.9254 29.6401ZM37.178 24.6367C37.0203 24.6367 36.8731 24.6726 36.7426 24.7479C36.0568 25.1441 36.0862 26.484 36.8079 27.7347C37.5296 28.9854 38.6748 29.6808 39.3605 29.2848C40.0462 28.8886 40.0169 27.5487 39.2951 26.298C38.7108 25.2853 37.8489 24.6367 37.178 24.6367Z" fill="#1C3333"/>
<path d="M45.1163 32.7773C45.8615 32.3469 45.8522 30.935 45.0956 29.6239C44.339 28.3127 43.1217 27.5988 42.3765 28.0292C41.6314 28.4597 41.6407 29.8715 42.3973 31.1826C43.1538 32.4938 44.3712 33.2077 45.1163 32.7773Z" fill="#FF5823"/>
<path d="M44.6208 33.0248C43.8567 33.0248 42.9282 32.3436 42.2921 31.2413C41.4898 29.851 41.5003 28.3927 42.316 27.9213C43.132 27.4505 44.3993 28.1703 45.2016 29.5606C46.0039 30.951 45.9934 32.4092 45.1777 32.8806C45.0088 32.9782 44.8203 33.0248 44.6208 33.0248ZM42.8733 28.0214C42.7156 28.0214 42.5685 28.0572 42.4379 28.1326C41.7522 28.5288 41.7815 29.8685 42.5032 31.1194C43.2248 32.3701 44.3699 33.0655 45.0558 32.6695C45.7415 32.2733 45.7122 30.9335 44.9905 29.6827C44.4063 28.67 43.5443 28.0214 42.8733 28.0214Z" fill="#1C3333"/>
<path d="M50.7472 35.9648C51.4923 35.5344 51.4831 34.1225 50.7265 32.8114C49.9699 31.5002 48.7525 30.7863 48.0074 31.2167C47.2623 31.6472 47.2715 33.059 48.0281 34.3701C48.7847 35.6813 50.0021 36.3952 50.7472 35.9648Z" fill="white"/>
<path d="M50.2514 36.2161C49.4875 36.2161 48.559 35.535 47.9228 34.4327C47.5466 33.7805 47.3371 33.0819 47.3331 32.4655C47.3288 31.8241 47.5467 31.3438 47.9468 31.1126C48.7626 30.642 50.03 31.3616 50.8324 32.752C51.2086 33.4041 51.4181 34.1027 51.4221 34.7191C51.4264 35.3605 51.2085 35.8408 50.8084 36.072C50.6395 36.1696 50.4509 36.2161 50.2514 36.2161ZM48.504 31.2127C48.3463 31.2127 48.1992 31.2486 48.0686 31.324C47.7478 31.5093 47.5732 31.9141 47.5767 32.4641C47.5805 33.0389 47.7784 33.6947 48.1339 34.3108C48.8556 35.5617 50.0007 36.2571 50.6864 35.8609C51.0072 35.6756 51.1818 35.2707 51.1783 34.7208C51.1745 34.146 50.9766 33.4902 50.6211 32.874C50.0368 31.8613 49.1749 31.2127 48.504 31.2127Z" fill="#1C3333"/>
</g>
<g clip-path="url(#clip4_772_43009)">
<path d="M123.714 112.328C124.076 112.93 124.266 113.62 124.265 114.322L124.189 135.733C124.189 136.106 123.995 136.412 123.716 136.604C123.393 136.826 121.455 137.979 121.014 138.241C121.304 138.05 121.506 137.737 121.507 137.356L121.581 115.945C121.583 115.214 121.378 114.512 121.006 113.91L123.714 112.328H123.714Z" fill="#1C3333"/>
<path d="M121.013 138.364C120.987 138.364 120.962 138.355 120.941 138.34C120.92 138.324 120.904 138.302 120.897 138.277C120.889 138.252 120.89 138.225 120.899 138.201C120.908 138.176 120.924 138.155 120.946 138.14C121.224 137.957 121.384 137.671 121.385 137.356L121.459 115.945C121.461 115.249 121.268 114.566 120.902 113.974C120.893 113.961 120.888 113.945 120.885 113.929C120.883 113.913 120.883 113.897 120.887 113.881C120.891 113.865 120.898 113.85 120.908 113.837C120.918 113.824 120.93 113.813 120.944 113.805L123.653 112.224C123.68 112.208 123.713 112.203 123.744 112.211C123.775 112.219 123.802 112.239 123.819 112.266C124.192 112.888 124.388 113.599 124.386 114.323L124.311 135.735C124.311 136.121 124.119 136.475 123.785 136.705C123.431 136.948 121.172 138.29 121.076 138.347C121.057 138.358 121.035 138.364 121.014 138.364L121.013 138.364ZM121.173 113.954C121.522 114.56 121.705 115.247 121.703 115.946L121.629 137.357C121.629 137.503 121.601 137.647 121.547 137.783C122.266 137.353 123.408 136.669 123.647 136.505C123.914 136.321 124.067 136.04 124.067 135.734L124.143 114.323C124.144 113.683 123.981 113.054 123.67 112.496L121.173 113.954Z" fill="#1C3333"/>
<path d="M121.005 113.909C120.663 113.355 120.187 112.896 119.621 112.573L25.2328 58.6277C25.0594 58.5273 24.8638 58.4714 24.6635 58.465C24.4632 58.4587 24.2644 58.502 24.085 58.5911C24.2105 58.5144 26.2308 57.2793 26.5221 57.1282C26.9924 56.8834 27.4384 56.7324 27.9149 57.004L122.305 110.949C122.885 111.281 123.37 111.755 123.714 112.328L121.005 113.909H121.005Z" fill="#CFDEDB"/>
<path d="M121.005 114.031C120.985 114.031 120.964 114.026 120.946 114.015C120.928 114.005 120.913 113.991 120.902 113.973C120.57 113.437 120.109 112.992 119.561 112.678L25.1722 58.7331C24.8481 58.5483 24.4713 58.5363 24.1386 58.7001C24.1105 58.7139 24.0781 58.7164 24.0482 58.707C24.0183 58.6976 23.9931 58.677 23.978 58.6496C23.9629 58.6221 23.9589 58.5899 23.967 58.5596C23.975 58.5293 23.9944 58.5032 24.0212 58.4869C24.3819 58.2664 26.1862 57.1648 26.4657 57.0199C26.9334 56.7764 27.4401 56.5929 27.975 56.8979L122.365 110.843C122.963 111.186 123.463 111.675 123.818 112.265C123.826 112.279 123.832 112.294 123.834 112.31C123.836 112.326 123.835 112.342 123.831 112.358C123.827 112.374 123.82 112.388 123.811 112.401C123.801 112.414 123.789 112.425 123.775 112.433L121.067 114.014C121.048 114.025 121.027 114.031 121.005 114.031L121.005 114.031ZM24.7222 58.3449C24.9185 58.3596 25.1125 58.4186 25.2931 58.5216L119.682 112.467C120.23 112.78 120.697 113.218 121.045 113.745L123.544 112.286C123.215 111.778 122.769 111.356 122.244 111.055L27.8542 57.1094C27.4437 56.8754 27.0616 56.9843 26.5782 57.236C26.3838 57.3368 25.3824 57.9432 24.7221 58.3449H24.7222Z" fill="#1C3333"/>
<path d="M23.4082 59.6767C23.4049 58.7456 24.4198 58.1612 25.233 58.6259L119.623 112.571C120.838 113.266 121.585 114.552 121.582 115.943L121.507 137.354C121.505 138.214 120.481 138.72 119.731 138.289L25.6152 84.2765C24.2544 83.4978 23.4137 82.0595 23.4082 80.5006V59.6767Z" fill="white"/>
<path d="M120.325 138.571C120.095 138.572 119.869 138.512 119.67 138.398L25.5543 84.3853C24.1608 83.5879 23.2916 82.1008 23.2861 80.5044V59.6803C23.2846 59.2015 23.5318 58.771 23.9478 58.5288C24.3681 58.2839 24.8711 58.2821 25.2933 58.5234L119.683 112.469C120.932 113.183 121.707 114.516 121.703 115.947L121.629 137.358C121.628 137.78 121.397 138.164 121.012 138.386C120.803 138.507 120.566 138.571 120.325 138.571ZM24.6252 58.5878C24.4302 58.5882 24.2387 58.6405 24.0705 58.7392C23.7307 58.9371 23.5285 59.2887 23.5298 59.6794V80.5039C23.5351 82.0133 24.3572 83.4197 25.6756 84.1739L119.792 138.187C120.125 138.378 120.546 138.374 120.89 138.175C121.204 137.994 121.384 137.696 121.385 137.357L121.46 115.946C121.463 114.603 120.736 113.351 119.562 112.68L25.1723 58.7348C25.0059 58.6389 24.8173 58.5882 24.6252 58.5878Z" fill="#1C3333"/>
<path d="M100.239 107.276C100.25 106.436 101.162 105.919 101.888 106.342L116.644 114.799C117.499 115.287 118.025 116.193 118.022 117.171L117.97 132.235C117.968 132.84 117.248 133.196 116.72 132.893L101.07 124.053C100.756 123.873 100.495 123.611 100.315 123.297C100.136 122.982 100.043 122.624 100.048 122.262L100.239 107.276L100.239 107.276Z" fill="white"/>
<path d="M117.139 133.126C116.971 133.126 116.806 133.083 116.66 132.999L101.011 124.16C100.678 123.969 100.401 123.692 100.211 123.358C100.02 123.024 99.9222 122.645 99.9269 122.261L100.118 107.275C100.123 106.837 100.355 106.446 100.736 106.23C101.117 106.015 101.571 106.017 101.95 106.238L116.706 114.694C117.596 115.203 118.148 116.153 118.145 117.173L118.092 132.237C118.092 132.546 117.923 132.828 117.641 132.991C117.488 133.079 117.315 133.126 117.139 133.126L117.139 133.126ZM100.24 107.276L100.362 107.278L100.171 122.264C100.166 122.605 100.253 122.941 100.422 123.237C100.591 123.533 100.836 123.778 101.132 123.948L116.781 132.788C117.005 132.917 117.288 132.913 117.519 132.78C117.728 132.659 117.848 132.461 117.849 132.236L117.901 117.172C117.904 116.239 117.399 115.371 116.584 114.906L101.828 106.448C101.524 106.272 101.161 106.269 100.856 106.442C100.707 106.525 100.583 106.647 100.496 106.793C100.409 106.94 100.363 107.107 100.361 107.278L100.24 107.276L100.24 107.276Z" fill="#1C3333"/>
<path d="M111.357 127.932C111.335 127.932 111.314 127.926 111.295 127.915L106.672 125.169C106.658 125.161 106.646 125.15 106.636 125.137C106.626 125.124 106.619 125.11 106.615 125.094C106.611 125.078 106.61 125.062 106.613 125.046C106.615 125.03 106.62 125.015 106.628 125.001C106.637 124.987 106.648 124.975 106.661 124.965C106.673 124.956 106.688 124.949 106.704 124.945C106.719 124.941 106.736 124.94 106.752 124.943C106.768 124.945 106.783 124.951 106.797 124.959L111.42 127.705C111.443 127.719 111.46 127.74 111.47 127.765C111.48 127.789 111.482 127.817 111.475 127.842C111.468 127.868 111.452 127.891 111.431 127.907C111.41 127.923 111.384 127.932 111.357 127.932Z" fill="#1C3333"/>
<path d="M109.169 123.77C109.169 123.703 109.114 123.648 109.047 123.648C108.979 123.648 108.925 123.703 108.925 123.77V126.436C108.925 126.504 108.979 126.558 109.047 126.558C109.114 126.558 109.169 126.504 109.169 126.436V123.77Z" fill="#1C3333"/>
<path d="M110.596 124.224C109.837 124.224 109.044 123.9 109 123.882C108.963 123.865 105.697 122.315 105.712 118.276L105.697 116.142C105.697 116.126 105.7 116.11 105.706 116.096C105.712 116.081 105.721 116.067 105.732 116.056C105.744 116.044 105.757 116.035 105.772 116.029C105.786 116.023 105.802 116.02 105.818 116.02H105.819C105.851 116.02 105.882 116.032 105.905 116.055C105.928 116.078 105.941 116.108 105.941 116.14L105.956 118.276C105.941 122.155 109.067 123.644 109.098 123.659C109.107 123.662 110.399 124.191 111.175 123.887C112.119 123.518 112.113 122.628 112.112 122.59L112.137 119.867C112.137 119.835 112.15 119.804 112.173 119.782C112.196 119.759 112.226 119.746 112.259 119.746H112.26C112.276 119.747 112.291 119.75 112.306 119.756C112.321 119.762 112.334 119.771 112.345 119.783C112.357 119.794 112.366 119.808 112.372 119.823C112.378 119.837 112.381 119.853 112.38 119.869L112.356 122.588C112.356 122.595 112.37 123.681 111.264 124.114C111.06 124.193 110.829 124.224 110.596 124.224V124.224Z" fill="#1C3333"/>
<path d="M109.339 122.887L108.866 122.596C108.19 122.181 107.633 121.599 107.246 120.908C106.859 120.216 106.656 119.436 106.656 118.644V113.538C106.656 112.554 107.719 111.935 108.576 112.421L108.595 112.433C109.463 112.925 110.184 113.639 110.686 114.5C111.188 115.362 111.452 116.342 111.452 117.339V121.707C111.452 122.791 110.263 123.455 109.339 122.887Z" fill="#CFDEDB"/>
<path d="M110.065 123.22C109.792 123.22 109.52 123.145 109.275 122.994L108.802 122.703C107.403 121.842 106.534 120.288 106.534 118.647V113.541C106.534 113.035 106.796 112.58 107.233 112.326C107.671 112.071 108.195 112.068 108.636 112.318L108.656 112.33C110.455 113.352 111.574 115.272 111.574 117.342V121.709C111.574 122.263 111.285 122.755 110.801 123.026C110.576 123.153 110.323 123.22 110.065 123.22ZM107.941 112.377C107.74 112.377 107.539 112.43 107.356 112.536C106.994 112.747 106.778 113.123 106.778 113.541V118.647C106.778 120.204 107.602 121.679 108.929 122.495L109.403 122.786C109.798 123.03 110.277 123.04 110.682 122.813C111.088 122.587 111.33 122.174 111.33 121.71V117.342C111.33 115.36 110.259 113.521 108.535 112.542L108.515 112.53C108.34 112.43 108.142 112.377 107.941 112.377L107.941 112.377Z" fill="#1C3333"/>
</g>
<g clip-path="url(#clip5_772_43009)">
<path d="M73.1206 161.209C72.538 161.489 68.7154 163.119 68.7154 163.119L42.832 105.453L47.4967 103.121L73.7646 157.768C73.9745 158.204 74.1191 158.67 74.1742 159.15C74.2638 159.932 74.0867 160.744 73.1207 161.208L73.1206 161.209Z" fill="#1C3333"/>
<path d="M68.7153 163.244C68.6918 163.244 68.6688 163.237 68.649 163.224C68.6293 163.211 68.6136 163.193 68.604 163.172L42.7207 105.506C42.7078 105.477 42.7065 105.445 42.717 105.415C42.7276 105.385 42.7492 105.361 42.7774 105.347L47.442 103.015C47.4565 103.008 47.4723 103.003 47.4884 103.002C47.5046 103.001 47.5208 103.003 47.5361 103.008C47.5514 103.014 47.5655 103.022 47.5776 103.033C47.5897 103.043 47.5995 103.057 47.6065 103.071L73.8744 157.718C74.0988 158.184 74.2405 158.662 74.2952 159.139C74.4136 160.172 74.036 160.906 73.1735 161.321C72.595 161.6 68.9193 163.167 68.7631 163.234C68.748 163.24 68.7317 163.244 68.7153 163.244ZM42.9909 105.513L68.7774 162.962C69.4084 162.693 72.5495 161.351 73.0675 161.102C73.8372 160.731 74.1595 160.099 74.0527 159.167C74.0012 158.717 73.8672 158.265 73.6544 157.824L47.4401 103.288L42.9908 105.513L42.9909 105.513Z" fill="#1C3333"/>
<path d="M43.4215 70.2259C36.371 54.4488 23.9208 45.8596 14.7587 49.956C5.59537 54.0537 4.14821 72.1943 11.1987 87.9714C18.2492 103.747 30.9835 111.495 40.1468 107.399C49.3089 103.301 50.4732 86.0019 43.4215 70.2259Z" fill="#FF5823"/>
<path d="M34.9494 108.611C31.7063 108.611 28.2405 107.475 24.8134 105.24C19.3247 101.662 14.4499 95.5471 11.087 88.0221C7.69557 80.4334 6.12454 71.8869 6.77656 64.5742C7.09781 60.9716 7.92551 57.8685 9.23649 55.3507C10.614 52.7057 12.455 50.8534 14.7084 49.8457C19.2015 47.8372 24.6149 48.7938 29.9515 52.5396C35.3059 56.2981 40.1293 62.5627 43.5324 70.1772C46.9345 77.7885 48.5576 86.181 47.9854 93.2026C47.3951 100.447 44.6288 105.529 40.1961 107.511C38.5503 108.247 36.7856 108.611 34.9494 108.611V108.611ZM19.6036 49.0627C17.9243 49.0627 16.3128 49.3955 14.808 50.0684C10.51 51.9903 7.67119 57.2854 7.01942 64.5958C6.37094 71.8684 7.93465 80.3706 11.3095 87.9226C14.6535 95.4052 19.4966 101.483 24.9465 105.036C30.2423 108.488 35.6226 109.288 40.0966 107.288C44.4443 105.344 47.1596 100.334 47.7423 93.1827C48.3113 86.2006 46.6958 77.8517 43.3098 70.2768C39.9245 62.7014 35.1307 56.4731 29.8115 52.7392C26.3435 50.3048 22.8471 49.0627 19.6036 49.0627Z" fill="#1C3333"/>
<path d="M39.9856 55.9004C42.9054 59.1945 45.5655 63.3174 47.7135 68.1234C54.764 83.9006 53.4815 101.374 44.3194 105.472C43.6135 105.788 42.8856 106.033 42.1407 106.21C49.4399 100.618 49.9239 84.775 43.4208 70.2284C41.4528 65.8241 39.064 61.9801 36.4434 58.8158L39.9856 55.9004Z" fill="#1C3333"/>
<path d="M42.1415 106.328C42.1161 106.328 42.0913 106.32 42.0707 106.305C42.0501 106.291 42.0346 106.27 42.0265 106.246C42.0183 106.221 42.0179 106.195 42.0252 106.171C42.0325 106.147 42.0473 106.125 42.0674 106.11C49.278 100.586 49.824 84.8455 43.3103 70.2751C41.3911 65.9797 39.0493 62.1495 36.3503 58.8903C36.3401 58.878 36.3324 58.8637 36.3277 58.8484C36.3229 58.8331 36.3213 58.8169 36.3228 58.801C36.3243 58.785 36.329 58.7695 36.3365 58.7553C36.344 58.7411 36.3542 58.7286 36.3666 58.7184L39.9088 55.8031C39.9332 55.7831 39.9644 55.7733 39.9958 55.7758C40.0272 55.7782 40.0565 55.7928 40.0774 55.8164C43.1173 59.2458 45.7241 63.3687 47.8255 68.0704C51.2219 75.6707 52.823 84.0955 52.2183 91.1845C51.9185 94.6991 51.1099 97.7256 49.815 100.18C48.4563 102.755 46.6243 104.572 44.3699 105.58C43.6614 105.896 42.9247 106.146 42.1696 106.325C42.1604 106.327 42.151 106.328 42.1415 106.328V106.328ZM36.6161 58.8292C39.2963 62.0848 41.6232 65.9016 43.533 70.1756C49.956 84.5429 49.5331 100.061 42.6576 105.945C43.2084 105.788 43.7473 105.591 44.2704 105.357C48.6244 103.41 51.3609 98.3694 51.9756 91.164C52.577 84.1149 50.9832 75.734 47.6031 68.1702C45.5299 63.5314 42.9631 59.4596 39.9731 56.0664L36.6161 58.8292Z" fill="#1C3333"/>
<path d="M36.4443 58.8146C29.7801 50.7679 21.6168 47.1167 15.0625 49.8267C15.4075 49.6706 19.3972 47.8239 19.6308 47.7426C25.5559 45.6785 33.5628 48.6522 39.9865 55.8992L36.4443 58.8146Z" fill="white"/>
<path d="M36.4443 58.9345C36.4264 58.9346 36.4087 58.9306 36.3924 58.923C36.3761 58.9153 36.3618 58.9042 36.3503 58.8904C29.6014 50.7413 21.462 47.3106 15.109 49.9375C15.0795 49.9494 15.0465 49.9493 15.0171 49.9373C14.9876 49.9252 14.9641 49.9021 14.9514 49.8729C14.9388 49.8436 14.9381 49.8106 14.9494 49.7809C14.9608 49.7512 14.9833 49.7271 15.0122 49.7137C15.0972 49.6753 15.4038 49.534 15.8209 49.3418C17.557 48.542 19.4232 47.6838 19.5906 47.6255C25.7297 45.4868 33.7714 48.702 40.0776 55.8164C40.0885 55.8287 40.0967 55.843 40.1019 55.8585C40.1071 55.8741 40.1091 55.8905 40.1078 55.9068C40.1065 55.9232 40.102 55.9391 40.0944 55.9536C40.0869 55.9681 40.0765 55.981 40.0638 55.9914L36.5216 58.9067C36.4999 58.9247 36.4726 58.9345 36.4443 58.9345ZM19.5991 48.82C21.578 48.82 23.654 49.2719 25.7601 50.1729C29.4665 51.7584 33.1646 54.6855 36.4606 58.6413L39.8111 55.8837C33.5838 48.9099 25.689 45.759 19.6708 47.8558C19.54 47.9014 18.0858 48.568 16.8917 49.1172C17.768 48.9189 18.673 48.8199 19.5991 48.8199V48.82Z" fill="#1C3333"/>
<path d="M37.7049 102.678C30.1879 106.039 19.9926 99.3678 14.098 86.1784C8.20326 72.989 9.39329 58.0597 16.9129 54.7044C18.1303 54.1612 18.8699 54.064 19.4576 53.9707C13.7738 58.8293 13.1619 72.0586 18.5055 84.0162C23.8589 95.9945 32.4839 102.762 39.6514 101.395C39.6514 101.395 38.4094 102.363 37.7048 102.678H37.7049Z" fill="white"/>
<path d="M33.6009 103.665C30.9197 103.665 28.0525 102.677 25.2234 100.738C20.8038 97.7085 16.813 92.5564 13.9859 86.2309C11.155 79.8968 9.83085 72.7945 10.3529 66.7459C10.8803 60.635 13.2531 56.2064 16.8626 54.5958C18.0329 54.0737 18.7617 53.9592 19.3474 53.8672L19.4378 53.8531C19.4641 53.8489 19.4909 53.8534 19.5143 53.8659C19.5377 53.8785 19.5564 53.8983 19.5676 53.9224C19.5787 53.9465 19.5817 53.9736 19.576 53.9995C19.5703 54.0254 19.5564 54.0488 19.5362 54.0661C16.7912 56.4126 15.1688 60.771 14.9676 66.3386C14.7635 71.986 16.0594 78.2473 18.6164 83.9692C21.2091 89.7704 24.618 94.4902 28.4745 97.618C32.2537 100.683 36.1103 101.948 39.6281 101.278C39.655 101.273 39.6828 101.277 39.7072 101.289C39.7315 101.302 39.7508 101.322 39.7621 101.347C39.7734 101.372 39.776 101.4 39.7695 101.427C39.7629 101.453 39.7476 101.477 39.726 101.494C39.6748 101.534 38.4643 102.474 37.7542 102.792C36.4479 103.376 35.0517 103.665 33.6011 103.665H33.6009ZM19.0659 54.1601C18.5477 54.25 17.9001 54.3999 16.9619 54.8183C13.4358 56.3918 11.1154 60.7467 10.5959 66.7667C10.0772 72.7755 11.394 79.8336 14.2085 86.1313C17.0174 92.4163 20.9783 97.5322 25.3613 100.537C29.6482 103.475 34.0141 104.197 37.6545 102.569C38.0943 102.373 38.7591 101.908 39.1802 101.599C35.7249 102.082 31.9827 100.777 28.3209 97.8074C24.4347 94.6555 21.002 89.9048 18.3937 84.0687C15.8218 78.3134 14.5185 72.0135 14.7239 66.3297C14.9199 60.906 16.4577 56.6075 19.0659 54.1601Z" fill="#1C3333"/>
<path d="M69.6837 161.088C69.6285 160.607 69.4841 160.141 69.274 159.705L43.0911 105.383C49.4686 99.1802 49.6293 84.1138 43.4215 70.2259C36.371 54.4488 23.9208 45.8596 14.7587 49.956C5.59537 54.0537 4.14821 72.1943 11.1987 87.9714C18.2492 103.747 30.9834 111.495 40.1467 107.399L66.3852 162.073C66.8965 163.138 68.0059 163.314 68.63 163.146C69.665 162.866 69.7731 161.869 69.6835 161.088L69.6837 161.088ZM14.0979 86.1799C8.20319 72.9906 9.39554 58.0671 16.913 54.7061C24.4292 51.3438 34.6203 58.3891 40.5138 71.5784C46.4085 84.7677 45.221 99.318 37.7048 102.679C30.1874 106.041 19.9926 99.3692 14.0979 86.1799Z" fill="#CFDEDB"/>
<path d="M68.1919 163.322C67.5473 163.322 66.7089 163.031 66.2748 162.126L40.0874 107.559C38.4731 108.263 36.7449 108.611 34.9494 108.611C31.7061 108.611 28.2406 107.475 24.8133 105.24C19.3247 101.662 14.4499 95.5471 11.0868 88.0221C7.69557 80.4334 6.12454 71.8869 6.77656 64.5742C7.09781 60.9716 7.92551 57.8685 9.23649 55.3507C10.614 52.7057 12.455 50.8534 14.7084 49.8457C19.2014 47.8372 24.6148 48.7938 29.9514 52.5396C35.3061 56.2983 40.1292 62.5622 43.5323 70.1772C49.7187 84.0175 49.5863 99.1371 43.2383 105.41L69.3832 159.653C69.6078 160.119 69.7493 160.597 69.8042 161.075C69.941 162.268 69.5457 163.025 68.6613 163.264C68.527 163.301 68.3665 163.322 68.1918 163.322H68.1919ZM40.1461 107.278C40.1916 107.278 40.2351 107.303 40.2561 107.347L66.4946 162.021C66.9825 163.037 68.0438 163.179 68.5977 163.029C69.5476 162.772 69.6464 161.839 69.5619 161.102C69.5103 160.652 69.3764 160.2 69.1636 159.759L42.9807 105.437C42.9696 105.414 42.966 105.388 42.9705 105.363C42.975 105.338 42.9872 105.315 43.0056 105.297C49.3463 99.1294 49.4771 84.074 43.3098 70.2766C39.9245 62.7012 35.1307 56.4729 29.8115 52.7391C24.5479 49.0441 19.2196 48.0956 14.808 50.0683C10.51 51.9903 7.67119 57.2854 7.01942 64.5958C6.37094 71.8684 7.93465 80.3707 11.3095 87.9226C14.6535 95.4052 19.4966 101.483 24.9464 105.036C30.242 108.488 35.6224 109.288 40.0964 107.288C40.112 107.281 40.1289 107.278 40.146 107.278H40.1461ZM33.6004 103.665C30.919 103.665 28.0525 102.677 25.2235 100.738C20.8041 97.7083 16.8133 92.5562 13.9863 86.2306C11.1556 79.8969 9.83169 72.7958 10.3541 66.7479C10.8818 60.6384 13.2542 56.2092 16.8629 54.5957C20.5625 52.9409 25.012 53.7368 29.392 56.8369C33.7941 59.9527 37.7834 65.1707 40.6248 71.5297C43.4541 77.8602 44.7789 84.8934 44.2595 90.8261C44.0034 93.7513 43.3277 96.2708 42.251 98.3143C41.1232 100.455 39.6102 101.961 37.7542 102.791C36.4479 103.376 35.0511 103.665 33.6005 103.665L33.6004 103.665ZM20.8772 53.9964C19.5068 53.9964 18.1916 54.2684 16.9622 54.8184C13.4367 56.3947 11.1166 60.7505 10.5967 66.7689C10.0778 72.7769 11.3943 79.8341 14.2085 86.1311C17.0176 92.4162 20.9782 97.5322 25.3611 100.537C28.1476 102.447 30.9682 103.42 33.6006 103.42C35.0179 103.42 36.3802 103.138 37.6544 102.569C41.181 100.992 43.4998 96.7039 44.0163 90.8046C44.5321 84.9122 43.2147 77.9229 40.4018 71.6292C37.5779 65.3096 33.6177 60.1269 29.2508 57.036C26.4077 55.0236 23.5391 53.9964 20.8772 53.9964Z" fill="#1C3333"/>
</g>
<defs>
<clipPath id="clip0_772_43009">
<rect width="52.3186" height="72.9289" fill="white" transform="translate(133.592 2.57812)"/>
</clipPath>
<clipPath id="clip1_772_43009">
<rect width="37.4401" height="76.5875" fill="white" transform="translate(50.1846 0.220703)"/>
</clipPath>
<clipPath id="clip2_772_43009">
<rect width="102.93" height="102.93" fill="white" transform="translate(66.4453 20.9941)"/>
</clipPath>
<clipPath id="clip3_772_43009">
<rect width="117.564" height="164.151" fill="white" transform="translate(33.9766 19.6582)"/>
</clipPath>
<clipPath id="clip4_772_43009">
<rect width="101.1" height="81.8316" fill="white" transform="translate(23.2861 56.7363)"/>
</clipPath>
<clipPath id="clip5_772_43009">
<rect width="67.6849" height="116.345" fill="white" transform="translate(6.63184 46.9785)"/>
</clipPath>
</defs>
</svg>
