<svg width="16" height="16" viewBox="0 0 16 16" fill="none" xmlns="http://www.w3.org/2000/svg">
<path d="M6.00002 13.3327C5.63335 13.3327 5.31946 13.2021 5.05835 12.941C4.79724 12.6799 4.66669 12.366 4.66669 11.9993C4.66669 11.6327 4.79724 11.3188 5.05835 11.0577C5.31946 10.7966 5.63335 10.666 6.00002 10.666C6.36669 10.666 6.68058 10.7966 6.94169 11.0577C7.2028 11.3188 7.33335 11.6327 7.33335 11.9993C7.33335 12.366 7.2028 12.6799 6.94169 12.941C6.68058 13.2021 6.36669 13.3327 6.00002 13.3327ZM10 13.3327C9.63335 13.3327 9.31946 13.2021 9.05835 12.941C8.79724 12.6799 8.66669 12.366 8.66669 11.9993C8.66669 11.6327 8.79724 11.3188 9.05835 11.0577C9.31946 10.7966 9.63335 10.666 10 10.666C10.3667 10.666 10.6806 10.7966 10.9417 11.0577C11.2028 11.3188 11.3334 11.6327 11.3334 11.9993C11.3334 12.366 11.2028 12.6799 10.9417 12.941C10.6806 13.2021 10.3667 13.3327 10 13.3327ZM6.00002 9.33268C5.63335 9.33268 5.31946 9.20213 5.05835 8.94102C4.79724 8.6799 4.66669 8.36602 4.66669 7.99935C4.66669 7.63268 4.79724 7.31879 5.05835 7.05768C5.31946 6.79657 5.63335 6.66602 6.00002 6.66602C6.36669 6.66602 6.68058 6.79657 6.94169 7.05768C7.2028 7.31879 7.33335 7.63268 7.33335 7.99935C7.33335 8.36602 7.2028 8.6799 6.94169 8.94102C6.68058 9.20213 6.36669 9.33268 6.00002 9.33268ZM10 9.33268C9.63335 9.33268 9.31946 9.20213 9.05835 8.94102C8.79724 8.6799 8.66669 8.36602 8.66669 7.99935C8.66669 7.63268 8.79724 7.31879 9.05835 7.05768C9.31946 6.79657 9.63335 6.66602 10 6.66602C10.3667 6.66602 10.6806 6.79657 10.9417 7.05768C11.2028 7.31879 11.3334 7.63268 11.3334 7.99935C11.3334 8.36602 11.2028 8.6799 10.9417 8.94102C10.6806 9.20213 10.3667 9.33268 10 9.33268ZM6.00002 5.33268C5.63335 5.33268 5.31946 5.20213 5.05835 4.94102C4.79724 4.6799 4.66669 4.36602 4.66669 3.99935C4.66669 3.63268 4.79724 3.31879 5.05835 3.05768C5.31946 2.79657 5.63335 2.66602 6.00002 2.66602C6.36669 2.66602 6.68058 2.79657 6.94169 3.05768C7.2028 3.31879 7.33335 3.63268 7.33335 3.99935C7.33335 4.36602 7.2028 4.6799 6.94169 4.94102C6.68058 5.20213 6.36669 5.33268 6.00002 5.33268ZM10 5.33268C9.63335 5.33268 9.31946 5.20213 9.05835 4.94102C8.79724 4.6799 8.66669 4.36602 8.66669 3.99935C8.66669 3.63268 8.79724 3.31879 9.05835 3.05768C9.31946 2.79657 9.63335 2.66602 10 2.66602C10.3667 2.66602 10.6806 2.79657 10.9417 3.05768C11.2028 3.31879 11.3334 3.63268 11.3334 3.99935C11.3334 4.36602 11.2028 4.6799 10.9417 4.94102C10.6806 5.20213 10.3667 5.33268 10 5.33268Z" fill="#1A1A1A"/>
</svg>
