<svg width="560" height="240" viewBox="0 0 560 240" fill="none" xmlns="http://www.w3.org/2000/svg">
<g clip-path="url(#clip0_656_17290)">
<path d="M429.822 127.909L354.655 82.9163L303.375 108.459L303.227 112.604C303.221 112.775 303.259 112.945 303.339 113.098C303.418 113.25 303.536 113.379 303.68 113.472L378.696 161.942C379.037 162.163 379.431 162.288 379.836 162.305C380.242 162.323 380.645 162.231 381.004 162.04L428.415 134.421C428.78 134.219 429.087 133.926 429.305 133.57C429.524 133.214 429.646 132.808 429.661 132.391L429.822 127.909Z" fill="#022F2E"/>
<path d="M379.932 162.461C379.471 162.461 379.012 162.33 378.612 162.072L303.596 113.602C303.43 113.493 303.294 113.344 303.202 113.168C303.11 112.992 303.066 112.796 303.072 112.597L303.22 108.452C303.222 108.424 303.23 108.397 303.245 108.374C303.26 108.351 303.281 108.332 303.306 108.319L354.586 82.777C354.633 82.7533 354.689 82.7558 354.735 82.7827L429.901 127.776C429.925 127.79 429.944 127.81 429.958 127.835C429.971 127.859 429.977 127.886 429.976 127.914L429.816 132.396C429.784 133.293 429.276 134.121 428.49 134.556L381.082 162.174C380.728 162.362 380.333 162.461 379.932 162.461ZM303.527 108.555L303.382 112.608C303.377 112.753 303.41 112.897 303.477 113.025C303.544 113.154 303.643 113.263 303.764 113.342L378.78 161.812C379.098 162.017 379.465 162.134 379.843 162.15C380.221 162.166 380.597 162.081 380.931 161.903L428.337 134.287C429.031 133.903 429.478 133.174 429.506 132.385L429.664 127.994L354.648 83.0918L303.527 108.555Z" fill="#022F2E"/>
<path d="M380.523 157.87L428.568 130.394C430.198 129.509 430.286 127.203 428.728 126.196L356.459 79.7087C355.9 79.348 355.256 79.1429 354.592 79.1147C353.928 79.0865 353.268 79.2361 352.681 79.5482L304.256 107.228C303.268 107.754 303.222 109.153 304.174 109.742L379.067 157.829C379.284 157.963 379.534 158.038 379.789 158.045C380.045 158.053 380.298 157.992 380.523 157.87Z" fill="white"/>
<path d="M379.831 158.2C379.537 158.2 379.243 158.12 378.985 157.96L304.09 109.872C303.598 109.568 303.314 109.038 303.332 108.456C303.351 107.875 303.669 107.365 304.183 107.092L352.604 79.4139C353.216 79.0882 353.903 78.9317 354.596 78.9607C355.288 78.9897 355.961 79.203 356.543 79.5787L428.812 126.066C429.59 126.569 430.033 127.421 429.998 128.347C429.963 129.272 429.456 130.088 428.642 130.53L380.6 158.004L380.597 158.006C380.362 158.134 380.098 158.2 379.831 158.2ZM354.433 79.2664C353.857 79.2664 353.28 79.4051 352.754 79.6848L304.333 107.363C303.914 107.585 303.657 107.997 303.642 108.467C303.627 108.936 303.856 109.363 304.255 109.61L379.15 157.698C379.344 157.818 379.567 157.884 379.794 157.89C380.022 157.897 380.248 157.843 380.448 157.734L428.491 130.26C429.211 129.869 429.658 129.15 429.688 128.334C429.72 127.519 429.329 126.769 428.644 126.326L356.375 79.8388C355.796 79.465 355.122 79.2662 354.433 79.2664Z" fill="#022F2E"/>
<path d="M319.527 106.602L333.964 98.9011C334.592 98.5662 335.297 98.4029 336.008 98.4278C336.719 98.4526 337.411 98.6646 338.014 99.0424L396.479 135.683C398.252 136.794 398.154 139.407 396.304 140.383L381.878 147.991C381.252 148.321 380.551 148.481 379.844 148.455C379.137 148.429 378.45 148.219 377.85 147.844L319.366 111.307C317.592 110.199 317.681 107.587 319.527 106.602Z" fill="white"/>
<path d="M379.993 148.611C379.206 148.612 378.435 148.391 377.768 147.975L319.284 111.438C318.403 110.888 317.899 109.94 317.934 108.903C317.97 107.866 318.538 106.954 319.454 106.466L333.891 98.7647C335.214 98.0589 336.826 98.1151 338.096 98.9114L396.562 135.552C397.442 136.104 397.944 137.052 397.905 138.09C397.866 139.127 397.295 140.036 396.376 140.52L381.95 148.128C381.347 148.446 380.675 148.612 379.993 148.611ZM319.6 106.739C318.783 107.175 318.276 107.988 318.244 108.914C318.212 109.839 318.663 110.685 319.448 111.176L377.932 147.713C379.102 148.444 380.586 148.498 381.806 147.854L396.232 140.246C397.051 139.814 397.561 139.004 397.596 138.078C397.63 137.153 397.182 136.307 396.397 135.815L337.932 99.1738C337.352 98.8113 336.687 98.608 336.003 98.5841C335.319 98.5602 334.641 98.7167 334.037 99.0379L319.6 106.739Z" fill="#022F2E"/>
<path d="M376.724 98.7085L397.174 111.525C398.947 112.636 398.849 115.25 396.998 116.225L385.688 122.186C385.063 122.515 384.362 122.675 383.655 122.649C382.948 122.624 382.261 122.413 381.661 122.038L361.243 109.284C359.469 108.175 359.558 105.563 361.404 104.578L372.674 98.5671C373.302 98.2322 374.007 98.069 374.718 98.0938C375.429 98.1186 376.121 98.3306 376.724 98.7085Z" fill="white"/>
<path d="M383.805 122.805C383.018 122.806 382.247 122.585 381.579 122.169L361.161 109.415C360.281 108.865 359.776 107.917 359.811 106.879C359.847 105.842 360.415 104.93 361.332 104.442L372.601 98.4304C373.924 97.7247 375.536 97.7809 376.806 98.5772L397.257 111.394C398.137 111.945 398.639 112.894 398.6 113.932C398.561 114.969 397.99 115.878 397.071 116.362L385.761 122.323C385.157 122.64 384.486 122.805 383.805 122.805ZM374.576 98.2475C373.948 98.2475 373.318 98.3989 372.747 98.7036L361.477 104.715C360.66 105.151 360.153 105.964 360.121 106.89C360.089 107.816 360.539 108.661 361.325 109.152L381.743 121.907C382.913 122.637 384.396 122.692 385.616 122.049L396.926 116.088C397.746 115.656 398.256 114.846 398.291 113.92C398.325 112.994 397.877 112.148 397.092 111.656L376.642 98.8396C376.022 98.4522 375.306 98.247 374.576 98.2475Z" fill="#022F2E"/>
<path d="M383.228 159.357L379.36 108.122C379.375 107.715 379.28 107.311 379.086 106.954C378.891 106.596 378.604 106.296 378.255 106.087L304.407 58.2964C304.256 58.2055 304.083 58.1568 303.906 58.1551C303.729 58.1534 303.555 58.1989 303.402 58.2868L299.734 60.0134L303.821 109.541L379.732 160.016L383.228 159.357Z" fill="#022F2E"/>
<path d="M379.731 160.171C379.701 160.171 379.671 160.162 379.646 160.145L303.735 109.67C303.716 109.657 303.699 109.64 303.688 109.62C303.676 109.6 303.669 109.577 303.667 109.554L299.579 60.0259C299.577 59.9945 299.584 59.963 299.6 59.9357C299.615 59.9084 299.639 59.8866 299.668 59.8731L303.336 58.1467C303.685 57.9458 304.13 57.9498 304.487 58.1636L378.339 105.957C379.092 106.408 379.544 107.237 379.515 108.119L383.382 159.346C383.385 159.384 383.374 159.421 383.351 159.452C383.327 159.482 383.294 159.503 383.256 159.51L379.76 160.168C379.751 160.17 379.741 160.171 379.731 160.171ZM303.969 109.454L379.765 159.852L383.063 159.231L379.206 108.133C379.205 108.128 379.205 108.122 379.206 108.116C379.219 107.737 379.131 107.361 378.95 107.027C378.768 106.694 378.501 106.415 378.175 106.219L304.323 58.4262C304.195 58.3507 304.05 58.3105 303.902 58.3095C303.753 58.3086 303.607 58.3471 303.479 58.421L299.897 60.1075L303.969 109.454Z" fill="#022F2E"/>
<path d="M375.752 110.456C375.766 110.049 375.671 109.646 375.477 109.288C375.283 108.93 374.996 108.631 374.646 108.421L300.735 60.0248C300.087 59.6363 299.259 60.085 299.232 60.8398L303.227 112.603C303.221 112.775 303.259 112.945 303.339 113.097C303.418 113.249 303.536 113.378 303.68 113.471L378.696 161.942C378.987 162.13 379.645 162.288 379.645 162.288L375.752 110.456Z" fill="#8EAAA4"/>
<path d="M379.645 162.443C379.633 162.443 379.621 162.442 379.609 162.439C379.581 162.432 378.922 162.272 378.612 162.072L303.596 113.602C303.431 113.494 303.296 113.347 303.204 113.172C303.113 112.998 303.067 112.804 303.072 112.607L299.077 60.8518C299.077 60.8459 299.077 60.8401 299.077 60.8343C299.083 60.6347 299.142 60.4403 299.247 60.2706C299.352 60.1009 299.501 59.9619 299.677 59.8676C299.852 59.7715 300.049 59.7232 300.249 59.7276C300.448 59.7319 300.644 59.7887 300.814 59.8923L374.731 108.292C375.483 108.743 375.935 109.572 375.907 110.453L379.799 162.277C379.801 162.298 379.798 162.319 379.791 162.34C379.784 162.36 379.773 162.378 379.758 162.394C379.744 162.409 379.726 162.422 379.707 162.43C379.687 162.439 379.666 162.443 379.645 162.443ZM299.387 60.8371L303.381 112.591C303.382 112.597 303.382 112.603 303.382 112.609C303.377 112.754 303.41 112.897 303.477 113.025C303.544 113.154 303.643 113.263 303.764 113.341L378.78 161.812C378.94 161.916 379.249 162.018 379.474 162.083L375.597 110.468C375.597 110.462 375.597 110.457 375.597 110.451C375.611 110.071 375.522 109.695 375.341 109.362C375.16 109.028 374.893 108.749 374.567 108.554L300.65 60.1544C300.398 60.0036 300.088 59.9968 299.824 60.1395C299.697 60.2078 299.59 60.308 299.513 60.4303C299.436 60.5526 299.393 60.6928 299.387 60.8371Z" fill="#022F2E"/>
<path d="M375.349 109.081C375.349 109.081 374.93 108.591 374.646 108.421L300.735 60.025C300.414 59.8323 300.049 59.8453 299.759 59.9988L303.402 58.2866C303.555 58.1986 303.729 58.1531 303.906 58.1548C304.082 58.1565 304.255 58.2054 304.406 58.2964L378.255 106.087C378.611 106.3 379.085 106.953 379.085 106.953L375.349 109.081Z" fill="white"/>
<path d="M375.35 109.236C375.327 109.236 375.305 109.231 375.285 109.222C375.264 109.213 375.246 109.199 375.232 109.182C375.12 109.051 374.782 108.683 374.567 108.554L300.65 60.1547C300.54 60.0884 300.415 60.0489 300.286 60.0393C300.158 60.0298 300.029 60.0505 299.909 60.0997L299.825 60.1392C299.789 60.1572 299.746 60.1599 299.708 60.1469C299.669 60.1338 299.637 60.1059 299.619 60.0694C299.6 60.0329 299.597 59.9906 299.61 59.9518C299.623 59.913 299.651 59.8808 299.687 59.8623C299.719 59.8453 299.752 59.8298 299.785 59.816L303.336 58.1468C303.686 57.9454 304.131 57.9499 304.487 58.164L378.34 105.957C378.713 106.181 379.19 106.834 379.211 106.862C379.223 106.88 379.232 106.9 379.237 106.921C379.241 106.943 379.241 106.965 379.237 106.986C379.232 107.007 379.223 107.027 379.21 107.045C379.197 107.062 379.181 107.077 379.162 107.088L375.426 109.216C375.402 109.23 375.376 109.236 375.35 109.236ZM300.58 59.7846C300.662 59.8117 300.741 59.8479 300.815 59.8925L374.731 108.292C374.952 108.424 375.241 108.728 375.382 108.885L378.855 106.906C378.682 106.686 378.39 106.349 378.176 106.219L304.322 58.4264C304.067 58.2728 303.743 58.2697 303.479 58.421L300.58 59.7846Z" fill="#022F2E"/>
<path d="M339.975 115.892C342.016 114.601 341.66 110.382 339.18 106.469C336.701 102.557 333.037 100.432 330.997 101.724C328.956 103.015 329.312 107.234 331.792 111.147C334.271 115.059 337.935 117.184 339.975 115.892Z" fill="white"/>
<path d="M338.587 116.429C337.802 116.429 336.911 116.153 335.969 115.607C334.402 114.698 332.872 113.144 331.66 111.231C330.447 109.318 329.696 107.271 329.544 105.467C329.389 103.627 329.875 102.252 330.913 101.595C331.951 100.937 333.402 101.086 335.001 102.013C336.567 102.921 338.098 104.475 339.31 106.388C340.522 108.301 341.274 110.348 341.426 112.152C341.581 113.993 341.095 115.368 340.057 116.025C339.631 116.295 339.134 116.429 338.587 116.429ZM332.384 101.5C331.895 101.5 331.454 101.618 331.079 101.856C330.143 102.448 329.708 103.722 329.853 105.441C330.001 107.196 330.736 109.194 331.921 111.065C333.107 112.937 334.6 114.455 336.125 115.339C337.618 116.205 338.955 116.355 339.891 115.763C340.827 115.171 341.262 113.898 341.117 112.178C340.969 110.423 340.234 108.425 339.048 106.554C337.862 104.682 336.37 103.164 334.845 102.28C333.952 101.762 333.114 101.5 332.384 101.5Z" fill="#022F2E"/>
</g>
<g clip-path="url(#clip1_656_17290)">
<path d="M312 150.743C312 166.476 289.863 179.23 262.555 179.23C235.247 179.23 213.109 166.476 213.109 150.743C213.109 149.183 212.69 69.0661 213.109 67.574C216.914 54.0203 237.955 53.6824 262.555 53.6824C287.414 53.6824 312 69.1026 312 69.1026V150.743Z" fill="#FF5823"/>
<path d="M262.555 179.385C249.321 179.385 236.877 176.414 227.515 171.021C218.126 165.611 212.955 158.41 212.955 150.743C212.955 150.565 212.95 149.361 212.941 147.365C212.704 95.2828 212.711 68.4232 212.961 67.5324C214.727 61.2422 220.142 57.3853 230.003 55.3945C238.567 53.6658 249.349 53.5283 262.555 53.5283C275.422 53.5283 288.203 57.7275 296.659 61.2502C305.819 65.066 312.02 68.9333 312.082 68.972C312.104 68.9859 312.122 69.0052 312.135 69.028C312.147 69.0509 312.154 69.0766 312.154 69.1027V150.744C312.154 158.41 306.983 165.611 297.595 171.021C288.233 176.414 275.788 179.385 262.555 179.385ZM262.555 53.8366C249.367 53.8366 238.6 53.9737 230.064 55.6968C220.329 57.6621 214.989 61.4496 213.257 67.6159C213.091 68.2094 212.954 82.5267 213.248 147.364C213.258 149.36 213.263 150.565 213.263 150.743C213.263 166.366 235.375 179.076 262.555 179.076C289.734 179.076 311.846 166.366 311.846 150.743V69.1886C311.128 68.7463 305.141 65.1174 296.535 61.5325C288.106 58.0216 275.369 53.8366 262.555 53.8366Z" fill="#022F2E"/>
<path d="M262.555 121.482C288.227 121.482 309.564 110.164 312 95.7417V101.685C312 101.685 311.601 103.418 311.323 104.273C307.029 117.486 286.734 127.067 262.555 127.067C244.045 127.067 227.586 121.689 219.071 113.025C213.109 106.959 212.941 104.213 212.941 104.213C212.941 104.213 212.936 100.559 212.936 98.6557C212.936 97.7133 212.975 96.8135 212.931 95.7876C215.367 110.21 236.882 121.482 262.555 121.482Z" fill="#022F2E"/>
<path d="M262.555 127.221C253.48 127.221 244.649 125.914 237.017 123.442C229.411 120.977 223.167 117.413 218.961 113.133C213.028 107.096 212.794 104.337 212.787 104.223C212.787 104.213 212.782 100.558 212.782 98.6554C212.782 98.3542 212.786 98.0573 212.79 97.7592C212.799 97.1344 212.807 96.4883 212.777 95.794C212.776 95.7548 212.789 95.7164 212.815 95.6867C212.84 95.657 212.876 95.6381 212.915 95.634C212.954 95.6302 212.993 95.6412 213.024 95.6649C213.055 95.6885 213.076 95.7231 213.083 95.7616C214.256 102.704 219.944 109.148 229.1 113.906C238.31 118.692 250.192 121.328 262.555 121.328C274.902 121.328 286.751 118.684 295.92 113.883C305.018 109.12 310.674 102.668 311.849 95.7159C311.855 95.6777 311.876 95.6434 311.906 95.6197C311.937 95.5961 311.975 95.5847 312.013 95.5879C312.052 95.5912 312.088 95.6088 312.114 95.6372C312.14 95.6657 312.154 95.7029 312.154 95.7416V101.685C312.154 101.697 312.153 101.709 312.15 101.72C312.134 101.791 311.747 103.469 311.47 104.321C309.376 110.765 303.335 116.605 294.462 120.764C285.579 124.928 274.248 127.221 262.555 127.221ZM213.103 97.3131C213.102 97.4646 213.1 97.6147 213.098 97.7635C213.094 98.0601 213.09 98.3556 213.09 98.6556C213.09 100.558 213.095 104.213 213.095 104.213C213.161 105.143 214.519 108.174 219.18 112.917C223.352 117.161 229.552 120.699 237.112 123.148C244.714 125.611 253.512 126.913 262.555 126.913C274.204 126.913 285.489 124.63 294.331 120.485C303.127 116.362 309.109 110.587 311.177 104.226C311.435 103.432 311.804 101.85 311.846 101.668V97.1988C310.167 103.698 304.622 109.675 296.062 114.157C286.85 118.98 274.95 121.636 262.555 121.636C250.143 121.636 238.211 118.988 228.958 114.18C220.374 109.719 214.807 103.776 213.103 97.3131Z" fill="#022F2E"/>
<path d="M262.555 150.339C288.227 150.339 309.564 139.021 312 124.599V130.896C312 130.896 311.772 131.681 311.333 133.207C307.45 146.708 287.089 155.924 262.555 155.924C238.802 155.924 220.791 147.744 214.032 134.406C213.585 133.523 213.023 131.632 213.023 131.632C213.023 131.632 213.045 125.672 213 124.646C215.437 139.069 236.882 150.339 262.555 150.339Z" fill="#022F2E"/>
<path d="M262.555 156.078C238.94 156.078 220.749 148.002 213.895 134.475C213.447 133.59 212.899 131.754 212.876 131.676C212.872 131.662 212.87 131.647 212.87 131.631C212.87 131.572 212.891 125.663 212.847 124.653C212.846 124.614 212.859 124.575 212.884 124.545C212.91 124.516 212.946 124.497 212.985 124.493C213.024 124.489 213.063 124.5 213.094 124.523C213.125 124.547 213.146 124.582 213.153 124.62C214.326 131.565 220.002 138.009 229.135 142.764C238.327 147.549 250.196 150.184 262.555 150.184C274.901 150.184 286.751 147.541 295.92 142.74C305.017 137.977 310.674 131.525 311.849 124.573C311.855 124.534 311.875 124.5 311.906 124.476C311.936 124.453 311.975 124.441 312.013 124.445C312.052 124.448 312.087 124.465 312.114 124.494C312.14 124.522 312.154 124.56 312.154 124.598V130.895C312.154 130.91 312.152 130.924 312.148 130.938C312.148 130.939 311.92 131.724 311.481 133.249C307.616 146.69 287.496 156.078 262.555 156.078ZM213.178 131.61C213.241 131.821 213.759 133.526 214.169 134.336C220.97 147.757 239.058 155.77 262.555 155.77C274.465 155.77 285.854 153.539 294.624 149.488C298.98 147.476 302.612 145.071 305.416 142.341C308.3 139.534 310.241 136.447 311.185 133.164C311.582 131.782 311.807 131.008 311.846 130.873V126.056C310.167 132.555 304.622 138.532 296.062 143.013C286.85 147.837 274.95 150.493 262.555 150.493C250.147 150.493 238.228 147.845 228.993 143.037C220.437 138.583 214.884 132.647 213.177 126.188C213.189 128.185 213.179 131.269 213.178 131.61Z" fill="#022F2E"/>
<path d="M262.555 97.589C289.863 97.589 312 84.835 312 69.1021C312 53.3692 289.863 40.6152 262.555 40.6152C235.247 40.6152 213.109 53.3692 213.109 69.1021C213.109 84.835 235.247 97.589 262.555 97.589Z" fill="white"/>
<path d="M262.555 97.7437C249.321 97.7437 236.877 94.7732 227.515 89.3795C218.126 83.9702 212.955 76.7692 212.955 69.1025C212.955 61.4357 218.126 54.2347 227.515 48.8256C236.877 43.4318 249.321 40.4614 262.555 40.4614C275.789 40.4614 288.233 43.4318 297.595 48.8256C306.983 54.2347 312.154 61.4359 312.154 69.1025C312.154 76.769 306.984 83.9702 297.595 89.3794C288.233 94.7732 275.789 97.7437 262.555 97.7437ZM262.555 40.7697C235.375 40.7697 213.263 53.4798 213.263 69.1025C213.263 84.7251 235.375 97.4352 262.555 97.4352C289.734 97.4352 311.846 84.7251 311.846 69.1025C311.846 53.4798 289.734 40.7697 262.555 40.7697Z" fill="#022F2E"/>
<path d="M254.638 114.064C257.353 114.064 259.554 111.859 259.554 109.139C259.554 106.419 257.353 104.213 254.638 104.213C251.923 104.213 249.722 106.419 249.722 109.139C249.722 111.859 251.923 114.064 254.638 114.064Z" fill="#FF5823"/>
<path d="M254.638 114.218C251.842 114.218 249.568 111.939 249.568 109.138C249.568 106.337 251.842 104.059 254.638 104.059C257.433 104.059 259.708 106.337 259.708 109.138C259.708 111.939 257.433 114.218 254.638 114.218ZM254.638 104.367C252.012 104.367 249.876 106.507 249.876 109.138C249.876 111.769 252.012 113.91 254.638 113.91C257.263 113.91 259.4 111.769 259.4 109.138C259.4 106.507 257.264 104.367 254.638 104.367Z" fill="#022F2E"/>
<path d="M254.638 143.332C257.353 143.332 259.554 141.127 259.554 138.407C259.554 135.686 257.353 133.481 254.638 133.481C251.923 133.481 249.722 135.686 249.722 138.407C249.722 141.127 251.923 143.332 254.638 143.332Z" fill="#FF5823"/>
<path d="M254.638 143.486C251.842 143.486 249.568 141.207 249.568 138.406C249.568 135.605 251.842 133.326 254.638 133.326C257.433 133.326 259.708 135.605 259.708 138.406C259.708 141.207 257.433 143.486 254.638 143.486ZM254.638 133.634C252.012 133.634 249.876 135.775 249.876 138.406C249.876 141.037 252.012 143.177 254.638 143.177C257.263 143.177 259.4 141.037 259.4 138.406C259.4 135.775 257.264 133.634 254.638 133.634Z" fill="#022F2E"/>
<path d="M254.638 171.645C257.353 171.645 259.554 169.44 259.554 166.72C259.554 163.999 257.353 161.794 254.638 161.794C251.923 161.794 249.722 163.999 249.722 166.72C249.722 169.44 251.923 171.645 254.638 171.645Z" fill="#FF5823"/>
<path d="M254.638 171.799C251.842 171.799 249.568 169.521 249.568 166.72C249.568 163.919 251.842 161.64 254.638 161.64C257.433 161.64 259.708 163.919 259.708 166.72C259.708 169.521 257.433 171.799 254.638 171.799ZM254.638 161.948C252.012 161.948 249.876 164.089 249.876 166.72C249.876 169.351 252.012 171.491 254.638 171.491C257.263 171.491 259.4 169.351 259.4 166.72C259.4 164.089 257.264 161.948 254.638 161.948ZM265.268 110.042C265.186 110.043 265.107 110.012 265.049 109.955C264.99 109.898 264.956 109.82 264.955 109.738C264.954 109.657 264.985 109.578 265.042 109.519C265.099 109.46 265.177 109.427 265.258 109.425C281.74 108.91 296.637 103.712 305.107 95.5208C305.165 95.464 305.244 95.4329 305.326 95.4344C305.407 95.4358 305.485 95.4697 305.542 95.5285C305.598 95.5873 305.629 95.6663 305.628 95.7481C305.627 95.8298 305.593 95.9077 305.534 95.9645C296.957 104.26 281.908 109.522 265.277 110.042C265.274 110.042 265.271 110.042 265.268 110.042ZM265.268 138.754C265.186 138.756 265.107 138.724 265.049 138.667C264.99 138.61 264.956 138.532 264.955 138.451C264.954 138.369 264.985 138.29 265.042 138.231C265.099 138.173 265.177 138.139 265.258 138.138C281.74 137.623 296.637 132.425 305.107 124.233C305.165 124.176 305.244 124.145 305.326 124.147C305.407 124.148 305.485 124.182 305.542 124.241C305.598 124.3 305.629 124.379 305.628 124.46C305.627 124.542 305.593 124.62 305.534 124.677C296.957 132.972 281.908 138.234 265.277 138.754C265.274 138.754 265.271 138.754 265.268 138.754ZM265.268 167.025C265.186 167.026 265.107 166.995 265.049 166.938C264.99 166.881 264.956 166.803 264.955 166.721C264.954 166.64 264.985 166.561 265.042 166.502C265.099 166.443 265.177 166.41 265.258 166.408C281.74 165.893 296.637 160.695 305.107 152.504C305.165 152.447 305.244 152.416 305.326 152.417C305.407 152.419 305.485 152.453 305.542 152.511C305.598 152.57 305.629 152.649 305.628 152.731C305.627 152.813 305.593 152.891 305.534 152.947C296.957 161.242 281.908 166.505 265.277 167.025L265.268 167.025Z" fill="#022F2E"/>
</g>
<g clip-path="url(#clip2_656_17290)">
<path d="M240.461 139.496C240.461 139.113 240.359 138.738 240.165 138.409C239.971 138.079 239.692 137.808 239.357 137.623L165.647 96.8854C165.502 96.8052 165.338 96.7653 165.172 96.7696C165.007 96.774 164.845 96.8225 164.704 96.9102L161.116 99.0591L163.952 152.849L233.99 193.023L160.648 154.97L116.154 177.896V181.789C116.154 182.117 116.326 182.421 116.608 182.589L188.531 225.544C188.858 225.739 189.231 225.843 189.612 225.846C189.993 225.849 190.367 225.749 190.697 225.558L239.367 197.374C239.691 197.186 239.96 196.916 240.148 196.592C240.335 196.267 240.434 195.899 240.434 195.524L240.461 139.496Z" fill="#022F2E"/>
<path d="M189.626 226C189.22 226 188.813 225.892 188.452 225.676L116.529 182.721C116.368 182.625 116.235 182.488 116.142 182.325C116.049 182.161 116 181.977 116 181.789V177.896C116 177.838 116.032 177.785 116.083 177.759L160.578 154.833C160.622 154.81 160.675 154.81 160.719 154.833L227.582 189.524L163.875 152.982C163.853 152.969 163.834 152.951 163.821 152.929C163.807 152.907 163.799 152.882 163.798 152.857L160.962 99.0672C160.96 99.0393 160.967 99.0114 160.98 98.9867C160.993 98.962 161.012 98.9413 161.037 98.927L164.625 96.7781C164.789 96.6765 164.977 96.6204 165.17 96.6156C165.362 96.6107 165.553 96.6573 165.721 96.7505L239.432 137.489C239.79 137.687 240.089 137.977 240.297 138.33C240.506 138.683 240.615 139.086 240.615 139.496L240.588 195.524C240.587 195.926 240.481 196.32 240.28 196.668C240.079 197.016 239.791 197.305 239.444 197.507L190.774 225.692C190.425 225.894 190.029 226 189.626 226ZM116.308 177.99V181.789C116.308 181.924 116.343 182.056 116.409 182.173C116.476 182.29 116.571 182.388 116.686 182.457L188.61 225.411C188.913 225.593 189.26 225.689 189.613 225.692C189.966 225.694 190.314 225.602 190.62 225.425L239.29 197.241C239.59 197.066 239.84 196.816 240.013 196.514C240.187 196.213 240.279 195.872 240.28 195.524L240.308 139.496C240.308 138.773 239.915 138.108 239.283 137.758L165.572 97.0202C165.451 96.9534 165.315 96.9201 165.176 96.9237C165.038 96.9273 164.903 96.9678 164.786 97.0409L161.274 99.1436L164.101 152.757L234.067 192.889C234.102 192.909 234.129 192.942 234.141 192.981C234.152 193.02 234.148 193.062 234.128 193.098C234.108 193.134 234.075 193.16 234.036 193.172C233.997 193.183 233.955 193.179 233.919 193.159L160.648 155.143L116.308 177.99Z" fill="#022F2E"/>
<path d="M160.648 150.984L116.611 177.001C116.003 177.361 116.001 178.24 116.608 178.603L188.531 221.558C188.858 221.753 189.231 221.857 189.612 221.86C189.993 221.862 190.368 221.763 190.697 221.572L237.158 194.666L160.648 150.984Z" fill="white"/>
<path d="M189.626 222.013C189.22 222.013 188.813 221.905 188.452 221.69L116.529 178.735C116.197 178.537 115.999 178.187 116 177.8C116.001 177.414 116.2 177.065 116.533 176.868L160.57 150.851C160.618 150.823 160.677 150.823 160.725 150.85L237.234 194.532C237.258 194.546 237.277 194.565 237.291 194.589C237.305 194.612 237.312 194.639 237.312 194.666C237.312 194.693 237.305 194.719 237.291 194.743C237.278 194.766 237.259 194.786 237.235 194.799L190.774 221.705C190.425 221.907 190.029 222.014 189.626 222.013ZM160.65 151.162L116.69 177.134C116.451 177.274 116.308 177.524 116.308 177.801C116.307 178.078 116.449 178.328 116.686 178.471L188.61 221.425C188.913 221.606 189.26 221.703 189.613 221.705C189.966 221.708 190.314 221.616 190.62 221.439L236.849 194.667L160.65 151.162Z" fill="#022F2E"/>
<path d="M223.704 193.844L207.717 203.13C207.347 203.345 206.927 203.458 206.499 203.459C206.072 203.459 205.651 203.346 205.281 203.132L146.538 169.142C145.747 168.685 145.749 167.542 146.541 167.087L162.531 157.899C162.9 157.688 163.318 157.576 163.743 157.577C164.168 157.577 164.586 157.689 164.954 157.901L223.701 191.782C224.494 192.24 224.496 193.384 223.704 193.844Z" fill="white"/>
<path d="M206.497 203.612C206.05 203.612 205.603 203.496 205.204 203.266L146.46 169.275C146.041 169.033 145.791 168.598 145.792 168.113C145.792 167.629 146.044 167.195 146.464 166.953L162.455 157.766C162.847 157.542 163.291 157.424 163.743 157.424C164.195 157.424 164.639 157.543 165.031 157.768L223.778 191.649C224.199 191.892 224.45 192.327 224.451 192.812C224.452 193.298 224.201 193.734 223.782 193.978L207.794 203.264C207.4 203.492 206.952 203.612 206.497 203.612ZM163.741 157.732C163.349 157.732 162.957 157.832 162.608 158.033L146.617 167.22C146.459 167.31 146.328 167.44 146.237 167.597C146.146 167.754 146.099 167.932 146.099 168.114C146.098 168.295 146.145 168.474 146.236 168.631C146.326 168.788 146.457 168.919 146.614 169.009L205.358 202.999C205.705 203.199 206.099 203.304 206.499 203.304C206.899 203.304 207.293 203.198 207.639 202.997L223.627 193.711C223.785 193.621 223.916 193.49 224.007 193.332C224.097 193.174 224.145 192.995 224.143 192.813C224.144 192.63 224.096 192.451 224.005 192.294C223.914 192.136 223.783 192.006 223.624 191.916L164.877 158.035C164.531 157.836 164.14 157.731 163.741 157.732Z" fill="#022F2E"/>
<path d="M169.017 204.744L146.695 191.828C145.905 191.37 145.907 190.227 146.699 189.773L159.826 182.235C160.194 182.024 160.612 181.913 161.037 181.913C161.462 181.913 161.879 182.025 162.247 182.238L184.525 195.085C185.319 195.542 185.32 196.687 184.529 197.147L171.453 204.742C171.083 204.956 170.663 205.07 170.235 205.07C169.807 205.07 169.387 204.958 169.017 204.744Z" fill="white"/>
<path d="M170.233 205.223C169.786 205.223 169.339 205.108 168.94 204.877L146.618 191.961C146.199 191.719 145.949 191.284 145.949 190.799C145.95 190.314 146.202 189.881 146.622 189.639L159.749 182.102C160.141 181.878 160.585 181.76 161.037 181.761C161.489 181.761 161.932 181.88 162.324 182.105L184.602 194.952C185.023 195.194 185.274 195.629 185.275 196.115C185.276 196.6 185.026 197.036 184.606 197.28L171.53 204.875C171.136 205.104 170.688 205.224 170.233 205.223ZM161.034 182.069C160.643 182.069 160.251 182.169 159.902 182.369L146.775 189.907C146.451 190.093 146.258 190.426 146.257 190.8C146.257 191.174 146.449 191.508 146.772 191.695L169.094 204.611C169.441 204.811 169.834 204.916 170.235 204.916C170.635 204.915 171.028 204.809 171.375 204.609L184.451 197.014C184.775 196.826 184.968 196.49 184.967 196.115C184.967 195.741 184.773 195.405 184.448 195.218L162.17 182.372C161.825 182.173 161.433 182.068 161.034 182.069Z" fill="#022F2E"/>
<path d="M160.673 99.8506L160.648 150.983L237.158 194.666V141.806C237.158 141.424 237.056 141.048 236.862 140.719C236.667 140.39 236.389 140.119 236.054 139.934L162.054 99.0356C161.434 98.6929 160.673 99.1415 160.673 99.8506Z" fill="#8EAAA4"/>
<path d="M237.158 194.819C237.132 194.819 237.105 194.813 237.082 194.799L160.572 151.117C160.549 151.104 160.529 151.084 160.515 151.061C160.502 151.037 160.495 151.01 160.495 150.983L160.519 99.8505C160.519 99.4625 160.719 99.1132 161.053 98.9161C161.387 98.719 161.789 98.7133 162.129 98.9009L236.129 139.799C236.487 139.997 236.786 140.288 236.994 140.641C237.202 140.994 237.312 141.396 237.312 141.806V194.666C237.312 194.686 237.308 194.706 237.3 194.725C237.293 194.743 237.281 194.76 237.267 194.774C237.253 194.789 237.236 194.8 237.217 194.808C237.198 194.816 237.178 194.819 237.158 194.819ZM160.802 150.894L237.004 194.4V141.806C237.004 141.083 236.612 140.418 235.98 140.068L161.98 99.1705C161.862 99.1044 161.728 99.0705 161.593 99.0724C161.458 99.0743 161.326 99.1119 161.209 99.1812C161.093 99.2494 160.996 99.3471 160.929 99.4646C160.861 99.5821 160.826 99.7152 160.827 99.8505L160.802 150.894Z" fill="#022F2E"/>
<path d="M236.735 140.53C236.735 140.53 236.326 140.084 236.054 139.934L162.054 99.0366C161.747 98.8665 161.406 98.891 161.139 99.0448L164.705 96.9102C164.845 96.8224 165.007 96.7739 165.172 96.7696C165.338 96.7653 165.502 96.8054 165.647 96.8857L239.358 137.624C239.698 137.812 240.164 138.408 240.164 138.408L236.735 140.53Z" fill="white"/>
<path d="M236.735 140.684C236.693 140.684 236.652 140.667 236.622 140.634C236.513 140.515 236.184 140.182 235.979 140.069L161.98 99.1713C161.863 99.1059 161.731 99.0722 161.597 99.0734C161.463 99.0746 161.332 99.1106 161.216 99.1781C161.181 99.1973 161.14 99.2021 161.101 99.1914C161.063 99.1807 161.03 99.1555 161.01 99.1209C160.989 99.0864 160.983 99.0454 160.993 99.0065C161.002 98.9676 161.027 98.9339 161.06 98.9126L164.626 96.7781C164.79 96.6764 164.977 96.6203 165.17 96.6156C165.363 96.6108 165.553 96.6576 165.721 96.7511L239.432 137.489C239.796 137.69 240.266 138.288 240.286 138.314C240.299 138.331 240.309 138.35 240.314 138.371C240.319 138.392 240.32 138.414 240.316 138.435C240.312 138.457 240.304 138.477 240.292 138.495C240.28 138.513 240.264 138.528 240.245 138.539L236.816 140.661C236.791 140.677 236.763 140.684 236.735 140.684ZM161.856 98.795C161.95 98.8176 162.041 98.8532 162.129 98.9017L236.128 139.799C236.342 139.917 236.62 140.189 236.76 140.333L239.934 138.37C239.764 138.17 239.485 137.87 239.283 137.758L165.572 97.0204C165.451 96.9534 165.314 96.9199 165.176 96.9235C165.038 96.9271 164.903 96.9675 164.786 97.0407L161.856 98.795Z" fill="#022F2E"/>
<path d="M189.432 225.837C189.432 225.837 188.81 225.711 188.531 225.544L116.608 182.589C116.47 182.506 116.355 182.389 116.275 182.249C116.196 182.109 116.154 181.951 116.154 181.789V177.896L116.16 177.893C116.173 178.038 116.22 178.179 116.298 178.302C116.376 178.425 116.482 178.528 116.608 178.603L188.531 221.558C188.822 221.731 189.471 221.854 189.471 221.854L189.432 225.837Z" fill="white"/>
<path d="M189.432 225.991C189.422 225.991 189.412 225.99 189.402 225.988C189.375 225.983 188.751 225.854 188.452 225.676L116.529 182.721C116.368 182.625 116.235 182.488 116.142 182.325C116.049 182.162 116 181.977 116 181.789V177.896C116 177.868 116.008 177.84 116.023 177.815C116.038 177.791 116.059 177.771 116.084 177.759C116.13 177.736 116.187 177.735 116.231 177.76C116.276 177.784 116.309 177.828 116.313 177.879C116.324 178 116.363 178.117 116.428 178.22C116.493 178.323 116.582 178.409 116.687 178.47L188.61 221.425C188.829 221.556 189.327 221.67 189.5 221.702C189.535 221.709 189.567 221.728 189.59 221.756C189.613 221.784 189.625 221.819 189.625 221.855L189.586 225.839C189.586 225.879 189.569 225.918 189.54 225.946C189.512 225.975 189.473 225.991 189.432 225.991ZM116.308 178.561V181.789C116.308 182.061 116.453 182.317 116.687 182.456L188.61 225.412C188.765 225.504 189.067 225.592 189.28 225.644L189.316 221.979C189.105 221.933 188.684 221.828 188.452 221.69L116.529 178.735C116.448 178.687 116.374 178.628 116.308 178.561Z" fill="#022F2E"/>
<path d="M171.91 117.378H171.908C171.867 117.378 171.827 117.37 171.79 117.354C171.753 117.338 171.719 117.315 171.69 117.287C171.662 117.258 171.64 117.224 171.624 117.186C171.609 117.149 171.602 117.109 171.602 117.068L171.654 108.927C171.654 108.846 171.687 108.768 171.745 108.711C171.802 108.654 171.88 108.621 171.962 108.621H171.964C172.004 108.622 172.044 108.63 172.081 108.646C172.119 108.661 172.152 108.684 172.181 108.713C172.209 108.742 172.232 108.776 172.247 108.813C172.262 108.851 172.27 108.891 172.269 108.931L172.217 117.072C172.217 117.153 172.184 117.231 172.126 117.289C172.069 117.346 171.991 117.378 171.91 117.378ZM182.482 123.26C181.885 123.26 181.262 122.89 180.698 122.192C180.083 121.43 179.596 120.35 179.326 119.151C178.742 116.559 179.353 114.288 180.715 113.981C182.078 113.674 183.602 115.464 184.186 118.056C184.769 120.648 184.159 122.918 182.796 123.226C182.693 123.249 182.588 123.26 182.482 123.26ZM181.022 114.563C180.963 114.563 180.906 114.569 180.851 114.582C179.967 114.781 179.385 116.61 179.926 119.016C180.176 120.125 180.62 121.115 181.177 121.805C181.678 122.426 182.219 122.725 182.661 122.625C183.544 122.426 184.126 120.597 183.585 118.191C183.078 115.937 181.896 114.563 181.022 114.563ZM194.171 129.77C192.894 129.77 191.55 128.059 191.01 125.661C190.427 123.069 191.037 120.798 192.4 120.491C193.089 120.336 193.834 120.703 194.497 121.524C195.112 122.286 195.6 123.366 195.87 124.566C196.453 127.158 195.843 129.429 194.48 129.736C194.379 129.758 194.275 129.77 194.171 129.77ZM192.707 121.073C192.648 121.073 192.591 121.079 192.535 121.092C191.651 121.291 191.069 123.12 191.61 125.525C192.152 127.931 193.462 129.335 194.345 129.135C195.229 128.936 195.811 127.107 195.269 124.701C195.02 123.592 194.576 122.601 194.019 121.911C193.581 121.37 193.113 121.073 192.707 121.073ZM181.943 141.349H181.941C181.901 141.349 181.861 141.34 181.824 141.325C181.787 141.309 181.753 141.286 181.724 141.257C181.696 141.228 181.674 141.194 181.658 141.157C181.643 141.119 181.635 141.079 181.636 141.039L181.688 132.898C181.688 132.817 181.721 132.739 181.779 132.682C181.836 132.624 181.914 132.592 181.996 132.592H181.998C182.038 132.592 182.078 132.601 182.115 132.616C182.152 132.632 182.186 132.655 182.215 132.684C182.243 132.712 182.265 132.747 182.281 132.784C182.296 132.821 182.304 132.862 182.303 132.902L182.251 141.043C182.251 141.124 182.218 141.202 182.16 141.259C182.103 141.317 182.025 141.349 181.943 141.349ZM193.605 148.018H193.603C193.563 148.018 193.523 148.01 193.486 147.994C193.448 147.978 193.415 147.955 193.386 147.926C193.358 147.898 193.335 147.864 193.32 147.826C193.305 147.789 193.297 147.749 193.297 147.708L193.35 139.567C193.35 139.486 193.383 139.407 193.441 139.35C193.499 139.293 193.578 139.261 193.659 139.261C193.741 139.262 193.819 139.295 193.876 139.353C193.934 139.411 193.966 139.49 193.965 139.571L193.913 147.712C193.912 147.793 193.88 147.871 193.822 147.929C193.764 147.986 193.686 148.018 193.605 148.018ZM205.849 154.963C205.252 154.963 204.629 154.593 204.065 153.895C203.45 153.133 202.963 152.053 202.693 150.854C202.423 149.654 202.4 148.469 202.63 147.517C202.877 146.49 203.393 145.839 204.082 145.684C205.444 145.376 206.969 147.167 207.553 149.759C208.136 152.351 207.526 154.622 206.163 154.929C206.06 154.952 205.955 154.963 205.849 154.963ZM204.389 146.266C204.33 146.266 204.273 146.272 204.218 146.285C203.775 146.384 203.415 146.886 203.228 147.662C203.02 148.523 203.043 149.609 203.293 150.718C203.543 151.828 203.987 152.818 204.544 153.508C205.045 154.129 205.586 154.428 206.027 154.328C206.911 154.129 207.493 152.3 206.952 149.894C206.445 147.64 205.263 146.266 204.389 146.266ZM182.198 159.724C180.92 159.724 179.576 158.013 179.036 155.615C178.453 153.023 179.063 150.752 180.426 150.445C181.789 150.138 183.313 151.928 183.896 154.52C184.479 157.112 183.869 159.383 182.506 159.69C182.405 159.712 182.301 159.724 182.198 159.724ZM180.732 151.027C180.674 151.027 180.617 151.033 180.561 151.046C179.677 151.245 179.095 153.074 179.636 155.479C180.178 157.885 181.488 159.289 182.371 159.089C183.255 158.89 183.837 157.061 183.296 154.655C182.788 152.401 181.606 151.027 180.732 151.027ZM193.877 166.235C193.279 166.235 192.657 165.865 192.093 165.166C191.478 164.405 190.99 163.325 190.72 162.125C190.45 160.925 190.428 159.74 190.657 158.788C190.905 157.761 191.421 157.11 192.11 156.955C193.473 156.648 194.997 158.438 195.58 161.03C195.85 162.23 195.873 163.414 195.643 164.366C195.396 165.393 194.88 166.044 194.191 166.2C194.088 166.223 193.982 166.235 193.877 166.235ZM192.416 157.537C192.358 157.537 192.301 157.543 192.245 157.556C191.803 157.655 191.443 158.157 191.256 158.933C191.048 159.795 191.071 160.88 191.321 161.99C191.57 163.099 192.015 164.09 192.571 164.779C193.072 165.4 193.613 165.699 194.055 165.599C194.497 165.499 194.858 164.998 195.045 164.222C195.253 163.36 195.23 162.275 194.98 161.165C194.472 158.911 193.29 157.537 192.416 157.537ZM215.402 177.928C214.125 177.929 212.78 176.217 212.24 173.819C211.657 171.227 212.267 168.956 213.63 168.649C214.319 168.495 215.064 168.861 215.728 169.683C216.343 170.445 216.83 171.525 217.1 172.724C217.37 173.924 217.392 175.109 217.163 176.061C216.916 177.088 216.4 177.739 215.71 177.894C215.609 177.917 215.506 177.929 215.402 177.928ZM213.937 169.231C213.879 169.231 213.821 169.238 213.765 169.25C212.882 169.449 212.299 171.278 212.841 173.684C213.382 176.09 214.692 177.493 215.575 177.293C216.017 177.194 216.378 176.692 216.565 175.916C216.773 175.055 216.75 173.969 216.5 172.86C216.25 171.75 215.806 170.76 215.249 170.07C214.811 169.528 214.343 169.231 213.937 169.231ZM227.081 184.439C226.484 184.439 225.861 184.069 225.297 183.371C224.682 182.609 224.195 181.529 223.925 180.329C223.655 179.13 223.632 177.945 223.862 176.993C224.109 175.966 224.625 175.315 225.314 175.16C226.677 174.853 228.201 176.642 228.785 179.234C229.368 181.826 228.758 184.097 227.395 184.404C227.292 184.427 227.187 184.439 227.081 184.439ZM225.621 175.742C225.562 175.742 225.505 175.748 225.449 175.76C225.007 175.86 224.647 176.362 224.46 177.137C224.252 177.999 224.275 179.085 224.525 180.194C224.775 181.304 225.219 182.294 225.776 182.984C226.277 183.604 226.818 183.903 227.259 183.804C228.143 183.605 228.725 181.775 228.184 179.37C227.677 177.116 226.495 175.742 225.621 175.742ZM203.244 170.989H203.242C203.202 170.989 203.162 170.98 203.125 170.965C203.087 170.949 203.054 170.926 203.025 170.897C202.997 170.868 202.974 170.834 202.959 170.797C202.944 170.759 202.936 170.719 202.937 170.679L202.989 162.538C202.99 162.368 203.123 162.233 203.298 162.232C203.339 162.232 203.379 162.24 203.416 162.256C203.453 162.272 203.487 162.295 203.515 162.324C203.544 162.352 203.566 162.386 203.582 162.424C203.597 162.461 203.604 162.501 203.604 162.542L203.552 170.683C203.551 170.764 203.519 170.842 203.461 170.899C203.403 170.957 203.326 170.989 203.244 170.989ZM170.076 152.689H170.074C170.033 152.688 169.993 152.68 169.956 152.664C169.919 152.649 169.885 152.626 169.857 152.597C169.828 152.568 169.806 152.534 169.79 152.497C169.775 152.459 169.768 152.419 169.768 152.379L169.82 144.238C169.821 144.156 169.853 144.079 169.911 144.021C169.968 143.964 170.046 143.932 170.128 143.932H170.13C170.17 143.932 170.21 143.94 170.247 143.956C170.285 143.972 170.318 143.995 170.347 144.023C170.375 144.052 170.398 144.086 170.413 144.124C170.428 144.161 170.436 144.201 170.436 144.242L170.383 152.383C170.383 152.464 170.35 152.542 170.292 152.599C170.235 152.656 170.157 152.689 170.076 152.689ZM217.823 144.632C217.225 144.632 216.602 144.262 216.038 143.563C215.423 142.802 214.936 141.722 214.666 140.522C214.396 139.322 214.374 138.138 214.603 137.186C214.851 136.159 215.367 135.508 216.056 135.352C216.745 135.197 217.49 135.564 218.154 136.386C218.769 137.147 219.256 138.227 219.526 139.427C219.796 140.627 219.818 141.811 219.589 142.763C219.341 143.79 218.826 144.441 218.136 144.597C218.033 144.62 217.928 144.632 217.823 144.632ZM216.363 135.934C216.305 135.934 216.247 135.94 216.191 135.953C215.749 136.053 215.388 136.554 215.202 137.33C214.994 138.192 215.017 139.277 215.267 140.387C215.516 141.496 215.961 142.487 216.517 143.177C217.018 143.797 217.56 144.096 218.001 143.996C218.443 143.897 218.804 143.395 218.991 142.619C219.199 141.757 219.175 140.672 218.926 139.562C218.676 138.453 218.232 137.463 217.675 136.773C217.237 136.231 216.769 135.934 216.363 135.934ZM205.695 137.685H205.693C205.653 137.685 205.613 137.677 205.576 137.661C205.539 137.645 205.505 137.622 205.476 137.594C205.448 137.565 205.426 137.531 205.41 137.493C205.395 137.456 205.387 137.416 205.388 137.375L205.44 129.234C205.441 129.064 205.573 128.924 205.75 128.928C205.79 128.929 205.83 128.937 205.867 128.953C205.904 128.968 205.938 128.991 205.967 129.02C205.995 129.049 206.017 129.083 206.033 129.12C206.048 129.158 206.056 129.198 206.055 129.238L206.003 137.379C206.003 137.461 205.97 137.538 205.912 137.596C205.855 137.653 205.777 137.685 205.695 137.685ZM228.67 151.02H228.668C228.628 151.02 228.588 151.012 228.551 150.996C228.513 150.98 228.48 150.958 228.451 150.929C228.423 150.9 228.4 150.866 228.385 150.828C228.37 150.791 228.362 150.751 228.363 150.71L228.415 142.57C228.416 142.4 228.553 142.259 228.724 142.264C228.765 142.264 228.805 142.272 228.842 142.288C228.879 142.304 228.913 142.326 228.942 142.355C228.97 142.384 228.992 142.418 229.008 142.456C229.023 142.493 229.03 142.533 229.03 142.574L228.978 150.714C228.978 150.796 228.945 150.874 228.887 150.931C228.83 150.988 228.752 151.02 228.67 151.02Z" fill="white"/>
</g>
<g clip-path="url(#clip3_656_17290)">
<path d="M304.104 163.121C304.592 162.145 304.52 161.12 303.944 160.831C303.367 160.543 302.504 161.1 302.016 162.076C301.528 163.052 301.599 164.077 302.176 164.366C302.753 164.655 303.616 164.097 304.104 163.121Z" fill="#FF5823"/>
<path d="M302.51 164.597C302.37 164.598 302.233 164.566 302.108 164.504C301.445 164.172 301.344 163.076 301.879 162.007C302.413 160.939 303.351 160.362 304.013 160.694C304.343 160.858 304.543 161.219 304.577 161.708C304.609 162.167 304.49 162.694 304.242 163.19C303.994 163.687 303.644 164.098 303.257 164.347C303.001 164.513 302.746 164.597 302.51 164.597ZM303.612 160.909C303.134 160.909 302.523 161.407 302.154 162.145C301.712 163.028 301.754 163.982 302.245 164.228C302.474 164.343 302.774 164.293 303.09 164.089C303.432 163.868 303.743 163.5 303.967 163.052C304.191 162.605 304.299 162.135 304.27 161.729C304.244 161.353 304.104 161.083 303.876 160.969C303.794 160.929 303.703 160.908 303.612 160.909Z" fill="#022F2E"/>
<path d="M431.951 156.509C431.943 156.505 431.936 156.501 431.929 156.497L409.647 143.799C409.469 143.699 409.259 143.672 409.063 143.726C408.866 143.78 408.699 143.91 408.598 144.087C408.497 144.264 408.47 144.475 408.524 144.671C408.578 144.868 408.708 145.036 408.885 145.137L431.155 157.827C431.688 158.159 432.002 158.731 431.995 159.359C431.989 159.991 431.659 160.56 431.114 160.879L398.931 179.737C396.575 181.112 393.676 181.065 391.366 179.616C391.36 179.613 391.355 179.61 391.35 179.607L351.071 155.678C347.465 153.442 342.962 153.405 339.32 155.583L317.375 168.708C317.079 168.886 316.785 169.079 316.5 169.265C315.358 170.014 314.28 170.721 313.225 170.394C312.132 170.054 311.908 169.494 311.5 168.477C310.775 166.667 309.781 164.187 303.513 161.945C303.321 161.876 303.11 161.887 302.925 161.974C302.741 162.061 302.599 162.218 302.53 162.41C302.461 162.603 302.472 162.814 302.559 162.999C302.646 163.183 302.803 163.325 302.995 163.394C308.611 165.403 309.421 167.425 310.072 169.05C310.517 170.159 310.976 171.306 312.769 171.863C314.515 172.406 316.018 171.422 317.343 170.553C317.628 170.366 317.897 170.19 318.166 170.028L340.109 156.904C343.255 155.023 347.145 155.054 350.273 156.993L390.556 180.925C391.994 181.825 393.619 182.276 395.247 182.276C396.783 182.276 398.323 181.873 399.707 181.066L431.892 162.207C432.908 161.612 433.522 160.553 433.534 159.375C433.546 158.197 432.954 157.126 431.951 156.509Z" fill="white"/>
<path d="M395.247 182.43C393.562 182.43 391.911 181.954 390.474 181.056L350.194 157.126C347.118 155.218 343.285 155.184 340.188 157.036L318.245 170.16C317.978 170.321 317.711 170.496 317.428 170.681C316.074 171.569 314.539 172.575 312.723 172.01C310.861 171.431 310.388 170.25 309.93 169.108C309.29 167.511 308.494 165.525 302.943 163.539C302.829 163.498 302.724 163.436 302.634 163.354C302.544 163.273 302.471 163.174 302.42 163.064C302.368 162.955 302.338 162.836 302.332 162.715C302.326 162.594 302.344 162.473 302.385 162.358C302.468 162.126 302.637 161.94 302.86 161.834C303.083 161.729 303.333 161.717 303.565 161.8C309.898 164.066 310.907 166.582 311.643 168.42C312.045 169.424 312.247 169.928 313.271 170.247C314.255 170.552 315.304 169.865 316.414 169.138C316.7 168.95 316.994 168.757 317.296 168.576L339.241 155.451C342.932 153.244 347.496 153.281 351.152 155.547L391.447 179.486C393.709 180.904 396.547 180.95 398.853 179.604L431.036 160.746C431.279 160.605 431.482 160.403 431.623 160.159C431.764 159.916 431.84 159.639 431.841 159.358C431.845 159.078 431.777 158.802 431.642 158.556C431.508 158.311 431.312 158.105 431.074 157.958L408.809 145.27C408.597 145.149 408.441 144.948 408.376 144.712C408.312 144.476 408.343 144.224 408.464 144.011C408.585 143.798 408.786 143.643 409.022 143.578C409.258 143.513 409.51 143.545 409.723 143.666L432.031 156.378C432.031 156.379 432.032 156.379 432.032 156.379L432.032 156.379C433.082 157.024 433.7 158.144 433.688 159.377C433.675 160.609 433.033 161.717 431.97 162.34L399.785 181.199C398.404 182.004 396.835 182.43 395.247 182.43ZM345.115 155.363C346.929 155.363 348.742 155.863 350.354 156.863L390.635 180.793C392.026 181.663 393.619 182.122 395.247 182.122C396.781 182.122 398.296 181.711 399.63 180.933L431.814 162.074C432.783 161.506 433.368 160.497 433.38 159.373C433.392 158.25 432.827 157.228 431.87 156.641L431.869 156.64L431.852 156.63L409.571 143.933C409.429 143.853 409.261 143.832 409.103 143.875C408.946 143.918 408.812 144.022 408.731 144.163C408.651 144.305 408.63 144.473 408.673 144.631C408.716 144.788 408.82 144.922 408.962 145.003L431.231 157.693C431.815 158.057 432.156 158.679 432.149 159.361C432.142 160.048 431.784 160.665 431.192 161.012L399.009 179.87C396.604 181.273 393.643 181.226 391.284 179.747L350.993 155.81C347.433 153.603 342.991 153.567 339.399 155.715L317.455 168.84C317.158 169.018 316.867 169.209 316.585 169.394C315.41 170.164 314.303 170.889 313.18 170.54C312.017 170.179 311.769 169.56 311.358 168.535C310.643 166.751 309.664 164.309 303.462 162.09C303.386 162.062 303.305 162.05 303.224 162.054C303.143 162.058 303.064 162.078 302.991 162.113C302.918 162.147 302.852 162.196 302.798 162.256C302.744 162.316 302.702 162.386 302.675 162.462C302.62 162.617 302.628 162.784 302.698 162.933C302.768 163.081 302.892 163.194 303.047 163.249C308.728 165.281 309.553 167.339 310.215 168.993C310.646 170.069 311.092 171.181 312.815 171.716C314.492 172.238 315.962 171.274 317.259 170.424C317.545 170.237 317.815 170.06 318.087 169.896L340.031 156.772C341.602 155.832 343.359 155.363 345.115 155.363Z" fill="#022F2E"/>
<path d="M443.577 154.108C443.571 154.104 443.566 154.101 443.56 154.098L417.902 139.334C417.815 139.283 417.718 139.25 417.618 139.237C417.518 139.224 417.416 139.231 417.318 139.257C417.221 139.284 417.129 139.329 417.049 139.391C416.969 139.452 416.902 139.529 416.852 139.617C416.75 139.794 416.723 140.004 416.776 140.201C416.829 140.398 416.958 140.566 417.135 140.668L442.783 155.426C443.963 156.15 444.63 157.411 444.615 158.887C444.597 160.633 443.626 162.321 442.138 163.188L398.298 188.925C397.079 189.643 395.687 190.014 394.273 189.999C392.858 189.983 391.474 189.582 390.271 188.838C390.264 188.834 390.258 188.83 390.251 188.826L366.025 174.901C362.42 172.671 357.923 172.637 354.285 174.813L351.686 176.367C351.6 176.419 351.524 176.488 351.464 176.569C351.404 176.65 351.36 176.742 351.335 176.84C351.311 176.938 351.305 177.04 351.32 177.14C351.335 177.24 351.369 177.336 351.421 177.423C351.473 177.509 351.541 177.585 351.622 177.645C351.703 177.706 351.795 177.749 351.893 177.774C351.991 177.799 352.093 177.804 352.193 177.789C352.293 177.774 352.389 177.74 352.476 177.688L355.074 176.134C358.221 174.252 362.11 174.284 365.225 176.216C365.233 176.22 365.24 176.225 365.248 176.229L389.474 190.154C390.942 191.059 392.632 191.538 394.356 191.539C396.016 191.538 397.646 191.094 399.077 190.252L442.915 164.517C444.889 163.365 446.13 161.214 446.154 158.903C446.174 156.869 445.235 155.121 443.577 154.108Z" fill="#8EAAA4"/>
<path d="M394.357 191.693C392.604 191.692 390.886 191.205 389.393 190.285L365.145 176.347C362.079 174.445 358.25 174.414 355.154 176.266L352.555 177.82C352.451 177.883 352.336 177.924 352.216 177.942C352.096 177.96 351.974 177.954 351.856 177.924C351.738 177.894 351.628 177.842 351.53 177.769C351.433 177.697 351.351 177.606 351.289 177.502C351.164 177.292 351.127 177.04 351.187 176.803C351.246 176.565 351.398 176.361 351.608 176.235L354.206 174.681C357.892 172.476 362.452 172.51 366.106 174.77L390.352 188.707C391.531 189.436 392.887 189.83 394.274 189.845C395.661 189.86 397.025 189.496 398.221 188.792L442.06 163.056C443.502 162.215 444.444 160.579 444.461 158.886C444.476 157.466 443.835 156.253 442.703 155.557L417.059 140.801C416.846 140.679 416.692 140.478 416.628 140.241C416.564 140.005 416.597 139.753 416.719 139.54C416.779 139.435 416.859 139.343 416.955 139.269C417.051 139.195 417.161 139.14 417.278 139.109C417.395 139.077 417.518 139.069 417.638 139.085C417.758 139.101 417.874 139.14 417.979 139.2L443.636 153.964L443.651 153.973L443.658 153.977C445.363 155.019 446.329 156.815 446.308 158.905C446.284 161.27 445.013 163.471 442.993 164.65L399.155 190.385C397.7 191.24 396.044 191.691 394.357 191.693ZM360.084 174.591C361.893 174.591 363.701 175.089 365.307 176.085L365.324 176.095L389.55 190.021C391.003 190.914 392.664 191.385 394.357 191.385C395.989 191.383 397.591 190.947 398.999 190.12L442.837 164.384C444.765 163.259 445.977 161.159 446 158.902C446.02 156.923 445.108 155.224 443.498 154.24C443.497 154.239 443.495 154.238 443.494 154.237L417.826 139.467C417.756 139.427 417.678 139.401 417.598 139.39C417.518 139.38 417.437 139.385 417.359 139.406C417.28 139.427 417.207 139.463 417.143 139.513C417.079 139.562 417.025 139.624 416.985 139.694C416.945 139.764 416.919 139.841 416.908 139.921C416.898 140.001 416.903 140.083 416.924 140.161C416.945 140.239 416.981 140.312 417.031 140.376C417.08 140.441 417.142 140.494 417.212 140.534L442.86 155.293C444.09 156.048 444.784 157.358 444.769 158.889C444.751 160.688 443.748 162.428 442.215 163.322L398.376 189.058C397.133 189.79 395.714 190.168 394.271 190.153C392.828 190.137 391.418 189.728 390.19 188.969L390.175 188.96L365.949 175.034C362.389 172.832 357.952 172.799 354.364 174.945L351.766 176.5C351.696 176.541 351.636 176.596 351.587 176.661C351.539 176.725 351.504 176.799 351.485 176.878C351.465 176.956 351.461 177.038 351.472 177.118C351.484 177.198 351.512 177.275 351.553 177.344C351.638 177.485 351.772 177.585 351.932 177.625C352.091 177.665 352.256 177.641 352.397 177.556L354.996 176.002C356.57 175.061 358.328 174.591 360.084 174.591Z" fill="#022F2E"/>
</g>
<g clip-path="url(#clip4_656_17290)">
<path d="M338.896 207.139L372.586 188.501C372.586 188.501 372.654 195.898 372.582 196.514C372.526 197 372.258 197.465 371.776 197.745L338.896 216.892V207.139Z" fill="#022F2E"/>
<path d="M338.896 217.047C338.876 217.047 338.856 217.043 338.837 217.035C338.818 217.027 338.801 217.016 338.787 217.001C338.772 216.987 338.761 216.97 338.753 216.951C338.746 216.932 338.742 216.912 338.742 216.892V207.139C338.742 207.083 338.772 207.031 338.821 207.004L372.512 188.366C372.535 188.353 372.562 188.346 372.588 188.347C372.615 188.347 372.641 188.354 372.664 188.368C372.687 188.381 372.706 188.401 372.72 188.424C372.733 188.447 372.74 188.473 372.741 188.5C372.743 188.802 372.807 195.913 372.735 196.532C372.67 197.1 372.349 197.59 371.854 197.879L338.973 217.026C338.949 217.04 338.922 217.047 338.896 217.047ZM339.05 207.231V216.623L371.699 197.611C372.109 197.372 372.375 196.966 372.429 196.497C372.491 195.961 372.445 190.077 372.434 188.762L339.05 207.231Z" fill="#022F2E"/>
<path d="M338.896 216.892C337.995 217.416 336.972 217.692 335.931 217.692C334.889 217.691 333.867 217.414 332.967 216.889L299.987 197.638C299.484 197.345 299.232 196.834 299.231 196.322C299.23 195.806 299.231 188.724 299.231 188.724L338.896 203.29V216.892H338.896Z" fill="#FF5823"/>
<path d="M335.934 217.845C334.864 217.846 333.814 217.562 332.889 217.023L299.91 197.772C299.39 197.469 299.078 196.927 299.077 196.323C299.076 195.807 299.077 188.724 299.077 188.724C299.077 188.699 299.083 188.675 299.095 188.653C299.106 188.631 299.123 188.612 299.143 188.598C299.164 188.584 299.187 188.574 299.212 188.571C299.236 188.568 299.261 188.571 299.284 188.579L338.949 203.145C338.978 203.156 339.004 203.176 339.022 203.202C339.04 203.228 339.05 203.258 339.05 203.29V216.892C339.05 216.947 339.021 216.998 338.973 217.026C338.05 217.563 337.001 217.846 335.934 217.845ZM299.386 188.945C299.386 190.148 299.385 195.861 299.386 196.322C299.385 196.562 299.447 196.798 299.566 197.006C299.686 197.213 299.858 197.386 300.065 197.505L333.044 216.755C334.799 217.78 336.974 217.796 338.742 216.802V203.398L299.386 188.945Z" fill="#022F2E"/>
<path d="M332.967 209.074L299.987 189.824C298.976 189.233 298.98 187.767 299.995 187.182L332.93 168.201C333.856 167.667 334.906 167.386 335.974 167.386C337.042 167.386 338.091 167.667 339.017 168.201L371.77 187.079C372.865 187.71 372.869 189.294 371.776 189.93L338.896 209.077C337.995 209.602 336.972 209.878 335.931 209.877C334.889 209.876 333.867 209.599 332.967 209.074Z" fill="white"/>
<path d="M335.934 210.029C334.864 210.03 333.814 209.746 332.889 209.207L299.91 189.957C299.387 189.651 299.076 189.107 299.077 188.5C299.079 187.893 299.393 187.35 299.918 187.047L332.853 168.066C334.778 166.957 337.169 166.957 339.094 168.066L371.847 186.944C372.409 187.269 372.746 187.851 372.748 188.502C372.749 189.153 372.415 189.736 371.854 190.063L338.973 209.21C338.05 209.747 337.001 210.03 335.934 210.029ZM333.044 208.94C334.824 209.979 337.037 209.98 338.818 208.943L371.699 189.796C372.164 189.525 372.44 189.042 372.439 188.503C372.438 187.964 372.159 187.481 371.693 187.213L338.941 168.334C337.111 167.28 334.837 167.279 333.007 168.334L300.071 187.315C299.643 187.562 299.387 188.005 299.385 188.501C299.384 188.996 299.638 189.44 300.065 189.689L333.044 208.94Z" fill="#022F2E"/>
<path d="M333.815 203.066L310.846 189.658C310.141 189.247 310.144 188.225 310.851 187.818L333.79 174.598C334.435 174.226 335.166 174.03 335.91 174.031C336.654 174.031 337.384 174.226 338.029 174.598L360.841 187.747C361.604 188.186 361.607 189.289 360.846 189.732L337.945 203.068C337.317 203.433 336.605 203.625 335.88 203.625C335.154 203.625 334.442 203.432 333.815 203.066Z" fill="white"/>
<path d="M335.882 203.778C335.129 203.778 334.389 203.579 333.738 203.199L310.768 189.792C310.583 189.685 310.43 189.531 310.324 189.346C310.218 189.16 310.163 188.95 310.165 188.736C310.164 188.522 310.22 188.312 310.327 188.127C310.434 187.942 310.588 187.789 310.774 187.684L333.713 174.463C335.068 173.683 336.751 173.683 338.106 174.464L360.918 187.612C361.325 187.846 361.568 188.267 361.569 188.737C361.57 189.208 361.328 189.63 360.923 189.866L338.022 203.201C337.372 203.579 336.633 203.778 335.882 203.778ZM335.909 174.187C335.193 174.186 334.488 174.374 333.866 174.732L310.927 187.952C310.644 188.115 310.474 188.409 310.473 188.737C310.472 189.065 310.64 189.359 310.923 189.524L333.893 202.932C334.496 203.283 335.182 203.469 335.88 203.469C336.578 203.469 337.263 203.285 337.867 202.934L360.768 189.598C361.078 189.418 361.262 189.097 361.261 188.738C361.26 188.38 361.075 188.059 360.765 187.88L337.953 174.732C337.331 174.374 336.626 174.186 335.909 174.187Z" fill="#022F2E"/>
<path d="M321.653 207.644C322.23 207.354 322.302 206.324 321.813 205.344C321.324 204.363 320.46 203.803 319.882 204.093C319.305 204.383 319.233 205.413 319.722 206.393C320.211 207.374 321.075 207.934 321.653 207.644Z" fill="#FF5823"/>
<path d="M321.318 207.876C320.716 207.876 320.018 207.331 319.585 206.462C319.05 205.389 319.151 204.288 319.815 203.955C320.479 203.621 321.417 204.201 321.953 205.274C322.201 205.773 322.321 206.302 322.288 206.763C322.254 207.255 322.054 207.616 321.723 207.782C321.597 207.845 321.459 207.877 321.318 207.876ZM320.216 204.171C320.125 204.17 320.035 204.191 319.953 204.231C319.46 204.478 319.419 205.437 319.861 206.324C320.304 207.211 321.093 207.753 321.585 207.505C321.814 207.391 321.955 207.12 321.981 206.742C322.009 206.335 321.901 205.863 321.677 205.413C321.307 204.671 320.695 204.171 320.216 204.171Z" fill="#022F2E"/>
<path d="M317.167 205.142C317.745 204.852 317.816 203.822 317.327 202.842C316.838 201.861 315.974 201.301 315.396 201.591C314.819 201.881 314.747 202.911 315.236 203.891C315.725 204.872 316.589 205.432 317.167 205.142Z" fill="#FF5823"/>
<path d="M316.834 205.374C316.598 205.374 316.343 205.289 316.086 205.123C315.698 204.872 315.348 204.459 315.099 203.96C314.564 202.888 314.665 201.786 315.329 201.453C315.992 201.12 316.931 201.699 317.467 202.772C317.715 203.271 317.835 203.8 317.802 204.261C317.768 204.753 317.568 205.114 317.237 205.28C317.112 205.343 316.974 205.375 316.834 205.374ZM315.73 201.67C315.636 201.67 315.547 201.689 315.467 201.73C314.974 201.977 314.933 202.935 315.375 203.822C315.599 204.272 315.911 204.642 316.253 204.863C316.57 205.069 316.871 205.119 317.1 205.004C317.328 204.889 317.469 204.618 317.495 204.24C317.523 203.833 317.415 203.361 317.191 202.911C316.821 202.169 316.209 201.67 315.73 201.67Z" fill="#022F2E"/>
<path d="M312.527 202.561C313.105 202.271 313.177 201.241 312.688 200.261C312.199 199.28 311.334 198.72 310.757 199.01C310.179 199.3 310.107 200.33 310.596 201.31C311.085 202.291 311.95 202.851 312.527 202.561Z" fill="#FF5823"/>
<path d="M312.192 202.794C311.59 202.794 310.893 202.248 310.459 201.38C310.211 200.881 310.092 200.353 310.124 199.891C310.158 199.4 310.359 199.038 310.689 198.872C311.019 198.707 311.428 198.763 311.84 199.029C312.228 199.28 312.578 199.693 312.827 200.192C313.362 201.265 313.261 202.366 312.597 202.7C312.472 202.762 312.333 202.794 312.192 202.794ZM311.092 199.088C311 199.087 310.909 199.108 310.827 199.149C310.598 199.263 310.457 199.535 310.431 199.912C310.403 200.32 310.511 200.792 310.735 201.242C311.178 202.129 311.968 202.67 312.46 202.423C312.952 202.176 312.994 201.218 312.551 200.33C312.327 199.88 312.015 199.511 311.673 199.289C311.468 199.156 311.269 199.088 311.092 199.088Z" fill="#022F2E"/>
<path d="M316.518 203.984C316.719 203.907 316.777 203.569 316.648 203.229C316.518 202.889 316.25 202.675 316.049 202.752C315.848 202.829 315.79 203.167 315.92 203.508C316.049 203.848 316.317 204.061 316.518 203.984Z" fill="#022F2E"/>
<path d="M311.909 201.39C312.106 201.302 312.146 200.961 311.998 200.628C311.851 200.296 311.572 200.097 311.375 200.185C311.179 200.272 311.139 200.613 311.286 200.946C311.434 201.279 311.713 201.477 311.909 201.39Z" fill="#022F2E"/>
</g>
<g clip-path="url(#clip5_656_17290)">
<path d="M297.47 164.076C296.893 163.788 296.029 164.345 295.54 165.322C295.051 166.299 295.123 167.325 295.7 167.613C296.277 167.902 297.142 167.344 297.63 166.368C298.119 165.391 298.047 164.365 297.47 164.076Z" fill="#FF5823"/>
<path d="M296.036 167.844C295.896 167.845 295.757 167.813 295.631 167.751C294.968 167.419 294.867 166.322 295.402 165.253C295.651 164.756 296.001 164.345 296.388 164.095C296.8 163.829 297.209 163.773 297.539 163.938C297.869 164.103 298.069 164.464 298.103 164.953C298.135 165.413 298.016 165.94 297.768 166.436C297.335 167.301 296.638 167.844 296.036 167.844ZM297.135 164.154C296.959 164.154 296.76 164.221 296.555 164.354C296.213 164.574 295.902 164.943 295.678 165.391C295.235 166.275 295.277 167.229 295.769 167.475C296.262 167.722 297.05 167.182 297.492 166.299C297.717 165.85 297.824 165.38 297.796 164.975C297.77 164.599 297.63 164.328 297.401 164.214C297.318 164.173 297.227 164.153 297.135 164.154Z" fill="#022F2E"/>
<path d="M320.982 205.959C320.934 205.87 320.868 205.792 320.79 205.728C320.711 205.665 320.62 205.618 320.523 205.589C320.426 205.561 320.325 205.552 320.224 205.563C320.124 205.573 320.026 205.604 319.937 205.653C317.976 206.725 316.929 207.567 316.203 208.658C315.633 209.513 314.877 210.228 313.992 210.75L272.111 236.211C269.052 237.983 265.254 237.979 262.209 236.208L218.167 209.662C218.081 209.609 217.985 209.575 217.885 209.559C217.785 209.544 217.683 209.549 217.584 209.573C217.486 209.598 217.394 209.641 217.313 209.701C217.231 209.761 217.162 209.837 217.11 209.924C217.058 210.01 217.023 210.106 217.008 210.206C216.993 210.306 216.998 210.408 217.022 210.506C217.047 210.604 217.09 210.697 217.15 210.778C217.21 210.859 217.286 210.928 217.372 210.98L261.424 237.532C263.194 238.562 265.178 239.077 267.163 239.077C269.143 239.077 271.124 238.564 272.891 237.538L272.904 237.53L314.782 212.072C315.853 211.442 316.788 210.557 317.484 209.511C317.964 208.791 318.69 208.09 320.676 207.004C320.855 206.906 320.988 206.741 321.046 206.545C321.103 206.349 321.08 206.138 320.982 205.959Z" fill="white"/>
<path d="M267.163 239.231C265.118 239.231 263.107 238.689 261.347 237.665L217.293 211.112C217.189 211.05 217.098 210.968 217.026 210.87C216.954 210.772 216.902 210.661 216.873 210.543C216.843 210.426 216.837 210.303 216.855 210.183C216.874 210.063 216.915 209.948 216.978 209.844C217.041 209.74 217.123 209.649 217.221 209.577C217.319 209.505 217.43 209.453 217.548 209.424C217.666 209.394 217.788 209.388 217.908 209.407C218.028 209.425 218.143 209.467 218.247 209.53L262.288 236.076C265.288 237.821 269.023 237.822 272.033 236.077L313.912 210.618C314.777 210.108 315.517 209.408 316.074 208.572C316.815 207.459 317.878 206.603 319.863 205.518C320.31 205.273 320.873 205.438 321.118 205.885C321.235 206.1 321.262 206.353 321.193 206.588C321.124 206.823 320.965 207.021 320.75 207.139C318.792 208.21 318.079 208.896 317.612 209.597C316.903 210.661 315.951 211.563 314.86 212.205L272.967 237.672C271.211 238.692 269.203 239.231 267.163 239.231ZM217.771 209.705C217.721 209.705 217.671 209.711 217.622 209.723C217.462 209.762 217.327 209.862 217.242 210.003C217.157 210.144 217.132 210.31 217.172 210.469C217.191 210.548 217.226 210.622 217.274 210.687C217.322 210.752 217.382 210.807 217.452 210.848L261.504 237.4C263.215 238.396 265.172 238.923 267.163 238.923C269.149 238.923 271.103 238.398 272.813 237.405L314.702 211.94C315.755 211.321 316.673 210.452 317.356 209.426C317.848 208.687 318.589 207.969 320.602 206.869C320.746 206.79 320.852 206.658 320.898 206.502C320.944 206.345 320.926 206.176 320.847 206.033C320.769 205.89 320.637 205.783 320.48 205.737C320.323 205.691 320.155 205.71 320.011 205.788C318.073 206.847 317.042 207.676 316.331 208.743C315.75 209.615 314.968 210.355 314.07 210.883L272.191 236.342C269.082 238.143 265.228 238.142 262.132 236.34L218.088 209.793C217.992 209.735 217.883 209.705 217.771 209.705Z" fill="#022F2E"/>
<path d="M305.011 172.867L302.372 171.295C301.661 170.881 301.201 170.162 301.143 169.372C301.042 168.01 300.234 166.166 296.96 165.112C296.766 165.049 296.555 165.067 296.373 165.16C296.191 165.253 296.054 165.415 295.991 165.609C295.929 165.803 295.946 166.015 296.039 166.197C296.132 166.378 296.294 166.515 296.488 166.578C298.462 167.213 299.511 168.192 299.607 169.486C299.703 170.783 300.448 171.957 301.591 172.622L304.23 174.194C304.764 174.505 305.084 175.059 305.087 175.677C305.089 176.294 304.773 176.851 304.241 177.166L283.493 189.45C283.06 189.704 282.7 190.065 282.445 190.498C282.19 190.931 282.05 191.421 282.037 191.923C282.008 192.949 282.5 193.903 283.35 194.473L298.719 204.864C299.167 205.164 299.39 205.474 299.381 205.785C299.364 206.353 298.652 207.131 297.566 207.769L297.548 207.78L254.393 234.755C251.335 236.525 247.54 236.521 244.495 234.75L210.091 214.032C210.004 213.98 209.908 213.945 209.808 213.93C209.708 213.915 209.606 213.92 209.508 213.944C209.41 213.968 209.317 214.012 209.236 214.072C209.155 214.132 209.086 214.208 209.034 214.294C208.982 214.381 208.947 214.477 208.932 214.577C208.917 214.677 208.922 214.779 208.946 214.877C208.971 214.975 209.014 215.067 209.074 215.149C209.134 215.23 209.21 215.299 209.296 215.351L243.711 236.075C245.48 237.105 247.464 237.619 249.449 237.619C251.429 237.619 253.41 237.106 255.177 236.081C255.184 236.077 255.192 236.072 255.199 236.068L298.356 209.091C299.975 208.137 300.886 206.979 300.92 205.83C300.938 205.229 300.719 204.351 299.579 203.586L284.21 193.195C283.793 192.916 283.562 192.468 283.576 191.966C283.59 191.465 283.846 191.03 284.278 190.774L305.026 178.491C306.033 177.894 306.631 176.84 306.627 175.67C306.622 174.501 306.015 173.451 305.011 172.867Z" fill="#FF5823"/>
<path d="M249.449 237.773C247.404 237.773 245.393 237.232 243.633 236.208L209.217 215.483C209.005 215.355 208.856 215.153 208.797 214.914C208.737 214.674 208.775 214.426 208.902 214.215C208.964 214.111 209.047 214.02 209.144 213.948C209.242 213.875 209.353 213.823 209.471 213.794C209.589 213.765 209.711 213.759 209.831 213.777C209.951 213.795 210.067 213.837 210.17 213.9L244.575 234.618C247.573 236.362 251.306 236.364 254.316 234.622L297.487 207.637C298.513 207.034 299.212 206.288 299.227 205.78C299.234 205.526 299.035 205.26 298.633 204.991L283.264 194.6C282.369 194 281.853 192.998 281.883 191.919C281.913 190.84 282.486 189.867 283.415 189.317L304.163 177.033C304.647 176.746 304.935 176.239 304.933 175.677C304.93 175.114 304.639 174.609 304.153 174.327L301.512 172.754C300.324 172.062 299.554 170.844 299.453 169.497C299.363 168.271 298.349 167.338 296.441 166.724C296.208 166.649 296.014 166.484 295.903 166.266C295.791 166.048 295.77 165.795 295.845 165.562C295.921 165.327 296.083 165.135 296.303 165.022C296.522 164.91 296.772 164.889 297.008 164.965C300.363 166.045 301.192 167.951 301.296 169.36C301.351 170.1 301.783 170.773 302.45 171.162L305.09 172.734C306.144 173.348 306.776 174.445 306.781 175.67C306.785 176.895 306.159 177.999 305.105 178.623L284.356 190.907C283.971 191.135 283.743 191.523 283.73 191.97C283.718 192.418 283.924 192.818 284.296 193.067L299.666 203.459C300.864 204.262 301.093 205.195 301.074 205.835C301.038 207.038 300.101 208.242 298.434 209.224L255.28 236.198L255.253 236.214C253.497 237.234 251.49 237.773 249.449 237.773ZM209.695 214.075C209.645 214.075 209.595 214.081 209.545 214.093C209.466 214.113 209.392 214.147 209.327 214.195C209.262 214.244 209.207 214.304 209.166 214.373C209.081 214.514 209.056 214.68 209.096 214.84C209.135 214.999 209.235 215.134 209.376 215.219L243.79 235.943C245.501 236.938 247.459 237.465 249.449 237.465C251.435 237.465 253.389 236.94 255.1 235.947L255.118 235.937L298.274 208.961C299.85 208.032 300.734 206.92 300.766 205.826C300.783 205.263 300.576 204.44 299.493 203.714L284.124 193.323C283.663 193.013 283.407 192.517 283.422 191.962C283.438 191.406 283.721 190.925 284.199 190.642L304.947 178.358C305.906 177.79 306.477 176.785 306.472 175.671C306.468 174.556 305.893 173.558 304.934 172.999C304.933 172.999 304.933 172.999 304.932 172.999L302.293 171.427C301.54 170.988 301.052 170.224 300.989 169.383C300.892 168.068 300.105 166.286 296.913 165.258C296.836 165.233 296.755 165.223 296.674 165.23C296.593 165.237 296.515 165.259 296.443 165.296C296.371 165.333 296.307 165.384 296.254 165.446C296.202 165.507 296.162 165.579 296.138 165.656C296.088 165.811 296.102 165.98 296.176 166.126C296.251 166.271 296.38 166.381 296.535 166.431C298.574 167.087 299.659 168.111 299.76 169.474C299.853 170.72 300.566 171.847 301.668 172.489L304.309 174.061C304.889 174.399 305.238 175.003 305.24 175.676C305.243 176.349 304.899 176.955 304.32 177.298L283.572 189.582C282.734 190.078 282.218 190.955 282.191 191.927C282.163 192.9 282.629 193.804 283.436 194.345L298.805 204.736C299.3 205.067 299.545 205.422 299.534 205.789C299.516 206.418 298.791 207.227 297.644 207.902L297.63 207.911L254.475 234.886C251.365 236.686 247.513 236.684 244.418 234.883L210.011 214.164C209.916 214.106 209.806 214.075 209.695 214.075Z" fill="#022F2E"/>
</g>
<g clip-path="url(#clip6_656_17290)">
<path d="M261.561 46.453C266.76 46.453 270.975 42.2389 270.975 37.0406C270.975 31.8422 266.76 27.6282 261.561 27.6282C256.362 27.6282 252.147 31.8422 252.147 37.0406C252.147 42.2389 256.362 46.453 261.561 46.453Z" fill="#FF5823"/>
<path d="M261.561 46.6068C256.285 46.6068 251.993 42.3153 251.993 37.0405C251.993 31.7656 256.285 27.4741 261.561 27.4741C266.837 27.4741 271.129 31.7656 271.129 37.0405C271.129 42.3153 266.837 46.6068 261.561 46.6068ZM261.561 27.7818C256.455 27.7818 252.301 31.9353 252.301 37.0405C252.301 42.1458 256.455 46.2991 261.561 46.2991C266.667 46.2991 270.821 42.1458 270.821 37.0405C270.821 31.9353 266.667 27.7818 261.561 27.7818Z" fill="#022F2E"/>
<path d="M276.898 73.7029C273.48 73.7031 269.694 72.854 265.687 71.1524C257.349 67.611 249.037 60.7916 242.284 51.9504C234.912 42.3004 230.311 31.3222 229.659 21.8302C229.359 17.4652 229.892 13.6276 231.245 10.424C232.317 7.88634 233.885 5.81707 235.907 4.27355C241.001 0.383498 248.431 0.205021 256.828 3.77119C265.166 7.31259 273.478 14.132 280.231 22.9732C286.985 31.8144 291.377 41.6263 292.6 50.6019C293.831 59.6397 291.703 66.7595 286.608 70.6497C283.945 72.6835 280.643 73.7029 276.898 73.7029ZM245.62 1.83625C242.009 1.83625 238.834 2.8131 236.28 4.76297C234.345 6.24049 232.842 8.22575 231.812 10.6637C230.498 13.7773 229.979 17.5203 230.273 21.7884C230.917 31.1629 235.473 42.0204 242.773 51.5769C249.463 60.3348 257.686 67.0857 265.928 70.5861C274.112 74.0619 281.324 73.9107 286.235 70.1605C291.146 66.4106 293.19 59.494 291.99 50.6848C290.782 41.8134 286.432 32.1045 279.742 23.3467C273.053 14.5888 264.829 7.83787 256.587 4.33755C252.658 2.66909 248.953 1.83625 245.62 1.83625Z" fill="#022F2E"/>
<path d="M245.587 73.686C243.947 73.686 242.389 73.4928 240.937 73.1015C239.072 72.5991 237.38 71.7741 235.907 70.6493C234.544 69.6089 233.377 68.3175 232.439 66.8111C229.465 62.0363 228.788 55.0538 230.534 47.1497C232.295 39.1721 236.468 30.5859 242.283 22.9728C249.037 14.1317 257.349 7.31211 265.687 3.77086C274.084 0.204688 281.514 0.383319 286.609 4.27352C291.703 8.16372 293.831 15.2836 292.6 24.3215C291.378 33.2969 286.985 43.1089 280.232 51.9502C274.408 59.5738 267.501 65.6457 260.256 69.5095C255.092 72.2631 250.038 73.6859 245.587 73.686ZM276.895 1.83591C273.562 1.83591 269.857 2.6686 265.928 4.33737C257.686 7.83769 249.463 14.5886 242.773 23.3465C237.011 30.8899 232.878 39.3906 231.135 47.2827C229.424 55.0288 230.073 61.8485 232.961 66.4858C233.86 67.929 234.977 69.1653 236.28 70.1603C237.689 71.2364 239.31 72.0262 241.097 72.5076C246.336 73.919 253.037 72.6615 259.966 68.9664C267.031 65.1986 274.055 59.0227 279.742 51.5768C286.432 42.8189 290.782 33.11 291.99 24.2384C293.19 15.4293 291.146 8.51268 286.235 4.7628C283.682 2.81293 280.506 1.83591 276.895 1.83591Z" fill="#022F2E"/>
<path d="M261.462 58.0985C251.731 58.0985 242.578 55.9201 235.689 51.9645C228.747 47.9779 224.923 42.6591 224.923 36.9875C224.923 31.3159 228.747 25.9969 235.689 22.0104C242.578 18.0548 251.731 15.8765 261.461 15.8765C271.192 15.8765 280.345 18.0548 287.234 22.0104C294.177 25.9969 298 31.3157 298 36.9875C298 37.4578 297.973 37.9332 297.92 38.401C297.537 41.7633 295.743 45.0573 292.734 47.9268C289.824 50.7015 285.776 53.0876 281.029 54.8268C275.187 56.967 268.42 58.0985 261.462 58.0985ZM261.462 16.4919C241.654 16.4919 225.539 25.686 225.539 36.9875C225.539 48.289 241.654 57.483 261.461 57.483C268.349 57.483 275.042 56.3646 280.817 54.2487C290.408 50.7352 296.573 44.7846 297.308 38.3311C297.359 37.8866 297.384 37.4346 297.384 36.9875C297.385 25.686 281.27 16.4919 261.462 16.4919Z" fill="#022F2E"/>
</g>
<defs>
<clipPath id="clip0_656_17290">
<rect width="130.923" height="104.462" fill="white" transform="translate(299.077 58)"/>
</clipPath>
<clipPath id="clip1_656_17290">
<rect width="99.3846" height="138.923" fill="white" transform="translate(212.769 40.4614)"/>
</clipPath>
<clipPath id="clip2_656_17290">
<rect width="124.615" height="129.385" fill="white" transform="translate(116 96.6152)"/>
</clipPath>
<clipPath id="clip3_656_17290">
<rect width="144.769" height="52.6154" fill="white" transform="translate(301.538 139.077)"/>
</clipPath>
<clipPath id="clip4_656_17290">
<rect width="73.6923" height="50.6154" fill="white" transform="translate(299.077 167.231)"/>
</clipPath>
<clipPath id="clip5_656_17290">
<rect width="112.462" height="75.3846" fill="white" transform="translate(208.769 163.846)"/>
</clipPath>
<clipPath id="clip6_656_17290">
<rect width="73.0769" height="72.4615" fill="white" transform="translate(224.923 1.23096)"/>
</clipPath>
</defs>
</svg>
