<svg width="270" height="239" viewBox="0 0 270 239" fill="none" xmlns="http://www.w3.org/2000/svg">
<g clip-path="url(#clip0_548_5323)">
<g clip-path="url(#clip1_548_5323)">
<path d="M81.4415 151.426C86.2607 159.773 86.6656 168.752 82.6068 172.575C79.8086 175.211 75.4748 177.114 75.4748 177.114C75.4748 177.114 66.5831 169.763 62.3576 162.444C58.3671 155.532 56.2463 144.832 56.2463 144.832C56.2463 144.832 61.2564 141.333 62.4828 140.625C67.7526 137.582 76.2407 142.418 81.4415 151.426Z" fill="#022F2E"/>
<path d="M75.4747 177.25C75.4431 177.25 75.4126 177.239 75.3883 177.219C75.2992 177.145 66.4293 169.768 62.24 162.512C58.2841 155.66 56.1345 144.966 56.1132 144.859C56.1081 144.833 56.1106 144.806 56.1204 144.782C56.1302 144.758 56.1469 144.736 56.1685 144.721C56.3732 144.578 61.1972 141.211 62.4148 140.508C65.0069 139.011 68.4305 139.324 72.055 141.389C75.6565 143.441 79.0317 146.981 81.5588 151.359C83.8889 155.394 85.2845 159.774 85.4886 163.69C85.6922 167.598 84.7017 170.789 82.6995 172.674C79.9165 175.296 75.5726 177.219 75.529 177.238C75.5119 177.246 75.4934 177.25 75.4747 177.25ZM56.3968 144.893C56.61 145.926 58.7302 155.891 62.4748 162.377C66.4509 169.263 74.6819 176.271 75.4965 176.956C76.0878 176.687 79.9673 174.876 82.5138 172.477C84.457 170.647 85.4174 167.531 85.218 163.705C85.0161 159.83 83.6332 155.494 81.3241 151.494C78.8206 147.158 75.4812 143.653 71.9209 141.625C68.3837 139.609 65.0559 139.296 62.5505 140.743C61.4235 141.393 57.0195 144.459 56.3968 144.893Z" fill="#022F2E"/>
<path d="M75.9041 176.883C81.1738 173.84 81.2298 164.072 76.0291 155.064C70.8283 146.056 62.3403 141.221 57.0706 144.263C51.8008 147.306 51.7448 157.075 56.9456 166.082C62.1463 175.09 70.6343 179.926 75.9041 176.883Z" fill="#022F2E"/>
<path d="M72.3755 177.926C67.2935 177.926 60.9962 173.37 56.8297 166.153C54.3026 161.776 52.9238 157.082 52.9477 152.938C52.9717 148.766 54.4124 145.645 57.0046 144.148C59.5968 142.652 63.0203 142.965 66.6448 145.03C70.2463 147.081 73.6215 150.622 76.1486 154.999C81.3784 164.057 81.2999 173.929 75.9737 177.004C74.8908 177.629 73.6723 177.926 72.3755 177.926ZM60.6292 143.487C59.3542 143.487 58.1768 143.785 57.14 144.383C54.6346 145.83 53.242 148.868 53.2187 152.939C53.1953 157.037 54.561 161.681 57.0645 166.017C61.1813 173.148 67.3819 177.66 72.3589 177.66C73.6143 177.66 74.7913 177.373 75.838 176.769C81.0347 173.768 81.0686 164.064 75.9136 155.135C73.4101 150.799 70.0707 147.294 66.5105 145.265C64.437 144.084 62.4353 143.487 60.6292 143.487Z" fill="#022F2E"/>
<path d="M72.0884 171.35C75.1335 169.592 74.8513 163.402 71.4582 157.525C68.0651 151.648 62.8458 148.309 59.8007 150.068C56.7556 151.826 57.0378 158.015 60.4309 163.892C63.8241 169.769 69.0433 173.108 72.0884 171.35Z" fill="white"/>
<path d="M70.2675 171.953C67.1812 171.953 63.1166 168.816 60.3149 163.963C58.6632 161.102 57.6875 158.077 57.5675 155.445C57.446 152.78 58.2157 150.83 59.7345 149.953C61.2534 149.076 63.3272 149.385 65.5738 150.822C67.7935 152.242 69.9257 154.6 71.5775 157.461C73.2292 160.322 74.2049 163.347 74.3249 165.979C74.4462 168.644 73.6767 170.594 72.1579 171.471C71.5926 171.797 70.9542 171.953 70.2675 171.953ZM61.6485 149.735C60.9938 149.735 60.3951 149.885 59.8702 150.188C58.4435 151.012 57.7219 152.874 57.8385 155.432C57.9565 158.022 58.9194 161.004 60.5499 163.828C63.9003 169.631 69.0468 172.954 72.0224 171.236C73.4492 170.412 74.1707 168.55 74.0541 165.992C73.9362 163.402 72.9733 160.42 71.3428 157.597C69.7123 154.773 67.6117 152.448 65.4277 151.051C64.0641 150.178 62.7736 149.735 61.6485 149.735ZM118.954 173.321C123.773 181.669 124.178 190.648 120.119 194.471C117.321 197.107 112.987 199.009 112.987 199.009C112.987 199.009 104.096 191.659 99.87 184.34C95.8795 177.428 93.7588 166.728 93.7588 166.728C93.7588 166.728 98.7688 163.228 99.9951 162.52C105.265 159.478 113.753 164.314 118.954 173.321Z" fill="#022F2E"/>
<path d="M112.987 199.145C112.956 199.145 112.925 199.134 112.901 199.114C112.812 199.04 103.942 191.663 99.7526 184.407C95.7967 177.555 93.647 166.861 93.6258 166.754C93.6206 166.728 93.6231 166.701 93.633 166.677C93.6428 166.653 93.6595 166.631 93.6811 166.616C93.8858 166.473 98.7099 163.106 99.9273 162.403C105.254 159.328 113.842 164.195 119.071 173.254C121.401 177.289 122.797 181.669 123.001 185.585C123.205 189.493 122.214 192.684 120.212 194.569C117.429 197.191 113.085 199.114 113.042 199.133C113.024 199.141 113.006 199.145 112.987 199.145ZM93.9094 166.788C94.1224 167.821 96.2428 177.786 99.9874 184.272C103.963 191.158 112.194 198.166 113.009 198.851C113.6 198.582 117.48 196.771 120.026 194.372C121.97 192.542 122.93 189.426 122.73 185.6C122.529 181.725 121.146 177.389 118.837 173.389C113.682 164.46 105.259 159.637 100.063 162.638C98.9361 163.288 94.5321 166.354 93.9094 166.788Z" fill="#022F2E"/>
<path d="M113.416 198.777C118.686 195.735 118.742 185.966 113.541 176.959C108.34 167.951 99.852 163.115 94.5823 166.158C89.3125 169.2 89.2566 178.969 94.4573 187.977C99.658 196.984 108.146 201.82 113.416 198.777Z" fill="#022F2E"/>
<path d="M109.888 199.821C104.806 199.821 98.5087 195.264 94.3421 188.048C91.815 183.671 90.4363 178.977 90.4601 174.833C90.4841 170.661 91.9248 167.54 94.517 166.043C99.8431 162.968 108.431 167.836 113.661 176.894C118.891 185.952 118.812 195.824 113.486 198.899C112.403 199.524 111.185 199.821 109.888 199.821ZM98.1316 165.387C96.8763 165.387 95.6993 165.674 94.6526 166.278C92.1472 167.725 90.7546 170.763 90.7313 174.834C90.7079 178.932 92.0736 183.576 94.5771 187.912C99.732 196.841 108.154 201.664 113.351 198.664C118.547 195.663 118.581 185.958 113.426 177.03C109.31 169.899 103.109 165.387 98.1316 165.387Z" fill="#022F2E"/>
<path d="M113.661 176.894C108.431 167.836 99.8431 162.968 94.5171 166.043C94.5015 166.052 94.4879 166.064 94.4769 166.078C94.466 166.092 94.4579 166.108 94.4532 166.126C94.4485 166.143 94.4473 166.161 94.4496 166.179C94.4519 166.196 94.4577 166.213 94.4666 166.229C94.4756 166.244 94.4875 166.258 94.5017 166.269C94.5159 166.28 94.5321 166.288 94.5494 166.292C94.5667 166.297 94.5847 166.298 94.6024 166.295C94.6202 166.293 94.6372 166.287 94.6526 166.278C99.8496 163.278 108.271 168.101 113.426 177.03C115.943 181.388 117.345 186.087 117.375 190.262C117.402 194.144 116.232 197.089 114.064 198.641L114.039 198.659C114.039 198.659 114.65 198.419 115.107 198.1C115.12 198.092 115.128 198.079 115.139 198.068C116.791 196.353 117.67 193.653 117.646 190.26C117.616 186.039 116.201 181.293 113.661 176.894Z" fill="white"/>
<path d="M109.6 193.244C112.645 191.486 112.363 185.297 108.97 179.42C105.577 173.543 100.357 170.204 97.3122 171.962C94.2671 173.72 94.5493 179.91 97.9424 185.787C101.336 191.663 106.555 195.002 109.6 193.244Z" fill="#022F2E"/>
<path d="M107.758 193.856C106.58 193.856 105.239 193.398 103.831 192.497C101.611 191.077 99.4792 188.72 97.8274 185.859C96.1756 182.998 95.2 179.973 95.08 177.34C94.9585 174.676 95.7282 172.726 97.247 171.849C100.352 170.056 105.665 173.424 109.09 179.357C110.742 182.217 111.717 185.243 111.837 187.875C111.959 190.539 111.189 192.49 109.67 193.366C109.104 193.694 108.459 193.856 107.758 193.856ZM99.1608 171.631C98.5138 171.631 97.9139 171.777 97.3827 172.084C95.956 172.907 95.2344 174.77 95.351 177.328C95.4691 179.918 96.432 182.899 98.0625 185.723C99.6929 188.547 101.794 190.872 103.977 192.269C106.134 193.649 108.108 193.955 109.535 193.131C110.962 192.308 111.683 190.445 111.567 187.887C111.448 185.297 110.486 182.316 108.855 179.492C106.103 174.725 102.138 171.631 99.1608 171.631Z" fill="#022F2E"/>
<path d="M18.0873 182.893L68.8513 212.011L67.2517 168.093L15.7484 137.13L14.0658 175.916C14.0689 177.329 14.4418 178.716 15.1473 179.94C15.8528 181.164 16.8664 182.182 18.0873 182.893Z" fill="white"/>
<path d="M68.8512 212.146C68.8275 212.146 68.8042 212.14 68.7837 212.128L18.0198 183.011L18.019 183.01C15.5036 181.545 13.9368 178.827 13.9303 175.916L15.613 137.124C15.614 137.1 15.6211 137.078 15.6336 137.058C15.6461 137.038 15.6636 137.021 15.6843 137.01C15.705 136.999 15.7283 136.994 15.7518 136.994C15.7753 136.995 15.7983 137.001 15.8184 137.014L67.3216 167.977C67.3609 168.001 67.3856 168.043 67.3872 168.088L68.9868 212.006C68.9875 212.024 68.9845 212.042 68.978 212.059C68.9715 212.076 68.9616 212.092 68.9489 212.105C68.9363 212.118 68.9211 212.128 68.9043 212.136C68.8875 212.143 68.8694 212.146 68.8512 212.146ZM18.1548 182.775L68.7068 211.772L67.1189 168.172L15.874 137.363L14.2013 175.922C14.2078 178.73 15.7227 181.359 18.1548 182.775Z" fill="#022F2E"/>
<path d="M73.9994 211.901L104.003 194.513C105.029 193.919 105.851 193.029 106.363 191.96C106.874 190.891 107.051 189.692 106.871 188.521L97.6634 140.041L59.183 163.131L66.0539 208.105C66.6302 211.812 70.753 213.782 73.9994 211.901Z" fill="white"/>
<path d="M71.3249 212.756C70.5088 212.756 69.7031 212.573 68.9669 212.221C68.1641 211.838 67.467 211.264 66.9361 210.551C66.4051 209.837 66.0563 209.004 65.9199 208.125L59.0489 163.151C59.0406 163.097 59.066 163.043 59.1132 163.014L97.5936 139.925C97.6123 139.913 97.6335 139.907 97.6553 139.906C97.6771 139.904 97.6989 139.908 97.7188 139.917C97.7387 139.926 97.7562 139.94 97.7697 139.957C97.7833 139.974 97.7925 139.994 97.7966 140.016L107.004 188.495C107.385 190.97 106.234 193.377 104.071 194.63L74.0673 212.018C73.2341 212.501 72.2881 212.756 71.3249 212.756ZM59.3308 163.2L66.188 208.084C66.4556 209.806 67.5111 211.225 69.0837 211.976C70.6565 212.728 72.4232 212.657 73.9313 211.783L103.935 194.396C106 193.199 107.1 190.901 106.737 188.542L97.5663 140.257L59.3308 163.2Z" fill="#022F2E"/>
<path d="M16.6042 138.895L58.2533 162.904C58.5124 163.054 58.8061 163.132 59.1052 163.133C59.4042 163.133 59.6981 163.055 59.9576 162.906L96.8587 141.664C98.0044 141.007 97.9493 139.495 96.8039 138.838L56.3596 115.547C55.7215 115.181 54.9986 114.988 54.2628 114.988C53.5271 114.988 52.8041 115.181 52.1658 115.546L16.6079 135.931C15.4636 136.587 15.4615 138.236 16.6042 138.895Z" fill="white"/>
<path d="M59.1072 163.268C58.7884 163.268 58.4698 163.186 58.1856 163.022L16.5365 139.013C15.9573 138.679 15.612 138.08 15.6128 137.412C15.6136 136.743 15.9603 136.146 16.5403 135.813L52.0984 115.429C53.4336 114.664 55.0923 114.664 56.4271 115.43L96.8716 138.721C97.4696 139.064 97.8266 139.651 97.8264 140.291C97.8263 140.901 97.4898 141.458 96.926 141.782L60.0252 163.024C59.7457 163.184 59.4292 163.268 59.1072 163.268ZM16.672 138.778L58.321 162.787C58.5598 162.924 58.8301 162.997 59.1053 162.997C59.3806 162.997 59.6511 162.926 59.8901 162.789L96.791 141.547C97.2768 141.268 97.5553 140.81 97.5554 140.291C97.5554 139.749 97.2494 139.25 96.7365 138.956L56.2919 115.665C55.0405 114.947 53.4851 114.947 52.2332 115.664L16.6752 136.049C16.1805 136.332 15.8846 136.842 15.884 137.412C15.8833 137.983 16.1779 138.493 16.672 138.778Z" fill="#022F2E"/>
<path d="M104.827 172.671L64.6938 200.223L63.9326 194.094L103.59 171.237L104.827 172.671Z" fill="#8EAAA4"/>
<path d="M64.6938 200.359C64.6607 200.359 64.6288 200.347 64.604 200.325C64.5792 200.303 64.5633 200.273 64.5593 200.24L63.7982 194.111C63.7949 194.084 63.7994 194.057 63.8113 194.034C63.8232 194.01 63.8419 193.99 63.865 193.977L103.523 171.12C103.55 171.104 103.582 171.098 103.613 171.103C103.644 171.109 103.673 171.125 103.693 171.149L104.929 172.583C104.942 172.597 104.951 172.614 104.957 172.632C104.962 172.651 104.964 172.67 104.961 172.689C104.959 172.708 104.952 172.726 104.942 172.742C104.932 172.758 104.919 172.772 104.903 172.783L64.7706 200.335C64.748 200.35 64.7212 200.359 64.6938 200.359ZM64.0783 194.167L64.8009 199.985L104.625 172.645L103.561 171.41L64.0783 194.167Z" fill="#022F2E"/>
<path d="M64.6938 200.224L12.9841 166.858L14.5128 165.611L63.8707 194.059L64.6938 200.224Z" fill="#8EAAA4"/>
<path d="M64.6938 200.359C64.6678 200.359 64.6422 200.352 64.6203 200.337L12.9107 166.972C12.8927 166.96 12.8777 166.944 12.8669 166.926C12.8561 166.907 12.8499 166.887 12.8487 166.865C12.8475 166.844 12.8514 166.823 12.8601 166.803C12.8688 166.783 12.882 166.766 12.8986 166.753L14.4273 165.506C14.4486 165.489 14.4747 165.478 14.5021 165.476C14.5294 165.474 14.5569 165.48 14.5806 165.494L63.9385 193.941C63.9565 193.951 63.9719 193.966 63.9834 193.983C63.995 194 64.0025 194.02 64.0052 194.04L64.8283 200.205C64.831 200.225 64.8295 200.244 64.8239 200.263C64.8183 200.281 64.8089 200.298 64.7961 200.313C64.7834 200.328 64.7676 200.339 64.75 200.347C64.7323 200.355 64.7132 200.359 64.6938 200.359ZM13.2144 166.845L64.5206 199.95L63.7452 194.143L14.5261 165.775L13.2144 166.845Z" fill="#022F2E"/>
<path d="M12.9841 166.857L12.5164 176.817C12.5231 179.826 13.681 182.681 16.2816 184.195L66.4661 213.449C67.6341 214.119 69.8251 215.181 69.8251 215.181L71.1248 214.916L64.1811 196.384L12.9841 166.857Z" fill="white"/>
<path d="M69.8252 215.317C69.8049 215.317 69.7846 215.312 69.7661 215.303C69.7442 215.292 67.5575 214.231 66.3988 213.566L16.2134 184.312C13.7854 182.898 12.3883 180.166 12.3807 176.817L12.8486 166.851C12.8497 166.828 12.8568 166.805 12.8691 166.785C12.8814 166.766 12.8986 166.75 12.919 166.738C12.9394 166.727 12.9623 166.721 12.9855 166.722C13.0088 166.722 13.0316 166.728 13.0517 166.74L64.2488 196.266C64.276 196.282 64.2969 196.307 64.308 196.336L71.2517 214.868C71.2586 214.887 71.2615 214.906 71.2601 214.926C71.2586 214.945 71.253 214.964 71.2435 214.982C71.234 214.999 71.2208 215.014 71.205 215.025C71.1892 215.037 71.171 215.045 71.1518 215.049L69.8521 215.314C69.8433 215.316 69.8343 215.317 69.8252 215.317ZM13.1092 167.086L12.6519 176.823C12.6594 180.067 14.0072 182.714 16.35 184.078L66.5347 213.332C67.5968 213.941 69.5366 214.89 69.8434 215.039L70.9424 214.815L64.0716 196.477L13.1092 167.086Z" fill="#022F2E"/>
<path d="M64.1456 196.119L65.8271 209.902C66.4303 213.784 70.4952 216.938 73.8938 214.968L106.136 196.385C108.333 195.112 109.489 192.522 109.103 190.012L104.827 172.672L64.1456 196.119Z" fill="white"/>
<path d="M71.6847 215.706C70.9692 215.706 70.2394 215.536 69.5265 215.196C67.5489 214.251 66.0442 212.181 65.6932 209.923L64.011 196.134C64.0078 196.108 64.0125 196.081 64.0244 196.057C64.0362 196.033 64.0549 196.014 64.0779 196L104.759 172.554C104.777 172.543 104.797 172.537 104.818 172.536C104.839 172.534 104.86 172.538 104.88 172.546C104.899 172.555 104.916 172.567 104.93 172.583C104.943 172.599 104.953 172.618 104.958 172.639L109.234 189.979C109.639 192.601 108.42 195.218 106.204 196.502L73.9615 215.085C73.2481 215.499 72.4751 215.706 71.6847 215.706ZM64.2912 196.19L65.9618 209.885C66.2989 212.053 67.7442 214.044 69.6434 214.951C71.0605 215.628 72.5459 215.592 73.8258 214.85L106.069 196.267C108.188 195.039 109.354 192.533 108.969 190.032L104.738 172.879L64.2912 196.19ZM97.8983 166.485L69.1957 182.812C67.7014 183.662 65.8173 182.765 65.5357 181.069L63.1096 166.458C63.0263 165.957 63.0996 165.442 63.3194 164.984C63.5392 164.526 63.8949 164.147 64.3379 163.898L92.7595 147.944C94.2322 147.118 96.0817 147.978 96.3972 149.638L99.1044 163.875C99.2006 164.381 99.1362 164.905 98.9199 165.373C98.7036 165.841 98.3465 166.23 97.8983 166.485Z" fill="#022F2E"/>
<path d="M67.9762 183.276C67.5955 183.276 67.2136 183.19 66.8525 183.018C66.0721 182.647 65.5433 181.944 65.4018 181.092L62.9757 166.481C62.7964 165.401 63.3172 164.316 64.2714 163.78L92.693 147.826C93.4333 147.411 94.2995 147.378 95.0694 147.736C95.8391 148.095 96.3715 148.779 96.5301 149.613L99.2373 163.85C99.3389 164.384 99.2709 164.937 99.0428 165.43C98.8147 165.924 98.4379 166.334 97.9653 166.603L69.2626 182.931C68.859 183.16 68.4185 183.276 67.9762 183.276ZM93.9671 147.761C93.5746 147.761 93.1838 147.862 92.8258 148.063L64.4042 164.017C63.5492 164.497 63.0826 165.469 63.2433 166.436L65.6694 181.047C65.7963 181.811 66.27 182.441 66.9692 182.773C67.6686 183.106 68.4556 183.078 69.1286 182.695L97.8313 166.367C98.2548 166.126 98.5924 165.759 98.7968 165.317C99.0011 164.874 99.062 164.379 98.971 163.901L96.2638 149.663C96.1218 148.916 95.6446 148.303 94.9549 147.982C94.6458 147.837 94.3086 147.761 93.9671 147.761Z" fill="#022F2E"/>
<path d="M76.432 172.987L76.0494 173.21C75.2244 173.692 74.1734 173.191 74.0283 172.246L73.0815 166.083C72.9823 165.437 73.0827 164.776 73.3693 164.189C73.6559 163.602 74.115 163.116 74.6853 162.796L75.215 162.5C75.8935 162.12 76.7418 162.539 76.8514 163.309L77.8205 170.116C77.9006 170.678 77.8113 171.252 77.564 171.763C77.3166 172.274 76.9226 172.7 76.432 172.987Z" fill="#FF5823"/>
<path d="M75.3666 173.531C75.1479 173.531 74.9288 173.482 74.7253 173.385C74.506 173.281 74.3156 173.124 74.1707 172.929C74.0258 172.734 73.9308 172.507 73.894 172.267L72.9473 166.104C72.7366 164.733 73.4084 163.356 74.6189 162.678L75.1486 162.381C75.3246 162.282 75.5221 162.228 75.7239 162.223C75.9256 162.218 76.1256 162.262 76.3064 162.352C76.4874 162.441 76.6438 162.573 76.7621 162.737C76.8804 162.9 76.9571 163.09 76.9854 163.29L77.9546 170.097C78.04 170.686 77.9472 171.287 77.6879 171.823C77.4287 172.359 77.015 172.805 76.5001 173.104L76.1174 173.327C75.8896 173.46 75.6305 173.531 75.3666 173.531ZM75.755 162.492C75.589 162.492 75.4258 162.536 75.2813 162.618L74.7516 162.914C73.6393 163.537 73.022 164.802 73.2155 166.063L74.1622 172.226C74.2244 172.631 74.4722 172.964 74.842 173.14C75.212 173.317 75.627 173.299 75.9809 173.093L76.3635 172.87C76.8318 172.598 77.208 172.192 77.4438 171.705C77.6795 171.217 77.764 170.67 77.6863 170.135L76.7171 163.328C76.696 163.171 76.6365 163.023 76.5438 162.895C76.4512 162.767 76.3284 162.664 76.1863 162.595C76.0524 162.528 75.9048 162.492 75.755 162.492Z" fill="#022F2E"/>
<path d="M87.6464 166.753L87.2638 166.977C86.4386 167.459 85.3877 166.957 85.2426 166.013L84.2959 159.85C84.1966 159.204 84.297 158.543 84.5836 157.956C84.8702 157.368 85.3294 156.882 85.8997 156.563L86.4294 156.266C87.1078 155.886 87.9562 156.306 88.0657 157.076L89.0349 163.882C89.115 164.445 89.0257 165.018 88.7784 165.53C88.5311 166.041 88.137 166.467 87.6464 166.753Z" fill="#FF5823"/>
<path d="M86.5811 167.298C86.3624 167.298 86.1433 167.25 85.9398 167.153C85.7205 167.048 85.5301 166.892 85.3852 166.697C85.2403 166.502 85.1453 166.275 85.1085 166.034L84.1618 159.872C83.9511 158.5 84.6229 157.123 85.8334 156.445L86.3631 156.149C86.5391 156.05 86.7366 155.996 86.9383 155.991C87.1401 155.985 87.3401 156.029 87.5209 156.119C87.7019 156.208 87.8582 156.341 87.9765 156.504C88.0948 156.668 88.1715 156.857 88.1999 157.057L89.1691 163.864C89.2545 164.453 89.1616 165.054 88.9024 165.59C88.6432 166.126 88.2295 166.573 87.7146 166.871L87.3319 167.095C87.1006 167.23 86.8411 167.298 86.5811 167.298ZM86.9695 156.26C86.8035 156.26 86.6403 156.303 86.4958 156.385L85.9661 156.682C84.8538 157.305 84.2365 158.57 84.4301 159.83L85.3769 165.993C85.4391 166.398 85.6869 166.732 86.0568 166.908C86.4267 167.084 86.8418 167.067 87.1957 166.861L87.5783 166.637C88.0466 166.365 88.4228 165.96 88.6585 165.472C88.8943 164.985 88.9787 164.438 88.901 163.902L87.9316 157.096C87.9105 156.939 87.851 156.79 87.7584 156.662C87.6658 156.534 87.5429 156.431 87.4008 156.362C87.2669 156.295 87.1193 156.26 86.9695 156.26ZM37.6168 137.867L59.7707 150.638C59.9086 150.717 60.0648 150.759 60.2238 150.759C60.3829 150.759 60.5392 150.718 60.6772 150.639L80.3055 139.34C80.915 138.99 80.8857 138.186 80.2764 137.836L58.7634 125.448C58.4239 125.253 58.0394 125.15 57.6481 125.15C57.2567 125.15 56.8722 125.253 56.5326 125.447L37.6187 136.29C37.01 136.639 37.0089 137.517 37.6168 137.867Z" fill="#022F2E"/>
<path d="M60.2248 150.894C60.0416 150.894 59.8617 150.846 59.7029 150.755L37.549 137.984C37.389 137.893 37.2562 137.761 37.1643 137.602C37.0723 137.442 37.0246 137.261 37.0259 137.077C37.025 136.893 37.0732 136.712 37.1655 136.553C37.2578 136.394 37.391 136.262 37.5511 136.172L56.4651 125.329C56.8254 125.124 57.2331 125.016 57.6479 125.016C58.0628 125.016 58.4704 125.124 58.8307 125.33L80.3439 137.719C80.6819 137.912 80.8836 138.245 80.8836 138.608C80.8836 138.956 80.6926 139.273 80.3727 139.457L60.7446 150.756C60.5863 150.846 60.4071 150.894 60.2248 150.894ZM37.6844 137.749L59.8383 150.52C59.9557 150.587 60.0886 150.623 60.2239 150.623C60.3592 150.623 60.4922 150.588 60.6097 150.521L80.2378 139.222C80.4761 139.085 80.6126 138.862 80.6126 138.608C80.6126 138.344 80.4617 138.099 80.209 137.954L58.6958 125.565C58.3766 125.382 58.0155 125.287 57.648 125.287C57.2805 125.287 56.9193 125.382 56.6001 125.564L37.6861 136.407C37.4428 136.546 37.2975 136.797 37.2971 137.077C37.2967 137.358 37.4416 137.609 37.6844 137.749ZM28.6701 183.111C33.4894 191.458 33.8942 200.437 29.8355 204.26C27.0372 206.896 22.7035 208.799 22.7035 208.799C22.7035 208.799 13.8117 201.448 9.58619 194.129C5.59575 187.218 3.47498 176.517 3.47498 176.517C3.47498 176.517 8.48499 173.018 9.71147 172.31C14.9813 169.267 23.4694 174.103 28.6701 183.111Z" fill="#022F2E"/>
<path d="M22.7034 208.935C22.6719 208.935 22.6413 208.924 22.6171 208.904C22.528 208.831 13.6581 201.454 9.46875 194.198C5.51288 187.346 3.36323 176.651 3.34194 176.544C3.33683 176.519 3.33933 176.492 3.34916 176.467C3.35898 176.443 3.37569 176.422 3.39726 176.407C3.60199 176.264 8.42612 172.896 9.64351 172.193C12.2358 170.697 15.6594 171.01 19.2838 173.074C22.8852 175.126 26.2604 178.667 28.7875 183.044C31.1176 187.08 32.5133 191.459 32.7175 195.376C32.9211 199.283 31.9306 202.474 29.9284 204.36C27.1453 206.981 22.8014 208.905 22.7579 208.924C22.7403 208.932 22.7219 208.935 22.7034 208.935ZM3.62544 176.578C3.83858 177.611 5.95881 187.576 9.70344 194.062C13.6795 200.949 21.9105 207.957 22.7251 208.641C23.3164 208.373 27.1959 206.561 29.7424 204.162C31.6856 202.332 32.646 199.217 32.4466 195.39C32.2447 191.515 30.8618 187.179 28.5527 183.179C26.0492 178.843 22.7098 175.338 19.1496 173.31C15.6122 171.295 12.2844 170.981 9.77909 172.428C8.65214 173.079 4.24817 176.144 3.62544 176.578Z" fill="#022F2E"/>
<path d="M23.1342 208.568C28.404 205.525 28.4599 195.756 23.2592 186.749C18.0584 177.741 9.57043 172.905 4.30066 175.948C-0.969102 178.991 -1.02506 188.759 4.17567 197.767C9.37641 206.774 17.8644 211.61 23.1342 208.568Z" fill="#022F2E"/>
<path d="M19.6042 209.611C14.5222 209.611 8.22487 205.055 4.05831 197.838C1.5312 193.461 0.152468 188.767 0.17633 184.623C0.200328 180.451 1.64102 177.33 4.23321 175.833C9.5594 172.758 18.1474 177.626 23.3772 186.684C28.607 195.742 28.5285 205.614 23.2023 208.689C22.1196 209.314 20.9011 209.611 19.6042 209.611ZM7.84795 175.177C6.5926 175.177 5.41562 175.464 4.36892 176.068C1.86351 177.515 0.470949 180.553 0.447629 184.624C0.424173 188.722 1.78989 193.366 4.29341 197.702C9.44849 206.631 17.8702 211.454 23.067 208.454C28.2637 205.453 28.2976 195.749 23.1427 186.82C19.0257 179.689 12.825 175.177 7.84795 175.177Z" fill="#022F2E"/>
<path d="M19.3184 203.034C22.3635 201.276 22.0813 195.087 18.6882 189.21C15.295 183.333 10.0758 179.994 7.03072 181.752C3.98563 183.51 4.26777 189.7 7.66091 195.577C11.054 201.454 16.2733 204.792 19.3184 203.034Z" fill="white"/>
<path d="M17.4962 203.637C14.4099 203.637 10.3454 200.501 7.54372 195.648C4.11866 189.715 3.8582 183.431 6.9633 181.638C8.48208 180.761 10.5559 181.07 12.8025 182.507C15.0223 183.927 17.1544 186.285 18.8062 189.145C20.458 192.006 21.4337 195.032 21.5537 197.664C21.6751 200.328 20.9054 202.279 19.3867 203.155C18.8214 203.482 18.183 203.637 17.4962 203.637ZM8.87731 181.42C8.22258 181.42 7.62372 181.57 7.09888 181.873C4.12327 183.591 4.42819 189.709 7.77855 195.512C10.5307 200.279 14.4955 203.373 17.4729 203.373C18.1199 203.373 18.7199 203.227 19.2511 202.921C20.6778 202.097 21.3994 200.234 21.2828 197.676C21.1648 195.087 20.2019 192.105 18.5714 189.281C16.9409 186.457 14.8403 184.132 12.6564 182.735C11.2928 181.863 10.0024 181.42 8.87731 181.42Z" fill="#022F2E"/>
<path d="M23.6884 208.482L23.7237 208.457C25.9187 206.914 27.1067 203.956 27.0828 200.05C27.0572 195.875 25.6577 191.176 23.1424 186.82C20.6252 182.46 17.2633 178.897 13.6761 176.788C10.3308 174.821 7.19435 174.366 4.76635 175.477C4.74059 175.489 4.68555 175.512 4.68555 175.512C4.68555 175.512 5.0306 175.264 5.14232 175.178C5.24862 175.095 5.5892 174.888 5.5892 174.888C5.5892 174.888 5.65048 174.868 5.68384 174.86C8.01882 174.23 10.8404 174.807 13.8135 176.554C17.4404 178.687 20.8369 182.284 23.3771 186.684C25.9156 191.081 27.328 195.827 27.3539 200.049C27.3749 203.464 26.4817 206.177 24.8064 207.89C24.7995 207.897 24.7853 207.913 24.7853 207.913C24.7853 207.913 24.4378 208.1 24.321 208.161C24.1638 208.243 23.6884 208.482 23.6884 208.482Z" fill="white"/>
<path d="M66.1826 205.006C71.0018 213.353 71.4067 222.332 67.3479 226.156C64.5496 228.791 60.2159 230.694 60.2159 230.694C60.2159 230.694 51.3242 223.343 47.0986 216.024C43.1082 209.113 40.9874 198.412 40.9874 198.412C40.9874 198.412 45.9974 194.913 47.2239 194.205C52.4937 191.162 60.9819 195.998 66.1826 205.006Z" fill="#022F2E"/>
<path d="M60.216 230.83C60.1845 230.83 60.1539 230.819 60.1296 230.799C60.0406 230.726 51.1707 223.349 46.9813 216.093C43.0254 209.241 40.8758 198.547 40.8545 198.439C40.8494 198.414 40.8519 198.387 40.8617 198.362C40.8716 198.338 40.8883 198.317 40.9098 198.302C41.1146 198.159 45.9387 194.791 47.1561 194.088C52.4824 191.013 61.0703 195.881 66.3001 204.939C68.6302 208.975 70.0259 213.354 70.2299 217.271C70.4336 221.178 69.443 224.369 67.4409 226.255C64.6578 228.876 60.3139 230.8 60.2704 230.819C60.2532 230.826 60.2347 230.83 60.216 230.83ZM41.1382 198.473C41.3513 199.506 43.4715 209.471 47.2161 215.957C51.1922 222.844 59.4233 229.852 60.2378 230.536C60.829 230.268 64.7086 228.456 67.2551 226.057C69.1983 224.227 70.1588 221.112 69.9593 217.285C69.7574 213.41 68.3745 209.074 66.0654 205.075C60.9103 196.146 52.4887 191.323 47.2918 194.323C46.1648 194.974 41.7609 198.039 41.1382 198.473Z" fill="#022F2E"/>
<path d="M60.6458 230.462C65.9155 227.419 65.9715 217.651 60.7708 208.643C55.57 199.636 47.082 194.8 41.8123 197.842C36.5425 200.885 36.4865 210.654 41.6873 219.661C46.888 228.669 55.376 233.505 60.6458 230.462Z" fill="#022F2E"/>
<path d="M57.1168 231.506C52.0348 231.506 45.7374 226.949 41.571 219.732C39.0439 215.355 37.6652 210.662 37.6889 206.517C37.7129 202.346 39.1536 199.225 41.7458 197.728C47.072 194.653 55.66 199.521 60.8898 208.579C63.4169 212.956 64.7956 217.649 64.7718 221.794C64.7478 225.965 63.3071 229.087 60.7149 230.583C59.632 231.208 58.4137 231.506 57.1168 231.506ZM45.3604 197.072C44.105 197.072 42.9281 197.358 41.8814 197.963C39.3759 199.409 37.9834 202.448 37.9601 206.519C37.9365 210.616 39.3023 215.261 41.8058 219.597C45.9226 226.727 52.1232 231.239 57.1004 231.24C58.3558 231.24 59.5327 230.953 60.5794 230.348C63.0849 228.902 64.4774 225.863 64.5007 221.792C64.5242 217.695 63.1585 213.05 60.655 208.714C56.5382 201.584 50.3376 197.072 45.3604 197.072Z" fill="#022F2E"/>
<path d="M56.83 224.929C59.8751 223.171 59.5929 216.981 56.1998 211.104C52.8066 205.227 47.5874 201.889 44.5423 203.647C41.4972 205.405 41.7794 211.594 45.1725 217.471C48.5656 223.348 53.7849 226.687 56.83 224.929Z" fill="white"/>
<path d="M55.0087 225.533C51.9224 225.533 47.8578 222.396 45.0562 217.543C43.4044 214.682 42.4287 211.657 42.3087 209.025C42.1872 206.36 42.9569 204.41 44.4757 203.533C47.5808 201.741 52.8936 205.109 56.3187 211.041C59.7437 216.973 60.0042 223.258 56.8991 225.051C56.334 225.377 55.6954 225.533 55.0087 225.533ZM46.3895 203.316C45.7425 203.316 45.1425 203.461 44.6113 203.768C43.1846 204.592 42.463 206.454 42.5796 209.012C42.6976 211.602 43.6605 214.584 45.291 217.408C48.0432 222.175 52.008 225.268 54.9854 225.269C55.6323 225.269 56.2323 225.123 56.7635 224.816C59.7391 223.098 59.4342 216.979 56.0838 211.177C53.3317 206.41 49.3668 203.316 46.3895 203.316Z" fill="#022F2E"/>
<path d="M64.9329 221.906C64.8726 217.723 63.4366 212.99 60.8898 208.579C58.3541 204.187 54.9445 200.597 51.2892 198.47C47.5925 196.319 44.1337 195.956 41.5499 197.448C41.519 197.466 41.4966 197.496 41.4874 197.531C41.4783 197.565 41.4832 197.602 41.5011 197.633C41.519 197.664 41.5484 197.687 41.583 197.696C41.6175 197.705 41.6544 197.701 41.6855 197.683C44.1816 196.242 47.5439 196.605 51.1529 198.705C54.7679 200.808 58.1426 204.363 60.6552 208.715C63.1791 213.087 64.6021 217.773 64.6619 221.91C64.718 225.801 63.55 228.748 61.3598 230.285C61.3332 230.304 61.2796 230.338 61.2796 230.338C61.2796 230.338 61.8791 230.09 62.4179 229.743C62.4317 229.734 62.4409 229.719 62.4523 229.707C64.1119 228 64.9818 225.301 64.9329 221.906Z" fill="white"/>
<path d="M22.7766 163.44C22.0146 163.464 21.3894 162.64 21.4285 161.841L22.0278 149.586C22.03 149.542 22.0409 149.498 22.0601 149.457C22.0792 149.417 22.1062 149.38 22.1394 149.35C22.1726 149.32 22.2114 149.297 22.2536 149.282C22.2958 149.267 22.3405 149.26 22.3853 149.262C23.1402 149.299 23.7486 150.128 23.7116 150.883L23.109 163.205C23.102 163.349 22.9119 163.436 22.7766 163.44Z" fill="#8EAAA4"/>
<path d="M22.7443 163.577C22.4049 163.577 22.0718 163.428 21.8027 163.154C21.4603 162.806 21.2699 162.313 21.2932 161.836L21.8924 149.58C21.8987 149.454 21.9549 149.336 22.0485 149.251C22.1422 149.166 22.2658 149.121 22.3921 149.128C23.258 149.17 23.8854 150.11 23.8471 150.89L23.2446 163.212C23.234 163.428 22.9957 163.57 22.7809 163.576C22.7687 163.577 22.7565 163.577 22.7443 163.577ZM22.3683 149.398C22.3172 149.398 22.2686 149.417 22.2305 149.451C22.1898 149.488 22.1658 149.539 22.1632 149.594L21.5639 161.849C21.5445 162.246 21.7101 162.673 21.996 162.964C22.2211 163.193 22.4974 163.315 22.7722 163.306C22.8697 163.302 22.9715 163.241 22.9736 163.199L23.5761 150.877C23.6111 150.162 23.0179 149.43 22.3785 149.398C22.3751 149.398 22.3717 149.398 22.3683 149.398Z" fill="#022F2E"/>
<path d="M26.3914 165.715C25.6295 165.739 25.0043 164.915 25.0434 164.116L25.6426 151.861C25.6448 151.816 25.6558 151.772 25.675 151.732C25.6941 151.691 25.7211 151.655 25.7543 151.625C25.7875 151.594 25.8263 151.571 25.8685 151.556C25.9106 151.541 25.9554 151.534 26.0002 151.537C26.7551 151.573 27.3634 152.402 27.3264 153.157L26.7239 165.479C26.717 165.624 26.5268 165.71 26.3914 165.715Z" fill="#8EAAA4"/>
<path d="M26.3592 165.851C26.0198 165.851 25.6867 165.701 25.4176 165.427C25.0752 165.079 24.8847 164.586 24.908 164.109L25.5073 151.854C25.5136 151.727 25.5689 151.61 25.6632 151.524C25.7576 151.438 25.8791 151.395 26.0068 151.401C26.3981 151.42 26.7845 151.636 27.0666 151.993C27.3374 152.336 27.4815 152.763 27.4619 153.164L26.8593 165.485C26.8488 165.702 26.6104 165.843 26.3956 165.85C26.3835 165.85 26.3713 165.851 26.3592 165.851ZM25.9835 151.672C25.8746 151.672 25.7835 151.757 25.7782 151.867L25.1789 164.122C25.1596 164.519 25.3251 164.947 25.611 165.237C25.8361 165.466 26.1121 165.588 26.3872 165.579C26.4847 165.576 26.5865 165.514 26.5886 165.472L27.1911 153.15C27.2261 152.436 26.6329 151.703 25.9935 151.672L25.9835 151.672Z" fill="#022F2E"/>
<path d="M30.2722 167.876C29.5102 167.9 28.8851 167.076 28.9241 166.277L29.5234 154.022C29.5256 153.977 29.5365 153.933 29.5557 153.893C29.5748 153.852 29.6018 153.816 29.635 153.786C29.6682 153.756 29.707 153.732 29.7492 153.717C29.7914 153.702 29.8361 153.695 29.8809 153.698C30.6358 153.735 31.2442 154.563 31.2072 155.318L30.6046 167.64C30.5976 167.785 30.4075 167.871 30.2722 167.876Z" fill="#8EAAA4"/>
<path d="M30.2399 168.013C29.9006 168.013 29.5674 167.863 29.2983 167.589C28.9558 167.241 28.7653 166.748 28.7887 166.271L29.3879 154.016C29.3942 153.89 29.4504 153.771 29.544 153.686C29.6377 153.601 29.7613 153.557 29.8876 153.563C30.7535 153.605 31.3808 154.545 31.3426 155.326L30.7401 167.647C30.7295 167.864 30.4912 168.005 30.2764 168.012C30.2642 168.012 30.252 168.013 30.2399 168.013ZM29.8641 153.834C29.7552 153.834 29.6641 153.919 29.6588 154.029L29.0596 166.284C29.0402 166.681 29.2057 167.108 29.4918 167.399C29.7169 167.628 29.9933 167.75 30.268 167.741C30.3655 167.738 30.4673 167.676 30.4695 167.634L31.072 155.312C31.107 154.598 30.5138 153.865 29.8744 153.834C29.8709 153.834 29.8675 153.834 29.8641 153.834ZM158.468 94.9866C156.878 91.8769 153.923 90.9287 153.798 90.8899C152.939 90.6238 152.026 91.103 151.759 91.9622C151.492 92.8211 151.972 93.7341 152.831 94.0011C152.849 94.0065 154.61 94.5978 155.568 96.4699C156.433 98.1618 156.404 100.41 155.482 103.153C155.196 104.006 155.655 104.929 156.507 105.216C156.68 105.274 156.854 105.301 157.027 105.301C157.707 105.301 158.342 104.871 158.571 104.191C159.782 100.586 159.748 97.4889 158.468 94.9866Z" fill="#022F2E"/>
<path d="M157.027 105.436C156.836 105.436 156.647 105.405 156.464 105.344C155.542 105.034 155.044 104.031 155.354 103.109C156.263 100.402 156.295 98.1892 155.447 96.5311C154.518 94.714 152.807 94.1352 152.79 94.1297C151.862 93.8414 151.341 92.8507 151.63 91.9216C151.918 90.9931 152.91 90.4721 153.838 90.7599C153.966 90.7995 156.974 91.7652 158.589 94.9244C159.886 97.4603 159.923 100.592 158.699 104.233C158.582 104.584 158.357 104.889 158.057 105.104C157.757 105.32 157.396 105.436 157.027 105.436ZM153.316 90.9518C152.679 90.9518 152.087 91.3627 151.889 92.002C151.644 92.7882 152.085 93.6268 152.872 93.8711C152.89 93.8767 154.706 94.486 155.688 96.4077C156.571 98.1334 156.545 100.417 155.611 103.196C155.349 103.976 155.77 104.824 156.551 105.087C156.737 105.149 156.933 105.175 157.129 105.162C157.324 105.148 157.516 105.096 157.691 105.009C157.867 104.922 158.024 104.801 158.153 104.653C158.281 104.505 158.38 104.333 158.442 104.147C159.641 100.578 159.61 97.5163 158.347 95.0479C156.783 91.9892 153.881 91.0571 153.758 91.0189C153.615 90.9745 153.466 90.9518 153.316 90.9518Z" fill="#022F2E"/>
<path d="M150.645 92.5821C150.163 91.8226 149.156 91.5978 148.397 92.0805C144.128 94.7917 142.52 99.3673 142.027 101.208C140.958 105.197 141.651 108.927 143.793 110.712C144.085 110.956 144.454 111.09 144.835 111.089C145.301 111.089 145.765 110.89 146.087 110.503C146.663 109.812 146.569 108.785 145.878 108.209C144.945 107.432 144.381 105.009 145.174 102.051C145.995 98.9846 147.853 96.2851 150.143 94.8303C150.903 94.3482 151.127 93.3415 150.645 92.5821Z" fill="#8EAAA4"/>
<path d="M144.835 111.225C144.423 111.225 144.023 111.08 143.706 110.816C141.524 108.998 140.814 105.213 141.896 101.174C142.393 99.3172 144.015 94.7033 148.324 91.9665C148.519 91.8416 148.737 91.7567 148.966 91.7167C149.194 91.6767 149.428 91.6824 149.654 91.7336C149.881 91.7834 150.095 91.8777 150.285 92.011C150.474 92.1443 150.636 92.3138 150.76 92.5099C151.281 93.3312 151.037 94.4238 150.216 94.9453C147.953 96.3824 146.117 99.0521 145.304 102.087C144.527 104.99 145.065 107.355 145.965 108.105C146.713 108.728 146.814 109.843 146.191 110.59C146.026 110.789 145.818 110.949 145.584 111.059C145.349 111.169 145.094 111.226 144.835 111.225ZM149.267 91.9619C148.987 91.9619 148.712 92.0413 148.469 92.1953C144.241 94.8811 142.647 99.418 142.158 101.244C141.103 105.182 141.779 108.857 143.88 110.608C144.148 110.831 144.486 110.954 144.835 110.954C145.28 110.954 145.698 110.758 145.983 110.417C146.51 109.784 146.424 108.841 145.791 108.313C144.498 107.236 144.44 104.265 145.043 102.017C145.873 98.918 147.752 96.1889 150.071 94.7165C150.766 94.275 150.972 93.3504 150.531 92.6552C150.426 92.4893 150.289 92.3458 150.129 92.233C149.968 92.1202 149.787 92.0404 149.595 91.9982C149.488 91.9741 149.378 91.9619 149.267 91.9619Z" fill="#022F2E"/>
<path d="M154.826 86.7264L142.949 86.5898C142.949 86.5898 142.875 91.4868 142.875 92.153C142.875 93.6611 143.682 95.654 146.512 96.7606C148.301 97.4602 150.838 98.0585 154.611 97.4499L154.826 86.7264Z" fill="white"/>
<path d="M151.604 97.8389C149.244 97.8389 147.595 97.3299 146.462 96.8868C143.102 95.5727 142.739 93.1385 142.739 92.153C142.739 91.4934 142.813 86.6367 142.814 86.5878C142.815 86.5131 142.87 86.451 142.951 86.4542L154.828 86.5908C154.846 86.5909 154.863 86.5947 154.88 86.6017C154.896 86.6088 154.911 86.619 154.924 86.6319C154.936 86.6448 154.946 86.66 154.952 86.6767C154.959 86.6933 154.962 86.7111 154.962 86.729L154.747 97.4526C154.746 97.4843 154.734 97.5148 154.713 97.5388C154.693 97.5628 154.664 97.5787 154.633 97.5837C153.512 97.7646 152.506 97.8389 151.604 97.8389ZM143.083 86.727C143.071 87.5212 143.01 91.5576 143.01 92.153C143.01 93.0829 143.356 95.3812 146.561 96.6344C149.707 97.8646 152.567 97.6339 154.478 97.3338L154.688 86.8604L143.083 86.727Z" fill="#022F2E"/>
<path d="M154.611 97.4493C158.039 96.839 160.424 95.0316 160.424 93.089V86.91L154.826 86.7256L154.611 97.4493Z" fill="#022F2E"/>
<path d="M154.611 97.5856C154.593 97.5855 154.575 97.5819 154.559 97.5749C154.542 97.5679 154.527 97.5577 154.514 97.5448C154.502 97.5319 154.492 97.5167 154.485 97.4999C154.479 97.4832 154.475 97.4653 154.476 97.4473L154.691 86.7238C154.691 86.7058 154.695 86.6881 154.702 86.6717C154.71 86.6553 154.72 86.6405 154.733 86.6282C154.746 86.6158 154.761 86.6061 154.778 86.5998C154.795 86.5934 154.813 86.5903 154.831 86.5909L160.429 86.7751C160.464 86.7763 160.498 86.7911 160.522 86.8164C160.546 86.8417 160.56 86.8755 160.56 86.9107V93.0897C160.56 95.1146 158.124 96.9625 154.635 97.5834C154.627 97.5849 154.619 97.5856 154.611 97.5856ZM154.959 86.8665L154.75 97.2865C158.02 96.6624 160.289 94.95 160.289 93.0897V87.042L154.959 86.8665Z" fill="#022F2E"/>
<path d="M160.424 86.7937C160.424 84.3323 157.729 80.2391 151.686 80.2481C151.417 80.2485 151.155 80.2565 150.899 80.2714C145.213 80.6068 142.941 84.4867 142.941 86.8423C142.941 89.3037 146.979 91.662 151.686 91.6641C157.945 91.667 160.424 88.6357 160.424 86.7937Z" fill="white"/>
<path d="M151.694 91.8004H151.685C147.038 91.7984 142.805 89.4355 142.805 86.8431C142.805 84.2565 145.314 80.4659 150.891 80.1369C151.151 80.1216 151.418 80.1137 151.685 80.1133H151.706C155.282 80.1133 157.435 81.5122 158.612 82.6872C159.813 83.8869 160.56 85.4607 160.56 86.7945C160.56 88.1017 159.486 89.3241 158.48 90.0324C157.335 90.839 155.227 91.8004 151.694 91.8004ZM151.706 80.3843H151.686C151.423 80.3847 151.161 80.3924 150.907 80.4075C145.506 80.7261 143.076 84.3627 143.076 86.8431C143.076 89.0534 146.758 91.5271 151.686 91.5292H151.694C155.157 91.5292 157.21 90.5948 158.324 89.8105C159.773 88.7901 160.289 87.5834 160.289 86.7943C160.289 85.53 159.573 84.0297 158.42 82.8789C157.28 81.7403 155.19 80.3843 151.706 80.3843Z" fill="#022F2E"/>
<path d="M41.5109 140.082L59.8586 150.659C59.9727 150.725 60.1021 150.759 60.2338 150.76C60.3656 150.76 60.495 150.725 60.6093 150.66L77.499 140.932C78.0036 140.643 77.9795 139.977 77.4749 139.687L59.6578 129.427C59.3767 129.266 59.0582 129.181 58.734 129.181C58.4099 129.181 58.0914 129.265 57.8102 129.427L41.5124 138.776C41.0083 139.065 41.0074 139.792 41.5109 140.082Z" fill="#8EAAA4"/>
<path d="M60.2346 150.894C60.0789 150.894 59.9259 150.854 59.7909 150.776L41.443 140.199C41.1641 140.038 40.9978 139.75 40.9982 139.428C40.9986 139.106 41.1655 138.818 41.4449 138.658L57.7428 129.309C58.0448 129.136 58.3864 129.046 58.7341 129.046C59.0817 129.046 59.4234 129.137 59.7253 129.309L77.5425 139.57C77.8296 139.734 78.0013 140.017 78.0011 140.327C78.0011 140.623 77.8386 140.893 77.5663 141.049L60.6769 150.777C60.5423 150.854 60.3898 150.895 60.2346 150.894ZM58.7338 129.317C58.4378 129.317 58.1417 129.393 57.8777 129.544L41.5798 138.893C41.4851 138.947 41.4064 139.025 41.3519 139.119C41.2973 139.213 41.2688 139.32 41.2693 139.429C41.2685 139.537 41.2967 139.644 41.3511 139.739C41.4054 139.833 41.4839 139.911 41.5785 139.964L59.9262 150.541C60.0199 150.595 60.1259 150.623 60.2339 150.624C60.3419 150.624 60.4481 150.596 60.5419 150.542L77.4313 140.814C77.6211 140.706 77.73 140.528 77.73 140.327C77.73 140.116 77.6095 139.921 77.4073 139.805L59.5901 129.544C59.3294 129.395 59.0341 129.317 58.7338 129.317Z" fill="#022F2E"/>
<path d="M68.7322 140.497C68.7322 143.634 64.5301 146.577 59.1356 146.577C53.7411 146.577 49.1969 143.634 49.1969 140.497C49.1969 140.114 49.1772 139.025 49.1772 139.025C49.1772 139.025 54.2282 134.817 58.9646 134.817C63.6848 134.817 68.7322 139.166 68.7322 139.166V140.497Z" fill="#022F2E"/>
<path d="M59.1358 146.712C53.7691 146.712 49.0616 143.808 49.0616 140.497C49.0616 140.12 49.042 139.038 49.0419 139.027C49.0415 139.007 49.0457 138.987 49.0542 138.968C49.0626 138.95 49.0751 138.934 49.0907 138.921C49.1415 138.878 54.2341 134.682 58.9649 134.682C63.6808 134.682 68.7701 139.02 68.821 139.063C68.8508 139.089 68.868 139.127 68.868 139.166V140.497C68.8679 143.866 64.4112 146.712 59.1358 146.712ZM49.3141 139.088C49.3183 139.33 49.3327 140.172 49.3327 140.497C49.3327 141.962 50.3833 143.457 52.2152 144.598C54.0953 145.769 56.6178 146.441 59.1358 146.441C61.6707 146.441 64.0668 145.787 65.8828 144.6C67.6075 143.472 68.5967 141.976 68.5967 140.497V139.229C68.0745 138.794 63.3399 134.953 58.9647 134.953C54.5807 134.953 49.8505 138.656 49.3141 139.088Z" fill="#022F2E"/>
<path d="M68.7322 139.166V140.496C68.7322 142.729 66.5167 144.661 63.2941 145.589L63.2943 144.269L68.7322 139.166Z" fill="#022F2E"/>
<path d="M63.2942 145.724C63.2763 145.724 63.2587 145.721 63.2422 145.714C63.2257 145.707 63.2108 145.697 63.1982 145.685C63.1856 145.672 63.1756 145.657 63.1688 145.641C63.162 145.624 63.1585 145.607 63.1586 145.589L63.1588 144.269C63.1588 144.232 63.1743 144.196 63.2017 144.17L68.6396 139.067C68.6589 139.049 68.6831 139.037 68.7091 139.032C68.7352 139.028 68.7621 139.031 68.7864 139.041C68.8107 139.052 68.8313 139.069 68.8459 139.092C68.8604 139.114 68.8681 139.14 68.8681 139.166V140.497C68.8681 142.735 66.7467 144.736 63.3318 145.719C63.3196 145.723 63.3069 145.724 63.2942 145.724ZM63.43 144.327L63.4297 145.407C66.622 144.443 68.5966 142.571 68.5966 140.496V139.479L63.43 144.327Z" fill="#022F2E"/>
<path d="M68.7323 139.089C68.7323 142.225 64.3494 145.085 58.9548 145.085C53.5603 145.085 49.197 142.225 49.197 139.089C49.197 135.952 53.5702 133.409 58.9646 133.409C64.359 133.409 68.7323 135.952 68.7323 139.089Z" fill="#8EAAA4"/>
<path d="M58.9548 145.221C56.3523 145.221 53.8756 144.566 51.9809 143.378C50.1254 142.214 49.0614 140.651 49.0614 139.089C49.0614 135.882 53.504 133.273 58.9646 133.273C64.4251 133.273 68.8677 135.882 68.8677 139.089C68.8677 140.65 67.8 142.214 65.9382 143.378C64.0386 144.566 61.5584 145.221 58.9548 145.221ZM58.9647 133.545C53.6536 133.545 49.3327 136.032 49.3327 139.089C49.3327 140.556 50.3505 142.035 52.1251 143.148C53.9772 144.31 56.4027 144.95 58.9549 144.95C64.0913 144.95 68.5968 142.211 68.5968 139.089C68.5967 136.032 64.2758 133.545 58.9647 133.545Z" fill="#022F2E"/>
<path d="M67.2954 138.917C67.2954 141.482 63.6422 143.379 59.1358 143.379C54.6293 143.379 50.9762 141.482 50.9762 138.917C50.9762 138.277 51.3504 136.786 51.3504 136.786C51.3504 136.786 55.7536 134.679 59.1358 134.679C62.7949 134.679 66.5196 136.577 66.5196 136.577C66.5196 136.577 67.2954 138.434 67.2954 138.917Z" fill="#022F2E"/>
<path d="M59.1357 143.514C56.9133 143.514 54.8413 143.058 53.3018 142.229C51.7147 141.375 50.8406 140.198 50.8406 138.917C50.8406 138.268 51.2034 136.814 51.2188 136.753C51.2287 136.713 51.2555 136.681 51.2918 136.663C51.3361 136.642 55.7618 134.543 59.1357 134.543C62.7851 134.543 66.5435 136.437 66.5811 136.456C66.6097 136.471 66.6322 136.495 66.6447 136.525C66.7252 136.717 67.4309 138.422 67.4309 138.917C67.4309 140.198 66.5568 141.375 64.9697 142.229C63.43 143.058 61.3582 143.514 59.1357 143.514ZM51.4666 136.881C51.3967 137.168 51.1117 138.374 51.1117 138.917C51.1117 141.343 54.6363 143.243 59.1357 143.243C63.6352 143.243 67.1597 141.343 67.1597 138.917C67.1597 138.554 66.639 137.22 66.4138 136.676C65.984 136.465 62.5071 134.814 59.1357 134.814C56.0309 134.814 51.9955 136.636 51.4666 136.881Z" fill="#022F2E"/>
<path d="M66.5196 136.577C66.5196 136.577 67.3026 138.435 67.2954 138.917C67.2547 141.632 63.2948 142.779 63.2948 142.779L63.2925 140.031L66.5196 136.577Z" fill="#022F2E"/>
<path d="M63.2946 142.916C63.2587 142.916 63.2243 142.901 63.1989 142.876C63.1735 142.85 63.1592 142.816 63.159 142.78L63.1567 140.031C63.1567 139.997 63.1698 139.964 63.1932 139.939L66.4203 136.485C66.4358 136.469 66.4551 136.456 66.4765 136.449C66.498 136.442 66.5209 136.441 66.5431 136.444C66.5654 136.448 66.5863 136.458 66.604 136.472C66.6217 136.486 66.6355 136.504 66.6443 136.525C66.7257 136.718 67.4381 138.423 67.4308 138.92C67.4135 140.078 66.6946 141.137 65.3519 141.982C64.3522 142.611 63.3735 142.898 63.3323 142.91C63.3201 142.914 63.3074 142.916 63.2946 142.916ZM63.428 140.085L63.4302 142.593C64.1825 142.335 67.126 141.179 67.1599 138.916C67.1649 138.584 66.7229 137.431 66.4751 136.824L63.428 140.085Z" fill="#022F2E"/>
<path d="M66.5591 137.032C66.5591 139.474 63.1464 141.749 58.9465 141.749C54.7465 141.749 51.3502 139.474 51.3502 137.032C51.3502 134.59 54.7548 132.61 58.9546 132.61C63.1544 132.61 66.5591 134.59 66.5591 137.032Z" fill="#8EAAA4"/>
<path d="M58.9467 141.884C54.8278 141.884 51.2148 139.617 51.2148 137.032C51.2148 134.519 54.687 132.475 58.9548 132.475C63.2226 132.475 66.6948 134.519 66.6948 137.032C66.6948 139.617 63.0742 141.884 58.9467 141.884ZM58.9548 132.746C54.8365 132.746 51.486 134.668 51.486 137.032C51.486 139.472 54.9722 141.613 58.9467 141.613C62.9298 141.613 66.4237 139.472 66.4237 137.032C66.4236 134.668 63.0732 132.746 58.9548 132.746Z" fill="#022F2E"/>
<path d="M58.9647 139.612C56.7198 139.612 53.6364 138.949 53.6364 136.016V95.6865H64.257V136.016C64.257 138.949 61.4457 139.612 58.9647 139.612Z" fill="white"/>
<path d="M58.9647 139.747C57.9795 139.747 56.5609 139.624 55.3974 139.035C54.1389 138.397 53.5007 137.382 53.5007 136.016V95.6864C53.5007 95.6504 53.515 95.6159 53.5404 95.5905C53.5659 95.5651 53.6004 95.5508 53.6363 95.5508H64.2568C64.2928 95.5508 64.3273 95.5651 64.3527 95.5905C64.3781 95.6159 64.3924 95.6504 64.3924 95.6864V136.016C64.3926 137.718 63.4508 139.747 58.9647 139.747ZM53.7719 95.8219V136.016C53.7719 139.139 57.4033 139.476 58.9647 139.476C63.2267 139.476 64.1214 137.594 64.1214 136.016V95.8219H53.7719Z" fill="#022F2E"/>
<path d="M143.336 50.7578L147.559 60.5004L60.4442 99.266L57.4912 89.0497L143.336 50.7578Z" fill="white"/>
<path d="M60.4442 99.4014C60.4148 99.4014 60.3862 99.3919 60.3627 99.3742C60.3392 99.3566 60.3221 99.3317 60.3139 99.3035L57.3611 89.0872C57.352 89.0557 57.3545 89.0221 57.3683 88.9924C57.3821 88.9627 57.4062 88.939 57.436 88.9257L143.281 50.6337C143.297 50.6265 143.315 50.6225 143.333 50.6221C143.351 50.6217 143.368 50.6248 143.385 50.6313C143.402 50.6378 143.417 50.6475 143.43 50.6599C143.443 50.6723 143.453 50.6871 143.46 50.7035L147.684 60.4461C147.698 60.4789 147.698 60.516 147.686 60.5493C147.673 60.5826 147.647 60.6094 147.614 60.6239L60.4992 99.3897C60.4819 99.3974 60.4631 99.4014 60.4442 99.4014ZM57.6543 89.1253L60.5312 99.0787L147.381 60.431L143.266 50.9373L57.6543 89.1253Z" fill="#022F2E"/>
<path d="M153.737 85.9068C151.409 86.4278 146.848 85.8355 146.509 83.5607L140.933 58.6067L150.579 54.2314L157.041 82.8266C157.041 82.8266 157.249 85.1211 153.737 85.9068Z" fill="white"/>
<path d="M151.945 86.2181C150.337 86.2181 148.528 85.8623 147.438 85.1148C146.821 84.6914 146.464 84.1753 146.375 83.5806L140.8 58.6361C140.794 58.6057 140.798 58.5739 140.812 58.546C140.825 58.5181 140.848 58.4959 140.877 58.483L150.523 54.1078C150.541 54.0995 150.561 54.0954 150.581 54.0957C150.602 54.0961 150.621 54.1009 150.639 54.1099C150.657 54.1188 150.673 54.1317 150.686 54.1475C150.698 54.1633 150.707 54.1817 150.711 54.2013L157.173 82.7965C157.174 82.8024 157.175 82.8082 157.175 82.8142C157.178 82.8394 157.227 83.4385 156.823 84.1396C156.456 84.7762 155.629 85.6223 153.767 86.039C153.237 86.1575 152.608 86.2181 151.945 86.2181ZM141.089 58.6845L146.642 83.531C146.72 84.0577 147.04 84.5122 147.592 84.8911C149.072 85.9068 151.949 86.1678 153.707 85.7743C156.981 85.0419 156.917 83.0154 156.906 82.8466L150.484 54.4234L141.089 58.6845Z" fill="#022F2E"/>
<path d="M58.9466 101.738C63.0366 101.738 66.3522 98.4223 66.3522 94.3323C66.3522 90.2424 63.0366 86.9268 58.9466 86.9268C54.8566 86.9268 51.541 90.2424 51.541 94.3323C51.541 98.4223 54.8566 101.738 58.9466 101.738Z" fill="#8EAAA4"/>
<path d="M58.9467 101.873C54.7886 101.873 51.4055 98.4905 51.4055 94.3322C51.4055 90.1739 54.7884 86.791 58.9467 86.791C63.1049 86.791 66.4879 90.1739 66.4879 94.3322C66.4879 98.4905 63.1049 101.873 58.9467 101.873ZM58.9467 87.0623C54.9381 87.0623 51.6767 90.3236 51.6767 94.3323C51.6767 98.3411 54.938 101.602 58.9467 101.602C62.9555 101.602 66.2167 98.3411 66.2167 94.3323C66.2167 90.3236 62.9553 87.0623 58.9467 87.0623Z" fill="#022F2E"/>
<path d="M64.2723 94.1604C64.2723 97.0979 61.8918 99.4784 58.9543 99.4784C56.0181 99.4784 53.6364 97.0978 53.6364 94.1604C53.6364 91.2242 56.0181 88.8438 58.9543 88.8438C61.8918 88.8438 64.2723 91.2243 64.2723 94.1604Z" fill="white"/>
<path d="M58.9542 99.6147C55.9472 99.6147 53.5007 97.1683 53.5007 94.1613C53.5007 91.1549 55.9472 88.709 58.9542 88.709C61.9613 88.709 64.4077 91.1549 64.4077 94.1613C64.4079 97.1683 61.9614 99.6147 58.9542 99.6147ZM58.9542 88.98C56.0967 88.98 53.7719 91.3043 53.7719 94.1611C53.7719 97.0186 56.0967 99.3434 58.9542 99.3434C61.8118 99.3434 64.1366 97.0186 64.1366 94.1611C64.1367 91.3043 61.8119 88.98 58.9542 88.98Z" fill="#022F2E"/>
<path d="M145.448 63.0348C149.538 63.0348 152.853 59.7192 152.853 55.6292C152.853 51.5392 149.538 48.2236 145.448 48.2236C141.358 48.2236 138.042 51.5392 138.042 55.6292C138.042 59.7192 141.358 63.0348 145.448 63.0348Z" fill="#8EAAA4"/>
<path d="M145.448 63.1702C141.29 63.1702 137.906 59.7873 137.906 55.6291C137.906 51.4709 141.289 48.0879 145.448 48.0879C149.606 48.0879 152.989 51.4708 152.989 55.6291C152.989 59.7873 149.606 63.1702 145.448 63.1702ZM145.448 48.3592C141.439 48.3592 138.178 51.6205 138.178 55.6292C138.178 59.6379 141.439 62.8992 145.448 62.8992C149.456 62.8992 152.718 59.6379 152.718 55.6292C152.718 51.6205 149.456 48.3592 145.448 48.3592Z" fill="#022F2E"/>
<path d="M150.766 55.6282C150.766 58.5657 148.385 60.9461 145.448 60.9461C142.511 60.9461 140.13 58.5656 140.13 55.6282C140.13 52.6919 142.511 50.3115 145.448 50.3115C148.385 50.3115 150.766 52.6921 150.766 55.6282Z" fill="white"/>
<path d="M145.448 61.0815C142.441 61.0815 139.994 58.6351 139.994 55.6281C139.994 52.6217 142.44 50.1758 145.448 50.1758C148.455 50.1758 150.901 52.6217 150.901 55.6281C150.901 58.6351 148.455 61.0815 145.448 61.0815ZM145.448 50.4469C142.59 50.4469 140.265 52.7712 140.265 55.6281C140.265 58.4856 142.59 60.8104 145.448 60.8104C148.305 60.8104 150.63 58.4856 150.63 55.6281C150.63 52.7712 148.305 50.4469 145.448 50.4469Z" fill="#022F2E"/>
</g>
<g clip-path="url(#clip2_548_5323)">
<path d="M226.609 199.604L167.055 234.288V180.786L226.73 151.254L226.609 199.604Z" fill="#022F2E"/>
<path d="M167.055 234.424C167.019 234.424 166.984 234.41 166.959 234.384C166.933 234.359 166.919 234.324 166.919 234.288V180.785C166.919 180.76 166.926 180.735 166.94 180.714C166.953 180.692 166.972 180.675 166.995 180.664L226.669 151.132C226.69 151.122 226.713 151.117 226.736 151.118C226.759 151.119 226.782 151.126 226.801 151.139C226.821 151.151 226.837 151.168 226.848 151.188C226.86 151.208 226.865 151.231 226.865 151.254L226.745 199.604C226.745 199.652 226.719 199.697 226.678 199.721L167.123 234.406C167.102 234.418 167.078 234.424 167.055 234.424ZM167.19 180.87V234.052L226.474 199.526L226.594 151.472L167.19 180.87Z" fill="#022F2E"/>
<path d="M226.718 151.271L167.043 185.692L121.784 159.738L181.615 125.409L226.718 151.271Z" fill="white"/>
<path d="M167.043 185.827C167.02 185.827 166.997 185.821 166.976 185.809L121.716 159.856C121.695 159.844 121.678 159.827 121.666 159.806C121.654 159.786 121.648 159.762 121.648 159.738C121.648 159.714 121.654 159.691 121.666 159.67C121.678 159.649 121.695 159.632 121.716 159.62L181.547 125.291C181.568 125.28 181.591 125.273 181.615 125.273C181.638 125.273 181.662 125.28 181.682 125.291L226.786 151.153C226.806 151.165 226.823 151.182 226.835 151.203C226.847 151.224 226.854 151.247 226.854 151.271C226.854 151.295 226.848 151.318 226.836 151.339C226.824 151.36 226.807 151.377 226.786 151.389L167.111 185.809C167.09 185.821 167.067 185.827 167.043 185.827ZM122.056 159.738L167.043 185.535L226.446 151.271L181.615 125.565L122.056 159.738Z" fill="#022F2E"/>
<path d="M167.055 234.288L121.955 208.146L121.795 159.721L167.043 185.691L167.055 234.288Z" fill="white"/>
<path d="M167.055 234.424C167.031 234.424 167.007 234.417 166.987 234.405L121.887 208.264C121.867 208.252 121.85 208.235 121.838 208.214C121.826 208.194 121.82 208.171 121.82 208.147L121.66 159.721C121.659 159.697 121.666 159.674 121.677 159.653C121.689 159.633 121.706 159.615 121.727 159.603C121.748 159.591 121.771 159.585 121.795 159.585C121.819 159.585 121.842 159.591 121.863 159.603L167.111 185.574C167.132 185.585 167.149 185.603 167.161 185.623C167.173 185.644 167.179 185.667 167.179 185.691L167.19 234.288C167.19 234.324 167.176 234.358 167.151 234.384C167.125 234.409 167.091 234.424 167.055 234.424ZM122.091 208.068L166.919 234.052L166.908 185.77L121.932 159.955L122.091 208.068Z" fill="#022F2E"/>
<path d="M203.989 212.762L189.931 220.95L189.795 172.702L203.854 164.593L203.989 212.762Z" fill="#8EAAA4"/>
<path d="M189.931 221.085C189.895 221.085 189.861 221.071 189.836 221.045C189.81 221.02 189.796 220.986 189.796 220.95L189.659 172.702C189.659 172.654 189.685 172.609 189.727 172.584L203.786 164.475C203.807 164.463 203.83 164.457 203.854 164.457C203.877 164.457 203.901 164.463 203.921 164.475C203.942 164.487 203.959 164.504 203.971 164.525C203.983 164.545 203.989 164.569 203.989 164.592L204.125 212.762C204.125 212.786 204.119 212.809 204.107 212.83C204.095 212.85 204.078 212.867 204.057 212.879L190 221.067C189.979 221.079 189.955 221.085 189.931 221.085ZM189.931 172.78L190.066 220.714L203.853 212.684L203.719 164.827L189.931 172.78Z" fill="#022F2E"/>
<path d="M203.921 164.665L158.531 138.649L144.485 146.713L189.863 172.774L203.921 164.665Z" fill="white"/>
<path d="M189.863 172.909C189.839 172.909 189.816 172.903 189.795 172.891L144.417 146.831C144.396 146.819 144.379 146.802 144.367 146.781C144.355 146.76 144.349 146.737 144.349 146.713C144.349 146.689 144.355 146.666 144.367 146.645C144.379 146.624 144.396 146.607 144.417 146.595L158.463 138.532C158.484 138.52 158.507 138.514 158.531 138.514C158.555 138.514 158.578 138.52 158.598 138.532L203.989 164.547C204.01 164.559 204.027 164.576 204.039 164.596C204.051 164.617 204.057 164.64 204.057 164.664C204.057 164.688 204.051 164.712 204.039 164.732C204.027 164.753 204.01 164.77 203.989 164.782L189.931 172.891C189.91 172.903 189.887 172.909 189.863 172.909ZM144.757 146.713L189.863 172.617L203.649 164.665L158.531 138.806L144.757 146.713Z" fill="#022F2E"/>
<path d="M163.969 221.46L149.574 213.117L149.523 196.1L163.969 204.383V221.46Z" fill="white"/>
<path d="M163.969 221.596C163.945 221.596 163.922 221.59 163.901 221.578L149.506 213.234C149.486 213.222 149.469 213.205 149.457 213.184C149.445 213.164 149.439 213.141 149.438 213.117L149.387 196.1C149.387 196.076 149.393 196.053 149.405 196.032C149.417 196.011 149.434 195.994 149.455 195.982C149.475 195.97 149.499 195.964 149.523 195.964C149.546 195.964 149.57 195.97 149.59 195.982L164.036 204.266C164.057 204.278 164.074 204.295 164.086 204.315C164.098 204.336 164.104 204.36 164.104 204.383V221.46C164.104 221.496 164.09 221.531 164.065 221.556C164.039 221.582 164.005 221.596 163.969 221.596ZM149.71 213.038L163.833 221.225V204.462L149.659 196.334L149.71 213.038Z" fill="#022F2E"/>
<path d="M163.948 224.199V227.793L149.553 219.449L149.544 215.611L163.948 224.199Z" fill="white"/>
<path d="M163.948 227.928C163.924 227.928 163.9 227.922 163.88 227.91L149.485 219.566C149.465 219.554 149.448 219.537 149.436 219.517C149.424 219.496 149.417 219.473 149.417 219.449L149.408 215.611C149.408 215.587 149.415 215.563 149.427 215.543C149.439 215.522 149.456 215.505 149.477 215.493C149.498 215.481 149.521 215.475 149.545 215.475C149.569 215.475 149.593 215.482 149.613 215.494L164.017 224.082C164.058 224.106 164.083 224.151 164.083 224.198V227.792C164.083 227.81 164.08 227.828 164.073 227.844C164.066 227.861 164.056 227.876 164.044 227.888C164.031 227.901 164.016 227.911 164 227.918C163.983 227.925 163.966 227.928 163.948 227.928ZM149.689 219.37L163.812 227.557V224.276L149.68 215.85L149.689 219.37ZM259.656 219.527L226.718 238.801V199.575L259.753 180.553L259.656 219.527Z" fill="#022F2E"/>
<path d="M226.718 238.937C226.7 238.937 226.683 238.933 226.666 238.927C226.65 238.92 226.635 238.91 226.622 238.897C226.61 238.885 226.6 238.87 226.593 238.853C226.586 238.837 226.582 238.819 226.583 238.801V199.575C226.583 199.551 226.589 199.528 226.601 199.507C226.613 199.487 226.63 199.469 226.65 199.458L259.685 180.435C259.705 180.423 259.729 180.417 259.753 180.417C259.776 180.417 259.8 180.423 259.82 180.435C259.862 180.46 259.888 180.505 259.888 180.553L259.791 219.527C259.791 219.551 259.785 219.574 259.773 219.594C259.761 219.615 259.745 219.632 259.724 219.644L226.787 238.918C226.766 238.93 226.742 238.937 226.718 238.937ZM226.854 199.654V238.565L259.52 219.449L259.616 180.788L226.854 199.654Z" fill="#022F2E"/>
<path d="M193.781 219.527L226.718 238.801V199.575L193.684 180.553L193.781 219.527Z" fill="white"/>
<path d="M226.718 238.937C226.694 238.937 226.67 238.93 226.65 238.918L193.712 219.644C193.692 219.632 193.675 219.615 193.663 219.594C193.651 219.574 193.645 219.551 193.645 219.527L193.548 180.553C193.548 180.529 193.554 180.506 193.566 180.485C193.578 180.464 193.595 180.447 193.616 180.435C193.636 180.423 193.66 180.417 193.684 180.417C193.707 180.417 193.731 180.423 193.751 180.435L226.786 199.458C226.806 199.469 226.824 199.487 226.835 199.507C226.847 199.528 226.854 199.551 226.854 199.575V238.801C226.854 238.837 226.839 238.872 226.814 238.897C226.789 238.923 226.754 238.937 226.718 238.937ZM193.916 219.449L226.582 238.565V199.654L193.82 180.788L193.916 219.449Z" fill="#022F2E"/>
<path d="M259.752 180.553L226.718 199.575L193.684 180.553L226.718 161.456L259.752 180.553Z" fill="white"/>
<path d="M226.718 199.711C226.694 199.711 226.671 199.705 226.65 199.693L193.616 180.67C193.595 180.658 193.578 180.641 193.567 180.621C193.555 180.6 193.548 180.577 193.548 180.553C193.548 180.529 193.555 180.506 193.566 180.485C193.578 180.465 193.595 180.447 193.616 180.435L226.65 161.339C226.671 161.327 226.694 161.32 226.718 161.32C226.742 161.32 226.765 161.327 226.786 161.339L259.82 180.435C259.841 180.447 259.858 180.464 259.87 180.485C259.882 180.506 259.888 180.529 259.888 180.553C259.888 180.577 259.882 180.6 259.87 180.621C259.858 180.641 259.841 180.658 259.82 180.67L226.786 199.693C226.765 199.705 226.742 199.711 226.718 199.711ZM193.955 180.553L226.718 199.419L259.481 180.553L226.718 161.613L193.955 180.553Z" fill="#022F2E"/>
<path d="M239.427 168.803L206.427 187.88L214.002 192.253L246.996 173.179L239.427 168.803Z" fill="white"/>
<path d="M214.002 192.388C213.979 192.388 213.955 192.382 213.934 192.37L206.36 187.997C206.339 187.985 206.322 187.968 206.31 187.947C206.298 187.927 206.292 187.903 206.292 187.88C206.292 187.856 206.298 187.832 206.31 187.812C206.322 187.791 206.339 187.774 206.36 187.762L239.359 168.685C239.38 168.673 239.404 168.667 239.427 168.667C239.451 168.667 239.475 168.673 239.495 168.685L247.064 173.062C247.085 173.074 247.102 173.091 247.114 173.111C247.126 173.132 247.132 173.155 247.132 173.179C247.132 173.203 247.126 173.226 247.114 173.247C247.102 173.268 247.085 173.285 247.064 173.297L214.07 192.37C214.049 192.382 214.026 192.388 214.002 192.388ZM206.699 187.88L214.002 192.096L246.725 173.179L239.427 168.959L206.699 187.88Z" fill="#022F2E"/>
<path d="M213.951 231.331L206.399 226.911L206.427 187.88L214.002 192.253L213.951 231.331Z" fill="#FF5823"/>
<path d="M213.951 231.466C213.927 231.466 213.904 231.46 213.883 231.448L206.331 227.028C206.31 227.016 206.293 226.999 206.281 226.979C206.27 226.958 206.263 226.935 206.263 226.911L206.292 187.88C206.292 187.856 206.298 187.833 206.31 187.812C206.322 187.791 206.339 187.774 206.36 187.762C206.38 187.75 206.404 187.744 206.427 187.744C206.451 187.744 206.475 187.75 206.495 187.762L214.07 192.136C214.112 192.16 214.138 192.205 214.138 192.253L214.087 231.331C214.087 231.348 214.083 231.366 214.077 231.383C214.07 231.399 214.06 231.414 214.047 231.427C214.035 231.439 214.02 231.449 214.003 231.456C213.987 231.463 213.969 231.466 213.951 231.466ZM206.535 226.833L213.816 231.094L213.867 192.331L206.563 188.115L206.535 226.833Z" fill="#022F2E"/>
</g>
<g clip-path="url(#clip3_548_5323)">
<path d="M218.231 60.4741L188.109 6.96034C188.109 6.96034 192.638 4.03755 194.465 3.01921C210.638 -5.99216 238.536 9.67485 254.886 38.9595L218.231 60.4741Z" fill="white"/>
<path d="M218.231 60.6103C218.207 60.6103 218.183 60.6039 218.163 60.5917C218.142 60.5795 218.125 60.562 218.113 60.541L187.99 7.02734C187.973 6.99711 187.969 6.9615 187.977 6.92782C187.985 6.89413 188.006 6.8649 188.035 6.84612C188.081 6.81687 192.589 3.90932 194.399 2.90049C198.388 0.677685 203.115 -0.102842 208.447 0.580136C213.615 1.24216 219.076 3.23763 224.678 6.51089C230.331 9.81463 235.796 14.228 240.92 19.6286C246.287 25.2845 251.025 31.766 255.004 38.8933C255.022 38.9244 255.026 38.9611 255.017 38.9954C255.008 39.0298 254.985 39.0591 254.955 39.0771L218.3 60.5916C218.279 60.6039 218.255 60.6103 218.231 60.6103ZM188.29 7.00544L218.282 60.2869L254.703 38.9096C250.748 31.8478 246.045 25.4248 240.724 19.8159C235.617 14.4341 230.172 10.0367 224.541 6.74585C218.971 3.49123 213.544 1.50746 208.412 0.850062C203.139 0.174431 198.468 0.944346 194.531 3.13818C192.885 4.05571 188.988 6.55633 188.29 7.00544Z" fill="#022F2E"/>
<path d="M254.886 38.96C271.236 68.2446 271.167 97.6994 254.281 108.338C253.177 109.034 247.424 112.336 247.424 112.336L218.231 60.4745L254.886 38.96Z" fill="#022F2E"/>
<path d="M247.424 112.472C247.4 112.472 247.376 112.466 247.355 112.453C247.335 112.441 247.317 112.424 247.306 112.403L218.113 60.5408C218.095 60.5097 218.091 60.473 218.1 60.4385C218.109 60.404 218.132 60.3746 218.162 60.3566L254.817 38.8421C254.833 38.8329 254.85 38.8269 254.868 38.8245C254.886 38.822 254.904 38.8232 254.922 38.828C254.939 38.8328 254.955 38.841 254.97 38.8521C254.984 38.8633 254.996 38.8773 255.004 38.8931C262.944 53.1143 267.269 67.9409 267.183 80.6417C267.14 86.9136 266.043 92.4789 263.922 97.1831C261.733 102.04 258.513 105.832 254.354 108.453C253.259 109.142 247.549 112.421 247.491 112.454C247.471 112.466 247.447 112.472 247.424 112.472ZM218.415 60.5238L247.475 112.15C248.303 111.674 253.207 108.854 254.209 108.222C258.323 105.63 261.508 101.879 263.675 97.0712C265.78 92.4017 266.869 86.8736 266.911 80.6399C266.997 68.0219 262.709 53.2906 254.835 39.1471L218.415 60.5238Z" fill="#022F2E"/>
<path d="M248.278 42.8474C231.928 13.5628 204.281 -2.05051 188.109 6.96086C171.188 16.3891 170.576 46.8314 186.926 76.1162C187.837 77.7461 188.791 79.3514 189.786 80.9305L189.877 103.891L208.517 102.707C222.056 114.008 236.792 118.302 247.424 112.336C264.317 102.858 264.628 72.1322 248.278 42.8474Z" fill="#FF5823"/>
<path d="M236.658 115.16C228.073 115.16 218.17 110.931 208.471 102.847L189.885 104.027C189.867 104.028 189.848 104.025 189.831 104.019C189.813 104.013 189.797 104.003 189.784 103.99C189.77 103.978 189.759 103.962 189.752 103.945C189.745 103.928 189.741 103.91 189.741 103.891L189.651 80.9701C188.661 79.3995 187.713 77.8031 186.808 76.1826C181.546 66.7579 177.836 56.78 176.079 47.3277C174.373 38.1467 174.519 29.5926 176.502 22.5903C178.552 15.3522 182.543 9.9065 188.043 6.84194C192.032 4.61913 196.745 3.83574 202.051 4.51328C207.194 5.17027 212.626 7.15934 218.195 10.4257C223.814 13.7206 229.249 18.1278 234.352 23.5248C239.69 29.1718 244.415 35.6504 248.396 42.781C256.323 56.978 260.604 71.9792 260.453 85.0211C260.301 98.1076 255.697 107.851 247.49 112.455C244.255 114.27 240.595 115.16 236.658 115.16ZM208.517 102.571C208.548 102.571 208.579 102.583 208.603 102.603C222.671 114.345 237.159 117.94 247.358 112.218C255.476 107.663 260.03 98.0028 260.181 85.0178C260.332 72.0227 256.063 57.07 248.159 42.9138C240.344 28.9152 229.654 17.4608 218.058 10.6606C212.52 7.41281 207.123 5.43544 202.017 4.78334C196.769 4.11329 192.112 4.88592 188.175 7.07989C182.739 10.1084 178.793 15.4977 176.763 22.6646C174.792 29.6269 174.647 38.138 176.346 47.2779C178.097 56.7015 181.797 66.6506 187.045 76.0498C187.954 77.6774 188.907 79.2807 189.901 80.8579C189.915 80.8795 189.922 80.9044 189.922 80.93L190.012 103.746L208.508 102.572L208.517 102.571Z" fill="#022F2E"/>
<path d="M214.697 86.6937C215.826 86.0406 215.789 83.859 214.615 81.8208C213.441 79.7826 211.574 78.6597 210.446 79.3127C209.318 79.9657 209.355 82.1474 210.529 84.1856C211.703 86.2238 213.569 87.3467 214.697 86.6937Z" fill="white"/>
<path d="M213.972 87.0195C213.54 87.0195 213.059 86.8679 212.561 86.5683C211.755 86.0829 210.991 85.2618 210.412 84.2564C209.833 83.2508 209.505 82.1778 209.489 81.2347C209.473 80.2626 209.789 79.5391 210.379 79.1974C211.571 78.5079 213.524 79.6555 214.733 81.7555C215.943 83.8554 215.958 86.1249 214.766 86.8144C214.529 86.9514 214.262 87.0195 213.972 87.0195ZM211.18 79.2629C210.939 79.2629 210.714 79.3177 210.515 79.433C210.014 79.723 209.746 80.3611 209.761 81.2299C209.776 82.1276 210.091 83.1541 210.647 84.1202C211.204 85.0863 211.933 85.8728 212.701 86.335C213.444 86.7822 214.129 86.8686 214.63 86.5786C215.692 85.9641 215.633 83.8614 214.498 81.8914C213.576 80.291 212.224 79.2629 211.18 79.2629Z" fill="#022F2E"/>
<path d="M229.249 95.1712C230.377 94.5182 230.34 92.3365 229.167 90.2983C227.993 88.2601 226.126 87.1372 224.998 87.7902C223.87 88.4433 223.907 90.6249 225.081 92.6631C226.255 94.7014 228.121 95.8243 229.249 95.1712Z" fill="white"/>
<path d="M228.537 95.4922C227.386 95.4923 225.936 94.4202 224.964 92.7337C223.755 90.6338 223.74 88.3643 224.931 87.6748C225.522 87.3332 226.305 87.4205 227.136 87.9208C227.943 88.4062 228.706 89.2273 229.286 90.2327C230.495 92.3327 230.51 94.6021 229.318 95.2916C229.084 95.4277 228.819 95.4922 228.537 95.4922ZM225.727 87.7421C225.484 87.7421 225.262 87.7979 225.067 87.9106C224.006 88.5251 224.065 90.6278 225.2 92.5978C226.334 94.5678 228.121 95.6707 229.183 95.0563C230.245 94.4417 230.185 92.339 229.05 90.369C228.494 89.4029 227.765 88.6164 226.997 88.1542C226.542 87.8808 226.109 87.7421 225.727 87.7421Z" fill="#022F2E"/>
<path d="M239.045 57.9042L228.003 51.5073L227.995 51.5028L203.148 37.1093L201.177 27.339C201.123 27.07 201.012 26.8158 200.851 26.5937C200.69 26.3716 200.484 26.1867 200.245 26.0516L188.887 19.6118C187.969 19.091 186.803 19.4152 186.283 20.3362C185.764 21.2568 186.087 22.4255 187.006 22.9463L197.605 28.9556L199.573 38.7145L199.574 38.7154L203.144 56.4142L206.416 72.6341C206.469 72.8977 206.577 73.1471 206.733 73.3661C206.889 73.5851 207.089 73.7687 207.32 73.9051L231.938 88.4275C232.231 88.601 232.565 88.6925 232.906 88.6925C233.56 88.6924 234.198 88.3547 234.554 87.748C235.09 86.8363 234.786 85.6624 233.876 85.1259L209.993 71.037L208.673 64.4933L224.111 73.4815L224.116 73.4845L232.602 78.425C232.857 78.573 233.142 78.6601 233.435 78.6797C233.728 78.6993 234.022 78.6507 234.294 78.5378C234.566 78.4248 234.808 78.2504 235.001 78.0283C235.195 77.8062 235.334 77.5423 235.409 77.2572L239.936 60.0512C240.043 59.6449 240.014 59.2146 239.853 58.8266C239.692 58.4386 239.408 58.1145 239.045 57.9042ZM215.382 63.9694L214.15 47.907L225.033 54.2119L223.463 68.6742L215.382 63.9694ZM204.159 42.1192L210.139 45.5834L211.37 61.6335L207.66 59.4737L204.495 43.7864L204.159 42.1192ZM232.354 73.8502L227.078 70.779L228.65 56.3069L235.869 60.489L232.354 73.8502Z" fill="white"/>
<path d="M232.906 88.8285C232.543 88.8285 232.184 88.7304 231.87 88.5447L207.251 74.0223C207.003 73.8761 206.789 73.6793 206.623 73.4448C206.456 73.2103 206.34 72.9432 206.283 72.661L199.44 38.7421C199.44 38.7383 199.439 38.7344 199.439 38.7306L197.484 29.0433L186.939 23.0646C186.705 22.9326 186.499 22.7553 186.333 22.5429C186.168 22.3306 186.046 22.0874 185.975 21.8275C185.902 21.568 185.882 21.2967 185.914 21.0292C185.947 20.7617 186.032 20.5034 186.165 20.2692C186.297 20.0342 186.474 19.8278 186.686 19.6618C186.898 19.4958 187.14 19.3736 187.4 19.3023C187.658 19.2295 187.929 19.2089 188.196 19.2417C188.463 19.2745 188.72 19.3601 188.954 19.4934L200.312 25.9331C200.567 26.0778 200.789 26.2758 200.961 26.5137C201.133 26.7516 201.252 27.0239 201.31 27.312L203.269 37.0222L239.113 57.7865C239.91 58.2482 240.302 59.1938 240.068 60.086L235.541 77.292C235.459 77.597 235.31 77.8792 235.103 78.117C234.895 78.3548 234.637 78.5418 234.346 78.6636C233.764 78.906 233.08 78.8606 232.534 78.5427L208.865 64.7629L210.114 70.9504L233.945 85.0086C234.177 85.1447 234.38 85.3255 234.542 85.5406C234.704 85.7558 234.822 86.001 234.889 86.262C234.957 86.5227 234.973 86.7944 234.935 87.0613C234.898 87.3282 234.808 87.5851 234.671 87.817C234.305 88.4406 233.629 88.8282 232.906 88.8285ZM199.707 38.6921L206.549 72.6069C206.599 72.8518 206.699 73.0834 206.844 73.2868C206.988 73.4902 207.174 73.6608 207.389 73.7876L232.007 88.31C232.279 88.4709 232.59 88.5559 232.906 88.5563C233.215 88.5557 233.519 88.4745 233.787 88.3207C234.056 88.1668 234.28 87.9457 234.437 87.6789C234.556 87.4777 234.634 87.255 234.666 87.0235C234.699 86.792 234.685 86.5563 234.626 86.3302C234.568 86.1038 234.466 85.8911 234.325 85.7045C234.185 85.5178 234.009 85.361 233.808 85.243L209.924 71.1542C209.907 71.1445 209.893 71.1315 209.882 71.1159C209.871 71.1003 209.863 71.0826 209.86 71.0639L208.539 64.5202C208.534 64.4945 208.537 64.4679 208.546 64.4435C208.556 64.4192 208.572 64.3981 208.593 64.3828C208.615 64.3675 208.64 64.3587 208.666 64.3575C208.692 64.3562 208.718 64.3625 208.74 64.3756L232.67 78.3072C233.144 78.5829 233.737 78.6222 234.242 78.412C234.494 78.3064 234.718 78.1442 234.898 77.938C235.078 77.7317 235.208 77.4869 235.278 77.2224L239.805 60.0163C240.009 59.2425 239.668 58.4224 238.977 58.0218L203.08 37.227C203.064 37.2174 203.049 37.2043 203.038 37.1886C203.027 37.1729 203.019 37.1551 203.015 37.1362L201.044 27.3659C200.994 27.116 200.891 26.8798 200.741 26.6735C200.592 26.4671 200.4 26.2954 200.178 26.1699L188.821 19.7302C188.618 19.6145 188.394 19.5403 188.163 19.5118C187.932 19.4834 187.697 19.5012 187.472 19.5643C187.015 19.6914 186.635 19.9892 186.402 20.4029C186.168 20.8167 186.109 21.2966 186.236 21.7546C186.363 22.2125 186.66 22.5936 187.073 22.8276L197.671 28.8369C197.688 28.8465 197.703 28.8596 197.714 28.8754C197.726 28.8912 197.734 28.9092 197.738 28.9283L199.706 38.6873L199.707 38.6921ZM232.354 73.9862C232.33 73.9862 232.306 73.98 232.285 73.9679L227.01 70.8966C226.988 70.8834 226.969 70.8639 226.957 70.8404C226.945 70.8169 226.941 70.7904 226.943 70.7643L228.515 56.2922C228.518 56.2697 228.526 56.2482 228.539 56.2297C228.551 56.2111 228.569 56.196 228.589 56.1858C228.609 56.1756 228.631 56.1705 228.654 56.1711C228.676 56.1717 228.698 56.1778 228.718 56.1891L235.937 60.3712C235.963 60.3861 235.983 60.4091 235.994 60.4367C236.006 60.4643 236.008 60.4948 236 60.5237L232.485 73.885C232.477 73.914 232.46 73.9396 232.436 73.9579C232.413 73.9762 232.384 73.9862 232.354 73.9862ZM227.223 70.7058L232.268 73.6428L235.712 60.5547L228.763 56.5291L227.223 70.7058ZM223.463 68.8102C223.439 68.8102 223.415 68.8038 223.395 68.7918L215.314 64.087C215.295 64.0759 215.279 64.0604 215.267 64.0417C215.255 64.023 215.248 64.0018 215.246 63.9798L214.015 47.9174C214.013 47.8927 214.018 47.868 214.029 47.8459C214.04 47.8238 214.057 47.8052 214.078 47.792C214.098 47.7788 214.123 47.7715 214.147 47.771C214.172 47.7705 214.196 47.7768 214.218 47.7891L225.101 54.094C225.124 54.1072 225.142 54.1268 225.154 54.1503C225.166 54.1738 225.171 54.2003 225.168 54.2265L223.598 68.6888C223.594 68.7222 223.578 68.753 223.553 68.7754C223.529 68.7978 223.496 68.8102 223.463 68.8102ZM215.512 63.8876L223.351 68.4514L224.889 54.2853L214.305 48.154L215.512 63.8876ZM211.37 61.7695C211.346 61.7695 211.322 61.7632 211.302 61.7511L207.592 59.5913C207.575 59.5816 207.561 59.5686 207.55 59.5529C207.539 59.5373 207.531 59.5194 207.527 59.5006L204.026 42.1463C204.021 42.1206 204.023 42.094 204.033 42.0696C204.042 42.0452 204.059 42.0242 204.08 42.0089C204.101 41.9936 204.126 41.9848 204.152 41.9835C204.179 41.9822 204.204 41.9884 204.227 42.0015L210.207 45.4656C210.226 45.4767 210.242 45.4922 210.254 45.511C210.266 45.5297 210.273 45.5509 210.274 45.573L211.505 61.6231C211.509 61.6735 211.485 61.7219 211.442 61.7488C211.42 61.7623 211.395 61.7695 211.37 61.7695ZM207.781 59.3867L211.215 61.3858L210.009 45.6652L204.352 42.388L207.781 59.3867Z" fill="#022F2E"/>
</g>
<g clip-path="url(#clip4_548_5323)">
<path d="M163.291 170.575L117.488 144.067L137.755 132.416L183.575 158.806L163.291 170.575Z" fill="white"/>
<path d="M163.291 170.713C163.266 170.713 163.242 170.706 163.222 170.694L117.419 144.186C117.398 144.174 117.381 144.157 117.369 144.136C117.357 144.115 117.35 144.091 117.35 144.067C117.35 144.043 117.357 144.019 117.369 143.998C117.381 143.977 117.398 143.96 117.419 143.948L137.687 132.297C137.708 132.285 137.731 132.278 137.755 132.278C137.78 132.278 137.803 132.285 137.824 132.297L183.643 158.687C183.664 158.699 183.681 158.716 183.693 158.737C183.706 158.758 183.712 158.782 183.712 158.806C183.712 158.83 183.706 158.854 183.694 158.874C183.682 158.895 183.664 158.913 183.644 158.925L163.36 170.694C163.338 170.707 163.314 170.713 163.291 170.713ZM117.763 144.067L163.29 170.416L183.3 158.806L137.755 132.575L117.763 144.067Z" fill="#022F2E"/>
<path d="M127.616 89.4336L119.013 125.877L117.488 144.064L137.755 132.416V114.32L127.616 89.4336Z" fill="white"/>
<path d="M117.488 144.202C117.469 144.202 117.45 144.198 117.433 144.191C117.415 144.183 117.399 144.172 117.387 144.158C117.374 144.144 117.364 144.127 117.358 144.109C117.351 144.091 117.349 144.072 117.351 144.053L118.876 125.866C118.876 125.859 118.877 125.852 118.879 125.846L127.482 89.4021C127.488 89.3736 127.504 89.3481 127.526 89.3291C127.548 89.31 127.576 89.2986 127.605 89.2963C127.634 89.294 127.663 89.3011 127.688 89.3164C127.713 89.3318 127.732 89.3546 127.743 89.3817L137.883 114.268C137.89 114.284 137.893 114.302 137.893 114.319V132.416C137.893 132.44 137.887 132.464 137.875 132.485C137.862 132.506 137.845 132.523 137.824 132.535L117.557 144.184C117.536 144.196 117.512 144.202 117.488 144.202ZM119.149 125.899L117.647 143.814L137.618 132.337V114.347L127.651 89.8846L119.149 125.899Z" fill="#022F2E"/>
<path d="M127.616 89.4336C127.616 89.4336 119.598 108.314 117.488 114.518C114.599 123.011 112.408 132.416 113.733 138.243C114.502 141.622 117.488 144.067 117.488 144.067L163.288 170.575L165.123 152.148L173.418 115.827L127.616 89.4336Z" fill="#FF5823"/>
<path d="M163.287 170.713C163.263 170.713 163.239 170.706 163.218 170.694L117.419 144.186C117.412 144.182 117.406 144.178 117.401 144.173C117.37 144.149 114.369 141.659 113.599 138.273C112.163 131.959 114.85 121.845 117.357 114.473C119.445 108.336 127.409 89.5686 127.489 89.3797C127.497 89.3618 127.508 89.3457 127.522 89.3325C127.537 89.3193 127.554 89.3092 127.572 89.303C127.591 89.2969 127.61 89.2947 127.629 89.2966C127.649 89.2985 127.668 89.3045 127.685 89.3142L173.487 115.708C173.513 115.723 173.533 115.745 173.545 115.772C173.556 115.799 173.559 115.829 173.553 115.858L165.259 152.17L163.425 170.589C163.421 170.623 163.405 170.654 163.38 170.677C163.355 170.7 163.322 170.713 163.287 170.713ZM117.567 143.954L163.172 170.349L164.986 152.134C164.987 152.128 164.988 152.123 164.989 152.117L173.261 115.896L127.682 89.6304C126.936 91.3892 119.606 108.718 117.618 114.562C115.122 121.9 112.446 131.961 113.868 138.212C114.597 141.421 117.394 143.809 117.567 143.954Z" fill="#022F2E"/>
<path d="M180.943 133.773L176.043 120.063L176.019 119.997C175.296 117.986 175.336 116.02 175.544 113.893C175.679 112.518 176.174 111.262 175.544 110.84C174.833 110.365 172.362 115.2 171.333 116.749C170.476 118.04 169.674 120.374 170.446 120.818C170.976 121.122 171.438 120.936 171.835 120.519L165.439 144.443C164.013 149.778 163.29 155.275 163.29 160.797V170.576L183.574 158.806C183.575 158.806 187.819 151.496 180.943 133.773Z" fill="#FF5823"/>
<path d="M163.29 170.713C163.254 170.713 163.219 170.698 163.193 170.673C163.167 170.647 163.153 170.612 163.153 170.575V160.797C163.153 155.265 163.877 149.751 165.306 144.408L171.588 120.908C171.196 121.164 170.79 121.174 170.377 120.937C170.207 120.839 170.092 120.669 170.036 120.432C169.83 119.558 170.481 117.783 171.218 116.673C171.486 116.27 171.846 115.654 172.263 114.939C173.619 112.616 174.707 110.827 175.342 110.681C175.445 110.657 175.541 110.673 175.621 110.726C176.149 111.079 176.008 111.878 175.845 112.804C175.783 113.159 175.718 113.526 175.681 113.906C175.462 116.144 175.457 118.028 176.149 119.95L176.173 120.016L181.072 133.725C184.632 142.902 185.159 149.241 184.975 152.942C184.774 156.972 183.738 158.799 183.694 158.875C183.682 158.896 183.664 158.913 183.644 158.925L163.36 170.694C163.339 170.707 163.315 170.713 163.29 170.713ZM171.835 120.381C171.856 120.381 171.876 120.386 171.895 120.395C171.914 120.405 171.931 120.418 171.944 120.435C171.956 120.452 171.965 120.471 171.969 120.492C171.974 120.512 171.973 120.534 171.967 120.554L165.572 144.479C164.149 149.801 163.428 155.287 163.428 160.797V170.336L183.472 158.707C183.607 158.451 184.521 156.596 184.701 152.9C184.88 149.228 184.351 142.938 180.815 133.823L180.814 133.819L175.889 120.043C175.181 118.072 175.184 116.154 175.407 113.879C175.445 113.489 175.511 113.116 175.574 112.756C175.726 111.891 175.846 111.208 175.467 110.954C175.461 110.95 175.445 110.939 175.404 110.949C174.834 111.08 173.43 113.486 172.5 115.078C172.081 115.796 171.719 116.416 171.448 116.825C170.757 117.865 170.117 119.576 170.304 120.368C170.342 120.529 170.413 120.64 170.514 120.698C170.932 120.938 171.331 120.848 171.735 120.424C171.761 120.396 171.798 120.381 171.835 120.381Z" fill="#022F2E"/>
<path d="M174.346 114.569C174.08 116.738 171.987 120.36 171.223 120.818C171.076 120.906 171.093 121.138 171.026 121.3C168.246 128.11 164.446 137.66 163.32 140.971C160.431 149.464 158.24 158.869 159.565 164.696C160.334 168.075 163.32 170.52 163.32 170.52" fill="#FF5823"/>
<path d="M163.32 170.658C163.288 170.658 163.257 170.647 163.232 170.627C163.202 170.602 160.201 168.113 159.431 164.727C158.638 161.241 158.647 154.283 163.189 140.927C164.252 137.803 167.872 128.662 170.899 121.248C170.916 121.206 170.927 121.151 170.939 121.094C170.968 120.958 171.003 120.789 171.153 120.699C171.874 120.268 173.943 116.725 174.21 114.553C174.212 114.534 174.217 114.517 174.226 114.501C174.235 114.485 174.247 114.471 174.261 114.46C174.276 114.449 174.292 114.441 174.31 114.436C174.327 114.431 174.345 114.429 174.363 114.432C174.381 114.434 174.399 114.44 174.415 114.449C174.43 114.458 174.444 114.47 174.455 114.484C174.467 114.498 174.475 114.515 174.479 114.532C174.484 114.55 174.485 114.568 174.483 114.586C174.218 116.743 172.154 120.421 171.294 120.935C171.248 120.963 171.229 121.054 171.209 121.15C171.195 121.217 171.181 121.286 171.154 121.352C168.129 128.763 164.511 137.896 163.45 141.015C158.928 154.311 158.915 161.215 159.699 164.665C160.449 167.961 163.378 170.39 163.407 170.414C163.429 170.432 163.445 170.456 163.452 170.484C163.46 170.511 163.459 170.54 163.449 170.567C163.44 170.594 163.422 170.617 163.399 170.633C163.376 170.649 163.348 170.658 163.32 170.658Z" fill="#022F2E"/>
<path d="M170.446 120.817C169.673 120.374 170.476 118.039 171.333 116.749C172.362 115.2 174.866 110.319 175.544 110.84L129.607 84.359C129.602 84.3558 129.597 84.3514 129.592 84.3484C129.586 84.3452 129.58 84.3435 129.575 84.3406L129.543 84.3223L129.542 84.3252C127.296 84.6786 127.443 88.2496 126.182 89.0922C124.113 90.4739 123.839 94.1966 124.987 94.7474C125.054 94.7796 170.446 120.817 170.446 120.817Z" fill="#FF5823"/>
<path d="M170.446 120.955C170.422 120.955 170.398 120.949 170.377 120.937L170.375 120.935C169.805 120.608 125.176 95.0087 124.921 94.8685C124.512 94.6726 124.243 94.1105 124.187 93.3295C124.084 91.8727 124.709 89.9101 126.105 88.9778C126.575 88.664 126.848 87.9001 127.138 87.0915C127.585 85.8415 128.093 84.4252 129.502 84.192L129.504 84.1915C129.54 84.181 129.579 84.1842 129.612 84.2029L129.643 84.2212C129.65 84.223 129.656 84.2259 129.661 84.2296C129.666 84.2323 129.678 84.2409 129.682 84.2442L175.562 110.691C175.585 110.702 175.607 110.715 175.628 110.731C175.655 110.752 175.674 110.783 175.68 110.817C175.685 110.852 175.678 110.887 175.658 110.916C175.639 110.945 175.609 110.966 175.575 110.974C175.541 110.982 175.505 110.976 175.475 110.959L175.442 110.94C175.43 110.938 175.418 110.938 175.406 110.941C174.856 111.049 173.44 113.471 172.504 115.073C172.082 115.794 171.719 116.416 171.447 116.825C170.756 117.865 170.117 119.576 170.304 120.368C170.342 120.529 170.413 120.64 170.514 120.698C170.54 120.713 170.561 120.736 170.573 120.764C170.584 120.792 170.587 120.823 170.579 120.853C170.571 120.882 170.554 120.908 170.53 120.926C170.506 120.945 170.476 120.955 170.446 120.955ZM129.522 84.4679C128.291 84.6875 127.837 85.9565 127.397 87.1842C127.092 88.0369 126.803 88.8424 126.258 89.2066C124.95 90.0806 124.364 91.9324 124.462 93.31C124.511 93.9897 124.723 94.4684 125.046 94.6233C125.113 94.6554 161.466 115.507 170.034 120.422C169.835 119.546 170.484 117.779 171.218 116.673C171.485 116.271 171.847 115.651 172.266 114.935C173.489 112.842 174.495 111.181 175.139 110.765L129.538 84.4782C129.533 84.475 129.527 84.4715 129.522 84.4679Z" fill="#022F2E"/>
<path d="M146.384 122.852C146.384 122.852 152.344 102.483 153.119 101.142C153.894 99.8007 155.147 99.0742 155.919 99.5193L145.389 93.4453C144.618 93.0004 143.365 93.7267 142.59 95.0677C141.815 96.4087 135.789 116.749 135.789 116.749L146.384 122.852Z" fill="white"/>
<path d="M146.384 122.989C146.36 122.989 146.336 122.983 146.315 122.971L135.72 116.868C135.693 116.853 135.673 116.829 135.661 116.8C135.65 116.771 135.648 116.739 135.657 116.71C135.903 115.879 141.696 96.3381 142.47 94.9984C143.296 93.57 144.608 92.8351 145.458 93.3257L155.988 99.3997C156.019 99.4181 156.042 99.4481 156.051 99.4832C156.06 99.5183 156.055 99.5557 156.037 99.5872C156.019 99.6186 155.989 99.6416 155.954 99.6512C155.919 99.6607 155.881 99.6559 155.85 99.638C155.145 99.2317 153.974 99.9368 153.238 101.21C152.48 102.522 146.576 122.687 146.516 122.89C146.508 122.919 146.491 122.944 146.467 122.962C146.443 122.98 146.414 122.989 146.384 122.989ZM135.952 116.684L146.301 122.645C146.914 120.554 152.254 102.363 153 101.072C153.597 100.038 154.451 99.3673 155.199 99.2622L145.321 93.5638C144.616 93.1575 143.445 93.8627 142.709 95.1358C141.979 96.3988 136.419 115.109 135.952 116.684Z" fill="#022F2E"/>
<path d="M148.459 110.912C148.425 110.912 148.393 110.9 148.367 110.877C148.342 110.855 148.326 110.824 148.322 110.79C148.145 109.194 147.045 107.905 145.306 107.254C143.731 106.665 141.918 106.734 141.18 107.412C141.153 107.437 141.117 107.45 141.081 107.448C141.044 107.446 141.01 107.431 140.985 107.404C140.961 107.377 140.948 107.341 140.949 107.305C140.951 107.268 140.967 107.234 140.994 107.209C141.815 106.455 143.711 106.363 145.403 106.997C147.243 107.685 148.407 109.057 148.596 110.76C148.598 110.779 148.596 110.798 148.59 110.817C148.585 110.835 148.575 110.852 148.562 110.867C148.549 110.881 148.533 110.893 148.515 110.9C148.498 110.908 148.479 110.912 148.459 110.912Z" fill="white"/>
</g>
<g clip-path="url(#clip5_548_5323)">
<path d="M263.561 100.438C270.224 111.388 270.809 122.267 264.868 126.798C264.083 127.396 260.401 129.527 260.401 129.527L249.408 111.158L263.561 100.438Z" fill="#022F2E"/>
<path d="M260.402 129.664C260.378 129.664 260.355 129.658 260.334 129.646C260.314 129.634 260.297 129.618 260.285 129.597L249.291 111.228C249.274 111.199 249.268 111.165 249.274 111.132C249.281 111.1 249.299 111.07 249.326 111.05L263.479 100.331C263.494 100.319 263.512 100.311 263.53 100.306C263.549 100.302 263.568 100.302 263.587 100.305C263.605 100.309 263.623 100.316 263.639 100.327C263.655 100.338 263.668 100.352 263.678 100.368C270.41 111.431 270.933 122.344 264.95 126.906C264.168 127.503 260.621 129.558 260.47 129.645C260.449 129.657 260.426 129.664 260.402 129.664ZM249.588 111.193L260.449 129.343C261.082 128.975 264.094 127.217 264.785 126.69C270.63 122.233 270.107 111.535 263.523 100.638L249.588 111.193Z" fill="#022F2E"/>
<path d="M249.408 111.158L236.679 89.8883C236.679 89.8883 239.99 87.8882 240.661 87.4818C247.252 83.4879 256.898 89.4891 263.561 100.439L249.408 111.158Z" fill="#8EAAA4"/>
<path d="M249.408 111.293C249.384 111.293 249.361 111.287 249.341 111.276C249.32 111.264 249.303 111.247 249.291 111.227L236.562 89.9573C236.543 89.9265 236.538 89.8896 236.547 89.8548C236.555 89.82 236.577 89.7899 236.608 89.7713C236.608 89.7713 239.919 87.7714 240.59 87.365C243.77 85.4376 247.877 85.7478 252.153 88.2384C256.292 90.6498 260.385 94.9573 263.678 100.367C263.695 100.396 263.701 100.43 263.695 100.463C263.689 100.496 263.67 100.526 263.644 100.546L249.49 111.266C249.467 111.284 249.438 111.293 249.408 111.293ZM236.865 89.9339L249.447 110.957L263.381 100.404C256.514 89.183 247.001 83.7983 240.731 87.5973C240.136 87.9583 237.457 89.5765 236.865 89.9339Z" fill="#022F2E"/>
<path d="M259.37 102.968C266.033 113.917 266.618 124.797 260.676 129.327C254.549 133.999 243.892 127.779 237.229 116.829C230.566 105.88 229.879 94.005 236.47 90.0111C243.061 86.0172 252.707 92.0185 259.37 102.968Z" fill="white"/>
<path d="M255.83 131.03C255.19 131.03 254.528 130.966 253.848 130.839C251.064 130.315 248.035 128.746 245.087 126.301C242.112 123.834 239.354 120.583 237.113 116.899C233.836 111.515 231.929 105.804 231.743 100.816C231.552 95.7082 233.205 91.8294 236.399 89.8943C239.579 87.9669 243.686 88.2771 247.961 90.7677C252.101 93.1791 256.194 97.4866 259.486 102.897C266.219 113.96 266.742 124.873 260.759 129.435C259.374 130.491 257.695 131.03 255.83 131.03ZM240.982 88.9165C239.39 88.9165 237.89 89.3087 236.54 90.1268C233.435 92.0083 231.828 95.801 232.015 100.806C232.2 105.748 234.093 111.413 237.346 116.758C239.572 120.416 242.309 123.644 245.261 126.092C248.174 128.508 251.16 130.056 253.898 130.571C256.517 131.064 258.77 130.609 260.594 129.219C266.462 124.744 265.911 113.978 259.254 103.038C253.857 94.1695 246.806 88.9165 240.982 88.9165Z" fill="#022F2E"/>
<path d="M256.357 104.221C255.63 103.76 254.666 103.974 254.204 104.699L248.171 114.162L243.065 104.875C242.531 103.902 241.287 103.576 240.343 104.163C240.099 104.314 239.922 104.553 239.848 104.829C239.774 105.106 239.809 105.401 239.944 105.653L247.37 119.484C247.744 120.18 248.73 120.216 249.154 119.551L257.023 107.209C257.666 106.2 257.368 104.863 256.357 104.221Z" fill="#FF5823"/>
<path d="M248.283 120.165C248.071 120.166 247.862 120.11 247.68 120.001C247.498 119.892 247.349 119.736 247.25 119.549L239.824 105.718C239.51 105.133 239.706 104.399 240.271 104.048C240.51 103.898 240.777 103.799 241.056 103.756C241.335 103.714 241.62 103.73 241.892 103.803C242.165 103.873 242.421 103.999 242.643 104.172C242.866 104.346 243.05 104.563 243.184 104.81L248.179 113.895L254.089 104.626C254.591 103.839 255.641 103.606 256.43 104.107C256.95 104.437 257.309 104.948 257.443 105.548C257.577 106.148 257.468 106.764 257.138 107.282L249.269 119.624C249.165 119.79 249.019 119.927 248.847 120.022C248.674 120.116 248.48 120.166 248.283 120.165ZM241.362 104.006C241.03 104.006 240.705 104.098 240.415 104.278C239.971 104.554 239.817 105.13 240.064 105.59L247.49 119.42C247.563 119.559 247.672 119.675 247.805 119.758C247.938 119.841 248.091 119.887 248.248 119.892C248.405 119.899 248.561 119.864 248.699 119.791C248.838 119.718 248.956 119.61 249.039 119.478L256.908 107.136C257.199 106.679 257.295 106.136 257.177 105.607C257.059 105.078 256.742 104.627 256.284 104.336C255.622 103.916 254.74 104.111 254.319 104.772L248.286 114.235C248.273 114.255 248.255 114.272 248.234 114.283C248.213 114.294 248.19 114.299 248.166 114.298C248.142 114.298 248.119 114.291 248.099 114.278C248.079 114.266 248.062 114.249 248.051 114.228L242.945 104.941C242.829 104.726 242.669 104.537 242.476 104.386C242.283 104.236 242.06 104.127 241.823 104.066C241.672 104.026 241.517 104.006 241.362 104.006Z" fill="#022F2E"/>
</g>
<g clip-path="url(#clip6_548_5323)">
<path d="M150.499 92.4783C150.015 91.721 149.007 91.4969 148.246 91.9781C143.969 94.6812 142.358 99.243 141.864 101.079C140.793 105.055 141.488 108.774 143.634 110.553C143.926 110.797 144.296 110.93 144.677 110.93C145.145 110.93 145.609 110.73 145.932 110.345C146.509 109.656 146.415 108.632 145.723 108.058C144.788 107.283 144.223 104.868 145.017 101.919C145.84 98.8614 147.701 96.1701 149.996 94.7197C150.757 94.239 150.982 93.2354 150.499 92.4783Z" fill="#8EAAA4"/>
<path d="M144.677 111.065C144.265 111.065 143.864 110.92 143.547 110.657C141.361 108.844 140.649 105.071 141.733 101.043C142.231 99.1924 143.856 94.5925 148.173 91.8639C148.572 91.6118 149.045 91.5294 149.506 91.6317C149.967 91.734 150.36 92.009 150.613 92.4057C151.136 93.2246 150.892 94.3138 150.069 94.8338C147.802 96.2665 145.962 98.9282 145.148 101.954C144.369 104.849 144.908 107.206 145.81 107.954C146.559 108.575 146.66 109.686 146.036 110.431C145.871 110.63 145.663 110.789 145.428 110.899C145.193 111.008 144.937 111.065 144.677 111.065ZM149.118 91.8593C148.837 91.8593 148.562 91.9385 148.319 92.0921C144.082 94.7697 142.485 99.293 141.995 101.113C140.938 105.039 141.616 108.704 143.721 110.449C143.989 110.672 144.328 110.794 144.677 110.794C145.123 110.794 145.542 110.599 145.828 110.258C146.356 109.628 146.27 108.687 145.636 108.162C144.34 107.087 144.282 104.125 144.886 101.884C145.717 98.7945 147.6 96.0737 149.923 94.6056C150.619 94.1655 150.826 93.2436 150.384 92.5506C150.279 92.3852 150.142 92.2421 149.981 92.1296C149.821 92.0172 149.639 91.9376 149.447 91.8955C149.339 91.8716 149.229 91.8594 149.118 91.8593Z" fill="#022F2E"/>
<path d="M154.687 86.639L142.788 86.5029C142.788 86.5029 142.714 91.3851 142.714 92.0493C142.714 93.5528 143.522 95.5397 146.357 96.643C148.15 97.3405 150.692 97.937 154.472 97.3302L154.687 86.639Z" fill="white"/>
<path d="M151.459 97.7186C149.094 97.7186 147.443 97.2111 146.308 96.7694C142.941 95.4592 142.578 93.0323 142.578 92.0497C142.578 91.3921 142.652 86.5501 142.652 86.5013C142.653 86.4658 142.668 86.4319 142.693 86.407C142.718 86.3821 142.753 86.3682 142.788 86.3682H142.79L154.689 86.5043C154.707 86.5045 154.725 86.5083 154.741 86.5154C154.758 86.5224 154.772 86.5327 154.785 86.5455C154.797 86.5583 154.807 86.5734 154.814 86.59C154.82 86.6066 154.824 86.6243 154.823 86.6422L154.608 97.3333C154.607 97.365 154.595 97.3954 154.575 97.4193C154.554 97.4432 154.525 97.459 154.494 97.464C153.371 97.6444 152.363 97.7186 151.459 97.7186ZM142.922 86.6401C142.91 87.432 142.849 91.456 142.849 92.0497C142.849 92.9769 143.196 95.2682 146.407 96.5176C149.559 97.744 152.424 97.5142 154.338 97.2149L154.549 86.773L142.922 86.6401Z" fill="#022F2E"/>
<path d="M154.472 97.33C157.906 96.7216 160.296 94.9196 160.296 92.9828V86.8225L154.687 86.6387L154.472 97.33Z" fill="#022F2E"/>
<path d="M154.472 97.4655C154.454 97.4654 154.436 97.4618 154.419 97.4548C154.403 97.4479 154.388 97.4377 154.375 97.4248C154.362 97.412 154.352 97.3968 154.346 97.3801C154.339 97.3634 154.336 97.3456 154.336 97.3276L154.552 86.6364C154.552 86.6185 154.556 86.6009 154.563 86.5846C154.57 86.5682 154.581 86.5534 154.594 86.5411C154.607 86.5288 154.622 86.5192 154.639 86.5128C154.656 86.5064 154.674 86.5034 154.692 86.504L160.301 86.6878C160.336 86.689 160.369 86.7037 160.394 86.7289C160.418 86.7542 160.432 86.7879 160.432 86.823V92.9832C160.432 95.002 157.991 96.8442 154.496 97.4635C154.488 97.4648 154.48 97.4655 154.472 97.4655ZM154.82 86.7788L154.611 97.1673C157.887 96.5451 160.16 94.838 160.16 92.9832V86.9538L154.82 86.7788Z" fill="#022F2E"/>
<path d="M160.295 86.7062C160.295 88.5432 157.811 91.5643 151.541 91.5616C146.826 91.5602 142.779 89.2082 142.779 86.7549C142.779 85.5802 143.348 84.0257 144.629 82.724C145.006 82.3415 145.442 81.9819 145.944 81.6589L146.355 83.4823C146.694 85.7505 151.264 86.3412 153.596 85.8222C157.114 85.0382 156.906 82.7511 156.906 82.7511L156.594 81.375C159.125 82.7686 160.295 85.0909 160.295 86.7062Z" fill="white"/>
<path d="M151.549 91.697H151.541C146.884 91.6956 142.644 89.3401 142.644 86.7551C142.644 85.3738 143.35 83.8316 144.532 82.6296C144.937 82.22 145.386 81.8564 145.871 81.5454C145.889 81.5336 145.91 81.5264 145.932 81.5244C145.954 81.5224 145.976 81.5257 145.996 81.5339C146.016 81.5422 146.034 81.5552 146.048 81.5718C146.062 81.5884 146.072 81.6082 146.077 81.6295L146.487 83.453C146.566 83.9782 146.886 84.4313 147.439 84.8093C148.922 85.822 151.805 86.0825 153.566 85.6905C154.967 85.3784 155.965 84.768 156.453 83.9253C156.791 83.3405 156.775 82.8383 156.772 82.771L156.462 81.405C156.456 81.3796 156.458 81.3531 156.467 81.3287C156.476 81.3042 156.492 81.2829 156.513 81.2673C156.534 81.2517 156.559 81.2424 156.585 81.2406C156.611 81.2387 156.637 81.2444 156.66 81.2569C157.844 81.909 158.829 82.8179 159.509 83.8854C160.104 84.8202 160.431 85.8221 160.431 86.7064C160.431 88.0099 159.355 89.2286 158.348 89.9345C157.2 90.7386 155.089 91.697 151.549 91.697ZM145.855 81.8804C145.449 82.1555 145.071 82.4698 144.727 82.8189C143.391 84.176 142.915 85.7421 142.915 86.7551C142.915 88.9591 146.604 91.4251 151.541 91.4266H151.549C155.018 91.4266 157.076 90.4952 158.191 89.7135C159.643 88.6964 160.16 87.4933 160.16 86.7064C160.16 85.2152 159.104 83.0331 156.795 81.6469L157.039 82.7214C157.04 82.7272 157.041 82.7332 157.042 82.739C157.044 82.763 157.219 85.1536 153.626 85.9542C151.808 86.3586 148.827 86.0846 147.286 85.032C146.668 84.6099 146.309 84.0952 146.22 83.5023L145.855 81.8804Z" fill="#022F2E"/>
</g>
</g>
<defs>
<clipPath id="clip0_548_5323">
<rect width="270" height="239" fill="white"/>
</clipPath>
<clipPath id="clip1_548_5323">
<rect width="160.384" height="183.424" fill="white" transform="translate(0.176025 48.0879)"/>
</clipPath>
<clipPath id="clip2_548_5323">
<rect width="138.24" height="113.664" fill="white" transform="translate(121.648 125.272)"/>
</clipPath>
<clipPath id="clip3_548_5323">
<rect width="92.288" height="114.816" fill="white" transform="translate(174.896 0.34375)"/>
</clipPath>
<clipPath id="clip4_548_5323">
<rect width="71.808" height="86.528" fill="white" transform="translate(113.2 84.1846)"/>
</clipPath>
<clipPath id="clip5_548_5323">
<rect width="37.376" height="44.928" fill="white" transform="translate(231.728 86.1045)"/>
</clipPath>
<clipPath id="clip6_548_5323">
<rect width="19.2" height="29.824" fill="white" transform="translate(141.232 81.2402)"/>
</clipPath>
</defs>
</svg>
