<svg width="121" height="80" viewBox="0 0 121 80" fill="none" xmlns="http://www.w3.org/2000/svg">
<g clip-path="url(#clip0_817_21887)">
<path d="M66.4559 79.6877L102.288 58.951L53.2676 32.4258L17.4355 53.1722L66.4559 79.6877Z" fill="white"/>
<path d="M66.4562 80.0001C66.4049 80.0001 66.3539 79.9876 66.3073 79.9622L17.287 53.447C17.1875 53.3932 17.1246 53.2897 17.1231 53.1765C17.1215 53.0633 17.1813 52.9579 17.2791 52.9013L53.1112 32.1545C53.2053 32.0998 53.3207 32.0982 53.4168 32.1501L102.437 58.6753C102.537 58.7291 102.599 58.8327 102.601 58.9459C102.603 59.0591 102.543 59.1642 102.445 59.2211L66.6129 79.9582C66.5644 79.986 66.5103 80.0001 66.4562 80.0001ZM18.0761 53.1627L66.4512 79.3292L101.648 58.9599L53.2732 32.7841L18.0761 53.1627Z" fill="black"/>
<path d="M17.4355 53.1716L53.2676 32.4252V3.31055L17.4355 24.057V53.1716Z" fill="#B9C7C4"/>
<path d="M17.4358 53.4846C17.382 53.4846 17.3279 53.4709 17.2794 53.4427C17.1825 53.3871 17.123 53.2835 17.123 53.1719V24.0573C17.123 23.9456 17.1825 23.8424 17.2791 23.7867L53.1111 3.04027C53.2078 2.98397 53.327 2.98397 53.4239 3.04027C53.5209 3.09594 53.5803 3.19947 53.5803 3.31113V32.4258C53.5803 32.5374 53.5209 32.6406 53.4242 32.6963L17.5922 53.4431C17.5437 53.4712 17.4896 53.4853 17.4355 53.4853L17.4358 53.4846ZM17.7486 24.2377V52.6295L52.9551 32.245V3.85316L17.7486 24.2377Z" fill="black"/>
<path d="M102.288 29.8357V58.9504L53.2676 32.4252V3.31055L102.288 29.8357Z" fill="#B9C7C4"/>
<path d="M102.288 59.2631C102.237 59.2631 102.186 59.2505 102.139 59.2252L53.119 32.7C53.0179 32.6453 52.9551 32.5399 52.9551 32.4251V3.31077C52.9551 3.20036 53.0133 3.0984 53.1077 3.0421C53.2022 2.9858 53.3195 2.9833 53.4167 3.03553L102.437 29.5607C102.538 29.6155 102.601 29.7209 102.601 29.8357V58.95C102.601 59.0604 102.543 59.1623 102.448 59.2186C102.399 59.248 102.344 59.2627 102.288 59.2627V59.2631ZM53.5806 32.239L101.975 58.4254V30.0221L53.5806 3.8356V32.239Z" fill="black"/>
<path d="M66.4561 79.6875L102.288 58.9408V29.8262L66.4561 50.5729V79.6875Z" fill="#FF5823"/>
<path d="M66.4563 79.9996C66.4025 79.9996 66.3484 79.9858 66.2999 79.9577C66.203 79.902 66.1436 79.7985 66.1436 79.6868V50.5722C66.1436 50.4606 66.203 50.3573 66.2996 50.3017L102.132 29.5549C102.228 29.4986 102.347 29.4986 102.444 29.5549C102.541 29.6106 102.601 29.7141 102.601 29.8258V58.9404C102.601 59.0521 102.541 59.1553 102.445 59.211L66.6127 79.9577C66.5642 79.9858 66.5101 79.9999 66.456 79.9999L66.4563 79.9996ZM66.7691 50.7527V79.1445L101.976 58.7599V30.3681L66.7691 50.7527Z" fill="black"/>
<path d="M66.4559 50.5731V79.6877L17.4355 53.1625V24.0479L66.4559 50.5731Z" fill="#FF5823"/>
<path d="M66.4562 79.9997C66.4049 79.9997 66.3539 79.9872 66.3073 79.9618L17.2869 53.4367C17.1859 53.3819 17.123 53.2765 17.123 53.1617V24.0471C17.123 23.9367 17.1812 23.8347 17.2757 23.7784C17.3701 23.7221 17.4874 23.7196 17.5847 23.7719L66.605 50.2971C66.7061 50.3518 66.7689 50.4572 66.7689 50.572V79.6863C66.7689 79.7967 66.7108 79.8987 66.6163 79.955C66.5672 79.9844 66.5118 79.9991 66.4562 79.9991V79.9997ZM17.7486 52.9753L66.1434 79.1618V50.7584L17.7486 24.5719V52.9753Z" fill="black"/>
<path d="M53.2676 3.31041L102.288 29.8356L120.388 26.6563L71.5228 0.3125L53.2676 3.31041Z" fill="white"/>
<path d="M102.288 30.1486C102.237 30.1486 102.185 30.1358 102.139 30.1108L53.119 3.5856C53.0013 3.5218 52.9372 3.39043 52.9594 3.25875C52.9816 3.12708 53.0852 3.02386 53.2172 3.00197L71.4724 0.00405672C71.5406 -0.00689027 71.6106 0.00436949 71.6716 0.0372105L120.536 26.381C120.654 26.4442 120.718 26.5749 120.697 26.7063C120.676 26.8376 120.573 26.9412 120.442 26.9643L102.343 30.1436C102.325 30.1468 102.307 30.1483 102.288 30.1483L102.288 30.1486ZM54.2215 3.47113L102.342 29.5093L119.447 26.5045L71.4686 0.63867L54.2215 3.47113Z" fill="black"/>
<path d="M0.611328 40.8941L48.5401 66.1122L66.4559 50.5721L17.4356 24.0566L0.611328 40.8941Z" fill="white"/>
<path d="M48.5404 66.4256C48.4906 66.4256 48.4406 66.4137 48.3946 66.3896L0.465877 41.1718C0.377988 41.1255 0.31731 41.0404 0.302297 40.9422C0.287597 40.844 0.320125 40.7445 0.390186 40.6742L17.2145 23.8367C17.3124 23.7388 17.4631 23.7169 17.5845 23.7829L66.6048 50.2984C66.6952 50.3472 66.7555 50.4373 66.7671 50.5396C66.7784 50.6415 66.7387 50.7426 66.6611 50.8098L48.7449 66.3495C48.6868 66.3999 48.6136 66.4262 48.5401 66.4262L48.5404 66.4256ZM1.1327 40.8158L48.4966 65.7365L65.9098 50.6331L17.4922 24.4438L1.1327 40.8158Z" fill="black"/>
</g>
<defs>
<clipPath id="clip0_817_21887">
<rect width="120.402" height="80" fill="white" transform="translate(0.298828)"/>
</clipPath>
</defs>
</svg>
