<svg width="142" height="184" viewBox="0 0 142 184" fill="none" xmlns="http://www.w3.org/2000/svg">
<g clip-path="url(#clip0_549_6983)">
<path d="M123.192 66.4251C147.344 111.42 148.356 158.418 120.673 173.429C118.209 174.766 109.571 179.373 109.571 179.373C109.571 179.373 52.3532 157.853 30.3147 117.348C8.56871 77.3789 20.2998 17.4281 20.2998 17.4281C20.2998 17.4281 29.5249 12.4909 32.2911 10.986C57.6705 -2.82236 97.8617 19.2371 123.192 66.4251Z" fill="#8EAAA4"/>
<path d="M109.571 179.71C109.531 179.71 109.491 179.702 109.453 179.688C109.309 179.634 94.9225 174.177 78.0315 163.837C62.4317 154.287 41.4387 138.498 30.019 117.509C18.751 96.7983 16.6195 70.669 16.8156 52.3957C17.028 32.6101 19.9398 17.5135 19.9691 17.3631C19.9887 17.2637 20.0517 17.1784 20.141 17.1306C20.2334 17.0814 29.3968 12.1769 32.1303 10.6898C40.7349 6.00784 51.2634 5.31756 62.5779 8.69314C84.9501 15.3678 107.721 36.8899 123.489 66.2651C135.429 88.5095 141.9 111.561 141.708 131.174C141.51 151.421 134.097 166.533 120.834 173.726C118.397 175.047 109.817 179.624 109.73 179.67C109.681 179.696 109.626 179.71 109.571 179.71ZM20.6011 17.6493C20.292 19.3022 17.6886 33.7682 17.4894 52.4163C17.2953 70.6053 19.4143 96.6069 30.6109 117.186C41.9594 138.044 62.8537 153.755 78.3834 163.262C94.3246 173.021 108.015 178.411 109.548 179.003C110.659 178.41 118.247 174.362 120.513 173.133C127.186 169.515 132.341 163.938 135.837 156.56C139.189 149.484 140.938 140.941 141.033 131.168C141.224 111.667 134.782 88.7306 122.895 66.5846C107.209 37.3642 84.5888 15.964 62.3848 9.33961C51.2462 6.01627 40.8957 6.68835 32.4518 11.2824C29.9041 12.6687 21.7784 17.019 20.6011 17.6493Z" fill="#1C3333"/>
<path d="M110.445 73.6556C134.598 118.65 136.364 164.868 108.682 179.88C83.2837 193.654 42.7299 168.655 18.3239 123.798C-6.08206 78.9409 -5.08 31.2456 20.2997 17.4369C45.6794 3.62818 85.1153 26.4679 110.445 73.6556Z" fill="white"/>
<path d="M93.1379 184C68.5823 184 37.9068 160.496 18.0278 123.959C6.20868 102.236 -0.0850984 79.155 0.305208 58.9672C0.696189 38.7407 7.73991 23.8865 20.1387 17.1404C28.5344 12.5726 38.7525 11.8827 49.6878 15.145C71.8551 21.7586 94.6793 43.5717 110.742 73.4959C122.733 95.8357 129.338 118.748 129.338 138.011C129.339 147.79 127.656 156.339 124.338 163.419C120.854 170.852 115.641 176.489 108.843 180.176C104.064 182.767 98.7616 184 93.1379 184ZM36.5448 13.7948C30.7104 13.7948 25.2771 15.112 20.461 17.7326C8.28392 24.3577 1.36524 39.0066 0.978976 58.9804C0.591029 79.0532 6.85582 102.015 18.6196 123.637C42.8739 168.215 83.204 193.313 108.521 179.584C115.19 175.967 120.306 170.433 123.727 163.134C127.004 156.143 128.665 147.691 128.664 138.011C128.664 118.857 122.088 96.0585 110.148 73.8151C94.1679 44.0456 71.4941 22.3546 49.4947 15.7915C45.0287 14.4588 40.6855 13.7948 36.5448 13.7948Z" fill="#1C3333"/>
<path d="M102.96 77.8591C123.842 116.746 125.878 156.417 102.73 168.968C81.4924 180.484 47.0264 158.559 25.9313 119.787C4.83623 81.015 5.11699 40.1093 26.3385 28.5632C47.56 17.0171 81.0586 37.0771 102.96 77.8591Z" fill="white"/>
<path d="M90.1234 172.369C69.3421 172.37 42.9485 151.769 25.6351 119.948C4.48103 81.0677 4.72439 39.9399 26.1774 28.2675C33.0176 24.5457 41.3795 23.995 50.3596 26.6729C69.3677 32.3418 89.1422 51.4176 103.257 77.7003C113.628 97.0124 119.465 116.753 119.693 133.285C119.809 141.682 118.491 149.002 115.775 155.044C112.923 161.391 108.588 166.176 102.891 169.265C99.0138 171.367 94.7039 172.369 90.1234 172.369ZM39.5342 25.6776C34.7949 25.6776 30.392 26.742 26.4997 28.8597C5.37288 40.3545 5.25086 81.0721 26.2277 119.626C47.1795 158.135 81.4264 180.136 102.57 168.672C108.134 165.655 112.37 160.977 115.161 154.768C117.836 148.816 119.134 141.592 119.02 133.295C118.793 116.868 112.984 97.2382 102.663 78.0195C88.6316 51.8911 69.0067 32.938 50.1672 27.319C46.4933 26.2232 42.9273 25.6776 39.5342 25.6776Z" fill="#1C3333"/>
<path d="M129.46 79.3115C147.276 120.084 145.717 159.848 120.672 173.429C118.208 174.765 109.573 179.374 109.573 179.374C109.573 179.374 109.573 179.374 109.57 179.371C133.713 165.373 134.451 126.786 116.808 86.6808L129.46 79.3115Z" fill="#1C3333"/>
<path d="M109.573 179.71C109.485 179.71 109.399 179.676 109.334 179.612C109.26 179.537 109.224 179.432 109.237 179.328C109.251 179.225 109.311 179.132 109.401 179.079C120.872 172.429 127.484 159.882 128.522 142.796C129.508 126.563 125.238 106.682 116.499 86.8163C116.43 86.6593 116.489 86.4756 116.637 86.3893L129.29 79.0203C129.373 78.9721 129.473 78.9613 129.564 78.9913C129.656 79.0213 129.73 79.0887 129.769 79.1767C138.614 99.4208 142.772 119.812 141.475 136.593C140.106 154.305 132.968 167.145 120.833 173.726C118.396 175.047 109.818 179.625 109.731 179.671C109.681 179.698 109.626 179.71 109.573 179.71ZM117.236 86.8204C126.063 106.973 130.197 126.337 129.195 142.836C128.294 157.668 123.232 169.136 114.467 176.376C116.823 175.116 119.357 173.758 120.511 173.132C132.435 166.666 139.452 154.013 140.802 136.541C142.083 119.963 138 99.8235 129.302 79.7928L117.236 86.8204Z" fill="#1C3333"/>
<path d="M46.4143 26.0303C52.4132 27.1672 61.5567 30.8582 70.3747 37.7584C92.0013 54.6814 116.045 88.2084 119.302 131.298L60.8381 102.317L46.4143 26.0303Z" fill="#FF5823"/>
<path d="M119.302 131.634C119.251 131.634 119.2 131.623 119.153 131.599L60.6886 102.619C60.5939 102.572 60.5268 102.483 60.5069 102.38L46.0834 26.0929C46.0629 25.9833 46.0976 25.8708 46.1765 25.7919C46.2553 25.713 46.3679 25.6786 46.4775 25.6992C49.274 26.229 59.2767 28.646 70.5828 37.493C92.1464 54.3669 116.357 87.8635 119.639 131.272C119.648 131.393 119.592 131.509 119.491 131.577C119.434 131.615 119.368 131.634 119.302 131.634ZM61.1386 102.089L118.921 130.732C115.482 87.8298 91.5195 54.7322 70.1675 38.0239C59.5622 29.725 50.1399 27.1495 46.8388 26.4589L61.1386 102.089Z" fill="#1C3333"/>
<path d="M66.506 99.1191C68.5985 103.234 68.2435 107.376 66.0611 108.722C65.869 108.841 64.8757 109.325 64.8757 109.325C64.8757 109.325 59.951 107.186 58.0386 103.425C56.1953 99.8 57.1066 94.5318 57.1066 94.5318C57.1066 94.5318 58.1943 93.9389 58.4835 93.821C61.0427 92.7778 64.4133 95.004 66.506 99.1191Z" fill="#1C3333"/>
<path d="M64.8756 109.662C64.8301 109.662 64.7843 109.653 64.7415 109.634C64.5359 109.544 59.6833 107.402 57.7382 103.577C55.8659 99.8949 56.7365 94.6935 56.7746 94.4741C56.7921 94.3726 56.8551 94.2846 56.9455 94.2354C57.0584 94.1737 58.0581 93.6301 58.3564 93.5084C61.0801 92.3985 64.6336 94.6928 66.8063 98.9653C68.9098 103.102 68.6601 107.513 66.238 109.008C66.0374 109.132 65.1267 109.577 65.0233 109.627C64.9767 109.651 64.9262 109.662 64.8756 109.662ZM57.4143 94.7481C57.2849 95.6456 56.7446 100.136 58.3392 103.271C59.9985 106.534 64.0667 108.573 64.8709 108.952C65.2511 108.765 65.7698 108.506 65.8841 108.435C67.9745 107.145 68.1188 103.034 66.2056 99.2713C64.1958 95.3194 61.0022 93.1595 58.6108 94.133C58.4177 94.2115 57.7766 94.5526 57.4143 94.7481Z" fill="#1C3333"/>
<path d="M64.8796 109.327C67.2178 108.138 67.4169 103.838 65.3243 99.7231C63.2317 95.6082 59.6399 93.2362 57.3017 94.4252C54.9636 95.6142 54.7645 99.914 56.8571 104.029C58.9496 108.144 62.5414 110.516 64.8796 109.327Z" fill="#8EAAA4"/>
<path d="M63.5461 109.971C62.6266 109.971 61.6154 109.626 60.5867 108.946C59.0235 107.914 57.591 106.221 56.5529 104.18C55.5148 102.139 54.991 99.984 55.0776 98.113C55.1676 96.1729 55.9017 94.756 57.1454 94.1236C58.3888 93.4917 59.9666 93.7323 61.5871 94.8028C63.1504 95.8349 64.5828 97.5275 65.621 99.5691C66.6591 101.61 67.1829 103.765 67.0962 105.636C67.0062 107.576 66.2718 108.993 65.0284 109.625C64.5741 109.856 64.0752 109.971 63.5461 109.971ZM58.6295 94.4526C58.2044 94.4526 57.8081 94.5426 57.4508 94.7243C56.4326 95.242 55.8289 96.4564 55.7507 98.144C55.6695 99.9004 56.1676 101.936 57.1535 103.875C58.1394 105.813 59.4906 107.415 60.9578 108.384C62.3674 109.315 63.7048 109.542 64.7227 109.024C65.7409 108.507 66.3446 107.292 66.4228 105.605C66.504 103.848 66.0059 101.813 65.02 99.8741C64.0341 97.9354 62.6829 96.3337 61.2157 95.3647C60.3006 94.7607 59.4162 94.4526 58.6295 94.4526Z" fill="#1C3333"/>
<path d="M61.8516 94.0694L60.6567 94.5712L50.3264 49.3031C50.3264 49.3031 51.4424 49.1049 52.0656 49.2535C52.6174 49.3853 53.2271 49.7709 53.3353 50.3274L61.8516 94.0694Z" fill="#1C3333"/>
<path d="M60.6569 94.9087C60.604 94.9087 60.5511 94.8962 60.5029 94.8716C60.4143 94.8261 60.3506 94.7439 60.3283 94.6468L49.998 49.3786C49.9774 49.2886 49.9946 49.1943 50.0455 49.1174C50.0964 49.0406 50.1766 48.988 50.2673 48.9718C50.3158 48.9631 51.4601 48.7628 52.1437 48.9263C52.8026 49.0837 53.5289 49.5583 53.6661 50.2637L62.1824 94.0054C62.2128 94.1621 62.1292 94.3189 61.9822 94.3805L60.7874 94.8824C60.7459 94.8999 60.7014 94.9087 60.6569 94.9087ZM50.7365 49.5849L60.8966 94.1055L61.4689 93.8652L53.0048 50.3925C52.929 50.0018 52.4355 49.6891 51.9876 49.5822C51.658 49.5033 51.1194 49.5391 50.7365 49.5849Z" fill="#1C3333"/>
<path d="M60.6742 94.6613C60.6742 94.6613 60.0035 94.2215 59.0766 94.1315C58.5131 94.0769 58.0897 94.1635 58.0897 94.1635L49.6348 50.4124C49.5218 49.8313 49.9755 49.2947 50.5674 49.3099L50.9186 49.3186C51.4855 49.3331 51.9661 49.7396 52.0743 50.2964L60.6742 94.6613Z" fill="#8EAAA4"/>
<path d="M60.6744 94.9979C60.6103 94.9979 60.5463 94.9797 60.4903 94.9433C60.4843 94.9392 59.8705 94.5466 59.044 94.4663C58.5428 94.4178 58.16 94.4923 58.1562 94.4933C58.0683 94.5108 57.9766 94.493 57.9021 94.4424C57.8276 94.3925 57.7757 94.315 57.7585 94.2267L49.3036 50.4756C49.2301 50.0981 49.3305 49.7128 49.5793 49.4193C49.828 49.1257 50.189 48.9599 50.5756 48.9723L50.9268 48.9811C51.6461 48.9993 52.2676 49.5251 52.4051 50.2312L61.0054 94.5961C61.031 94.7292 60.9747 94.8647 60.8621 94.9402C60.8051 94.979 60.7397 94.9979 60.6744 94.9979ZM58.6999 93.7761C58.825 93.7761 58.9628 93.7814 59.1091 93.7959C59.5405 93.8377 59.9204 93.9486 60.215 94.0629L51.7431 50.3607C51.6656 49.9626 51.3151 49.666 50.9096 49.6559L50.5584 49.6471C50.3781 49.6475 50.2096 49.7186 50.0939 49.8558C49.978 49.9926 49.9311 50.1722 49.9655 50.3485L58.3608 93.7902C58.4576 93.7818 58.5722 93.7761 58.6999 93.7761Z" fill="#1C3333"/>
<path d="M67.9244 103.632L88.7765 114.322C89.4961 114.788 89.8497 115.632 89.427 116.32C89.1183 116.822 88.0411 117.243 88.0411 117.243C88.0411 117.243 87.3575 116.103 86.8523 115.846L66.8378 105.462L66.6982 104.097L67.9244 103.632Z" fill="#1C3333"/>
<path d="M88.0414 117.579C87.9258 117.579 87.8145 117.519 87.7522 117.415C87.5068 117.006 87.0039 116.3 86.6992 116.145L66.6827 105.76C66.5819 105.707 66.5142 105.608 66.5027 105.495L66.3628 104.13C66.3473 103.978 66.436 103.834 66.5789 103.78L67.8051 103.316C67.8941 103.282 67.9935 103.288 68.0784 103.331L88.9305 114.021C88.9406 114.026 88.9504 114.032 88.9599 114.038C89.8834 114.636 90.2076 115.692 89.7145 116.495C89.3566 117.077 88.2847 117.508 88.1637 117.556C88.1236 117.572 88.0822 117.579 88.0414 117.579ZM67.1546 105.245L87.0073 115.546C87.4404 115.766 87.92 116.432 88.1725 116.818C88.5409 116.645 88.9949 116.378 89.1398 116.143C89.4789 115.591 89.1297 114.959 88.607 114.613L67.9038 103.999L67.0599 104.319L67.1546 105.245Z" fill="#1C3333"/>
<path d="M66.7134 104.231L87.9497 114.854C88.4772 115.123 89.3663 115.843 88.546 116.834C88.1843 117.271 87.5338 117.565 87.0282 117.307L66.585 106.894C66.585 106.894 66.6975 106.302 66.7606 105.601C66.8239 104.899 66.7134 104.231 66.7134 104.231Z" fill="#8EAAA4"/>
<path d="M87.4436 117.742C87.2512 117.742 87.0584 117.701 86.875 117.608L66.4314 107.195C66.298 107.127 66.2255 106.979 66.2531 106.831C66.2542 106.826 66.3634 106.245 66.4244 105.571C66.483 104.92 66.3812 104.293 66.3802 104.287C66.3593 104.162 66.4105 104.036 66.5127 103.96C66.6148 103.885 66.7503 103.874 66.8635 103.93L88.0999 114.553C88.3813 114.696 89.047 115.101 89.1896 115.789C89.2772 116.211 89.1478 116.635 88.805 117.049C88.4797 117.442 87.9627 117.742 87.4436 117.742ZM66.9593 106.707L87.1811 117.007C87.5266 117.183 88.0139 116.947 88.2863 116.619C88.4949 116.367 88.5744 116.14 88.53 115.925C88.4622 115.598 88.1066 115.312 87.7969 115.155L67.1082 104.806C67.1207 105.047 67.1227 105.336 67.0961 105.632C67.0563 106.07 66.9987 106.464 66.9593 106.707Z" fill="#1C3333"/>
<path d="M73.7462 13.6755C73.7462 16.0861 69.7468 18.0403 64.8137 18.0403C59.8806 18.0403 55.8811 16.0861 55.8811 13.6755C55.8811 13.2872 55.8895 4.52148 55.8895 4.52148L73.7466 4.69372C73.7462 4.69372 73.7462 13.3742 73.7462 13.6755Z" fill="#8EAAA4"/>
<path d="M64.8133 18.3777C59.6153 18.3777 55.5437 16.3126 55.5437 13.6762C55.5437 13.2879 55.5521 4.52183 55.5521 4.52183C55.5521 4.43184 55.5882 4.34589 55.6522 4.28252C55.7159 4.21949 55.8049 4.17938 55.8926 4.18511L73.7496 4.35735C73.9346 4.35903 74.0833 4.50969 74.0833 4.6944V13.6762C74.0833 16.3123 70.0113 18.3777 64.8133 18.3777ZM56.2259 4.86225C56.2245 6.47977 56.2178 13.3334 56.2178 13.6758C56.2178 15.8589 60.1542 17.7033 64.8133 17.7033C69.4724 17.7033 73.4088 15.8589 73.4088 13.6758V5.02774L56.2259 4.86225Z" fill="#1C3333"/>
<path d="M66.1216 4.62012L73.746 4.69359V13.6754C73.746 15.8379 70.5272 17.633 66.3032 17.9795L66.1216 4.62012Z" fill="#1C3333"/>
<path d="M66.3032 18.3171C66.2196 18.3171 66.1387 18.2861 66.0763 18.2294C66.0073 18.1664 65.9675 18.0778 65.9661 17.9844L65.7845 4.62464C65.7831 4.53364 65.8188 4.44634 65.8829 4.3823C65.9469 4.31792 66.0244 4.28287 66.1249 4.28321L73.7493 4.35668C73.9344 4.35837 74.083 4.50903 74.083 4.69374V13.6755C74.083 15.9958 70.8227 17.9473 66.3305 18.3157C66.3217 18.3167 66.3123 18.3171 66.3032 18.3171ZM66.4633 4.96068L66.6352 17.6106C70.5217 17.2088 73.4089 15.5472 73.4089 13.6758V5.02742L66.4633 4.96068Z" fill="#1C3333"/>
<path d="M64.8134 9.06657C69.7467 9.06657 73.746 7.11237 73.746 4.70174C73.746 2.29111 69.7467 0.336914 64.8134 0.336914C59.8801 0.336914 55.8809 2.29111 55.8809 4.70174C55.8809 7.11237 59.8801 9.06657 64.8134 9.06657Z" fill="white"/>
<path d="M64.8133 9.40343C59.6153 9.40343 55.5437 7.33831 55.5437 4.70155C55.5437 2.06478 59.6156 0 64.8133 0C70.011 0 74.0829 2.06512 74.0829 4.70188C74.0829 7.33864 70.0113 9.40343 64.8133 9.40343ZM64.8133 0.674105C60.1539 0.674105 56.2178 2.51846 56.2178 4.70188C56.2178 6.88531 60.1542 8.72966 64.8133 8.72966C69.4724 8.72966 73.4088 6.88531 73.4088 4.70188C73.4088 2.51846 69.4727 0.674105 64.8133 0.674105Z" fill="#1C3333"/>
</g>
<defs>
<clipPath id="clip0_549_6983">
<rect width="141.538" height="184" fill="white" transform="translate(0.230713)"/>
</clipPath>
</defs>
</svg>
