<svg width="226" height="225" viewBox="0 0 226 225" fill="none" xmlns="http://www.w3.org/2000/svg">
<g id="isometric-downloading-files-from-cloud-to-laptop 1">
<path id="Vector" d="M111.384 35.3171L154.142 59.65C154.142 59.65 163.487 59.0165 163.887 48.7534C164.073 43.9864 162.344 39.2468 157.896 36.3209C153.849 33.6583 149.1 34.2108 149.1 34.2108C149.1 34.2108 148.427 23.769 139.039 18.298C127.292 11.4527 120.862 21.0539 120.862 21.0539C120.862 21.0539 115.764 17.0164 110.432 23.266C107.523 26.6753 111.384 35.3171 111.384 35.3171Z" fill="black"/>
<path id="Vector_2" d="M154.142 59.744C154.127 59.744 154.112 59.74 154.098 59.7322L111.34 35.3993C111.323 35.3898 111.31 35.3753 111.302 35.3578C111.292 35.3361 110.326 33.1597 109.729 30.5944C108.924 27.1323 109.137 24.6483 110.363 23.2116C113.144 19.9529 115.865 19.5202 117.657 19.7309C119.358 19.9308 120.538 20.71 120.842 20.9303C121.15 20.5038 122.754 18.4143 125.505 17.0325C127.304 16.1289 129.236 15.699 131.246 15.7548C133.754 15.8244 136.392 16.6552 139.084 18.2242C143.956 21.0631 146.444 25.2575 147.673 28.2761C148.865 31.2026 149.137 33.6219 149.182 34.1167C149.868 34.0586 154.228 33.8037 157.946 36.2498C160.079 37.6532 161.682 39.5252 162.711 41.8139C163.636 43.8715 164.074 46.2738 163.977 48.7611C163.769 54.1027 161.107 56.8051 158.911 58.1315C156.534 59.5674 154.172 59.7423 154.149 59.7438C154.146 59.744 154.144 59.744 154.142 59.744ZM111.455 35.2577L154.163 59.5621C154.427 59.5386 156.619 59.3081 158.824 57.9737C160.196 57.144 161.305 56.0555 162.121 54.7386C163.142 53.091 163.706 51.0775 163.797 48.7541C163.893 46.2945 163.46 43.9202 162.547 41.8878C161.532 39.6309 159.951 37.7847 157.847 36.4003C153.875 33.7872 149.157 34.2989 149.11 34.3043C149.085 34.3072 149.061 34.2999 149.042 34.284C149.023 34.2682 149.011 34.2453 149.01 34.2207C149.008 34.1947 148.826 31.5821 147.504 28.338C146.285 25.3472 143.819 21.1919 138.993 18.3798C136.329 16.8272 133.722 16.0046 131.246 15.9349C129.267 15.8793 127.365 16.3015 125.593 17.1899C122.571 18.7051 120.953 21.0842 120.937 21.1081C120.923 21.129 120.901 21.143 120.876 21.1469C120.851 21.1508 120.826 21.1441 120.806 21.1285C120.794 21.1185 119.523 20.1292 117.628 19.9088C115.122 19.6176 112.658 20.8001 110.5 23.3286C107.74 26.5629 111.223 34.725 111.455 35.2577Z" fill="black"/>
<path id="Vector_3" d="M112.778 38.4302L148.846 58.6805C152.793 60.8967 157.831 59.5575 160.062 55.6188C160.895 54.1483 161.479 52.2461 161.575 49.7863C161.761 45.0192 160.09 40.1889 155.585 37.3537C152.288 35.2792 147.157 35.6015 147.157 35.6015C147.157 35.6015 146.323 24.6709 136.727 19.3308C124.847 12.7193 119.956 22.4181 119.956 22.4181C119.956 22.4181 113.865 17.8289 109.276 24.7544C108.164 26.4313 108.01 28.9393 108.177 31.1942C108.402 34.2251 110.128 36.9423 112.778 38.4302Z" fill="white"/>
<path id="Vector_4" d="M152.914 59.8355C151.519 59.8355 150.103 59.4884 148.801 58.7572L112.733 38.5069C110.052 37.0012 108.315 34.2693 108.087 31.199C107.874 28.3249 108.248 26.1392 109.2 24.7028C110.636 22.5363 112.366 21.2659 114.342 20.9268C117.081 20.4568 119.453 21.9601 119.925 22.2842C120.248 21.705 122.161 18.5437 125.968 17.3747C129.146 16.3988 132.781 17.0299 136.771 19.2503C141.75 22.0214 144.333 26.3169 145.623 29.4324C146.882 32.4711 147.188 35.0103 147.238 35.5056C147.932 35.4762 152.584 35.3579 155.632 37.2757C157.781 38.6279 159.392 40.4889 160.421 42.8072C161.333 44.8611 161.763 47.275 161.665 49.788C161.576 52.0553 161.063 54.0313 160.14 55.6614C158.626 58.3341 155.814 59.8355 152.914 59.8355ZM112.822 38.35L148.889 58.6002C152.813 60.8031 157.789 59.4449 159.983 55.5726C160.892 53.9678 161.397 52.0193 161.485 49.781C161.582 47.2954 161.157 44.9092 160.256 42.8803C159.242 40.5953 157.654 38.7609 155.536 37.4282C152.302 35.3934 147.213 35.6864 147.162 35.6896C147.113 35.6926 147.071 35.6557 147.067 35.6066C147.065 35.5793 146.842 32.8444 145.454 29.4955C144.175 26.4084 141.615 22.1523 136.683 19.4076C132.738 17.2119 129.15 16.5858 126.021 17.5467C121.916 18.8072 120.054 22.4204 120.036 22.4567C120.024 22.4804 120.002 22.4977 119.976 22.5038C119.95 22.5098 119.922 22.504 119.901 22.488C119.876 22.469 117.342 20.5937 114.37 21.1043C112.446 21.4352 110.757 22.6793 109.35 24.8021C108.421 26.2045 108.056 28.3521 108.266 31.1855C108.49 34.1957 110.193 36.8739 112.822 38.35Z" fill="black"/>
<path id="Vector_5" d="M128.332 52.1254L120.863 47.8828L119.08 48.9355L126.771 53.3041L128.332 52.1254Z" fill="#FF5823"/>
<path id="Vector_6" d="M126.771 53.3904C126.756 53.3904 126.741 53.3865 126.727 53.3787L119.036 49.01C119.008 48.9941 118.991 48.9646 118.99 48.9325C118.99 48.9003 119.007 48.8706 119.035 48.8542L120.817 47.8015C120.845 47.7852 120.879 47.7849 120.907 47.8008L128.377 52.0434C128.403 52.0584 128.42 52.0856 128.422 52.1158C128.424 52.146 128.411 52.1752 128.386 52.1935L126.826 53.3722C126.81 53.3842 126.791 53.3904 126.771 53.3904ZM119.26 48.9302L126.764 53.1929L128.169 52.1323L120.864 47.9831L119.26 48.9302Z" fill="black"/>
<path id="Vector_7" d="M126.771 53.3037L139.705 60.6499L141.506 59.6075L128.332 52.125L126.771 53.3037Z" fill="black"/>
<path id="Vector_8" d="M139.705 60.736C139.69 60.736 139.674 60.7321 139.66 60.7243L126.727 53.3782C126.701 53.3633 126.684 53.336 126.682 53.3059C126.68 53.2756 126.693 53.2465 126.717 53.2282L128.278 52.0495C128.307 52.0278 128.345 52.0253 128.377 52.043L141.55 59.5255C141.578 59.5414 141.596 59.5711 141.596 59.6033C141.596 59.6356 141.579 59.6654 141.551 59.6816L139.75 60.7239C139.736 60.7319 139.72 60.736 139.705 60.736ZM126.935 53.2892L139.704 60.5422L141.325 59.6043L128.339 52.2286L126.935 53.2892Z" fill="black"/>
<path id="Vector_9" d="M129.656 67.3932V38.2188L127.859 39.2631L127.823 68.6244L129.656 67.3932Z" fill="white"/>
<path id="Vector_10" d="M127.822 68.7183C127.808 68.7183 127.793 68.7148 127.78 68.7077C127.751 68.6921 127.732 68.6615 127.732 68.6283L127.769 39.267C127.769 39.235 127.786 39.2054 127.814 39.1893L129.611 38.145C129.639 38.1288 129.673 38.1288 129.701 38.1448C129.729 38.1608 129.746 38.1906 129.746 38.2228V67.3973C129.746 67.4273 129.731 67.4554 129.706 67.472L127.872 68.7031C127.858 68.7132 127.84 68.7183 127.822 68.7183ZM127.949 39.3189L127.913 68.4593L129.566 67.3492V38.3791L127.949 39.3189Z" fill="black"/>
<path id="Vector_11" d="M122.753 51.0296L122.755 36.2323L124.562 35.1797L124.554 49.9874L122.753 51.0296Z" fill="white"/>
<path id="Vector_12" d="M122.754 51.1236C122.738 51.1236 122.723 51.1196 122.709 51.1116C122.681 51.0955 122.664 51.0658 122.664 51.0336L122.665 36.2364C122.665 36.2043 122.682 36.1747 122.71 36.1586L124.516 35.106C124.544 35.0898 124.579 35.0897 124.607 35.1057C124.634 35.1217 124.652 35.1515 124.652 35.1837L124.645 49.9914C124.645 50.0236 124.628 50.0532 124.6 50.0693L122.799 51.1115C122.785 51.1196 122.769 51.1236 122.754 51.1236ZM122.845 36.2881L122.844 50.8776L124.465 49.9395L124.472 35.3403L122.845 36.2881Z" fill="black"/>
<path id="Vector_13" d="M136.557 56.8372V42.0391L134.76 43.0834L134.724 57.8609L136.557 56.8372Z" fill="black"/>
<path id="Vector_14" d="M134.724 57.9471C134.708 57.9471 134.692 57.943 134.678 57.9347C134.651 57.9185 134.634 57.8889 134.634 57.8569L134.67 43.0795C134.67 43.0475 134.687 43.0179 134.715 43.0019L136.512 41.9575C136.54 41.9413 136.574 41.9412 136.602 41.9573C136.63 41.9734 136.647 42.0032 136.647 42.0354V56.8336C136.647 56.8662 136.63 56.8963 136.601 56.9122L134.768 57.9358C134.754 57.9433 134.739 57.9471 134.724 57.9471ZM134.85 43.1315L134.814 57.7036L136.467 56.7806V42.1916L134.85 43.1315Z" fill="black"/>
<path id="Vector_15" d="M124.538 35.1797L122.755 36.2323L134.76 43.0825L134.764 43.0763L136.557 42.0381L124.538 35.1797Z" fill="#FF5823"/>
<path id="Vector_16" d="M134.755 43.1744C134.741 43.1744 134.727 43.1716 134.715 43.1647L122.71 36.3146C122.683 36.2986 122.665 36.2691 122.665 36.2371C122.665 36.205 122.682 36.1752 122.709 36.1589L124.492 35.1062C124.52 35.0898 124.554 35.0896 124.582 35.1056L136.602 41.964C136.63 41.98 136.647 42.0098 136.647 42.0419C136.647 42.074 136.63 42.1039 136.602 42.1201L134.818 43.1528C134.808 43.1609 134.797 43.1671 134.785 43.1703C134.776 43.1729 134.765 43.1744 134.755 43.1744ZM122.934 36.235L134.756 42.9806L136.376 42.0426L124.538 35.2877L122.934 36.235Z" fill="black"/>
<path id="Vector_17" d="M134.724 57.8211L134.76 43.0845L122.755 36.2344L122.753 50.9858L119.08 48.9356L127.822 68.628L139.704 60.6503L134.724 57.8211Z" fill="#FF5823"/>
<path id="Vector_18" d="M127.823 68.7142C127.814 68.7142 127.806 68.713 127.798 68.7107C127.772 68.7033 127.751 68.685 127.74 68.6607L118.998 48.9683C118.982 48.933 118.991 48.8915 119.02 48.8654C119.048 48.8393 119.09 48.8344 119.124 48.8532L122.664 50.8287L122.665 36.2306C122.665 36.1986 122.682 36.1689 122.71 36.1528C122.738 36.1367 122.772 36.1366 122.8 36.1524L134.805 43.0026C134.833 43.0186 134.85 43.0486 134.85 43.081L134.814 57.765L139.749 60.5683C139.776 60.5837 139.793 60.612 139.794 60.6431C139.796 60.6743 139.781 60.7038 139.755 60.7213L127.873 68.6989C127.858 68.7089 127.84 68.7142 127.823 68.7142ZM119.272 49.1419L127.861 68.4897L139.534 60.6529L134.679 57.8955C134.651 57.8795 134.634 57.8495 134.634 57.817L134.67 43.1329L122.845 36.3855L122.844 50.982C122.844 51.014 122.827 51.0435 122.799 51.0596C122.772 51.0758 122.738 51.0761 122.71 51.0606L119.272 49.1419Z" fill="black"/>
<path id="Vector_19" d="M169.826 84.6444C169.826 83.8246 169.38 83.0696 168.663 82.6732L91.0071 39.7785C90.6959 39.6066 90.3161 39.6166 90.0143 39.8046L86.2333 42.0672L89.2213 98.7043L163.008 141.005L85.7411 100.938L38.8652 125.078V129.177C38.8652 129.522 39.0469 129.842 39.3433 130.019L115.116 175.248C115.817 175.667 116.691 175.673 117.398 175.263L168.673 145.587C169.368 145.185 169.796 144.442 169.796 143.639L169.826 84.6444Z" fill="black"/>
<path id="Vector_20" d="M116.27 175.652C115.855 175.652 115.439 175.542 115.07 175.321L39.2973 130.093C38.9754 129.9 38.7754 129.548 38.7754 129.173V125.074C38.7754 125.04 38.7942 125.009 38.8242 124.994L85.7 100.854C85.726 100.841 85.7567 100.841 85.7827 100.854L159.26 138.956L89.1767 98.7786C89.1501 98.7634 89.1332 98.7357 89.1316 98.7052L86.1436 42.0681C86.1418 42.0348 86.1586 42.0033 86.1872 41.9862L89.9682 39.7235C90.296 39.5193 90.7112 39.5085 91.0507 39.6959L168.706 82.5906C169.453 83.0028 169.916 83.7883 169.916 84.6406L169.887 143.635C169.886 144.468 169.438 145.244 168.718 145.661L117.443 175.337C117.081 175.547 116.675 175.652 116.27 175.652ZM38.9554 125.129V129.173C38.9554 129.485 39.1218 129.778 39.3896 129.938L115.162 175.167C115.835 175.568 116.675 175.574 117.353 175.181L168.628 145.505C169.293 145.12 169.706 144.404 169.707 143.635L169.736 84.6407C169.736 83.8539 169.308 83.1287 168.619 82.7483L90.9637 39.8536C90.6813 39.6976 90.3359 39.7066 90.0621 39.8773L86.3262 42.1129L89.3087 98.6468L163.053 140.923C163.095 140.947 163.11 141.001 163.087 141.044C163.064 141.087 163.01 141.104 162.967 141.081L85.7411 101.036L38.9554 125.129Z" fill="black"/>
<path id="Vector_21" d="M85.7411 96.7344L39.3473 124.129C38.7063 124.507 38.7041 125.434 39.3433 125.815L115.116 171.044C115.817 171.463 116.691 171.469 117.398 171.059L166.346 142.729L85.7411 96.7344Z" fill="white"/>
<path id="Vector_22" d="M116.27 171.456C115.854 171.456 115.439 171.346 115.07 171.125L39.2973 125.897C38.9696 125.701 38.7745 125.356 38.7754 124.975C38.7763 124.593 38.973 124.249 39.3017 124.055L85.6955 96.6609C85.7233 96.6445 85.7577 96.6443 85.7858 96.6603L166.39 142.655C166.418 142.671 166.436 142.701 166.436 142.733C166.436 142.765 166.419 142.795 166.391 142.811L117.443 171.141C117.081 171.351 116.675 171.456 116.27 171.456ZM85.742 96.8426L39.3932 124.21C39.1197 124.372 38.9561 124.658 38.9553 124.975C38.9545 125.293 39.1169 125.579 39.3895 125.742L115.162 170.971C115.835 171.373 116.675 171.378 117.353 170.986L166.165 142.734L85.742 96.8426Z" fill="black"/>
<path id="Vector_23" d="M65.5916 117.966L128.919 155.766C129.716 156.242 130.708 156.248 131.512 155.783L154.751 142.333C155.589 141.848 155.585 140.638 154.744 140.158L89.736 103.063C88.9382 102.608 87.9575 102.615 87.1666 103.082L65.5967 115.819C64.7806 116.3 64.7778 117.48 65.5916 117.966Z" fill="#FAFAFA"/>
<path id="Vector_24" d="M130.23 156.221C129.76 156.221 129.29 156.096 128.873 155.846L65.5457 118.047C65.1359 117.802 64.8919 117.371 64.8931 116.894C64.8942 116.417 65.1402 115.987 65.5512 115.744L87.121 103.008C87.9378 102.525 88.957 102.518 89.7809 102.988L154.789 140.083C155.212 140.325 155.466 140.759 155.467 141.247C155.469 141.734 155.218 142.17 154.797 142.414L131.557 155.865C131.147 156.102 130.688 156.22 130.23 156.221ZM88.4679 102.821C88.0331 102.821 87.5985 102.935 87.2124 103.163L65.6425 115.899C65.2868 116.109 65.0739 116.481 65.0729 116.894C65.0719 117.307 65.283 117.68 65.6377 117.892L128.965 155.692C129.733 156.151 130.692 156.157 131.467 155.709L154.706 142.258C155.071 142.047 155.288 141.669 155.287 141.247C155.286 140.825 155.066 140.449 154.7 140.24L89.6913 103.144C89.3131 102.928 88.8904 102.821 88.4679 102.821Z" fill="black"/>
<path id="Vector_25" d="M89.1894 151.402L72.4266 141.178C71.6097 140.68 71.6337 139.485 72.47 139.02L83.0676 133.127C83.8654 132.684 84.8391 132.698 85.6229 133.166L102.179 143.049C102.993 143.534 102.994 144.713 102.181 145.201L91.8392 151.411C91.0231 151.901 90.0022 151.897 89.1894 151.402Z" fill="#FAFAFA"/>
<path id="Vector_26" d="M90.5221 151.862C90.0447 151.862 89.5677 151.733 89.1428 151.474L72.38 141.25C71.9687 140.999 71.7289 140.562 71.7386 140.08C71.7483 139.598 72.0054 139.171 72.4264 138.937L83.024 133.044C83.8471 132.586 84.8606 132.601 85.6692 133.084L102.225 142.966C102.635 143.211 102.88 143.642 102.88 144.119C102.881 144.596 102.637 145.027 102.228 145.273L91.8858 151.483C91.4648 151.736 90.9933 151.862 90.5221 151.862ZM89.2365 151.32C90.0233 151.8 91.0031 151.803 91.7932 151.329L102.135 145.118C102.49 144.906 102.701 144.532 102.7 144.119C102.7 143.706 102.488 143.333 102.133 143.121L85.577 133.239C84.8234 132.789 83.8787 132.774 83.1116 133.201L72.514 139.094C72.1496 139.297 71.927 139.667 71.9187 140.084C71.9103 140.5 72.1178 140.879 72.4738 141.096L89.2365 151.32Z" fill="black"/>
<path id="Vector_27" d="M85.7671 42.8957L85.7412 96.7353L166.346 142.73V87.0719C166.346 86.2521 165.9 85.4971 165.183 85.1008L87.2221 42.0377C86.5686 41.6768 85.7675 42.1492 85.7671 42.8957Z" fill="#FF5823"/>
<path id="Vector_28" d="M166.346 142.824C166.33 142.824 166.315 142.82 166.301 142.812L85.6967 96.8176C85.6687 96.8016 85.6513 96.7717 85.6514 96.7394L85.6773 42.8998C85.6775 42.517 85.8744 42.1724 86.2042 41.978C86.5338 41.7836 86.9307 41.778 87.2657 41.963L165.226 85.0262C165.972 85.4383 166.436 86.2238 166.436 87.0761V142.734C166.436 142.766 166.419 142.796 166.391 142.812C166.377 142.82 166.361 142.824 166.346 142.824ZM85.8313 96.6872L166.256 142.579V87.0761C166.256 86.2893 165.828 85.5642 165.139 85.1837L87.1786 42.1206C86.8998 41.9666 86.5697 41.9713 86.2955 42.1331C86.0213 42.2948 85.8574 42.5814 85.8572 42.8999L85.8313 96.6872Z" fill="black"/>
<path id="Vector_29" d="M85.7428 93.3906L85.7412 96.7415L166.346 142.736V138.839L85.7428 93.3906Z" fill="white"/>
<path id="Vector_30" d="M166.346 142.822C166.33 142.822 166.315 142.818 166.301 142.811L85.6967 96.8158C85.6687 96.7998 85.6513 96.7699 85.6514 96.7376L85.653 93.3868C85.653 93.3549 85.67 93.3252 85.6976 93.3091C85.7253 93.293 85.7594 93.2928 85.7872 93.3085L166.39 138.757C166.418 138.773 166.436 138.803 166.436 138.836V142.732C166.436 142.764 166.419 142.794 166.391 142.81C166.377 142.818 166.361 142.822 166.346 142.822ZM85.8313 96.6854L166.256 142.577V138.888L85.8327 93.5409L85.8313 96.6854Z" fill="black"/>
<path id="Vector_31" d="M155.372 118.891V128.4L162.477 132.406L162.476 122.581L155.372 118.891Z" fill="#FAFAFA"/>
<path id="Vector_32" d="M162.477 132.5C162.462 132.5 162.446 132.496 162.433 132.489L155.327 128.482C155.299 128.466 155.281 128.436 155.281 128.404V118.895C155.281 118.863 155.298 118.834 155.325 118.818C155.351 118.801 155.385 118.8 155.413 118.815L162.518 122.505C162.547 122.521 162.566 122.551 162.566 122.585L162.567 132.41C162.567 132.442 162.55 132.472 162.522 132.488C162.508 132.496 162.493 132.5 162.477 132.5ZM155.461 128.351L162.387 132.256L162.386 122.64L155.461 119.043V128.351Z" fill="black"/>
<path id="Vector_33" d="M154.8 118.039L154.811 119.893L163.271 124.329V122.31L154.8 118.039Z" fill="#FAFAFA"/>
<path id="Vector_34" d="M163.271 124.423C163.257 124.423 163.242 124.42 163.229 124.413L154.769 119.977C154.74 119.961 154.721 119.931 154.721 119.898L154.709 118.044C154.709 118.012 154.725 117.983 154.752 117.967C154.779 117.95 154.812 117.949 154.84 117.963L163.312 122.234C163.342 122.249 163.361 122.28 163.361 122.314V124.333C163.361 124.365 163.345 124.394 163.318 124.41C163.303 124.419 163.287 124.423 163.271 124.423ZM154.9 119.842L163.181 124.184V122.369L154.89 118.19L154.9 119.842Z" fill="black"/>
<path id="Vector_35" d="M165.9 85.7338C165.9 85.7338 165.469 85.2646 165.182 85.1064L87.2223 42.0436C86.8985 41.8645 86.5392 41.8903 86.2583 42.0521L90.0146 39.8046C90.316 39.6169 90.6956 39.6062 91.0065 39.7788L168.663 82.6733C169.021 82.8715 169.513 83.4996 169.513 83.4996L165.9 85.7338Z" fill="white"/>
<path id="Vector_36" d="M165.9 85.82C165.876 85.82 165.851 85.81 165.834 85.7908C165.829 85.7862 165.409 85.3305 165.139 85.1814L87.179 42.1186C86.9035 41.9663 86.5762 41.9692 86.3034 42.1263C86.2606 42.151 86.206 42.1366 86.1809 42.0939C86.1558 42.0513 86.1699 41.9964 86.2123 41.9712L89.9686 39.7236C90.2968 39.5192 90.7118 39.5084 91.0504 39.6964L168.707 82.5908C169.077 82.7955 169.563 83.4142 169.584 83.4404C169.599 83.4605 169.606 83.4864 169.601 83.5116C169.597 83.5368 169.582 83.559 169.56 83.5724L165.947 85.8066C165.933 85.8156 165.916 85.82 165.9 85.82ZM86.8028 41.8276C86.962 41.8359 87.12 41.8803 87.266 41.9611L165.226 85.0239C165.465 85.156 165.79 85.4842 165.915 85.6149L169.378 83.4731C169.236 83.3013 168.884 82.895 168.619 82.7484L90.9632 39.8538C90.6816 39.6975 90.3365 39.7065 90.0624 39.8772L86.8028 41.8276Z" fill="black"/>
<path id="Vector_37" d="M116.066 175.552C116.066 175.552 115.411 175.419 115.116 175.244L39.344 130.015C39.047 129.838 38.8657 129.518 38.8657 129.173V125.074L38.8722 125.07C38.899 125.363 39.0566 125.646 39.3441 125.818L115.116 171.047C115.423 171.229 116.107 171.358 116.107 171.358L116.066 175.552Z" fill="#FAFAFA"/>
<path id="Vector_38" d="M116.065 175.644C116.059 175.644 116.053 175.643 116.048 175.642C116.02 175.637 115.374 175.504 115.07 175.323L39.2976 130.094C38.9756 129.902 38.7754 129.55 38.7754 129.175V125.075C38.7754 125.041 38.7948 125.01 38.8255 124.994C38.8521 124.981 38.8867 124.981 38.9126 124.995C38.9385 125.009 38.9587 125.034 38.9614 125.064C38.9874 125.348 39.1436 125.595 39.3897 125.742L115.162 170.971C115.451 171.144 116.116 171.27 116.123 171.272C116.166 171.28 116.197 171.317 116.196 171.361L116.155 175.555C116.155 175.582 116.143 175.607 116.122 175.624C116.106 175.637 116.086 175.644 116.065 175.644ZM38.9554 125.573V129.175C38.9554 129.487 39.1218 129.78 39.3897 129.939L115.162 175.168C115.371 175.292 115.782 175.397 115.976 175.442L116.016 171.433C115.827 171.394 115.329 171.28 115.07 171.125L39.2975 125.897C39.1576 125.813 39.0419 125.703 38.9554 125.573Z" fill="black"/>
<path id="Vector_39" d="M96.4841 58.7109L96.4668 90.773C96.4666 91.1803 96.6831 91.5571 97.0351 91.762L148.694 121.522C149.695 122.105 150.951 121.383 150.951 120.225V90.2239L96.4841 58.7109Z" fill="white"/>
<path id="Vector_40" d="M149.449 121.823C149.174 121.823 148.899 121.75 148.648 121.604L96.9898 91.8441C96.6111 91.6236 96.3763 91.2148 96.3765 90.777L96.3937 58.715C96.3937 58.6829 96.4109 58.6531 96.4388 58.637C96.4667 58.6209 96.501 58.621 96.5288 58.6371L150.995 90.1501C151.023 90.1662 151.04 90.1959 151.04 90.228V120.229C151.04 120.805 150.742 121.321 150.242 121.608C149.994 121.751 149.721 121.823 149.449 121.823ZM96.5736 58.8709L96.5564 90.777C96.5562 91.151 96.7568 91.5001 97.0799 91.6883L148.738 121.448C149.181 121.706 149.709 121.707 150.152 121.452C150.596 121.197 150.86 120.74 150.86 120.229V90.2799L96.5736 58.8709Z" fill="black"/>
<path id="Vector_41" d="M150.95 92.4077V89.938C150.95 89.0228 150.457 88.1787 149.66 87.7293L98.1892 58.7194C97.4269 58.2897 96.484 58.8402 96.4837 59.7153L96.4824 62.2493L150.95 92.4077Z" fill="#FAFAFA"/>
<path id="Vector_42" d="M150.95 92.494C150.935 92.494 150.92 92.4902 150.907 92.4828L96.439 62.3243C96.4104 62.3085 96.3926 62.2783 96.3926 62.2456L96.3938 59.7116C96.394 59.2683 96.6227 58.8702 97.0055 58.6467C97.3883 58.4233 97.8473 58.4197 98.2335 58.6374L149.704 87.6473C150.528 88.1119 151.04 88.9882 151.04 89.9344V92.4041C151.04 92.436 151.024 92.4655 150.996 92.4816C150.982 92.4898 150.966 92.494 150.95 92.494ZM96.5726 62.1925L150.86 92.2513V89.9343C150.86 89.053 150.383 88.2367 149.616 87.804L98.1452 58.794C97.8153 58.6082 97.4232 58.6112 97.0962 58.8021C96.7692 58.9929 96.5739 59.3331 96.5738 59.7116L96.5726 62.1925Z" fill="black"/>
<path id="Vector_43" d="M94.1822 65.528L93.4026 66.0925L92.9487 66.6298L93.7413 94.0214C93.75 94.3236 93.9121 94.6006 94.1713 94.7562L133.617 117.383C133.617 117.383 135.84 117.546 136.01 115.613V89.6588C136.01 88.949 135.627 88.2944 135.009 87.9458L95.1381 65.4736C94.8361 65.3035 94.4628 65.3248 94.1822 65.528Z" fill="black"/>
<path id="Vector_44" d="M133.746 117.48C133.666 117.48 133.617 117.477 133.61 117.476C133.597 117.475 133.584 117.471 133.572 117.465L94.1267 94.8378C93.8382 94.6645 93.6611 94.3619 93.6515 94.0274L92.8589 66.6358C92.8583 66.6137 92.8658 66.5921 92.8802 66.5752L93.334 66.038C93.3387 66.0324 93.3441 66.0274 93.35 66.0231L94.1295 65.4586C94.4377 65.2355 94.851 65.212 95.1824 65.3989L135.053 87.8711C135.699 88.2349 136.1 88.9214 136.1 89.6624V115.617C136.008 116.671 135.331 117.119 134.779 117.311C134.357 117.458 133.951 117.48 133.746 117.48ZM133.643 117.298C133.746 117.302 134.232 117.313 134.725 117.14C135.452 116.885 135.854 116.37 135.921 115.609L135.92 89.6625C135.92 88.9863 135.554 88.3599 134.965 88.0279L95.0942 65.5557C94.8238 65.4034 94.4867 65.4225 94.2353 65.6045L93.4646 66.1625L93.04 66.6651L93.8316 94.0223C93.8395 94.2952 93.9839 94.542 94.2179 94.6826L133.643 117.298Z" fill="black"/>
<path id="Vector_45" d="M92.9114 66.888L92.8979 94.6642C92.8978 94.9801 93.0656 95.2722 93.3387 95.4313L132.896 117.179C133.896 117.762 135.152 117.04 135.152 115.882V90.3269C135.152 89.6172 134.77 88.9625 134.152 88.614L94.2341 66.1156C93.6429 65.7824 92.9116 66.2094 92.9114 66.888Z" fill="#FAFAFA"/>
<path id="Vector_46" d="M133.651 117.472C133.376 117.472 133.101 117.399 132.85 117.253L93.2955 95.5065C92.994 95.331 92.8079 95.0072 92.8081 94.6605L92.8215 66.8843C92.8217 66.5332 93.0028 66.2181 93.3059 66.041C93.609 65.864 93.9726 65.8612 94.2784 66.0336L134.196 88.532C134.841 88.8959 135.242 89.5823 135.242 90.3234V115.878C135.242 116.455 134.944 116.97 134.444 117.258C134.196 117.401 133.923 117.472 133.651 117.472ZM92.9114 66.8845H93.0014L92.988 94.6607C92.9879 94.9434 93.1396 95.2076 93.384 95.3499L132.939 117.097C133.383 117.355 133.911 117.356 134.354 117.102C134.798 116.847 135.062 116.389 135.062 115.878V90.3233C135.062 89.6471 134.696 89.0208 134.107 88.6888L94.1899 66.1905C93.9404 66.0499 93.6439 66.0522 93.3965 66.1965C93.1492 66.3409 93.0015 66.5981 93.0013 66.8845H92.9114Z" fill="black"/>
<path id="Vector_47" d="M135.153 92.2423V90.3269C135.153 89.6172 134.77 88.9625 134.152 88.614L94.2343 66.1156C93.6431 65.7824 92.9119 66.2094 92.9115 66.888L92.9106 68.8532L135.153 92.2423Z" fill="#FF5823"/>
<path id="Vector_48" d="M135.153 92.3287C135.138 92.3287 135.123 92.3249 135.109 92.3174L92.8672 68.9283C92.8386 68.9125 92.8208 68.8822 92.8208 68.8496L92.8217 66.8843C92.8219 66.5332 93.003 66.2181 93.3061 66.041C93.6092 65.864 93.9728 65.8612 94.2786 66.0336L134.196 88.5319C134.842 88.8958 135.243 89.5822 135.243 90.3233V92.2387C135.243 92.2705 135.226 92.3001 135.198 92.3162C135.184 92.3245 135.169 92.3287 135.153 92.3287ZM93.0009 68.7966L135.063 92.086V90.3233C135.063 89.6471 134.697 89.0208 134.108 88.6888L94.1904 66.1904C93.9409 66.0499 93.6444 66.0521 93.3971 66.1965C93.1497 66.3408 93.0021 66.598 93.0019 66.8844L93.0009 68.7966Z" fill="black"/>
<path id="Vector_49" d="M69.6529 41.3572L68.7601 42.0036L68.2402 42.619L69.1479 73.9895C69.1579 74.3356 69.3435 74.6528 69.6404 74.8311L114.739 102.34C114.739 102.34 117.346 102.92 117.557 100.466V68.9933C117.557 68.1804 117.119 67.4306 116.41 67.0316L70.7475 41.295C70.4019 41.1001 69.9743 41.1243 69.6529 41.3572Z" fill="black"/>
<path id="Vector_50" d="M115.381 102.495C115.012 102.495 114.742 102.437 114.719 102.432C114.709 102.43 114.7 102.426 114.692 102.421L69.5932 74.9114C69.269 74.7167 69.0686 74.3742 69.0576 73.9955L68.1499 42.625C68.1493 42.6029 68.1569 42.5813 68.1712 42.5644L68.691 41.9491C68.6957 41.9435 68.7011 41.9385 68.707 41.9342L69.5997 41.2877C69.9485 41.0352 70.4163 41.0086 70.7914 41.2201L116.454 66.9565C117.189 67.371 117.646 68.1527 117.646 68.9968V100.47C117.585 101.194 117.317 101.731 116.852 102.072C116.386 102.415 115.815 102.495 115.381 102.495ZM114.772 102.259C114.908 102.286 115.998 102.477 116.746 101.927C117.167 101.617 117.41 101.124 117.467 100.462L117.466 68.9969C117.466 68.2178 117.045 67.4961 116.366 67.1136L70.7031 41.3769C70.389 41.1999 69.9974 41.2221 69.7053 41.4336L68.8214 42.0736L68.3308 42.6543L69.2375 73.9904C69.2467 74.3075 69.4144 74.5942 69.6863 74.7575L114.772 102.259Z" fill="black"/>
<path id="Vector_51" d="M68.1974 42.9154L68.1821 74.7264C68.1819 75.0882 68.3742 75.4228 68.6868 75.6049L114.318 102.176C115.319 102.759 116.574 102.037 116.574 100.879V69.7591C116.574 68.9462 116.136 68.1964 115.428 67.7974L69.7122 42.0308C69.0351 41.6492 68.1978 42.1382 68.1974 42.9154Z" fill="white"/>
<path id="Vector_52" d="M115.073 102.477C114.798 102.477 114.523 102.404 114.272 102.258L68.6413 75.6869C68.3021 75.4894 68.0916 75.1229 68.0918 74.7305L68.1071 42.9196C68.1073 42.5222 68.3122 42.1654 68.6554 41.965C68.9985 41.7647 69.4099 41.7615 69.7562 41.9566L115.472 67.7232C116.207 68.1376 116.664 68.9194 116.664 69.7633V100.883C116.664 101.46 116.366 101.975 115.866 102.263C115.617 102.406 115.345 102.477 115.073 102.477ZM69.213 41.9928C69.0525 41.9928 68.892 42.0354 68.7462 42.1205C68.4589 42.2883 68.2873 42.5871 68.2872 42.9197L68.2719 74.7307C68.2717 75.0593 68.448 75.366 68.7319 75.5313L114.363 102.103C114.805 102.36 115.333 102.362 115.776 102.107C116.22 101.852 116.484 101.395 116.484 100.883V69.7633C116.484 68.9842 116.063 68.2625 115.384 67.88L69.6678 42.1134C69.5251 42.033 69.369 41.9928 69.213 41.9928Z" fill="black"/>
<path id="Vector_53" d="M116.574 71.9527V69.7591C116.574 68.9462 116.136 68.1964 115.428 67.7974L69.7122 42.0308C69.0352 41.6492 68.1978 42.1382 68.1974 42.9154L68.1963 45.1661L116.574 71.9527Z" fill="#FF5823"/>
<path id="Vector_54" d="M116.575 72.0469C116.56 72.0469 116.545 72.0431 116.531 72.0356L68.1529 45.249C68.1243 45.2332 68.1064 45.203 68.1064 45.1703L68.1075 42.9196C68.1077 42.5222 68.3126 42.1654 68.6558 41.965C68.9989 41.7647 69.4105 41.7615 69.7566 41.9566L115.473 67.7232C116.208 68.1376 116.665 68.9194 116.665 69.7633V71.9569C116.665 71.9888 116.648 72.0183 116.62 72.0345C116.606 72.0428 116.59 72.0469 116.575 72.0469ZM68.2865 45.1173L116.485 71.8042V69.7633C116.485 68.9842 116.063 68.2625 115.384 67.88L69.6682 42.1134C69.3784 41.9501 69.0339 41.9527 68.7466 42.1205C68.4593 42.2882 68.2877 42.587 68.2876 42.9197L68.2865 45.1173Z" fill="black"/>
<path id="Vector_55" d="M107.887 92.3099C107.872 92.3099 107.857 92.3061 107.843 92.2981L74.5123 73.3402C74.4691 73.3156 74.454 73.2606 74.4786 73.2174C74.5031 73.1742 74.5581 73.1591 74.6013 73.1837L107.932 92.1417C107.975 92.1663 107.99 92.2213 107.966 92.2645C107.949 92.2935 107.919 92.3099 107.887 92.3099Z" fill="black"/>
<path id="Vector_56" d="M108.12 74.229C108.105 74.229 108.089 74.2251 108.075 74.2171L74.5121 55.0041C74.469 54.9794 74.454 54.9245 74.4787 54.8813C74.5033 54.8381 74.5583 54.8231 74.6015 54.8479L108.165 74.0609C108.208 74.0855 108.223 74.1405 108.198 74.1837C108.181 74.2127 108.151 74.229 108.12 74.229Z" fill="black"/>
<path id="Vector_57" d="M107.934 88.7121C107.918 88.7121 107.903 88.7083 107.889 88.7003L74.5123 69.6917C74.4691 69.6671 74.454 69.6121 74.4786 69.5689C74.5033 69.5257 74.5582 69.5107 74.6014 69.5352L107.978 88.5439C108.021 88.5684 108.036 88.6234 108.012 88.6666C107.995 88.6957 107.965 88.7121 107.934 88.7121Z" fill="black"/>
<path id="Vector_58" d="M107.98 85.1066C107.965 85.1066 107.949 85.1029 107.935 85.0949L74.5122 66.0354C74.469 66.0107 74.454 65.9558 74.4787 65.9126C74.5033 65.8694 74.5582 65.8544 74.6014 65.8791L108.025 84.9384C108.068 84.9631 108.083 85.018 108.058 85.0612C108.042 85.0903 108.011 85.1066 107.98 85.1066Z" fill="black"/>
<path id="Vector_59" d="M108.026 81.4935C108.011 81.4935 107.996 81.4897 107.982 81.4816L74.5122 62.3713C74.469 62.3466 74.454 62.2916 74.4786 62.2485C74.5033 62.2054 74.5583 62.1903 74.6014 62.215L108.071 81.3254C108.114 81.3501 108.129 81.405 108.105 81.4481C108.088 81.4772 108.058 81.4935 108.026 81.4935Z" fill="black"/>
<path id="Vector_60" d="M108.073 77.8651C108.058 77.8651 108.042 77.8614 108.028 77.8533L74.5121 58.6916C74.469 58.667 74.454 58.612 74.4787 58.5688C74.5033 58.5257 74.5583 58.5106 74.6015 58.5353L108.118 77.6969C108.161 77.7216 108.176 77.7766 108.151 77.8198C108.135 77.8489 108.104 77.8651 108.073 77.8651Z" fill="black"/>
<path id="Vector_61" d="M156.291 209.16L116.519 185.559C115.915 184.441 115.913 183.096 116.512 181.976L116.519 181.963L166.72 156.25L207.712 179.37L156.291 209.16Z" fill="black"/>
<path id="Vector_62" d="M156.292 209.247C156.276 209.247 156.26 209.242 156.246 209.234L116.473 185.632C116.459 185.624 116.448 185.612 116.44 185.598C115.821 184.45 115.818 183.079 116.433 181.93L116.44 181.917C116.448 181.901 116.462 181.888 116.478 181.88L166.68 156.166C166.707 156.152 166.739 156.153 166.765 156.168L207.756 179.288C207.784 179.304 207.802 179.333 207.802 179.366C207.802 179.398 207.785 179.428 207.757 179.444L156.337 209.234C156.323 209.242 156.307 209.247 156.292 209.247ZM116.587 185.49L156.292 209.052L207.531 179.367L166.719 156.348L116.585 182.027C116.009 183.113 116.01 184.405 116.587 185.49Z" fill="black"/>
<path id="Vector_63" d="M177.434 156.844L128.961 184.612L162.052 203.75L210.691 175.683L177.434 156.844Z" fill="#FAFAFA"/>
<path id="Vector_64" d="M162.052 203.837C162.036 203.837 162.021 203.833 162.007 203.825L128.916 184.687C128.889 184.671 128.871 184.641 128.872 184.609C128.872 184.576 128.889 184.547 128.917 184.531L177.389 156.762C177.416 156.746 177.45 156.746 177.478 156.762L210.735 175.601C210.763 175.617 210.781 175.647 210.781 175.679C210.781 175.712 210.764 175.742 210.736 175.758L162.097 203.824C162.083 203.833 162.067 203.837 162.052 203.837ZM129.142 184.609L162.052 203.643L210.509 175.68L177.434 156.944L129.142 184.609Z" fill="black"/>
<path id="Vector_65" d="M175.414 151.25L117.556 184.396L150.34 203.75L208.671 170.09L175.414 151.25Z" fill="white"/>
<path id="Vector_66" d="M150.34 203.836C150.324 203.836 150.308 203.832 150.294 203.823L117.51 184.47C117.483 184.453 117.466 184.424 117.466 184.391C117.466 184.359 117.484 184.33 117.512 184.314L175.37 151.168C175.397 151.152 175.431 151.152 175.459 151.168L208.716 170.008C208.744 170.024 208.761 170.053 208.761 170.086C208.762 170.118 208.744 170.148 208.716 170.164L150.385 203.824C150.371 203.832 150.355 203.836 150.34 203.836ZM117.735 184.393L150.34 203.642L208.49 170.087L175.415 151.35L117.735 184.393Z" fill="black"/>
<path id="Vector_67" d="M156.292 205.567L116.519 181.965L166.721 152.656L190.118 166.099C190.959 166.582 190.953 167.797 190.108 168.272L188.425 169.218C187.84 169.547 187.827 170.384 188.402 170.731L202.129 179.011L156.292 205.567Z" fill="#FF5823"/>
<path id="Vector_68" d="M156.291 205.653C156.275 205.653 156.26 205.649 156.245 205.64L116.473 182.039C116.445 182.022 116.429 181.993 116.429 181.961C116.429 181.929 116.446 181.9 116.473 181.884L166.675 152.575C166.703 152.559 166.737 152.558 166.765 152.574L190.163 166.017C190.586 166.26 190.837 166.697 190.835 167.185C190.833 167.673 190.577 168.108 190.152 168.347L188.469 169.293C188.222 169.431 188.073 169.683 188.068 169.965C188.064 170.248 188.206 170.504 188.448 170.65L202.175 178.93C202.202 178.946 202.219 178.976 202.219 179.008C202.219 179.04 202.201 179.069 202.174 179.085L156.337 205.641C156.322 205.649 156.307 205.653 156.291 205.653ZM116.696 181.962L156.292 205.459L201.952 179.006L188.355 170.804C188.058 170.625 187.883 170.31 187.888 169.963C187.894 169.615 188.078 169.306 188.381 169.136L190.063 168.19C190.432 167.983 190.653 167.607 190.655 167.184C190.657 166.762 190.439 166.384 190.073 166.173L166.721 152.757L116.696 181.962Z" fill="black"/>
<path id="Vector_69" d="M172.2 184.387L152.089 172.354L159.401 168.047L179.807 179.994L172.2 184.387Z" fill="white"/>
<path id="Vector_70" d="M172.2 184.473C172.184 184.473 172.168 184.469 172.154 184.46L152.043 172.427C152.016 172.411 151.999 172.381 152 172.35C152 172.318 152.016 172.289 152.044 172.273L159.355 167.966C159.384 167.949 159.418 167.949 159.447 167.965L179.853 179.912C179.881 179.929 179.898 179.958 179.898 179.99C179.897 180.022 179.88 180.052 179.853 180.068L172.245 184.461C172.231 184.469 172.216 184.473 172.2 184.473ZM152.266 172.351L172.201 184.279L179.629 179.989L159.401 168.148L152.266 172.351Z" fill="black"/>
<path id="Vector_71" d="M58.0653 102.33L39.231 91.5823L42.1823 71.3906L58.0581 80.4497L58.0653 102.33Z" fill="black"/>
<path id="Vector_72" d="M58.065 102.416C58.0496 102.416 58.0342 102.412 58.0203 102.404L39.186 91.6567C39.1539 91.6383 39.1363 91.6022 39.1416 91.5655L42.0929 71.3739C42.0972 71.3444 42.1158 71.319 42.1425 71.306C42.1692 71.2929 42.2008 71.2939 42.2266 71.3087L58.1023 80.3677C58.1304 80.3838 58.1477 80.4135 58.1477 80.4459L58.1549 102.326C58.1549 102.358 58.1379 102.387 58.1101 102.404C58.0962 102.412 58.0805 102.416 58.065 102.416ZM39.3286 91.5308L57.975 102.171L57.9679 80.4981L42.2521 71.5304L39.3286 91.5308Z" fill="black"/>
<path id="Vector_73" d="M54.0793 82.7989L38.2036 73.7399L42.1822 71.3906L58.058 80.4497L54.0793 82.7989Z" fill="#FF5823"/>
<path id="Vector_74" d="M54.0795 82.8851C54.0641 82.8851 54.0487 82.8812 54.0349 82.8734L38.1591 73.8143C38.1312 73.7984 38.114 73.7689 38.1138 73.7368C38.1135 73.7048 38.1304 73.675 38.1581 73.6586L42.1367 71.3093C42.1645 71.293 42.199 71.2927 42.227 71.3087L58.1028 80.3678C58.1307 80.3837 58.148 80.4132 58.1481 80.4452C58.1483 80.4773 58.1315 80.5071 58.1039 80.5235L54.1252 82.8727C54.1111 82.881 54.0953 82.8851 54.0795 82.8851ZM38.3831 73.7348L54.0787 82.6911L57.8789 80.4472L42.1832 71.491L38.3831 73.7348Z" fill="black"/>
<path id="Vector_75" d="M27.7236 98.3728L46.0521 109.313L58.0651 102.325L39.2308 91.5781L27.7236 98.3728Z" fill="black"/>
<path id="Vector_76" d="M46.0523 109.407C46.0364 109.407 46.0203 109.403 46.0061 109.394L27.6776 98.4541C27.6503 98.4378 27.6337 98.4084 27.6338 98.3766C27.6339 98.3448 27.6507 98.3155 27.6781 98.2993L39.1851 91.5047C39.2129 91.4883 39.2474 91.488 39.2755 91.504L58.1098 102.251C58.1378 102.267 58.155 102.297 58.1551 102.329C58.1552 102.361 58.1382 102.391 58.1104 102.407L46.0976 109.395C46.0836 109.403 46.0679 109.407 46.0523 109.407ZM27.9001 98.3772L46.0529 109.213L57.8849 102.33L39.2316 91.6862L27.9001 98.3772Z" fill="black"/>
<path id="Vector_77" d="M46.0521 109.32L27.7236 98.3792L38.2035 73.7422L54.0792 82.8012L46.0521 109.32Z" fill="#FF5823"/>
<path id="Vector_78" d="M46.0523 109.406C46.0363 109.406 46.0203 109.401 46.0062 109.393L27.6777 98.4527C27.6391 98.4297 27.6234 98.3816 27.6409 98.3402L38.1208 73.7032C38.1309 73.6795 38.1505 73.6613 38.1749 73.6531C38.1993 73.6449 38.2259 73.6476 38.2483 73.6602L54.124 82.7193C54.1604 82.7401 54.1777 82.7834 54.1656 82.8235L46.1386 109.342C46.1305 109.368 46.1107 109.39 46.0849 109.4C46.0744 109.404 46.0633 109.406 46.0523 109.406ZM27.8374 98.3384L45.9996 109.179L53.9725 82.8401L38.247 73.8667L27.8374 98.3384Z" fill="black"/>
<path id="Vector_79" d="M46.629 107.179H44.6751L28.3076 96.7373L36.3805 74.3622L38.2035 73.7188L54.0792 82.7778L46.629 107.179Z" fill="#FAFAFA"/>
<path id="Vector_80" d="M46.6292 107.273H44.6753C44.6581 107.273 44.6414 107.268 44.6269 107.258L28.2594 96.8172C28.2239 96.7946 28.2088 96.7504 28.2231 96.7108L36.296 74.3357C36.3052 74.3103 36.3253 74.2903 36.3508 74.2813L38.1737 73.6379C38.1984 73.6293 38.2256 73.6317 38.2482 73.6446L54.124 82.7036C54.1605 82.7245 54.1777 82.7679 54.1654 82.8081L46.7153 107.209C46.7037 107.247 46.6688 107.273 46.6292 107.273ZM44.7015 107.093H46.5625L53.9722 82.8244L38.1948 73.8213L36.4508 74.4368L28.4168 96.7041L44.7015 107.093Z" fill="black"/>
<path id="Vector_81" d="M44.6752 107.176L26.3467 96.2355L36.3806 74.3594L52.2563 83.4184L44.6752 107.176Z" fill="white"/>
<path id="Vector_82" d="M44.6754 107.27C44.6593 107.27 44.6433 107.266 44.6292 107.257L26.3007 96.3169C26.2613 96.2933 26.2459 96.2438 26.2651 96.202L36.299 74.3259C36.3095 74.303 36.3292 74.2855 36.3532 74.2778C36.3773 74.27 36.4035 74.2727 36.4254 74.2852L52.3012 83.3443C52.3381 83.3653 52.3552 83.4094 52.3423 83.4498L44.7611 107.207C44.7528 107.233 44.733 107.254 44.7072 107.264C44.6969 107.268 44.6861 107.27 44.6754 107.27ZM26.4623 96.2037L44.6241 107.044L52.1486 83.4645L36.4216 74.4904L26.4623 96.2037Z" fill="black"/>
<path id="Vector_83" d="M47.0613 84.0702C47.0278 84.0702 46.9956 84.0514 46.9801 84.0192C46.7933 83.631 46.7229 83.1697 46.771 82.6483C46.9659 80.5361 48.9546 78.5391 50.8632 78.5391C51.2679 78.5391 51.6265 78.6314 51.929 78.8134C51.9716 78.839 51.9854 78.8943 51.9597 78.9369C51.9341 78.9794 51.8788 78.9932 51.8362 78.9676C51.5621 78.8026 51.2348 78.719 50.8632 78.719C49.0389 78.719 47.1373 80.6365 46.9502 82.6647C46.9051 83.1532 46.9698 83.5826 47.1423 83.941C47.1639 83.9858 47.145 84.0395 47.1003 84.0611C47.0877 84.0673 47.0743 84.0702 47.0613 84.0702Z" fill="black"/>
<path id="Vector_84" d="M39.2742 79.4843C39.2407 79.4843 39.2085 79.4655 39.193 79.4333C39.0062 79.0451 38.9358 78.5839 38.9839 78.0623C39.1788 75.9501 41.1675 73.9531 43.0762 73.9531C43.4809 73.9531 43.8395 74.0455 44.142 74.2274C44.1846 74.2531 44.1983 74.3084 44.1727 74.3509C44.147 74.3935 44.0918 74.4073 44.0492 74.3816C43.7751 74.2166 43.4477 74.133 43.0762 74.133C41.2519 74.133 39.3503 76.0506 39.1632 78.0787C39.1181 78.5672 39.1827 78.9966 39.3553 79.3551C39.3769 79.3999 39.358 79.4537 39.3132 79.4753C39.3005 79.4815 39.2873 79.4843 39.2742 79.4843Z" fill="black"/>
<path id="Vector_85" d="M36.6906 85.3894L36.6658 85.3775L34.9351 85.4865L35.0945 84.5381L37.257 84.4062L38.1927 84.846L34.5849 93.4665L33.5005 92.9016L36.6906 85.3894Z" fill="#FF5823"/>
<path id="Vector_86" d="M34.5846 93.5528C34.5702 93.5528 34.5559 93.5494 34.543 93.5426L33.4586 92.9777C33.4169 92.956 33.399 92.9059 33.4173 92.8627L36.5565 85.4707L34.9405 85.5725C34.9131 85.5742 34.8864 85.5633 34.868 85.543C34.8496 85.5225 34.8415 85.4949 34.8461 85.4678L35.0055 84.5194C35.0124 84.4781 35.047 84.447 35.0887 84.4445L37.2513 84.3127C37.2664 84.3118 37.2814 84.3146 37.295 84.321L38.2307 84.7608C38.2744 84.7813 38.2941 84.8325 38.2755 84.877L34.6676 93.4975C34.6579 93.5207 34.6389 93.5388 34.6152 93.5474C34.6053 93.5511 34.5949 93.5528 34.5846 93.5528ZM33.6154 92.8565L34.5393 93.3378L38.076 84.887L37.2392 84.4937L35.171 84.6198L35.0423 85.3858L36.6598 85.2839C36.6751 85.283 36.6904 85.2859 36.7041 85.2925L36.729 85.3044C36.7725 85.3251 36.7919 85.3765 36.7731 85.4207L33.6154 92.8565Z" fill="black"/>
<path id="Vector_87" d="M41.3307 96.9831L42.2978 94.445L38.2695 92.405L38.5906 91.6092L44.6152 87.8672L45.8887 88.4657L43.8003 94.0383L45.0551 94.6669L44.6909 95.657L43.4326 95.0197L42.4736 97.5784L41.3307 96.9831ZM42.6686 93.4714L43.8137 90.4658C43.9902 90.0025 44.1794 89.5476 44.3812 89.1011L44.341 89.0819C43.8775 89.467 43.5184 89.7432 43.1215 90.0341L39.8299 92.0164L39.8191 92.0439L42.6686 93.4714Z" fill="#FF5823"/>
<path id="Vector_88" d="M42.4732 97.6646C42.4589 97.6646 42.4446 97.6611 42.4317 97.6544L41.2888 97.059C41.2483 97.038 41.23 96.9898 41.2463 96.9472L42.1844 94.4849L38.2286 92.4815C38.1869 92.4603 38.1683 92.4108 38.1857 92.3675L38.5068 91.5717C38.5139 91.554 38.5265 91.5391 38.5428 91.529L44.5674 87.787C44.5933 87.7709 44.6255 87.7691 44.6531 87.7819L45.9266 88.3804C45.969 88.4004 45.9891 88.4496 45.9726 88.4935L43.9126 93.9902L45.095 94.5825C45.136 94.603 45.155 94.651 45.1392 94.694L44.775 95.6841C44.7661 95.7082 44.7474 95.7274 44.7234 95.7368C44.6995 95.7462 44.6728 95.745 44.6498 95.7334L43.4812 95.1415L42.5575 97.6061C42.5484 97.6302 42.5295 97.6493 42.5055 97.6585C42.495 97.6626 42.4841 97.6646 42.4732 97.6646ZM41.4429 96.9365L42.4246 97.4478L43.3479 94.9844C43.3569 94.9604 43.3756 94.9414 43.3994 94.9321C43.4233 94.9228 43.4499 94.9241 43.4728 94.9357L44.6409 95.5272L44.9425 94.7075L43.7596 94.1151C43.7185 94.0944 43.6995 94.0461 43.7156 94.003L45.7749 88.5081L44.6207 87.9657L38.6626 91.6664L38.3836 92.3583L42.3381 94.3609C42.3792 94.3817 42.3979 94.4302 42.3815 94.4733L41.4429 96.9365ZM42.6683 93.5576C42.6544 93.5576 42.6406 93.5544 42.628 93.5481L39.7784 92.1207C39.7366 92.0998 39.7178 92.0504 39.735 92.007L39.7459 91.9794C39.7532 91.9612 39.7662 91.9457 39.7831 91.9355L43.0746 89.9533C43.509 89.6345 43.861 89.3596 44.283 89.0089C44.31 88.9865 44.3475 88.9817 44.3792 88.9968L44.4193 89.016C44.4636 89.0371 44.4829 89.0896 44.4626 89.1344C44.2624 89.5777 44.0721 90.0352 43.8972 90.4942L42.7522 93.4997C42.7431 93.5235 42.7244 93.5423 42.7007 93.5516C42.6904 93.5556 42.6793 93.5576 42.6683 93.5576ZM39.9862 92.0235L42.6196 93.3426L43.7293 90.4301C43.8706 90.0591 44.0219 89.6891 44.1804 89.3267C43.8461 89.599 43.5407 89.8345 43.1744 90.103L39.9862 92.0235Z" fill="black"/>
<path id="Vector_89" d="M52.2563 83.4208L54.0793 82.7969L52.2563 83.4208Z" fill="white"/>
<path id="Vector_90" d="M52.2565 83.5149C52.2191 83.5149 52.1842 83.4914 52.1714 83.454C52.1553 83.407 52.1804 83.3558 52.2274 83.3397L54.0503 82.7158C54.0973 82.6997 54.1485 82.7248 54.1646 82.7718C54.1807 82.8188 54.1556 82.87 54.1086 82.8861L52.2857 83.51C52.276 83.5134 52.2662 83.5149 52.2565 83.5149Z" fill="black"/>
<path id="Vector_91" d="M35.9486 113.334V115.092C35.9486 115.367 35.7977 115.62 35.5556 115.751L31.6101 117.88C31.2027 118.123 30.695 118.123 30.2877 117.88L15.5728 109.096C15.4093 108.999 15.3096 108.823 15.3096 108.632V106.376L15.3125 106.375C15.3125 106.375 33.7531 111.947 35.9486 113.334Z" fill="#FF5823"/>
<path id="Vector_92" d="M30.95 118.148C30.7052 118.148 30.4599 118.083 30.2412 117.953L15.5263 109.169C15.337 109.057 15.2192 108.849 15.2192 108.628V106.372C15.2192 106.335 15.2416 106.302 15.2757 106.288C15.2947 106.281 15.3186 106.279 15.3382 106.285C16.0917 106.512 33.8156 111.876 35.9964 113.254C36.0225 113.271 36.0383 113.299 36.0383 113.33V115.088C36.0383 115.397 35.8696 115.68 35.5979 115.826L31.6524 117.955C31.4365 118.084 31.1934 118.148 30.95 118.148ZM15.3992 106.491V108.628C15.3992 108.786 15.4833 108.934 15.6186 109.015L30.3336 117.798C30.7128 118.024 31.1842 118.025 31.5637 117.799L35.5125 115.668C35.7258 115.553 35.8583 115.331 35.8583 115.088V113.38C33.6127 112.032 16.9428 106.959 15.3992 106.491Z" fill="black"/>
<path id="Vector_93" d="M35.795 113.052C36.0075 113.184 35.9971 113.496 35.7767 113.614L31.9712 115.656C31.5117 115.91 30.8324 115.899 30.3818 115.63L15.5724 106.784C15.4142 106.689 15.3269 106.534 15.3121 106.373C15.2932 106.176 15.3806 105.97 15.5747 105.856L19.3158 103.872C19.9498 103.531 20.4289 103.677 21.0441 104.05C24.0647 105.885 33.1048 111.381 35.795 113.052Z" fill="#FF5823"/>
<path id="Vector_94" d="M31.2043 115.934C30.8954 115.934 30.5856 115.859 30.336 115.71L15.5265 106.864C15.3517 106.759 15.2411 106.584 15.2227 106.384C15.1991 106.138 15.3166 105.907 15.5293 105.781L19.274 103.795C19.9449 103.434 20.4667 103.597 21.0911 103.976C23.8664 105.662 33.1324 111.295 35.8428 112.978C35.9701 113.057 36.0432 113.194 36.0385 113.343C36.0337 113.493 35.9519 113.625 35.8196 113.696L32.014 115.739C31.7779 115.869 31.4916 115.934 31.2043 115.934ZM20.0084 103.771C19.8038 103.771 19.5938 103.828 19.3588 103.954L15.6172 105.938C15.4689 106.026 15.3851 106.191 15.402 106.367C15.4151 106.51 15.4942 106.635 15.619 106.71L30.4282 115.555C30.8516 115.808 31.4963 115.819 31.928 115.581L35.7344 113.538C35.8094 113.498 35.8558 113.423 35.8585 113.338C35.8612 113.253 35.8198 113.176 35.7478 113.131C33.038 111.448 23.7727 105.816 20.9976 104.13C20.6328 103.908 20.3273 103.771 20.0084 103.771Z" fill="black"/>
<path id="Vector_95" d="M35.9485 113.329V115.087C35.9485 115.362 35.7976 115.615 35.5555 115.745L31.6099 117.874C31.2025 118.117 30.6948 118.117 30.2876 117.874L24.7817 114.587V112.281C24.7816 112.281 35.0141 112.738 35.9485 113.329Z" fill="white"/>
<path id="Vector_96" d="M30.9503 118.151C30.7055 118.151 30.4603 118.086 30.2416 117.955L24.7357 114.669C24.7085 114.653 24.6919 114.623 24.6919 114.591V112.285C24.6919 112.261 24.702 112.237 24.7197 112.22C24.7374 112.203 24.7615 112.194 24.7859 112.195C25.2047 112.214 35.0531 112.661 35.9968 113.257C36.0229 113.273 36.0387 113.302 36.0387 113.333V115.091C36.0387 115.399 35.87 115.682 35.5984 115.829L31.6529 117.958C31.4369 118.086 31.1938 118.151 30.9503 118.151ZM24.8718 114.54L30.3338 117.801C30.7131 118.027 31.1845 118.027 31.5639 117.801L35.5128 115.67C35.7261 115.555 35.8586 115.333 35.8586 115.091V113.386C34.9542 112.942 28.3684 112.538 24.8717 112.379L24.8718 114.54Z" fill="black"/>
<path id="Vector_97" d="M30.0331 109.523C30.0331 109.523 34.8293 112.455 35.7951 113.055C36.0076 113.187 35.9973 113.499 35.7769 113.617L31.9713 115.659C31.5118 115.913 30.8325 115.902 30.3819 115.633L24.7817 112.288L30.0331 109.523Z" fill="white"/>
<path id="Vector_98" d="M31.2038 115.93C30.895 115.93 30.5852 115.855 30.3355 115.706L24.7353 112.361C24.7074 112.345 24.6905 112.314 24.6914 112.282C24.6923 112.249 24.7107 112.22 24.7395 112.204L29.9908 109.44C30.0189 109.425 30.0527 109.426 30.0797 109.443C30.1276 109.472 34.8873 112.381 35.8423 112.974C35.9695 113.053 36.0427 113.19 36.038 113.34C36.0332 113.49 35.9514 113.622 35.8191 113.693L32.0136 115.735C31.7775 115.865 31.4911 115.93 31.2038 115.93ZM24.9653 112.289L30.4279 115.552C30.8512 115.804 31.496 115.815 31.9276 115.577L35.7341 113.534C35.8091 113.494 35.8555 113.419 35.8582 113.334C35.8609 113.249 35.8195 113.172 35.7474 113.127C34.8421 112.565 30.5135 109.919 30.0295 109.623L24.9653 112.289Z" fill="black"/>
<path id="Vector_99" d="M33.5969 113.292C33.677 113.342 33.6732 113.459 33.5901 113.504L32.1551 114.274C31.9819 114.37 31.7258 114.365 31.5558 114.264L25.9716 110.929C25.9119 110.893 25.879 110.834 25.8735 110.773C25.8664 110.699 25.8993 110.622 25.9725 110.578L27.3832 109.83C27.6222 109.702 27.8028 109.757 28.0349 109.898C29.1738 110.59 32.5826 112.662 33.5969 113.292Z" fill="white"/>
<path id="Vector_100" d="M31.866 114.438C31.7393 114.438 31.612 114.407 31.5095 114.346L25.9253 111.011C25.8437 110.962 25.7923 110.88 25.7836 110.786C25.7726 110.672 25.8274 110.564 25.9265 110.506L27.3408 109.756C27.617 109.607 27.829 109.672 28.0813 109.825C29.1284 110.462 32.6239 112.586 33.6442 113.22C33.7094 113.261 33.7469 113.331 33.7445 113.407C33.742 113.484 33.7002 113.552 33.6324 113.588L32.1975 114.358C32.101 114.411 31.9837 114.438 31.866 114.438ZM27.6443 109.852C27.5753 109.852 27.505 109.872 27.4257 109.914L26.0146 110.663C25.9792 110.684 25.9586 110.724 25.963 110.77C25.9663 110.806 25.9863 110.837 26.0179 110.856L31.6019 114.191C31.7434 114.276 31.9673 114.28 32.1116 114.2L33.5476 113.429C33.562 113.422 33.5646 113.409 33.5648 113.402C33.565 113.395 33.5634 113.382 33.5495 113.373C32.5298 112.74 29.035 110.615 27.9882 109.979C27.8578 109.9 27.7529 109.852 27.6443 109.852Z" fill="black"/>
</g>
</svg>
