<svg width="16" height="16" viewBox="0 0 16 16" fill="none" xmlns="http://www.w3.org/2000/svg">
<path d="M1.33301 14.6673V2.66732C1.33301 2.30065 1.46356 1.98676 1.72467 1.72565C1.98579 1.46454 2.29967 1.33398 2.66634 1.33398H13.333C13.6997 1.33398 14.0136 1.46454 14.2747 1.72565C14.5358 1.98676 14.6663 2.30065 14.6663 2.66732V10.6673C14.6663 11.034 14.5358 11.3479 14.2747 11.609C14.0136 11.8701 13.6997 12.0007 13.333 12.0007H3.99967L1.33301 14.6673ZM7.99967 10.0007C8.18856 10.0007 8.3469 9.93676 8.47468 9.80898C8.60245 9.68121 8.66634 9.52287 8.66634 9.33398C8.66634 9.1451 8.60245 8.98676 8.47468 8.85898C8.3469 8.73121 8.18856 8.66732 7.99967 8.66732C7.81079 8.66732 7.65245 8.73121 7.52467 8.85898C7.3969 8.98676 7.33301 9.1451 7.33301 9.33398C7.33301 9.52287 7.3969 9.68121 7.52467 9.80898C7.65245 9.93676 7.81079 10.0007 7.99967 10.0007ZM7.33301 7.33398H8.66634V3.33398H7.33301V7.33398Z" fill="#3D3D3D"/>
</svg>
