<svg width="200" height="188" viewBox="0 0 200 188" fill="none" xmlns="http://www.w3.org/2000/svg">
<g clip-path="url(#clip0_379_10995)">
<path d="M183.126 30.9868L135.093 3.41466C134.478 3.06165 133.711 3.50674 133.713 4.21556L133.839 45.4455C133.839 45.595 133.879 45.7418 133.953 45.8713C134.028 46.0007 134.136 46.1084 134.265 46.1834L184.251 75.178C184.258 75.1821 184.266 75.1843 184.275 75.1844C184.283 75.1844 184.291 75.1823 184.298 75.1781C184.306 75.174 184.312 75.1681 184.316 75.1609C184.32 75.1537 184.322 75.1456 184.322 75.1373L184.454 33.287C184.455 32.8206 184.333 32.3621 184.1 31.9582C183.867 31.5542 183.531 31.2191 183.126 30.9868H183.126Z" fill="white"/>
<path d="M184.275 75.3052C184.245 75.3052 184.216 75.2975 184.19 75.2824L134.204 46.2878C134.056 46.2018 133.934 46.0788 133.848 45.931C133.763 45.7832 133.717 45.6156 133.717 45.4449L133.592 4.21499C133.59 3.83799 133.784 3.50009 134.11 3.31067C134.437 3.12126 134.826 3.1204 135.153 3.30811L183.187 30.8804C183.61 31.1238 183.961 31.4745 184.205 31.897C184.449 32.3194 184.577 32.7988 184.576 33.2865L184.444 75.1368C184.444 75.1815 184.426 75.2243 184.394 75.2558C184.362 75.2874 184.319 75.3052 184.275 75.3053L184.275 75.3052ZM134.634 3.41202C134.493 3.4123 134.355 3.45 134.233 3.52128C134.111 3.59106 134.01 3.69203 133.94 3.8138C133.87 3.93557 133.834 4.07376 133.835 4.21414L133.96 45.4442C133.961 45.5724 133.995 45.6981 134.059 45.8091C134.123 45.9201 134.215 46.0124 134.326 46.077L184.2 75.0067L184.332 33.2855C184.333 32.8408 184.216 32.4036 183.994 32.0183C183.771 31.6331 183.451 31.3133 183.066 31.0914L135.032 3.51933C134.911 3.44931 134.774 3.4123 134.634 3.41202Z" fill="#1C3333"/>
<path d="M185.413 31.127C185.66 31.5397 185.79 32.012 185.788 32.4929L185.657 74.3428L184.307 75.17C184.312 75.1655 184.315 75.1602 184.318 75.1543C184.321 75.1484 184.322 75.142 184.322 75.1356L184.453 33.2848C184.455 32.8251 184.336 32.373 184.109 31.9732L185.413 31.127Z" fill="#1C3333"/>
<path d="M184.307 75.2923C184.286 75.2923 184.265 75.2868 184.247 75.2764C184.228 75.2659 184.213 75.2509 184.202 75.2327C184.191 75.2145 184.185 75.1939 184.185 75.1727C184.185 75.1516 184.19 75.1307 184.2 75.1121L184.331 33.2848C184.332 32.8464 184.219 32.4151 184.003 32.0336C183.988 32.0066 183.983 31.9748 183.991 31.9446C183.998 31.9144 184.017 31.8882 184.043 31.8714L185.347 31.0254C185.375 31.0074 185.409 31.0018 185.441 31.0088C185.473 31.0164 185.501 31.0367 185.518 31.065C185.776 31.4967 185.912 31.9907 185.91 32.4938L185.779 74.3435C185.779 74.3643 185.773 74.3847 185.763 74.4029C185.753 74.421 185.738 74.4362 185.72 74.447L184.371 75.2743C184.352 75.286 184.33 75.2922 184.307 75.2922L184.307 75.2923ZM184.27 32.0146C184.472 32.4079 184.576 32.8437 184.575 33.2857L184.444 74.9435L185.535 74.275L185.666 32.4932C185.668 32.0773 185.566 31.6675 185.371 31.3003L184.27 32.0146Z" fill="#1C3333"/>
<path d="M184.109 31.9721C183.876 31.5607 183.536 31.2194 183.126 30.9839L135.092 3.41169C134.788 3.23702 134.446 3.2576 134.179 3.40877C134.437 3.24981 135.324 2.69935 135.589 2.57863C135.722 2.51796 135.867 2.49003 136.013 2.49719C136.159 2.50436 136.301 2.5464 136.427 2.6198L184.461 30.192C184.853 30.4166 185.181 30.7383 185.413 31.126L184.109 31.9721H184.109Z" fill="white"/>
<path d="M184.109 32.0988C184.087 32.0989 184.066 32.0932 184.048 32.0823C184.029 32.0715 184.014 32.0558 184.003 32.037C183.78 31.6447 183.457 31.3192 183.065 31.0945L135.032 3.52219C134.911 3.45236 134.775 3.41537 134.636 3.41492C134.497 3.41448 134.36 3.45058 134.24 3.51963C134.212 3.53501 134.179 3.53897 134.149 3.53067C134.118 3.52237 134.092 3.50247 134.076 3.47519C134.059 3.44791 134.055 3.41541 134.062 3.38459C134.069 3.35376 134.089 3.32705 134.115 3.31011L134.15 3.28868C134.634 2.98927 135.304 2.57925 135.539 2.47267C135.689 2.4038 135.854 2.37206 136.019 2.38014C136.184 2.38821 136.345 2.43587 136.488 2.51908L184.522 30.0914C184.932 30.3267 185.275 30.663 185.518 31.0684C185.551 31.1247 185.534 31.1975 185.479 31.2332L184.176 32.0792C184.156 32.092 184.133 32.0988 184.109 32.0988H184.109ZM134.788 3.1827C134.917 3.20253 135.04 3.24602 135.153 3.31097L183.187 30.8833C183.578 31.108 183.908 31.4248 184.149 31.8061L185.246 31.0942C185.029 30.7684 184.74 30.4974 184.4 30.3026L136.367 2.7303C136.257 2.6665 136.134 2.62994 136.007 2.62371C135.881 2.61747 135.754 2.64175 135.639 2.69448C135.489 2.76306 135.117 2.98293 134.788 3.1827Z" fill="#1C3333"/>
<path d="M133.72 6.55262L184.454 35.7987V33.2868C184.455 32.8205 184.333 32.362 184.1 31.958C183.867 31.5541 183.531 31.2189 183.126 30.9867L135.093 3.41466C134.478 3.06165 133.711 3.50674 133.713 4.21556L133.72 6.55262Z" fill="#8EAAA4"/>
<path d="M184.454 35.9197C184.433 35.9197 184.412 35.9142 184.393 35.9034L133.66 6.65738C133.641 6.64675 133.626 6.63144 133.615 6.61299C133.604 6.59453 133.599 6.57359 133.599 6.55226L133.592 4.21508C133.59 3.83808 133.784 3.50018 134.11 3.31076C134.436 3.12123 134.826 3.12037 135.153 3.30821L183.187 30.8805C183.61 31.1239 183.961 31.4746 184.205 31.8971C184.449 32.3195 184.577 32.7989 184.576 33.2866V35.798C184.576 35.814 184.573 35.8298 184.566 35.8446C184.56 35.8594 184.551 35.8729 184.54 35.8842C184.529 35.8955 184.515 35.9045 184.5 35.9106C184.486 35.9167 184.47 35.9198 184.454 35.9198L184.454 35.9197ZM133.842 6.48137L184.332 35.587V33.2861C184.333 32.8413 184.216 32.4041 183.994 32.0187C183.771 31.6334 183.451 31.3136 183.066 31.0916L135.032 3.51943C134.911 3.44873 134.773 3.41166 134.632 3.41202C134.492 3.41239 134.354 3.45018 134.233 3.5215C134.111 3.59127 134.01 3.69224 133.94 3.81401C133.87 3.93579 133.834 4.07397 133.835 4.21435L133.842 6.48125L133.842 6.48137Z" fill="#1C3333"/>
<path d="M178.863 31.1282C179.132 30.973 179.128 30.4639 178.855 29.9912C178.582 29.5185 178.143 29.261 177.874 29.4162C177.605 29.5715 177.609 30.0805 177.882 30.5532C178.155 31.0259 178.594 31.2834 178.863 31.1282Z" fill="white"/>
<path d="M178.688 31.2975C178.383 31.2975 178.02 31.039 177.776 30.6167C177.465 30.0776 177.481 29.5051 177.814 29.3134C178.146 29.1214 178.65 29.3937 178.961 29.9329C179.273 30.472 179.256 31.0445 178.924 31.2363C178.852 31.2773 178.771 31.2984 178.688 31.2975ZM177.987 30.4949C178.243 30.9371 178.622 31.1294 178.802 31.0253C178.983 30.9212 179.005 30.497 178.75 30.0547C178.495 29.6125 178.116 29.4201 177.935 29.5243C177.755 29.6284 177.732 30.0527 177.987 30.4949Z" fill="#1C3333"/>
<path d="M180.918 32.3489C181.187 32.1937 181.184 31.6846 180.911 31.2119C180.638 30.7392 180.198 30.4817 179.93 30.637C179.661 30.7922 179.664 31.3012 179.937 31.7739C180.21 32.2467 180.649 32.5041 180.918 32.3489Z" fill="white"/>
<path d="M180.742 32.5188C180.625 32.5188 180.497 32.4806 180.368 32.4046C180.164 32.2853 179.974 32.084 179.832 31.8374C179.52 31.2983 179.537 30.7258 179.869 30.534C180.201 30.3421 180.705 30.6146 181.016 31.1537C181.328 31.6927 181.311 32.2651 180.979 32.4569C180.907 32.4984 180.825 32.5198 180.741 32.5189L180.742 32.5188ZM180.043 31.7155C180.164 31.9261 180.323 32.0961 180.491 32.1943C180.635 32.2784 180.768 32.2975 180.857 32.2458C181.038 32.1418 181.061 31.7175 180.805 31.2754C180.55 30.833 180.171 30.6407 179.99 30.745C179.81 30.849 179.787 31.2733 180.042 31.7156L180.043 31.7155Z" fill="#1C3333"/>
<path d="M182.95 33.5012C183.219 33.346 183.216 32.837 182.943 32.3642C182.67 31.8915 182.23 31.6341 181.962 31.7893C181.693 31.9445 181.696 32.4535 181.969 32.9263C182.242 33.399 182.681 33.6564 182.95 33.5012Z" fill="white"/>
<path d="M182.773 33.6679C182.656 33.6679 182.529 33.6297 182.399 33.5537C182.196 33.4344 182.006 33.2331 181.863 32.9865C181.721 32.74 181.642 32.4745 181.64 32.2389C181.638 31.9784 181.731 31.7811 181.901 31.6832C182.07 31.585 182.287 31.6039 182.512 31.7355C182.715 31.8548 182.906 32.0562 183.048 32.3027C183.191 32.5492 183.27 32.8148 183.271 33.0504C183.273 33.3108 183.181 33.5081 183.011 33.6061C182.939 33.6475 182.857 33.6689 182.773 33.6681V33.6679ZM182.138 31.8656C182.095 31.8656 182.055 31.875 182.022 31.8941C181.933 31.9455 181.883 32.0705 181.884 32.2372C181.885 32.4311 181.953 32.6539 182.075 32.8645C182.196 33.0751 182.355 33.2451 182.523 33.3433C182.667 33.4274 182.8 33.4465 182.889 33.3949C182.978 33.3434 183.029 33.2185 183.028 33.0518C183.027 32.8579 182.959 32.6351 182.837 32.4245C182.716 32.2139 182.556 32.0439 182.389 31.9457C182.299 31.8927 182.212 31.8656 182.138 31.8656Z" fill="#1C3333"/>
</g>
<g clip-path="url(#clip1_379_10995)">
<path d="M87.3677 75.4858L85.7399 76.4845L52.1014 54.8683L50.3062 1.23036L51.9342 0.140625L83.0867 18.0267L87.5024 25.6362L87.3677 75.4858Z" fill="white"/>
<path d="M85.74 76.6091C85.7166 76.6091 85.6938 76.6023 85.6741 76.5897L52.0356 54.9737C52.019 54.963 52.0052 54.9485 51.9955 54.9313C51.9858 54.9142 51.9804 54.8949 51.9797 54.8752L50.1844 1.23713C50.1837 1.21644 50.1883 1.19592 50.1978 1.1775C50.2072 1.15908 50.2212 1.14337 50.2384 1.13185L51.8666 0.0421204C51.8855 0.0294553 51.9075 0.0223306 51.9302 0.0215552C51.9529 0.0207798 51.9754 0.0263847 51.9951 0.0377336L83.1476 17.9238C83.1661 17.9345 83.1816 17.9499 83.1923 17.9683L87.6079 25.5776C87.6188 25.5963 87.6245 25.6176 87.6244 25.6392L87.4897 75.4889C87.4896 75.5097 87.4843 75.5301 87.4741 75.5482C87.4639 75.5664 87.4493 75.5816 87.4315 75.5925L85.8037 76.5912C85.7845 76.6029 85.7625 76.6091 85.74 76.6091ZM52.2212 54.8032L85.7415 76.3433L87.2461 75.4202L87.3806 25.6713L82.9979 18.1188L51.9393 0.286801L50.4304 1.29672L52.2212 54.8032Z" fill="#1C3333"/>
<path d="M85.8743 26.7265L85.74 76.485L87.5025 75.4037V25.6367L85.8743 26.7265Z" fill="#1C3333"/>
<path d="M85.7399 76.6079C85.7076 76.6079 85.6765 76.595 85.6537 76.572C85.6308 76.5491 85.618 76.5181 85.618 76.4857L85.7524 26.727C85.7524 26.6866 85.7727 26.6487 85.8065 26.6261L87.4346 25.5364C87.4529 25.5241 87.4743 25.5169 87.4964 25.5158C87.5185 25.5146 87.5404 25.5196 87.5599 25.53C87.5794 25.5404 87.5957 25.5559 87.6071 25.5749C87.6184 25.5939 87.6244 25.6156 87.6243 25.6377V75.4048C87.6243 75.4472 87.6022 75.4865 87.5661 75.5087L85.8037 76.59C85.7845 76.6018 85.7624 76.608 85.7399 76.6079ZM85.9961 26.7927L85.8625 76.268L87.3806 75.3365V25.8659L85.9961 26.7926V26.7927Z" fill="#1C3333"/>
<path d="M85.7399 76.4846L50.3619 55.8935L50.3062 1.23047L81.4586 19.1165L81.4491 24.0972L85.8742 26.726L85.7399 76.4846Z" fill="#8EAAA4"/>
<path d="M85.7401 76.6092C85.7185 76.6092 85.6974 76.6035 85.6788 76.5926L50.3007 56.0015C50.2824 55.9908 50.2671 55.9754 50.2565 55.957C50.2458 55.9386 50.2402 55.9177 50.2402 55.8964L50.1844 1.23335C50.1844 1.21196 50.19 1.19094 50.2007 1.1724C50.2114 1.15386 50.2267 1.13845 50.2453 1.12773C50.2638 1.11701 50.2848 1.11135 50.3062 1.11133C50.3276 1.1113 50.3486 1.11691 50.3672 1.12758L81.5197 19.0137C81.5576 19.0355 81.5809 19.0759 81.5809 19.1195L81.5715 24.0307L85.937 26.624C85.9552 26.6348 85.9702 26.6502 85.9807 26.6686C85.9911 26.687 85.9966 26.7078 85.9966 26.729L85.8622 76.4877C85.8622 76.5037 85.8591 76.5195 85.8529 76.5343C85.8468 76.549 85.8378 76.5624 85.8265 76.5737C85.8152 76.585 85.8017 76.594 85.787 76.6C85.7722 76.6061 85.7563 76.6092 85.7403 76.6092H85.7401ZM50.484 55.8262L85.6189 76.2758L85.7525 26.798L81.3872 24.2047C81.369 24.1939 81.3539 24.1786 81.3434 24.1602C81.333 24.1418 81.3275 24.121 81.3276 24.0998L81.3369 19.1899L50.4285 1.44391L50.484 55.8262Z" fill="#1C3333"/>
<path d="M85.8743 26.7286L81.4492 24.0998L81.4587 19.1191L85.8743 26.7286Z" fill="#8EAAA4"/>
<path d="M85.8744 26.8504C85.8525 26.8505 85.831 26.8445 85.8122 26.8333L81.387 24.2045C81.3688 24.1937 81.3537 24.1784 81.3433 24.16C81.3328 24.1416 81.3273 24.1208 81.3274 24.0996L81.3369 19.119C81.3369 19.0922 81.3458 19.0662 81.3621 19.0449C81.3785 19.0237 81.4013 19.0084 81.4272 19.0015C81.4531 18.9946 81.4805 18.9964 81.5053 19.0066C81.5301 19.0168 81.5508 19.0349 81.5642 19.0581L85.9799 26.6674C85.9907 26.686 85.9964 26.707 85.9964 26.7284C85.9964 26.7498 85.9908 26.7709 85.9801 26.7895C85.9694 26.808 85.954 26.8234 85.9354 26.8341C85.9169 26.8448 85.8958 26.8505 85.8744 26.8504ZM81.5713 24.0305L85.5339 26.3845L81.5798 19.5706L81.5713 24.0305ZM80.8735 32.599C80.8522 32.599 80.8312 32.5933 80.8127 32.5827L55.268 17.8622C55.2541 17.8542 55.2419 17.8436 55.2322 17.8309C55.2224 17.8182 55.2152 17.8038 55.2111 17.7883C55.2069 17.7729 55.2059 17.7567 55.2079 17.7409C55.21 17.725 55.2152 17.7097 55.2232 17.6959C55.2312 17.682 55.2419 17.6698 55.2545 17.66C55.2672 17.6503 55.2817 17.6431 55.2972 17.6389C55.3127 17.6348 55.3288 17.6337 55.3447 17.6358C55.3606 17.6379 55.3759 17.6431 55.3898 17.6511L80.9346 32.3717C80.958 32.385 80.9764 32.4057 80.9868 32.4305C80.9972 32.4554 80.9991 32.483 80.9921 32.509C80.9851 32.535 80.9697 32.5579 80.9483 32.5743C80.9268 32.5906 80.9006 32.5993 80.8737 32.5991L80.8735 32.599ZM80.9013 38.5556C80.8807 38.5556 80.8599 38.5504 80.8406 38.5394L55.2681 23.8377C55.2401 23.8216 55.2196 23.7951 55.2112 23.7639C55.2027 23.7326 55.2071 23.6994 55.2232 23.6714C55.2393 23.6433 55.2659 23.6229 55.2971 23.6144C55.3283 23.606 55.3616 23.6103 55.3896 23.6265L80.9623 38.3281C80.9856 38.3415 81.0038 38.3622 81.0141 38.387C81.0244 38.4118 81.0262 38.4394 81.0193 38.4653C81.0123 38.4913 80.997 38.5142 80.9757 38.5305C80.9543 38.5469 80.9282 38.5557 80.9013 38.5556ZM80.9217 44.4683C80.9003 44.4683 80.8794 44.4627 80.8609 44.452L55.2829 29.7122C55.269 29.7042 55.2568 29.6936 55.247 29.6809C55.2373 29.6682 55.2301 29.6537 55.226 29.6383C55.2218 29.6228 55.2207 29.6067 55.2228 29.5908C55.2249 29.575 55.2301 29.5597 55.2381 29.5458C55.2461 29.5319 55.2567 29.5198 55.2694 29.51C55.2821 29.5002 55.2966 29.493 55.3121 29.4889C55.3276 29.4847 55.3437 29.4837 55.3596 29.4858C55.3755 29.4879 55.3908 29.4931 55.4046 29.5011L80.9828 44.2409C81.0062 44.2542 81.0246 44.2749 81.035 44.2998C81.0454 44.3246 81.0472 44.3522 81.0402 44.3782C81.0333 44.4042 81.0179 44.4272 80.9964 44.4435C80.975 44.4598 80.9488 44.4685 80.9218 44.4683H80.9217ZM80.9217 50.4437C80.9003 50.4438 80.8792 50.4381 80.8607 50.4273L55.2708 35.6163C55.2428 35.6001 55.2225 35.5735 55.2141 35.5423C55.2058 35.511 55.2102 35.4778 55.2264 35.4499C55.2344 35.436 55.245 35.4238 55.2577 35.414C55.2704 35.4043 55.2849 35.3971 55.3004 35.393C55.3159 35.3889 55.3321 35.3878 55.3479 35.39C55.3638 35.3921 55.3791 35.3974 55.3929 35.4055L80.9829 50.2165C81.0061 50.2299 81.0242 50.2507 81.0344 50.2754C81.0446 50.3002 81.0464 50.3277 81.0394 50.3536C81.0325 50.3795 81.0172 50.4023 80.9959 50.4186C80.9746 50.4349 80.9485 50.4438 80.9217 50.4437ZM80.9217 56.3406C80.9003 56.3406 80.8792 56.3349 80.8607 56.3241L55.3065 41.529C55.2922 41.5212 55.2796 41.5107 55.2694 41.4979C55.2592 41.4852 55.2517 41.4706 55.2473 41.4549C55.2429 41.4392 55.2417 41.4228 55.2437 41.4066C55.2457 41.3905 55.251 41.3749 55.2592 41.3608C55.2673 41.3467 55.2782 41.3344 55.2912 41.3246C55.3043 41.3148 55.3191 41.3077 55.3349 41.3037C55.3507 41.2997 55.3671 41.299 55.3832 41.3015C55.3993 41.3039 55.4148 41.3096 55.4286 41.3182L80.9829 56.1133C81.0061 56.1268 81.0242 56.1475 81.0344 56.1723C81.0446 56.1971 81.0464 56.2245 81.0394 56.2504C81.0325 56.2763 81.0172 56.2991 80.9959 56.3155C80.9746 56.3318 80.9485 56.3406 80.9217 56.3406ZM80.8542 62.2032C80.8327 62.2032 80.8116 62.1974 80.7931 62.1866L55.2824 47.3692C55.2685 47.3611 55.2564 47.3505 55.2467 47.3378C55.237 47.325 55.2299 47.3105 55.2258 47.2951C55.2217 47.2796 55.2207 47.2635 55.2228 47.2476C55.2249 47.2318 55.2302 47.2165 55.2382 47.2027C55.2463 47.1888 55.2569 47.1767 55.2697 47.167C55.2824 47.1573 55.2969 47.1501 55.3124 47.146C55.3279 47.142 55.344 47.1409 55.3599 47.1431C55.3758 47.1453 55.391 47.1505 55.4049 47.1586L80.9156 61.976C80.9388 61.9895 80.9568 62.0103 80.967 62.035C80.9772 62.0598 80.9789 62.0873 80.9719 62.1131C80.9649 62.139 80.9496 62.1618 80.9283 62.1781C80.907 62.1944 80.881 62.2032 80.8542 62.2032Z" fill="#1C3333"/>
</g>
<g clip-path="url(#clip2_379_10995)">
<path d="M117.91 123.602C146.266 123.602 169.253 100.615 169.253 72.2591C169.253 43.9031 146.266 20.916 117.91 20.916C89.5541 20.916 66.5671 43.9031 66.5671 72.2591C66.5671 100.615 89.5541 123.602 117.91 123.602Z" fill="#FF5823"/>
<path d="M117.91 123.725C110.962 123.725 104.222 122.364 97.8775 119.68C91.7491 117.088 86.2453 113.377 81.5189 108.651C76.7926 103.925 73.0817 98.4208 70.4896 92.2924C67.8059 85.9474 66.4451 79.2074 66.4451 72.2598C66.4451 65.3122 67.8059 58.5722 70.4896 52.2272C73.0817 46.0988 76.7924 40.5949 81.5189 35.8687C86.2453 31.1422 91.7491 27.4315 97.8775 24.8394C104.222 22.1557 110.962 20.7949 117.91 20.7949C124.858 20.7949 131.598 22.1557 137.942 24.8393C144.071 27.4314 149.575 31.1421 154.301 35.8686C159.027 40.5949 162.738 46.0988 165.33 52.2271C168.014 58.5721 169.375 65.312 169.375 72.2597C169.375 79.2074 168.014 85.9473 165.33 92.2922C162.738 98.4207 159.028 103.925 154.301 108.651C149.575 113.377 144.071 117.088 137.942 119.68C131.597 122.364 124.858 123.724 117.91 123.724V123.725ZM117.91 21.0386C89.6665 21.0386 66.6888 44.0163 66.6888 72.2598C66.6888 100.503 89.6665 123.481 117.91 123.481C146.153 123.481 169.131 100.503 169.131 72.2598C169.131 44.0163 146.153 21.0386 117.91 21.0386Z" fill="#1C3333"/>
<path d="M117.91 75.0601C101.604 75.0601 86.9214 69.6376 79.5919 60.9087C75.4395 55.9634 73.8103 50.1284 74.8806 44.0342C74.8923 43.968 74.9548 43.9246 75.0217 43.9352C75.0375 43.938 75.0525 43.9438 75.066 43.9524C75.0795 43.961 75.0912 43.9721 75.1004 43.9852C75.1096 43.9983 75.1161 44.0131 75.1196 44.0287C75.123 44.0444 75.1234 44.0605 75.1206 44.0763C74.0633 50.0972 75.6739 55.8635 79.7785 60.7519C87.063 69.4272 101.674 74.8163 117.91 74.8163C130.119 74.8163 141.222 71.9708 149.172 66.8038C157.391 61.4618 161.736 54.1636 161.736 45.6979C161.736 45.6655 161.748 45.6346 161.771 45.6117C161.794 45.5889 161.825 45.576 161.857 45.576C161.89 45.576 161.921 45.5889 161.943 45.6117C161.966 45.6346 161.979 45.6655 161.979 45.6979C161.979 50.0107 160.843 54.0628 158.603 57.7414C156.446 61.2821 153.318 64.3997 149.305 67.0081C141.316 72.2005 130.166 75.06 117.91 75.06L117.91 75.0601Z" fill="#1C3333"/>
<path d="M117.487 103.814C104.734 103.814 92.6002 101.011 83.3206 95.9213C78.6397 93.3541 74.8234 90.2928 71.9778 86.8224C69.0031 83.1946 67.1654 79.2051 66.5156 74.9649C66.5132 74.949 66.5139 74.9329 66.5177 74.9174C66.5215 74.9018 66.5284 74.8872 66.5378 74.8743C66.5473 74.8614 66.5592 74.8505 66.5729 74.8422C66.5866 74.8339 66.6018 74.8284 66.6176 74.826C66.6334 74.8235 66.6496 74.8243 66.6651 74.8281C66.6806 74.8319 66.6953 74.8387 66.7082 74.8482C66.7211 74.8577 66.732 74.8696 66.7403 74.8833C66.7486 74.897 66.7541 74.9121 66.7565 74.9279C69.2994 91.5243 90.6348 103.57 117.487 103.57C131.095 103.57 143.681 100.543 152.927 95.0468C162.439 89.3923 168.042 81.5638 169.132 72.4076C169.136 72.3757 169.153 72.3466 169.178 72.3267C169.203 72.3068 169.236 72.2978 169.268 72.3016C169.3 72.3054 169.329 72.3217 169.349 72.347C169.369 72.3722 169.378 72.4044 169.374 72.4364C168.82 77.0895 167.092 81.438 164.237 85.361C161.475 89.1568 157.711 92.486 153.051 95.2563C148.438 97.999 143.057 100.128 137.059 101.585C130.969 103.064 124.384 103.814 117.487 103.814Z" fill="#1C3333"/>
<path d="M118.089 123.724H118.089C118.073 123.724 118.057 123.721 118.042 123.715C118.027 123.709 118.014 123.7 118.003 123.688C117.991 123.677 117.982 123.664 117.976 123.649C117.97 123.634 117.967 123.618 117.967 123.602L118.233 20.9164C118.234 20.8841 118.246 20.8532 118.269 20.8305C118.292 20.8077 118.323 20.7949 118.355 20.7949H118.356C118.372 20.795 118.387 20.7981 118.402 20.8043C118.417 20.8105 118.43 20.8195 118.442 20.8308C118.453 20.8422 118.462 20.8556 118.468 20.8704C118.474 20.8852 118.477 20.9011 118.477 20.9171L118.211 123.603C118.211 123.635 118.198 123.666 118.175 123.689C118.152 123.712 118.121 123.724 118.089 123.724H118.089Z" fill="#1C3333"/>
<path d="M153.68 109.212C153.662 109.212 153.645 109.209 153.63 109.202C153.568 109.174 153.541 109.102 153.568 109.041C155.607 104.499 161.297 88.0505 148.942 67.0897C138.43 49.255 125.203 39.4002 118.255 35.1131C118.241 35.1048 118.229 35.0938 118.22 35.0808C118.21 35.0679 118.203 35.0531 118.2 35.0374C118.196 35.0217 118.195 35.0055 118.198 34.9895C118.2 34.9736 118.206 34.9583 118.214 34.9446C118.223 34.9309 118.234 34.9189 118.247 34.9095C118.26 34.9001 118.275 34.8934 118.291 34.8898C118.306 34.8862 118.323 34.8857 118.338 34.8885C118.354 34.8912 118.37 34.8971 118.383 34.9057C125.351 39.2046 138.613 49.0861 149.152 66.9659C154.586 76.1854 157.179 85.5996 156.857 94.9474C156.61 102.142 154.63 107.27 153.791 109.14C153.781 109.162 153.766 109.18 153.746 109.193C153.726 109.206 153.703 109.212 153.68 109.212Z" fill="#1C3333"/>
<path d="M169.253 72.5415C169.221 72.5415 169.19 72.5287 169.167 72.5058C169.144 72.483 169.131 72.452 169.131 72.4197C169.131 66.5994 168.17 59.5674 161.045 51.5427C153.51 43.0568 142.839 39.0344 135.213 37.1543C126.248 34.9438 119.248 35.0226 118.334 35.129C118.318 35.1309 118.301 35.1297 118.286 35.1253C118.271 35.121 118.256 35.1136 118.244 35.1037C118.231 35.0937 118.221 35.0814 118.213 35.0674C118.205 35.0533 118.2 35.0379 118.198 35.022C118.197 35.0061 118.198 34.99 118.202 34.9746C118.207 34.9593 118.214 34.9449 118.224 34.9324C118.234 34.9198 118.246 34.9094 118.26 34.9016C118.274 34.8938 118.289 34.8888 118.305 34.887C119.227 34.7793 126.271 34.6986 135.271 36.9177C140.19 38.1305 144.73 39.8033 148.763 41.8895C153.716 44.4512 157.91 47.6445 161.227 51.3809C164.604 55.1835 166.949 59.2324 168.197 63.4153C169.235 66.8924 169.375 69.9183 169.375 72.4197C169.375 72.452 169.362 72.483 169.339 72.5058C169.316 72.5287 169.285 72.5415 169.253 72.5415Z" fill="#1C3333"/>
<path d="M118.319 35.1311C118.293 35.1312 118.267 35.1226 118.246 35.1066C118.225 35.0907 118.209 35.0683 118.202 35.0428C118.195 35.0173 118.196 34.9901 118.206 34.9654C118.215 34.9406 118.232 34.9197 118.255 34.9057C122.929 32.0056 135.133 25.735 147.468 30.1287C147.484 30.134 147.498 30.1422 147.51 30.1529C147.522 30.1636 147.531 30.1766 147.538 30.1911C147.545 30.2056 147.549 30.2213 147.55 30.2374C147.551 30.2535 147.549 30.2695 147.543 30.2847C147.538 30.2999 147.53 30.3138 147.519 30.3257C147.508 30.3376 147.495 30.3473 147.48 30.3541C147.466 30.3609 147.45 30.3648 147.434 30.3655C147.418 30.3662 147.402 30.3638 147.387 30.3582C135.151 25.9996 123.028 32.2312 118.383 35.1126C118.364 35.1246 118.342 35.1309 118.319 35.1309L118.319 35.1311Z" fill="#1C3333"/>
<path d="M83.7554 110.717C83.7319 110.717 83.7088 110.711 83.6891 110.698C83.6694 110.685 83.6538 110.667 83.6441 110.645C83.0138 109.241 80.934 104.048 80.6355 96.1933C80.2724 86.639 82.6333 76.9768 87.6529 67.4749C91.8855 59.4626 97.4102 51.9859 103.63 45.8531C108.493 41.058 113.827 37.0662 118.266 34.9019C118.295 34.8885 118.328 34.887 118.358 34.8977C118.388 34.9083 118.413 34.9304 118.427 34.959C118.441 34.9877 118.443 35.0207 118.433 35.0509C118.423 35.0812 118.401 35.1063 118.373 35.1208C110.076 39.1669 97.1083 50.0978 87.8684 67.5886C82.869 77.0521 80.5176 86.6731 80.879 96.1839C81.1759 103.994 83.2408 109.151 83.8665 110.546C83.8748 110.564 83.8784 110.585 83.8769 110.605C83.8753 110.625 83.8687 110.645 83.8577 110.662C83.8466 110.679 83.8315 110.693 83.8136 110.703C83.7957 110.712 83.7757 110.717 83.7554 110.717Z" fill="#1C3333"/>
<path d="M66.567 72.5449C66.5346 72.5449 66.5037 72.532 66.4808 72.5092C66.458 72.4863 66.4451 72.4554 66.4451 72.423C66.4451 65.61 69.5416 58.6682 75.6484 51.7904C78.9663 48.0537 83.147 44.8391 88.0742 42.2361C92.09 40.1145 96.6018 38.3949 101.484 37.1245C109.957 34.9205 117.074 34.7432 118.333 34.8903C118.365 34.894 118.395 34.9103 118.415 34.9357C118.435 34.961 118.444 34.9932 118.44 35.0253C118.438 35.0412 118.433 35.0566 118.426 35.0706C118.418 35.0847 118.407 35.097 118.395 35.107C118.382 35.1169 118.368 35.1243 118.352 35.1286C118.337 35.1329 118.321 35.1342 118.305 35.1322C117.056 34.9868 109.984 35.1649 101.545 37.3603C93.9766 39.3295 83.3712 43.4596 75.8305 51.9522C69.7646 58.7841 66.6888 65.6714 66.6888 72.423C66.6888 72.4554 66.676 72.4863 66.6531 72.5092C66.6303 72.532 66.5993 72.5449 66.567 72.5449Z" fill="#1C3333"/>
<path d="M118.319 35.1344C118.297 35.1344 118.275 35.1284 118.255 35.1161C111.308 30.806 100.795 25.531 89.7479 29.4661C89.7176 29.4766 89.6843 29.4747 89.6553 29.4608C89.6264 29.4469 89.6041 29.4221 89.5933 29.3919C89.5825 29.3616 89.5841 29.3283 89.5978 29.2992C89.6114 29.2701 89.636 29.2476 89.6662 29.2366C94.8207 27.4007 100.48 27.4002 106.488 29.2356C111.292 30.7035 115.369 33.0387 118.384 34.9091C118.406 34.9231 118.424 34.944 118.433 34.9687C118.443 34.9935 118.444 35.0206 118.437 35.0461C118.429 35.0716 118.414 35.0941 118.393 35.11C118.372 35.1259 118.346 35.1344 118.319 35.1344Z" fill="#1C3333"/>
</g>
<g clip-path="url(#clip3_379_10995)">
<path d="M145.422 83.8182L37.2063 21.642C35.8209 20.8461 34.094 21.8498 34.0989 23.4482L34.3808 116.423C34.3818 116.76 34.4711 117.091 34.6396 117.383C34.8082 117.675 35.0503 117.918 35.3417 118.087L147.956 183.47C147.972 183.48 147.991 183.485 148.009 183.485C148.028 183.485 148.046 183.48 148.063 183.47C148.079 183.461 148.092 183.448 148.102 183.432C148.111 183.416 148.116 183.397 148.116 183.379L148.413 89.0049C148.416 87.9532 148.141 86.9194 147.616 86.0085C147.091 85.0975 146.334 84.3418 145.422 83.8181V83.8182Z" fill="white"/>
<path d="M148.01 183.61C147.97 183.61 147.931 183.6 147.895 183.579L35.2806 118.196C34.9712 118.015 34.7143 117.757 34.5351 117.447C34.3559 117.136 34.2607 116.785 34.259 116.427L33.9771 23.4519C33.9746 22.6571 34.3833 21.9443 35.0701 21.545C35.757 21.1459 36.5782 21.1437 37.267 21.5395L145.483 83.7157C147.372 84.8008 148.541 86.829 148.535 89.0085L148.238 183.382C148.238 183.422 148.227 183.462 148.207 183.496C148.187 183.531 148.158 183.56 148.123 183.579C148.089 183.599 148.05 183.61 148.01 183.61V183.61ZM36.1732 21.4885C35.8362 21.4885 35.4994 21.5777 35.1926 21.7559C34.582 22.1109 34.2187 22.7445 34.2208 23.4511L34.5027 116.426C34.5043 116.741 34.5882 117.051 34.7461 117.325C34.9039 117.598 35.1304 117.825 35.403 117.985L147.994 183.355L148.291 89.0078C148.297 86.9157 147.175 84.969 145.362 83.9273L37.1456 21.7511C36.8409 21.576 36.507 21.4885 36.1732 21.4885Z" fill="#1C3333"/>
<path d="M150.574 84.1406C151.131 85.0712 151.423 86.1362 151.419 87.2208L151.123 181.593L148.082 183.459C148.093 183.448 148.101 183.436 148.107 183.423C148.112 183.41 148.115 183.396 148.115 183.381L148.412 89.0063C148.415 87.9697 148.148 86.9501 147.636 86.0485L150.574 84.1406Z" fill="#1C3333"/>
<path d="M148.083 183.581C148.059 183.582 148.035 183.574 148.015 183.561C147.995 183.548 147.979 183.529 147.97 183.506C147.961 183.484 147.958 183.46 147.963 183.436C147.968 183.412 147.979 183.391 147.996 183.374L148.29 89.007C148.293 87.9915 148.031 86.9929 147.531 86.1095C147.516 86.0824 147.511 86.0505 147.519 86.0203C147.526 85.9902 147.545 85.9639 147.571 85.947L150.508 84.0392C150.522 84.0303 150.537 84.0242 150.553 84.0214C150.569 84.0185 150.586 84.019 150.602 84.0227C150.618 84.0264 150.633 84.0333 150.646 84.0429C150.659 84.0525 150.671 84.0648 150.679 84.0788C151.247 85.0285 151.545 86.1152 151.542 87.2219L151.245 181.594C151.245 181.615 151.24 181.636 151.23 181.654C151.219 181.672 151.205 181.687 151.187 181.698L148.146 183.563C148.127 183.575 148.105 183.581 148.083 183.581ZM147.799 86.0897C148.284 86.9855 148.537 87.9888 148.534 89.0077L148.238 183.221L151.002 181.526L151.298 87.2214C151.301 86.202 151.038 85.1994 150.534 84.3134L147.799 86.0897Z" fill="#1C3333"/>
<path d="M147.637 86.0493C147.111 85.1215 146.346 84.3519 145.422 83.8208L37.2058 21.6448C36.5202 21.251 35.7506 21.2974 35.149 21.6381C35.7284 21.2796 37.7276 20.0384 38.3247 19.7662C38.8975 19.5074 39.5896 19.5008 40.2133 19.8591L148.429 82.0351C149.313 82.5417 150.051 83.2671 150.574 84.1415L147.637 86.0493Z" fill="white"/>
<path d="M147.637 86.1706C147.615 86.1707 147.594 86.165 147.575 86.1541C147.557 86.1433 147.541 86.1276 147.531 86.1088C147.016 85.2002 146.266 84.4464 145.361 83.926L37.145 21.7499C36.5398 21.402 35.816 21.3997 35.2091 21.7436C35.1813 21.759 35.1487 21.7629 35.1181 21.7546C35.0874 21.7463 35.0613 21.7264 35.0451 21.6991C35.0289 21.6718 35.024 21.6393 35.0315 21.6084C35.0389 21.5775 35.0581 21.5508 35.0849 21.5339L35.1542 21.4908C35.8484 21.0612 37.692 19.9199 38.2743 19.6545C38.9251 19.3604 39.6539 19.3961 40.2741 19.7527L148.49 81.9288C149.391 82.4464 150.145 83.1864 150.679 84.0783C150.712 84.1346 150.695 84.2076 150.64 84.2433L147.703 86.1511C147.683 86.1639 147.66 86.1708 147.637 86.1708L147.637 86.1706ZM36.1715 21.2431C36.5477 21.2431 36.9239 21.3417 37.2664 21.5385L145.482 83.7146C146.387 84.2349 147.143 84.9795 147.678 85.8767L150.408 84.1033C149.9 83.2915 149.199 82.6173 148.369 82.1402L40.1526 19.9641C39.6011 19.6472 38.9531 19.6154 38.3749 19.8766C37.9596 20.066 36.8313 20.7461 36.011 21.2491C36.0644 21.2451 36.1179 21.243 36.1715 21.243V21.2431Z" fill="#1C3333"/>
<path d="M34.1149 28.7185L148.413 94.6693V89.0051C148.416 87.9535 148.141 86.9196 147.616 86.0087C147.091 85.0977 146.334 84.342 145.422 83.8183L37.2063 21.642C35.8209 20.8461 34.094 21.8498 34.0989 23.4482L34.1149 28.7185Z" fill="#8EAAA4"/>
<path d="M148.413 94.7946C148.392 94.7946 148.371 94.7891 148.352 94.7782L34.0541 28.8274C34.0356 28.8168 34.0202 28.8014 34.0095 28.783C33.9988 28.7645 33.9932 28.7435 33.9931 28.7222L33.9771 23.4519C33.9746 22.6571 34.3833 21.9443 35.0701 21.545C35.757 21.1459 36.5782 21.1437 37.267 21.5395L145.483 83.7157C147.372 84.8008 148.541 86.829 148.535 89.0084V94.6724C148.535 94.6884 148.532 94.7043 148.526 94.7191C148.52 94.7339 148.511 94.7473 148.499 94.7587C148.488 94.77 148.474 94.779 148.46 94.7851C148.445 94.7912 148.429 94.7943 148.413 94.7943V94.7946ZM34.2365 28.6512L148.291 94.4614V89.0082C148.297 86.9157 147.175 84.969 145.362 83.9273L37.1456 21.7511C36.5333 21.3993 35.8032 21.4011 35.1926 21.7559C34.582 22.1109 34.2187 22.7445 34.2208 23.4511L34.2365 28.6512Z" fill="#1C3333"/>
<path d="M39.4213 29.1914C40.1664 28.7609 40.1571 27.3491 39.4005 26.038C38.644 24.7268 37.4266 24.0128 36.6815 24.4433C35.9363 24.8737 35.9456 26.2855 36.7022 27.5967C37.4588 28.9078 38.6761 29.6218 39.4213 29.1914Z" fill="#CFDEDB"/>
<path d="M38.9254 29.4409C38.1614 29.4409 37.2329 28.7597 36.5968 27.6574C35.7945 26.2671 35.805 24.8088 36.6207 24.3374C37.4365 23.8663 38.704 24.5864 39.5063 25.9767C40.3086 27.3671 40.2982 28.8253 39.4824 29.2968C39.3135 29.3943 39.125 29.4409 38.9254 29.4409ZM37.178 24.4375C37.0203 24.4375 36.8731 24.4734 36.7426 24.5487C36.0568 24.9449 36.0862 26.2848 36.8079 27.5355C37.5296 28.7862 38.6748 29.4816 39.3605 29.0856C40.0462 28.6894 40.0169 27.3495 39.2951 26.0988C38.7108 25.0861 37.8489 24.4375 37.178 24.4375Z" fill="#1C3333"/>
<path d="M45.117 32.5781C45.8621 32.1476 45.8528 30.7358 45.0962 29.4247C44.3396 28.1135 43.1223 27.3996 42.3771 27.83C41.632 28.2604 41.6413 29.6723 42.3979 30.9834C43.1544 32.2946 44.3718 33.0085 45.117 32.5781Z" fill="#FF5823"/>
<path d="M44.621 32.8256C43.857 32.8256 42.9284 32.1444 42.2924 31.0421C41.4901 29.6517 41.5006 28.1935 42.3163 27.7221C43.1322 27.2513 44.3996 27.9711 45.2018 29.3614C46.0041 30.7517 45.9937 32.21 45.178 32.6814C45.009 32.779 44.8205 32.8256 44.621 32.8256ZM42.8736 27.8222C42.7159 27.8222 42.5688 27.858 42.4381 27.9334C41.7525 28.3296 41.7817 29.6693 42.5035 30.9201C43.2251 32.1709 44.3702 32.8663 45.0561 32.4702C45.7417 32.0741 45.7125 30.7343 44.9908 29.4835C44.4065 28.4708 43.5445 27.8222 42.8736 27.8222Z" fill="#1C3333"/>
<path d="M50.7479 35.7656C51.4931 35.3351 51.4838 33.9233 50.7272 32.6122C49.9706 31.301 48.7532 30.5871 48.0081 31.0175C47.263 31.4479 47.2723 32.8598 48.0288 34.1709C48.7854 35.4821 50.0028 36.196 50.7479 35.7656Z" fill="white"/>
<path d="M50.2517 36.0169C49.4878 36.0169 48.5592 35.3358 47.9231 34.2334C47.5468 33.5813 47.3373 32.8827 47.3333 32.2663C47.329 31.6249 47.547 31.1446 47.9471 30.9134C48.7629 30.4427 50.0302 31.1624 50.8326 32.5528C51.2089 33.2049 51.4184 33.9035 51.4224 34.5199C51.4267 35.1613 51.2087 35.6416 50.8086 35.8728C50.6397 35.9703 50.4512 36.0169 50.2517 36.0169ZM48.5043 31.0135C48.3466 31.0135 48.1995 31.0494 48.0688 31.1247C47.748 31.3101 47.5734 31.7149 47.5769 32.2649C47.5807 32.8397 47.7786 33.4955 48.1341 34.1116C48.8559 35.3625 50.001 36.0579 50.6866 35.6617C51.0074 35.4764 51.1821 35.0715 51.1785 34.5216C51.1747 33.9468 50.9768 33.291 50.6213 32.6748C50.0371 31.6621 49.1752 31.0135 48.5043 31.0135Z" fill="#1C3333"/>
</g>
<g clip-path="url(#clip4_379_10995)">
<path d="M123.714 112.129C124.075 112.731 124.266 113.421 124.264 114.123L124.189 135.534C124.189 135.907 123.995 136.213 123.716 136.405C123.393 136.627 121.454 137.78 121.013 138.042C121.303 137.851 121.505 137.538 121.506 137.157L121.581 115.746C121.583 115.015 121.377 114.313 121.005 113.71L123.714 112.129H123.714Z" fill="#1C3333"/>
<path d="M121.013 138.165C120.987 138.165 120.961 138.156 120.94 138.141C120.919 138.125 120.904 138.103 120.897 138.078C120.889 138.053 120.89 138.026 120.899 138.001C120.907 137.977 120.924 137.956 120.946 137.941C121.224 137.758 121.384 137.472 121.385 137.157L121.459 115.746C121.461 115.05 121.268 114.367 120.902 113.775C120.893 113.761 120.887 113.746 120.885 113.73C120.882 113.714 120.883 113.697 120.887 113.682C120.891 113.666 120.898 113.651 120.908 113.638C120.918 113.625 120.93 113.614 120.944 113.606L123.652 112.025C123.68 112.008 123.713 112.004 123.744 112.012C123.775 112.02 123.802 112.04 123.818 112.067C124.191 112.688 124.388 113.4 124.386 114.124L124.311 135.535C124.311 135.922 124.119 136.276 123.785 136.506C123.431 136.749 121.171 138.091 121.075 138.148C121.057 138.159 121.035 138.165 121.013 138.165L121.013 138.165ZM121.173 113.754C121.522 114.36 121.705 115.048 121.703 115.747L121.628 137.158C121.628 137.304 121.6 137.448 121.546 137.584C122.266 137.154 123.408 136.469 123.647 136.305C123.914 136.121 124.067 135.84 124.067 135.535L124.142 114.123C124.144 113.484 123.981 112.855 123.669 112.297L121.173 113.754Z" fill="#1C3333"/>
<path d="M121.005 113.71C120.663 113.156 120.187 112.697 119.621 112.374L25.2326 58.4284C25.0592 58.3281 24.8636 58.2722 24.6633 58.2658C24.463 58.2594 24.2642 58.3028 24.0848 58.3919C24.2103 58.3152 26.2306 57.08 26.5219 56.929C26.9922 56.6842 27.4382 56.5331 27.9147 56.8048L122.305 110.75C122.885 111.081 123.37 111.556 123.714 112.129L121.005 113.71H121.005Z" fill="#CFDEDB"/>
<path d="M121.005 113.832C120.985 113.832 120.964 113.826 120.946 113.816C120.928 113.806 120.913 113.792 120.902 113.774C120.57 113.237 120.109 112.792 119.561 112.479L25.1722 58.5338C24.848 58.3491 24.4712 58.3371 24.1386 58.5008C24.1105 58.5147 24.0781 58.5172 24.0481 58.5078C24.0182 58.4984 23.9931 58.4778 23.978 58.4504C23.9628 58.4229 23.9589 58.3907 23.9669 58.3604C23.9749 58.3301 23.9944 58.304 24.0211 58.2877C24.3818 58.0672 26.1861 56.9656 26.4656 56.8206C26.9333 56.5772 27.44 56.3937 27.9749 56.6987L122.365 110.644C122.963 110.986 123.463 111.476 123.818 112.066C123.826 112.08 123.832 112.095 123.834 112.111C123.836 112.127 123.835 112.143 123.831 112.159C123.827 112.174 123.82 112.189 123.811 112.202C123.801 112.215 123.789 112.226 123.775 112.234L121.066 113.815C121.048 113.826 121.027 113.832 121.005 113.832L121.005 113.832ZM24.7221 58.1457C24.9185 58.1604 25.1124 58.2193 25.293 58.3224L119.682 112.268C120.23 112.581 120.697 113.019 121.045 113.546L123.544 112.087C123.215 111.578 122.769 111.156 122.244 110.856L27.8542 56.9102C27.4437 56.6762 27.0615 56.7851 26.5781 57.0367C26.3838 57.1376 25.3824 57.7439 24.722 58.1457H24.7221Z" fill="#1C3333"/>
<path d="M23.4074 59.4775C23.4041 58.5464 24.4191 57.962 25.2322 58.4267L119.622 112.372C120.837 113.066 121.584 114.353 121.581 115.744L121.506 137.155C121.504 138.015 120.48 138.521 119.73 138.09L25.6145 84.0772C24.2536 83.2985 23.4129 81.8603 23.4074 80.3014V59.4775Z" fill="white"/>
<path d="M120.324 138.372C120.095 138.372 119.869 138.313 119.67 138.199L25.5539 84.186C24.1604 83.3887 23.2912 81.9016 23.2857 80.3052V59.4811C23.2841 59.0022 23.5314 58.5718 23.9474 58.3296C24.3677 58.0847 24.8707 58.0828 25.2929 58.3241L119.682 112.269C120.932 112.984 121.706 114.316 121.703 115.748L121.628 137.159C121.627 137.58 121.397 137.965 121.012 138.187C120.803 138.308 120.566 138.371 120.324 138.372ZM24.6248 58.3886C24.4297 58.389 24.2383 58.4413 24.0701 58.54C23.7302 58.7379 23.5281 59.0894 23.5294 59.4802V80.3047C23.5347 81.8141 24.3568 83.2205 25.6752 83.9747L119.791 137.988C120.124 138.179 120.545 138.175 120.89 137.976C121.203 137.795 121.384 137.497 121.385 137.158L121.459 115.747C121.463 114.403 120.735 113.152 119.562 112.481L25.1719 58.5356C25.0055 58.4397 24.8169 58.389 24.6248 58.3886Z" fill="#1C3333"/>
<path d="M100.239 107.076C100.25 106.237 101.162 105.72 101.888 106.143L116.644 114.6C117.499 115.088 118.024 115.993 118.022 116.972L117.969 132.036C117.968 132.641 117.248 132.997 116.72 132.694L101.07 123.854C100.756 123.673 100.495 123.412 100.315 123.097C100.135 122.782 100.043 122.425 100.048 122.063L100.239 107.076L100.239 107.076Z" fill="white"/>
<path d="M117.138 132.927C116.97 132.927 116.805 132.883 116.66 132.8L101.01 123.961C100.677 123.769 100.401 123.493 100.21 123.159C100.019 122.825 99.9214 122.446 99.9261 122.062L100.117 107.076C100.123 106.637 100.354 106.247 100.735 106.031C101.117 105.815 101.57 105.818 101.949 106.038L116.705 114.495C117.595 115.004 118.147 115.954 118.144 116.974L118.092 132.037C118.091 132.347 117.922 132.629 117.64 132.792C117.487 132.88 117.314 132.926 117.138 132.927L117.138 132.927ZM100.239 107.077L100.361 107.079L100.17 122.065C100.166 122.406 100.253 122.742 100.421 123.038C100.59 123.334 100.835 123.579 101.131 123.749L116.78 132.588C117.004 132.717 117.287 132.714 117.518 132.581C117.727 132.46 117.847 132.262 117.848 132.036L117.901 116.973C117.903 116.04 117.398 115.172 116.584 114.706L101.827 106.249C101.523 106.072 101.16 106.07 100.855 106.243C100.706 106.326 100.582 106.447 100.495 106.594C100.408 106.741 100.362 106.908 100.361 107.079L100.239 107.077L100.239 107.077Z" fill="#1C3333"/>
<path d="M111.357 127.733C111.335 127.733 111.313 127.727 111.295 127.716L106.672 124.969C106.658 124.961 106.645 124.951 106.636 124.938C106.626 124.925 106.619 124.91 106.615 124.895C106.611 124.879 106.61 124.863 106.612 124.847C106.614 124.831 106.62 124.816 106.628 124.802C106.636 124.788 106.647 124.776 106.66 124.766C106.673 124.757 106.688 124.75 106.703 124.746C106.719 124.742 106.735 124.741 106.751 124.744C106.767 124.746 106.782 124.752 106.796 124.76L111.419 127.506C111.442 127.52 111.46 127.541 111.47 127.565C111.48 127.59 111.481 127.618 111.474 127.643C111.467 127.669 111.452 127.692 111.431 127.708C111.409 127.724 111.383 127.733 111.357 127.733Z" fill="#1C3333"/>
<path d="M109.168 123.571C109.168 123.504 109.113 123.449 109.046 123.449C108.979 123.449 108.924 123.504 108.924 123.571V126.237C108.924 126.305 108.979 126.359 109.046 126.359C109.113 126.359 109.168 126.305 109.168 126.237V123.571Z" fill="#1C3333"/>
<path d="M110.595 124.025C109.836 124.025 109.043 123.701 109 123.683C108.962 123.666 105.696 122.116 105.711 118.077L105.696 115.943C105.696 115.927 105.699 115.911 105.705 115.896C105.711 115.881 105.72 115.868 105.732 115.857C105.743 115.845 105.756 115.836 105.771 115.83C105.786 115.824 105.801 115.82 105.817 115.82H105.818C105.851 115.82 105.881 115.833 105.904 115.856C105.927 115.878 105.94 115.909 105.94 115.941L105.955 118.077C105.941 121.956 109.066 123.445 109.097 123.459C109.106 123.463 110.398 123.991 111.175 123.687C112.118 123.319 112.112 122.429 112.111 122.391L112.136 119.668C112.136 119.636 112.149 119.605 112.172 119.582C112.195 119.56 112.226 119.547 112.258 119.547H112.259C112.275 119.547 112.291 119.551 112.305 119.557C112.32 119.563 112.333 119.572 112.345 119.584C112.356 119.595 112.365 119.609 112.371 119.623C112.377 119.638 112.38 119.654 112.38 119.67L112.355 122.389C112.355 122.396 112.369 123.482 111.263 123.914C111.059 123.994 110.829 124.025 110.595 124.025V124.025Z" fill="#1C3333"/>
<path d="M109.339 122.688L108.865 122.397C108.19 121.981 107.633 121.4 107.246 120.708C106.859 120.016 106.656 119.237 106.656 118.445V113.339C106.656 112.354 107.719 111.736 108.576 112.222L108.595 112.233C109.463 112.726 110.184 113.439 110.686 114.301C111.188 115.163 111.452 116.142 111.452 117.14V121.508C111.452 122.592 110.262 123.256 109.339 122.688Z" fill="#CFDEDB"/>
<path d="M110.064 123.021C109.792 123.021 109.52 122.945 109.275 122.795L108.801 122.503C107.403 121.643 106.534 120.089 106.534 118.447V113.342C106.534 112.836 106.795 112.381 107.233 112.126C107.671 111.872 108.195 111.869 108.636 112.119L108.655 112.13C110.455 113.152 111.574 115.073 111.574 117.142V121.51C111.574 122.064 111.285 122.556 110.801 122.826C110.576 122.953 110.323 123.02 110.064 123.021ZM107.941 112.178C107.74 112.178 107.539 112.231 107.356 112.337C106.994 112.548 106.778 112.923 106.778 113.342V118.448C106.778 120.005 107.602 121.48 108.929 122.296L109.403 122.587C109.798 122.831 110.277 122.841 110.682 122.614C111.088 122.388 111.33 121.975 111.33 121.511V117.143C111.33 115.161 110.259 113.321 108.535 112.342L108.515 112.331C108.34 112.231 108.142 112.178 107.941 112.178L107.941 112.178Z" fill="#1C3333"/>
</g>
<g clip-path="url(#clip5_379_10995)">
<path d="M73.1209 161.009C72.5382 161.29 68.7156 162.919 68.7156 162.919L42.8323 105.254L47.497 102.922L73.7648 157.569C73.9748 158.005 74.1194 158.471 74.1745 158.951C74.2641 159.733 74.0869 160.545 73.121 161.009L73.1209 161.009Z" fill="#1C3333"/>
<path d="M68.7156 163.044C68.692 163.044 68.669 163.038 68.6492 163.025C68.6295 163.012 68.6139 162.994 68.6042 162.972L42.7209 105.307C42.708 105.278 42.7067 105.245 42.7173 105.216C42.7279 105.186 42.7495 105.162 42.7776 105.148L47.4423 102.816C47.4567 102.808 47.4725 102.804 47.4887 102.803C47.5048 102.802 47.521 102.804 47.5363 102.809C47.5516 102.815 47.5658 102.823 47.5779 102.834C47.5899 102.844 47.5998 102.857 47.6067 102.872L73.8746 157.519C74.0991 157.985 74.2407 158.463 74.2955 158.94C74.4139 159.973 74.0363 160.707 73.1737 161.122C72.5952 161.401 68.9195 162.968 68.7633 163.035C68.7482 163.041 68.732 163.044 68.7156 163.044ZM42.9912 105.314L68.7776 162.763C69.4087 162.494 72.5497 161.152 73.0678 160.902C73.8374 160.532 74.1598 159.899 74.053 158.968C74.0014 158.518 73.8674 158.066 73.6547 157.625L47.4403 103.089L42.9911 105.314L42.9912 105.314Z" fill="#1C3333"/>
<path d="M43.4215 70.0267C36.371 54.2496 23.9208 45.6604 14.7587 49.7568C5.59537 53.8544 4.14821 71.995 11.1987 87.7722C18.2492 103.548 30.9835 111.296 40.1468 107.199C49.3089 103.102 50.4732 85.8026 43.4215 70.0267Z" fill="#FF5823"/>
<path d="M34.9499 108.412C31.7068 108.412 28.2411 107.275 24.814 105.041C19.3252 101.463 14.4505 95.3479 11.0875 87.8229C7.69612 80.2342 6.12509 71.6877 6.77711 64.375C7.09836 60.7724 7.92606 57.6692 9.23704 55.1515C10.6146 52.5065 12.4555 50.6542 14.7089 49.6465C19.2021 47.6379 24.6155 48.5945 29.9521 52.3404C35.3064 56.0988 40.1298 62.3635 43.5329 69.978C46.935 77.5893 48.5581 85.9818 47.986 93.0034C47.3956 100.248 44.6293 105.329 40.1967 107.312C38.5509 108.047 36.7861 108.412 34.9499 108.412V108.412ZM19.6042 48.8635C17.9249 48.8635 16.3134 49.1963 14.8085 49.8692C10.5106 51.7911 7.67174 57.0862 7.01997 64.3966C6.37149 71.6692 7.9352 80.1714 11.31 87.7234C14.6541 95.206 19.4971 101.284 24.9471 104.837C30.2428 108.289 35.6232 109.089 40.0972 107.089C44.4449 105.145 47.1601 100.135 47.7429 92.9835C48.3119 86.0014 46.6963 77.6524 43.3103 70.0775C39.925 62.5021 35.1312 56.2738 29.8121 52.54C26.344 50.1056 22.8477 48.8635 19.6042 48.8635Z" fill="#1C3333"/>
<path d="M39.9862 55.7012C42.906 58.9953 45.5661 63.1182 47.7142 67.9242C54.7646 83.7014 53.4821 101.175 44.32 105.273C43.6141 105.588 42.8862 105.834 42.1413 106.01C49.4405 100.419 49.9245 84.5758 43.4214 70.0291C41.4534 65.6249 39.0646 61.7809 36.444 58.6166L39.9862 55.7012Z" fill="#1C3333"/>
<path d="M42.1414 106.129C42.1159 106.129 42.0912 106.121 42.0706 106.106C42.05 106.091 42.0345 106.07 42.0264 106.046C42.0182 106.022 42.0178 105.996 42.0251 105.972C42.0324 105.948 42.0471 105.926 42.0672 105.91C49.2779 100.387 49.8239 84.6463 43.3102 70.0759C41.391 65.7805 39.0492 61.9503 36.3502 58.6911C36.3399 58.6788 36.3322 58.6645 36.3275 58.6492C36.3228 58.6338 36.3212 58.6177 36.3227 58.6018C36.3242 58.5858 36.3289 58.5703 36.3364 58.5561C36.3439 58.5419 36.3541 58.5294 36.3665 58.5192L39.9087 55.6039C39.9331 55.5839 39.9642 55.5741 39.9957 55.5765C40.0271 55.579 40.0563 55.5936 40.0773 55.6172C43.1172 59.0466 45.724 63.1695 47.8254 67.8712C51.2218 75.4715 52.8229 83.8963 52.2182 90.9853C51.9184 94.4999 51.1097 97.5264 49.8148 99.9805C48.4562 102.555 46.6241 104.372 44.3698 105.381C43.6612 105.697 42.9246 105.947 42.1695 106.126C42.1603 106.128 42.1508 106.129 42.1414 106.129V106.129ZM36.6159 58.63C39.2962 61.8856 41.6231 65.7024 43.5329 69.9763C49.9559 84.3437 49.533 99.8622 42.6574 105.746C43.2083 105.589 43.7472 105.392 44.2703 105.158C48.6243 103.211 51.3608 98.1702 51.9755 90.9648C52.5769 83.9156 50.9831 75.5347 47.603 67.9709C45.5298 63.3322 42.963 59.2604 39.9729 55.8672L36.6159 58.63Z" fill="#1C3333"/>
<path d="M36.444 58.6154C29.7799 50.5686 21.6165 46.9175 15.0623 49.6275C15.4073 49.4714 19.3969 47.6247 19.6305 47.5433C25.5557 45.4793 33.5625 48.453 39.9862 55.7L36.444 58.6154Z" fill="white"/>
<path d="M36.4442 58.7353C36.4262 58.7353 36.4085 58.7314 36.3922 58.7238C36.376 58.7161 36.3616 58.705 36.3502 58.6911C29.6012 50.5421 21.4618 47.1114 15.1088 49.7383C15.0793 49.7502 15.0463 49.7501 15.0169 49.7381C14.9874 49.726 14.9639 49.7029 14.9512 49.6736C14.9386 49.6444 14.9379 49.6114 14.9493 49.5817C14.9606 49.552 14.9831 49.5278 15.012 49.5145C15.097 49.4761 15.4036 49.3347 15.8207 49.1425C17.5568 48.3428 19.423 47.4846 19.5904 47.4263C25.7296 45.2876 33.7712 48.5028 40.0774 55.6172C40.0883 55.6295 40.0965 55.6438 40.1017 55.6593C40.1069 55.6749 40.1089 55.6913 40.1077 55.7076C40.1064 55.7239 40.1018 55.7398 40.0942 55.7544C40.0867 55.7689 40.0763 55.7818 40.0637 55.7922L36.5215 58.7075C36.4997 58.7255 36.4724 58.7353 36.4442 58.7353ZM19.5989 48.6208C21.5778 48.6208 23.6538 49.0727 25.7599 49.9737C29.4663 51.5592 33.1645 54.4863 36.4604 58.4421L39.8109 55.6845C33.5836 48.7107 25.6888 45.5598 19.6706 47.6565C19.5398 47.7021 18.0856 48.3687 16.8915 48.918C17.7679 48.7197 18.6729 48.6207 19.5989 48.6207V48.6208Z" fill="#1C3333"/>
<path d="M37.7045 102.479C30.1876 105.84 19.9922 99.1686 14.0976 85.9792C8.20289 72.7898 9.39293 57.8605 16.9126 54.5052C18.1299 53.962 18.8696 53.8648 19.4572 53.7715C13.7734 58.6301 13.1615 71.8594 18.5052 83.817C23.8586 95.7953 32.4835 102.563 39.651 101.195C39.651 101.195 38.4091 102.163 37.7044 102.479H37.7045Z" fill="white"/>
<path d="M33.6011 103.466C30.9199 103.466 28.0528 102.478 25.2237 100.539C20.804 97.5092 16.8132 92.3572 13.9862 86.0317C11.1552 79.6975 9.8311 72.5953 10.3531 66.5467C10.8806 60.4358 13.2533 56.0072 16.8628 54.3965C18.0331 53.8745 18.7619 53.7599 19.3476 53.668L19.4381 53.6538C19.4643 53.6497 19.4912 53.6542 19.5146 53.6667C19.538 53.6792 19.5567 53.6991 19.5678 53.7232C19.5789 53.7473 19.5819 53.7743 19.5762 53.8003C19.5706 53.8262 19.5566 53.8496 19.5365 53.8669C16.7915 56.2134 15.169 60.5718 14.9679 66.1393C14.7638 71.7868 16.0596 78.0481 18.6166 83.7699C21.2093 89.5712 24.6182 94.291 28.4747 97.4187C32.2539 100.484 36.1106 101.749 39.6284 101.078C39.6552 101.073 39.6831 101.077 39.7074 101.09C39.7317 101.103 39.7511 101.123 39.7624 101.148C39.7737 101.173 39.7763 101.201 39.7697 101.227C39.7632 101.254 39.7479 101.278 39.7263 101.294C39.6751 101.334 38.4645 102.275 37.7545 102.593C36.4481 103.177 35.0519 103.466 33.6014 103.466H33.6011ZM19.0661 53.9609C18.548 54.0508 17.9003 54.2007 16.9622 54.6191C13.4361 56.1926 11.1156 60.5475 10.5961 66.5675C10.0775 72.5763 11.3942 79.6344 14.2088 85.932C17.0177 92.2171 20.9785 97.333 25.3616 100.338C29.6484 103.276 34.0143 103.998 37.6548 102.37C38.0945 102.173 38.7593 101.708 39.1804 101.399C35.7252 101.883 31.9829 100.578 28.3211 97.6081C24.435 94.4562 21.0023 89.7055 18.394 83.8694C15.822 78.1142 14.5187 71.8143 14.7241 66.1304C14.9202 60.7068 16.4579 56.4083 19.0661 53.9609Z" fill="#1C3333"/>
<path d="M69.6837 160.888C69.6285 160.408 69.4841 159.942 69.274 159.506L43.0911 105.184C49.4686 98.9809 49.6293 83.9145 43.4215 70.0267C36.371 54.2496 23.9208 45.6604 14.7587 49.7568C5.59537 53.8544 4.14821 71.995 11.1987 87.7722C18.2492 103.548 30.9834 111.296 40.1467 107.2L66.3852 161.874C66.8965 162.939 68.0059 163.115 68.63 162.946C69.665 162.667 69.7731 161.67 69.6835 160.888L69.6837 160.888ZM14.0979 85.9807C8.20319 72.7914 9.39554 57.8679 16.913 54.5069C24.4292 51.1446 34.6203 58.1899 40.5138 71.3792C46.4085 84.5685 45.221 99.1188 37.7048 102.48C30.1874 105.842 19.9926 99.17 14.0979 85.9807Z" fill="#CFDEDB"/>
<path d="M68.1925 163.123C67.5479 163.123 66.7095 162.832 66.2753 161.927L40.0879 107.36C38.4736 108.063 36.7454 108.412 34.9499 108.412C31.7067 108.412 28.2412 107.276 24.8138 105.041C19.3252 101.463 14.4505 95.3479 11.0874 87.8229C7.69612 80.2342 6.12509 71.6877 6.77711 64.375C7.09836 60.7724 7.92606 57.6692 9.23704 55.1515C10.6146 52.5065 12.4555 50.6542 14.7089 49.6465C19.202 47.6379 24.6154 48.5945 29.9519 52.3404C35.3067 56.0991 40.1297 62.363 43.5328 69.978C49.7193 83.8183 49.5869 98.9379 43.2389 105.211L69.3837 159.454C69.6083 159.92 69.7499 160.398 69.8047 160.875C69.9415 162.069 69.5462 162.826 68.6619 163.065C68.5275 163.101 68.3671 163.123 68.1923 163.123H68.1925ZM40.1467 107.079C40.1922 107.079 40.2357 107.104 40.2566 107.148L66.4951 161.822C66.983 162.838 68.0443 162.98 68.5982 162.83C69.5482 162.573 69.6469 161.64 69.5625 160.903C69.5109 160.453 69.3769 160.001 69.1642 159.56L42.9813 105.238C42.9702 105.215 42.9666 105.189 42.9711 105.164C42.9755 105.139 42.9878 105.115 43.0061 105.098C49.3468 98.9302 49.4776 83.8748 43.3103 70.0774C39.925 62.502 35.1312 56.2737 29.8121 52.5399C24.5484 48.8449 19.2201 47.8964 14.8085 49.8691C10.5106 51.7911 7.67174 57.0862 7.01997 64.3966C6.37149 71.6692 7.9352 80.1715 11.31 87.7234C14.6541 95.206 19.4971 101.284 24.947 104.837C30.2426 108.289 35.6229 109.089 40.0969 107.089C40.1125 107.082 40.1294 107.078 40.1466 107.079H40.1467ZM33.6009 103.466C30.9196 103.466 28.0531 102.478 25.2241 100.539C20.8047 97.5091 16.8138 92.357 13.9868 86.0314C11.1561 79.6977 9.83224 72.5966 10.3547 66.5487C10.8823 60.4392 13.2547 56.0099 16.8635 54.3965C20.5631 52.7417 25.0126 53.5376 29.3926 56.6376C33.7947 59.7534 37.7839 64.9715 40.6253 71.3305C43.4547 77.661 44.7794 84.6942 44.2601 90.6269C44.0039 93.552 43.3282 96.0716 42.2516 98.1151C41.1237 100.256 39.6107 101.762 37.7548 102.592C36.4484 103.176 35.0516 103.466 33.601 103.466L33.6009 103.466ZM20.8777 53.7972C19.5074 53.7972 18.1921 54.0692 16.9627 54.6192C13.4372 56.1954 11.1171 60.5513 10.5973 66.5697C10.0784 72.5777 11.3949 79.6349 14.2091 85.9319C17.0182 92.217 20.9788 97.333 25.3616 100.338C28.1482 102.248 30.9687 103.221 33.6012 103.221C35.0185 103.221 36.3808 102.939 37.6549 102.369C41.1815 100.792 43.5004 96.5047 44.0168 90.6054C44.5327 84.713 43.2152 77.7237 40.4023 71.43C37.5785 65.1104 33.6182 59.9277 29.2514 56.8368C26.4083 54.8244 23.5397 53.7972 20.8777 53.7972Z" fill="#1C3333"/>
</g>
<defs>
<clipPath id="clip0_379_10995">
<rect width="52.3186" height="72.9289" fill="white" transform="translate(133.592 2.37891)"/>
</clipPath>
<clipPath id="clip1_379_10995">
<rect width="37.4401" height="76.5875" fill="white" transform="translate(50.1844 0.0214844)"/>
</clipPath>
<clipPath id="clip2_379_10995">
<rect width="102.93" height="102.93" fill="white" transform="translate(66.4451 20.7949)"/>
</clipPath>
<clipPath id="clip3_379_10995">
<rect width="117.564" height="164.151" fill="white" transform="translate(33.9771 19.459)"/>
</clipPath>
<clipPath id="clip4_379_10995">
<rect width="101.1" height="81.8316" fill="white" transform="translate(23.2857 56.5371)"/>
</clipPath>
<clipPath id="clip5_379_10995">
<rect width="67.6849" height="116.345" fill="white" transform="translate(6.63196 46.7793)"/>
</clipPath>
</defs>
</svg>
